<svg width="30" height="30" viewBox="0 0 30 30" fill="none" xmlns="http://www.w3.org/2000/svg">
<g clip-path="url(#clip0_1508_210)">
<path d="M13.7564 0L13.1555 0.806598L14.0103 1.45188C7.50231 1.86274 2.39655 6.46136 1.44 12.9328L2.43061 13.08C3.32155 7.05269 7.87041 2.90023 13.8992 2.46315L13.1555 3.02474L13.7564 3.83134L15.7597 2.31897C15.8219 2.27201 15.8724 2.21112 15.9071 2.14112C15.9419 2.07112 15.96 1.99393 15.96 1.91567C15.96 1.83741 15.9419 1.76022 15.9071 1.69022C15.8724 1.62022 15.8219 1.55933 15.7597 1.51237L13.7564 0Z" fill="#95ACB9"/>
<path d="M9.44146 20.9826C9.44146 20.9243 9.44146 20.8659 9.44702 20.807C8.85462 20.6009 8.34125 20.2164 7.97808 19.7066C7.6149 19.1969 7.41992 18.5872 7.42016 17.9621M9.44146 20.9826L7.42016 11.921C7.42016 11.9794 7.42016 12.0378 7.42572 12.0967M9.44146 20.9826C9.44218 21.6313 9.65244 22.2624 10.0411 22.7827C10.4298 23.303 10.9763 23.6849 11.5998 23.8718C12.2232 24.0587 12.8904 24.0407 13.5028 23.8205C13.9503 23.6596 14.351 23.3969 14.6748 23.0563L9.44146 20.9826ZM7.42016 17.9621C7.42016 17.9037 7.42016 17.8453 7.42572 17.7854M7.42016 17.9621L7.36412 17.9621M7.42016 17.9621L7.36411 17.9621L7.36412 17.9621M7.42572 17.7854C6.83375 17.579 6.32081 17.1944 5.95789 16.6848C5.59497 16.1752 5.40002 15.5659 5.40002 14.941C5.40002 14.3162 5.59497 13.7069 5.95789 13.1973C6.32081 12.6877 6.83375 12.3031 7.42572 12.0967M7.42572 17.7854L7.36412 17.9621M7.42572 17.7854L6.92786 17.7392C6.92013 17.8225 6.92015 17.9008 6.92016 17.9557L6.92016 17.9619C6.92016 17.9619 6.92016 17.9619 6.92016 17.962C6.92016 17.962 6.92016 17.9621 6.92016 17.9621L7.36412 17.9621M7.42572 12.0967L6.92793 12.1437C6.92013 12.061 6.92015 11.9822 6.92016 11.9277L6.92016 11.9212M7.42572 12.0967L6.92016 11.9212M6.92016 11.9212C6.92016 11.9211 6.92016 11.9211 6.92016 11.921V11.9212ZM17.5271 5.37988L17.5263 5.37988C16.9434 5.38031 16.3697 5.52451 15.8562 5.79972C15.5383 5.97008 15.2497 6.18738 14.9995 6.44323C14.629 6.06528 14.1758 5.77331 13.672 5.59214C12.959 5.33572 12.1821 5.31478 11.4562 5.53239C10.7303 5.75 10.0936 6.19472 9.64057 6.80114C9.21928 7.36509 8.97769 8.04095 8.94522 8.74119C8.39778 8.99757 7.92363 9.39119 7.57086 9.88633C7.17823 10.4374 6.95407 11.0889 6.92371 11.7621C6.37677 12.0187 5.90309 12.4123 5.55062 12.9072L5.95061 13.1921L5.55062 12.9072C5.12747 13.5014 4.90002 14.2121 4.90002 14.941C4.90002 15.67 5.12747 16.3807 5.55062 16.9749C5.90308 17.4698 6.37675 17.8634 6.92367 18.12C6.95384 18.7936 7.17803 19.4454 7.57086 19.9968C7.92363 20.4919 8.39778 20.8855 8.94522 21.1419C8.97769 21.8422 9.21928 22.518 9.64057 23.082C10.0936 23.6884 10.7303 24.1331 11.4562 24.3507C12.1821 24.5683 12.959 24.5474 13.672 24.291C14.176 24.1097 14.6294 23.8175 15 23.4393C15.3707 23.8175 15.824 24.1097 16.328 24.291C17.0411 24.5474 17.818 24.5683 18.5439 24.3507C19.2698 24.1331 19.9065 23.6884 20.3595 23.082C20.7808 22.518 21.0224 21.8421 21.0548 21.1419C21.6023 20.8855 22.0764 20.4919 22.4292 19.9968C22.8218 19.4457 23.046 18.7942 23.0763 18.121C23.6233 17.8644 24.097 17.4708 24.4494 16.9759C24.8726 16.3817 25.1 15.671 25.1 14.9421C25.1 14.2131 24.8726 13.5024 24.4494 12.9082L24.0422 13.1983L24.4494 12.9082C24.097 12.4133 23.6233 12.0197 23.0764 11.7631C23.0462 11.0895 22.822 10.4377 22.4292 9.88633C22.0764 9.3912 21.6023 8.99758 21.0548 8.7412C21.0144 7.86511 20.6472 7.03356 20.0226 6.41125C19.3603 5.75152 18.4628 5.38081 17.5271 5.37988Z" fill="#95ACB9" stroke="#95ACB9"/>
<mask id="path-3-inside-1_1508_210" fill="white">
<path d="M17.5266 5.87988C17.026 5.88025 16.5333 6.00411 16.0924 6.24041C15.6515 6.47672 15.2762 6.8181 15 7.2341C14.6401 6.6936 14.1152 6.28286 13.5028 6.06264C12.8904 5.84243 12.2232 5.82444 11.5998 6.01133C10.9763 6.19822 10.4298 6.58007 10.0411 7.10038C9.65244 7.6207 9.44218 8.25184 9.44146 8.90044C9.44146 8.95884 9.44146 9.01723 9.44702 9.07613C8.85462 9.28217 8.34125 9.66671 7.97808 10.1765C7.6149 10.6862 7.41992 11.2959 7.42016 11.921C7.42016 11.9794 7.42016 12.0378 7.42572 12.0967C6.83375 12.3031 6.32081 12.6877 5.95789 13.1973C5.59497 13.7069 5.40002 14.3162 5.40002 14.941C5.40002 15.5659 5.59497 16.1752 5.95789 16.6848C6.32081 17.1944 6.83375 17.579 7.42572 17.7854C7.42016 17.8453 7.42016 17.9037 7.42016 17.9621C7.41992 18.5872 7.6149 19.1969 7.97808 19.7066C8.34125 20.2164 8.85462 20.6009 9.44702 20.807C9.44146 20.8659 9.44146 20.9243 9.44146 20.9827C9.44218 21.6313 9.65244 22.2624 10.0411 22.7827C10.4298 23.303 10.9763 23.6849 11.5998 23.8718C12.2232 24.0587 12.8904 24.0407 13.5028 23.8205C14.1152 23.6002 14.6401 23.1895 15 22.649C15.3599 23.1895 15.8849 23.6002 16.4972 23.8205C17.1096 24.0407 17.7769 24.0587 18.4003 23.8718C19.0237 23.6849 19.5702 23.303 19.9589 22.7827C20.3476 22.2624 20.5579 21.6313 20.5586 20.9827C20.5586 20.9243 20.5586 20.8659 20.553 20.807C21.1454 20.6009 21.6588 20.2164 22.022 19.7066C22.3852 19.1969 22.5801 18.5872 22.5799 17.9621C22.5799 17.9037 22.5799 17.8453 22.5743 17.7864C23.1663 17.58 23.6792 17.1954 24.0422 16.6858C24.4051 16.1762 24.6 15.5669 24.6 14.9421C24.6 14.3172 24.4051 13.7079 24.0422 13.1983C23.6792 12.6887 23.1663 12.3041 22.5743 12.0977C22.5799 12.0378 22.5799 11.9794 22.5799 11.921C22.5801 11.2959 22.3852 10.6862 22.022 10.1765C21.6588 9.66671 21.1454 9.28217 20.553 9.07613C20.5586 9.01723 20.5586 8.95884 20.5586 8.90044C20.5578 8.09958 20.2381 7.33176 19.6697 6.76547C19.1012 6.19918 18.3305 5.88068 17.5266 5.87988ZM14.4947 13.4585C12.7594 13.6286 11.4628 14.6596 11.4628 15.9484H12.4734C12.4734 15.233 13.3572 14.6148 14.4947 14.4703V20.9827C14.496 21.2665 14.437 21.5473 14.3216 21.8068C14.2063 22.0664 14.0372 22.2986 13.8254 22.4885C13.6137 22.6783 13.364 22.8214 13.0928 22.9084C12.8216 22.9953 12.5351 23.0242 12.2519 22.9931C11.9687 22.962 11.6954 22.8716 11.4497 22.7279C11.2041 22.5842 10.9917 22.3903 10.8265 22.1591C10.6614 21.9278 10.5471 21.6644 10.4913 21.3861C10.4355 21.1078 10.4393 20.8209 10.5026 20.5442C10.5174 20.4778 10.5185 20.4092 10.5059 20.3424C10.4933 20.2756 10.4673 20.212 10.4294 20.1555C10.4193 20.1404 10.4026 20.1319 10.391 20.1178C10.7389 19.6217 10.9356 19.0361 10.9574 18.4313C10.9649 18.184 10.9212 17.9378 10.8289 17.7081C10.7367 17.4784 10.5979 17.2701 10.4213 17.0962L9.7204 17.8211C9.79831 17.9018 9.85864 17.9977 9.8976 18.1026C9.93656 18.2077 9.9533 18.3195 9.94678 18.4313C9.9187 18.897 9.74619 19.3426 9.45308 19.7065C9.07529 19.497 8.77625 19.1707 8.60119 18.7768C8.42614 18.383 8.3846 17.9431 8.48286 17.5236C8.49754 17.4574 8.49864 17.3889 8.4861 17.3223C8.47356 17.2556 8.44764 17.1922 8.40988 17.1358C8.37213 17.0794 8.32332 17.0311 8.2664 16.994C8.20947 16.9568 8.14559 16.9315 8.0786 16.9195C7.61165 16.8379 7.18853 16.5949 6.88365 16.2332C6.57876 15.8715 6.41162 15.4144 6.41162 14.9421C6.41162 14.4698 6.57876 14.0126 6.88365 13.6509C7.18853 13.2892 7.61165 13.0462 8.0786 12.9646C8.08466 12.9646 8.08972 12.9591 8.09628 12.9575C8.83962 13.104 9.44146 14.1768 9.44146 15.445H10.4521C10.4521 13.7152 9.60165 12.3137 8.4389 11.991C8.4389 11.9688 8.43081 11.9431 8.43081 11.921C8.43083 11.4486 8.59806 10.9914 8.90306 10.6297C9.20807 10.268 9.63132 10.025 10.0984 9.94354C10.1044 9.94354 10.1095 9.938 10.1161 9.93649C10.8609 10.0835 11.4628 11.1563 11.4628 12.4244H12.4734C12.4734 10.6946 11.6229 9.29311 10.4602 8.97041C10.4602 8.94826 10.4521 8.92259 10.4521 8.90044C10.4521 8.36637 10.6651 7.85418 11.0441 7.47654C11.4232 7.09889 11.9373 6.88673 12.4734 6.88673C13.0095 6.88673 13.5236 7.09889 13.9027 7.47654C14.2817 7.85418 14.4947 8.36637 14.4947 8.90044V13.4585ZM21.5692 11.921C21.5692 11.9431 21.5617 11.9683 21.5612 11.991C20.3984 12.3137 19.5479 13.7152 19.5479 15.445H20.5586C20.5586 14.1768 21.1604 13.104 21.9048 12.957C21.9113 12.957 21.9164 12.9631 21.9225 12.9641C22.3894 13.0457 22.8125 13.2887 23.1174 13.6504C23.4223 14.0121 23.5894 14.4692 23.5894 14.9415C23.5894 15.4138 23.4223 15.871 23.1174 16.2327C22.8125 16.5944 22.3894 16.8374 21.9225 16.919C21.8555 16.931 21.7916 16.9563 21.7347 16.9935C21.6777 17.0306 21.6289 17.0789 21.5912 17.1353C21.5534 17.1917 21.5275 17.2551 21.515 17.3218C21.5024 17.3884 21.5035 17.4569 21.5182 17.5231C21.6165 17.9426 21.5749 18.3825 21.3999 18.7763C21.2248 19.1702 20.9258 19.4965 20.548 19.706C20.2546 19.3423 20.0817 18.897 20.0533 18.4313C20.0467 18.3195 20.0635 18.2077 20.1025 18.1026C20.1414 17.9977 20.2017 17.9018 20.2797 17.8211L19.5788 17.0962C19.4021 17.2701 19.2634 17.4784 19.1711 17.7081C19.0789 17.9378 19.0351 18.184 19.0426 18.4313C19.0641 19.0359 19.2602 19.6215 19.6076 20.1178C19.5959 20.1319 19.5793 20.1404 19.5692 20.1555C19.5313 20.212 19.5052 20.2756 19.4926 20.3424C19.48 20.4092 19.4811 20.4778 19.4959 20.5442C19.5602 20.8212 19.5649 21.1087 19.5097 21.3877C19.4544 21.6667 19.3405 21.9308 19.1754 22.1628C19.0103 22.3947 18.7977 22.5892 18.5518 22.7334C18.3058 22.8777 18.0319 22.9683 17.7482 22.9995C17.4645 23.0307 17.1774 23.0017 16.9057 22.9143C16.6341 22.827 16.3841 22.6833 16.1722 22.4928C15.9603 22.3022 15.7914 22.0692 15.6764 21.8089C15.5615 21.5486 15.5032 21.267 15.5053 20.9827V18.9005C16.6721 18.5823 17.5266 17.1788 17.5266 15.445H16.516C16.516 16.5153 16.0865 17.4466 15.5053 17.802V8.90044C15.5053 8.36637 15.7183 7.85418 16.0974 7.47654C16.4764 7.09889 16.9906 6.88673 17.5266 6.88673C18.0627 6.88673 18.5769 7.09889 18.9559 7.47654C19.335 7.85418 19.5479 8.36637 19.5479 8.90044C19.5479 8.92259 19.5404 8.94776 19.5399 8.97041C18.3771 9.29311 17.5266 10.6946 17.5266 12.4244H18.5373C18.5373 11.1563 19.1391 10.0835 19.8835 9.93649C19.89 9.93649 19.8951 9.94253 19.9012 9.94354C20.3683 10.0249 20.7917 10.2678 21.0968 10.6295C21.4019 10.9912 21.5692 11.4485 21.5692 11.921Z"/>
</mask>
<path d="M17.5266 5.87988C17.026 5.88025 16.5333 6.00411 16.0924 6.24041C15.6515 6.47672 15.2762 6.8181 15 7.2341C14.6401 6.6936 14.1152 6.28286 13.5028 6.06264C12.8904 5.84243 12.2232 5.82444 11.5998 6.01133C10.9763 6.19822 10.4298 6.58007 10.0411 7.10038C9.65244 7.6207 9.44218 8.25184 9.44146 8.90044C9.44146 8.95884 9.44146 9.01723 9.44702 9.07613C8.85462 9.28217 8.34125 9.66671 7.97808 10.1765C7.6149 10.6862 7.41992 11.2959 7.42016 11.921C7.42016 11.9794 7.42016 12.0378 7.42572 12.0967C6.83375 12.3031 6.32081 12.6877 5.95789 13.1973C5.59497 13.7069 5.40002 14.3162 5.40002 14.941C5.40002 15.5659 5.59497 16.1752 5.95789 16.6848C6.32081 17.1944 6.83375 17.579 7.42572 17.7854C7.42016 17.8453 7.42016 17.9037 7.42016 17.9621C7.41992 18.5872 7.6149 19.1969 7.97808 19.7066C8.34125 20.2164 8.85462 20.6009 9.44702 20.807C9.44146 20.8659 9.44146 20.9243 9.44146 20.9827C9.44218 21.6313 9.65244 22.2624 10.0411 22.7827C10.4298 23.303 10.9763 23.6849 11.5998 23.8718C12.2232 24.0587 12.8904 24.0407 13.5028 23.8205C14.1152 23.6002 14.6401 23.1895 15 22.649C15.3599 23.1895 15.8849 23.6002 16.4972 23.8205C17.1096 24.0407 17.7769 24.0587 18.4003 23.8718C19.0237 23.6849 19.5702 23.303 19.9589 22.7827C20.3476 22.2624 20.5579 21.6313 20.5586 20.9827C20.5586 20.9243 20.5586 20.8659 20.553 20.807C21.1454 20.6009 21.6588 20.2164 22.022 19.7066C22.3852 19.1969 22.5801 18.5872 22.5799 17.9621C22.5799 17.9037 22.5799 17.8453 22.5743 17.7864C23.1663 17.58 23.6792 17.1954 24.0422 16.6858C24.4051 16.1762 24.6 15.5669 24.6 14.9421C24.6 14.3172 24.4051 13.7079 24.0422 13.1983C23.6792 12.6887 23.1663 12.3041 22.5743 12.0977C22.5799 12.0378 22.5799 11.9794 22.5799 11.921C22.5801 11.2959 22.3852 10.6862 22.022 10.1765C21.6588 9.66671 21.1454 9.28217 20.553 9.07613C20.5586 9.01723 20.5586 8.95884 20.5586 8.90044C20.5578 8.09958 20.2381 7.33176 19.6697 6.76547C19.1012 6.19918 18.3305 5.88068 17.5266 5.87988ZM14.4947 13.4585C12.7594 13.6286 11.4628 14.6596 11.4628 15.9484H12.4734C12.4734 15.233 13.3572 14.6148 14.4947 14.4703V20.9827C14.496 21.2665 14.437 21.5473 14.3216 21.8068C14.2063 22.0664 14.0372 22.2986 13.8254 22.4885C13.6137 22.6783 13.364 22.8214 13.0928 22.9084C12.8216 22.9953 12.5351 23.0242 12.2519 22.9931C11.9687 22.962 11.6954 22.8716 11.4497 22.7279C11.2041 22.5842 10.9917 22.3903 10.8265 22.1591C10.6614 21.9278 10.5471 21.6644 10.4913 21.3861C10.4355 21.1078 10.4393 20.8209 10.5026 20.5442C10.5174 20.4778 10.5185 20.4092 10.5059 20.3424C10.4933 20.2756 10.4673 20.212 10.4294 20.1555C10.4193 20.1404 10.4026 20.1319 10.391 20.1178C10.7389 19.6217 10.9356 19.0361 10.9574 18.4313C10.9649 18.184 10.9212 17.9378 10.8289 17.7081C10.7367 17.4784 10.5979 17.2701 10.4213 17.0962L9.7204 17.8211C9.79831 17.9018 9.85864 17.9977 9.8976 18.1026C9.93656 18.2077 9.9533 18.3195 9.94678 18.4313C9.9187 18.897 9.74619 19.3426 9.45308 19.7065C9.07529 19.497 8.77625 19.1707 8.60119 18.7768C8.42614 18.383 8.3846 17.9431 8.48286 17.5236C8.49754 17.4574 8.49864 17.3889 8.4861 17.3223C8.47356 17.2556 8.44764 17.1922 8.40988 17.1358C8.37213 17.0794 8.32332 17.0311 8.2664 16.994C8.20947 16.9568 8.14559 16.9315 8.0786 16.9195C7.61165 16.8379 7.18853 16.5949 6.88365 16.2332C6.57876 15.8715 6.41162 15.4144 6.41162 14.9421C6.41162 14.4698 6.57876 14.0126 6.88365 13.6509C7.18853 13.2892 7.61165 13.0462 8.0786 12.9646C8.08466 12.9646 8.08972 12.9591 8.09628 12.9575C8.83962 13.104 9.44146 14.1768 9.44146 15.445H10.4521C10.4521 13.7152 9.60165 12.3137 8.4389 11.991C8.4389 11.9688 8.43081 11.9431 8.43081 11.921C8.43083 11.4486 8.59806 10.9914 8.90306 10.6297C9.20807 10.268 9.63132 10.025 10.0984 9.94354C10.1044 9.94354 10.1095 9.938 10.1161 9.93649C10.8609 10.0835 11.4628 11.1563 11.4628 12.4244H12.4734C12.4734 10.6946 11.6229 9.29311 10.4602 8.97041C10.4602 8.94826 10.4521 8.92259 10.4521 8.90044C10.4521 8.36637 10.6651 7.85418 11.0441 7.47654C11.4232 7.09889 11.9373 6.88673 12.4734 6.88673C13.0095 6.88673 13.5236 7.09889 13.9027 7.47654C14.2817 7.85418 14.4947 8.36637 14.4947 8.90044V13.4585ZM21.5692 11.921C21.5692 11.9431 21.5617 11.9683 21.5612 11.991C20.3984 12.3137 19.5479 13.7152 19.5479 15.445H20.5586C20.5586 14.1768 21.1604 13.104 21.9048 12.957C21.9113 12.957 21.9164 12.9631 21.9225 12.9641C22.3894 13.0457 22.8125 13.2887 23.1174 13.6504C23.4223 14.0121 23.5894 14.4692 23.5894 14.9415C23.5894 15.4138 23.4223 15.871 23.1174 16.2327C22.8125 16.5944 22.3894 16.8374 21.9225 16.919C21.8555 16.931 21.7916 16.9563 21.7347 16.9935C21.6777 17.0306 21.6289 17.0789 21.5912 17.1353C21.5534 17.1917 21.5275 17.2551 21.515 17.3218C21.5024 17.3884 21.5035 17.4569 21.5182 17.5231C21.6165 17.9426 21.5749 18.3825 21.3999 18.7763C21.2248 19.1702 20.9258 19.4965 20.548 19.706C20.2546 19.3423 20.0817 18.897 20.0533 18.4313C20.0467 18.3195 20.0635 18.2077 20.1025 18.1026C20.1414 17.9977 20.2017 17.9018 20.2797 17.8211L19.5788 17.0962C19.4021 17.2701 19.2634 17.4784 19.1711 17.7081C19.0789 17.9378 19.0351 18.184 19.0426 18.4313C19.0641 19.0359 19.2602 19.6215 19.6076 20.1178C19.5959 20.1319 19.5793 20.1404 19.5692 20.1555C19.5313 20.212 19.5052 20.2756 19.4926 20.3424C19.48 20.4092 19.4811 20.4778 19.4959 20.5442C19.5602 20.8212 19.5649 21.1087 19.5097 21.3877C19.4544 21.6667 19.3405 21.9308 19.1754 22.1628C19.0103 22.3947 18.7977 22.5892 18.5518 22.7334C18.3058 22.8777 18.0319 22.9683 17.7482 22.9995C17.4645 23.0307 17.1774 23.0017 16.9057 22.9143C16.6341 22.827 16.3841 22.6833 16.1722 22.4928C15.9603 22.3022 15.7914 22.0692 15.6764 21.8089C15.5615 21.5486 15.5032 21.267 15.5053 20.9827V18.9005C16.6721 18.5823 17.5266 17.1788 17.5266 15.445H16.516C16.516 16.5153 16.0865 17.4466 15.5053 17.802V8.90044C15.5053 8.36637 15.7183 7.85418 16.0974 7.47654C16.4764 7.09889 16.9906 6.88673 17.5266 6.88673C18.0627 6.88673 18.5769 7.09889 18.9559 7.47654C19.335 7.85418 19.5479 8.36637 19.5479 8.90044C19.5479 8.92259 19.5404 8.94776 19.5399 8.97041C18.3771 9.29311 17.5266 10.6946 17.5266 12.4244H18.5373C18.5373 11.1563 19.1391 10.0835 19.8835 9.93649C19.89 9.93649 19.8951 9.94253 19.9012 9.94354C20.3683 10.0249 20.7917 10.2678 21.0968 10.6295C21.4019 10.9912 21.5692 11.4485 21.5692 11.921Z" stroke="white" stroke-width="4" mask="url(#path-3-inside-1_1508_210)"/>
<path d="M16.0646 27.5429L16.8121 26.9827L16.2081 26.1781L14.1946 27.6867C14.1321 27.7335 14.0814 27.7943 14.0464 27.8641C14.0115 27.9339 13.9933 28.0109 13.9933 28.089C13.9933 28.1671 14.0115 28.2441 14.0464 28.3139C14.0814 28.3837 14.1321 28.4445 14.1946 28.4913L16.2081 29.9999L16.8121 29.1953L15.9529 28.5516C22.494 28.1418 27.6257 23.5545 28.5871 17.0991L27.5914 16.9522C26.696 22.9647 22.124 27.1069 16.0646 27.5429ZM28.5503 14.0622C28.1401 7.52729 23.5485 2.40044 17.0874 1.43994L16.9394 2.43464C22.9581 3.32725 27.1042 7.8954 27.5406 13.9506L26.9799 13.2038L26.1745 13.8072L27.6846 15.8188C27.7315 15.8812 27.7922 15.9319 27.8621 15.9668C27.932 16.0017 28.0091 16.0199 28.0872 16.0199C28.1654 16.0199 28.2425 16.0017 28.3124 15.9668C28.3822 15.9319 28.443 15.8812 28.4899 15.8188L30 13.8072L29.1946 13.2038L28.5503 14.0622ZM2.4594 16.0777L3.02013 16.8245L3.8255 16.2211L2.31544 14.2095C2.26652 14.1501 2.20503 14.1023 2.13541 14.0695C2.06579 14.0366 1.98975 14.0196 1.91275 14.0196C1.83576 14.0196 1.75972 14.0366 1.69009 14.0695C1.62047 14.1023 1.55899 14.1501 1.51007 14.2095L0 16.2211L0.805369 16.8245L1.44966 15.9661C1.8599 22.501 6.45151 27.6279 12.9126 28.5884L13.0606 27.5937C7.04195 26.699 2.89581 22.1309 2.4594 16.0777Z" fill="#95ACB9"/>
</g>
<defs>
<clipPath id="clip0_1508_210">
<rect width="30" height="30" fill="white"/>
</clipPath>
</defs>
</svg>
