<svg width="30" height="30" viewBox="0 0 30 30" fill="none" xmlns="http://www.w3.org/2000/svg">
<path d="M2.14478 9C2.14478 7.94104 1.28284 7.0791 0.223881 7.0791C0.0985075 7.0791 0 6.9806 0 6.85522C0 6.73209 0.0985075 6.63134 0.223881 6.63134C1.28284 6.63134 2.14478 5.77164 2.14478 4.71045C2.14478 4.58731 2.24328 4.48657 2.36866 4.48657C2.49179 4.48657 2.59254 4.58731 2.59254 4.71045C2.59254 5.77164 3.45448 6.63134 4.51343 6.63134H8.73358C8.85672 6.63134 8.95746 6.73209 8.95746 6.85522C8.95746 6.9806 8.85672 7.0791 8.73358 7.0791H4.51343C3.45448 7.0791 2.59254 7.94104 2.59254 9C2.59254 9.12537 2.49179 9.22388 2.36866 9.22388C2.24328 9.22388 2.14478 9.12537 2.14478 9ZM9.36045 12.7612C9.36045 12.8866 9.2597 12.9851 9.13657 12.9851H6.65821C5.59925 12.9851 4.73731 13.847 4.73731 14.906C4.73731 15.0313 4.63657 15.1299 4.51343 15.1299C4.38806 15.1299 4.28955 15.0313 4.28955 14.906C4.28955 13.847 3.42761 12.9851 2.36866 12.9851C2.24328 12.9851 2.14478 12.8866 2.14478 12.7612C2.14478 12.6381 2.24328 12.5373 2.36866 12.5373C3.42761 12.5373 4.28955 11.6754 4.28955 10.6164C4.28955 10.4933 4.38806 10.3925 4.51343 10.3925C4.63657 10.3925 4.73731 10.4933 4.73731 10.6164C4.73731 11.6754 5.59925 12.5373 6.65821 12.5373H9.13657C9.2597 12.5373 9.36045 12.6381 9.36045 12.7612ZM26.4291 3H12.8776C11.4022 3 10.2045 4.2 10.2045 5.67761V19.2269C10.2045 20.7022 11.4022 21.9 12.8776 21.9H13.9545C13.9478 22.8604 13.8157 23.6799 13.4731 24.3336C13.4463 24.3873 13.4396 24.4478 13.4575 24.506C13.4754 24.5619 13.5157 24.609 13.5672 24.6358L19.1351 27.5418C19.1687 27.5597 19.2045 27.5664 19.2403 27.5664C19.2694 27.5664 19.2985 27.5619 19.3254 27.5507C20.8567 26.9104 21.544 26.3575 22.594 24.3493L23.8724 21.9H26.4291C27.9045 21.9 29.1045 20.7022 29.1045 19.2269V5.67985C29.1045 4.2 27.9045 3 26.4291 3ZM14.4493 8.15149C15.5082 8.15149 16.3701 7.28955 16.3701 6.2306C16.3701 6.10746 16.4709 6.00672 16.594 6.00672C16.7172 6.00672 16.8179 6.10746 16.8179 6.2306C16.8179 7.28955 17.6798 8.15149 18.7388 8.15149C18.8619 8.15149 18.9627 8.25224 18.9627 8.37537C18.9627 8.49851 18.8619 8.59925 18.7388 8.59925C17.6798 8.59925 16.8179 9.46119 16.8179 10.5201C16.8179 10.6433 16.7172 10.744 16.594 10.744C16.4709 10.744 16.3701 10.6433 16.3701 10.5201C16.3701 9.46119 15.5082 8.59925 14.4493 8.59925C14.3261 8.59925 14.2254 8.49851 14.2254 8.37537C14.2254 8.25448 14.3261 8.15149 14.4493 8.15149ZM26.0507 16.7575L23.5321 21.5843C23.5299 21.5888 23.5276 21.591 23.5276 21.5955L22.1955 24.1433C21.2261 26.0015 20.6239 26.5142 19.2493 27.0985L13.9679 24.3425C14.7291 22.641 14.3575 20.147 13.894 17.0216C13.7396 15.9784 13.5784 14.9015 13.4463 13.7552C13.4507 13.6769 13.4866 13.603 13.547 13.5493C13.6097 13.4933 13.6903 13.4664 13.7754 13.4731C14.6351 13.5403 15.3246 14.2119 15.4119 15.0694L15.7612 18.4478C15.7724 18.5463 15.8463 18.6269 15.9425 18.6448C16.0388 18.6649 16.1373 18.6179 16.1843 18.5284L20.1045 11.0127C20.3149 10.6119 20.7828 10.4239 21.1679 10.5828C21.3873 10.6724 21.553 10.8425 21.6336 11.0642C21.7119 11.2813 21.6963 11.5231 21.5888 11.7291L18.4679 17.7067C18.4119 17.8164 18.4545 17.9507 18.5642 18.009C18.6739 18.0649 18.8082 18.0224 18.8664 17.9127L21.9851 11.9373L22.7015 10.5672C22.8022 10.3701 22.9746 10.2269 23.1828 10.1597C23.3933 10.0925 23.6149 10.1127 23.8097 10.2134C24.2127 10.4261 24.3716 10.9254 24.159 11.3284L23.1716 13.2224V13.2246L20.8366 17.6955C20.8228 17.7215 20.8143 17.75 20.8116 17.7793C20.8088 17.8086 20.8119 17.8381 20.8207 17.8662C20.8294 17.8943 20.8436 17.9204 20.8625 17.943C20.8813 17.9656 20.9045 17.9842 20.9306 17.9978C20.9642 18.0157 21 18.0224 21.0336 18.0224C21.1164 18.0224 21.1925 17.9799 21.2328 17.9037L23.5679 13.4284C23.6709 13.2336 23.841 13.0903 24.0515 13.0254C24.2597 12.9582 24.4836 12.9761 24.6784 13.0791C24.8731 13.1799 25.0187 13.3522 25.0836 13.5627C25.1485 13.7731 25.1284 13.997 25.0276 14.1918L23.203 17.6843C23.147 17.7963 23.1896 17.9306 23.2993 17.9866C23.3328 18.0045 23.3664 18.0134 23.4022 18.0134C23.4828 18.0134 23.5612 17.9687 23.6015 17.8925L24.591 15.994C24.6613 15.8602 24.7669 15.7481 24.8964 15.6699C25.0258 15.5918 25.1742 15.5506 25.3254 15.5507C25.453 15.5507 25.5806 15.5799 25.7015 15.6425C26.1045 15.853 26.2612 16.3522 26.0507 16.7575ZM26.6373 7.19328C25.8784 7.19328 25.2627 7.81119 25.2627 8.56791C25.2627 8.65522 25.191 8.7291 25.1015 8.7291C25.0142 8.7291 24.9403 8.65746 24.9403 8.56791C24.9403 7.81119 24.3224 7.19328 23.5657 7.19328C23.4784 7.19328 23.4045 7.12164 23.4045 7.03209C23.4045 6.94478 23.4761 6.8709 23.5657 6.8709C24.3224 6.8709 24.9403 6.25299 24.9403 5.49627C24.9403 5.40896 25.0119 5.33507 25.1015 5.33507C25.1888 5.33507 25.2627 5.40672 25.2627 5.49627C25.2627 6.25299 25.8784 6.8709 26.6373 6.8709C26.7246 6.8709 26.7985 6.94254 26.7985 7.03209C26.7979 7.07466 26.7808 7.11532 26.7507 7.14543C26.7205 7.17554 26.6799 7.1927 26.6373 7.19328Z" fill="#95ACB9"/>
</svg>
