<svg width="30" height="30" viewBox="0 0 30 30" fill="none" xmlns="http://www.w3.org/2000/svg">
<path d="M15 9.84375C15.7407 9.84295 16.4683 9.6477 17.1099 9.27753C17.7515 8.90736 18.2848 8.37524 18.6562 7.73438L17.8444 7.26562C17.5564 7.76434 17.1423 8.17849 16.6436 8.46648C16.145 8.75446 15.5793 8.90613 15.0034 8.90625C14.4275 8.90637 13.8618 8.75493 13.363 8.46716C12.8642 8.17938 12.4499 7.7654 12.1618 7.26681C11.8736 6.76821 11.7218 6.20257 11.7215 5.6267C11.7212 5.05084 11.8724 4.48504 12.1601 3.98615C12.4477 3.48725 12.8615 3.07284 13.36 2.78455C13.8585 2.49625 14.4241 2.34423 15 2.34375C15.483 2.34523 15.9597 2.45411 16.3955 2.6625L15.4687 3.58922L19.4461 4.91484L18.1205 0.9375L17.0934 1.96453C16.5323 1.64304 15.9048 1.45484 15.2594 1.41448C14.614 1.37412 13.9679 1.48267 13.3711 1.73176C12.7743 1.98085 12.2428 2.3638 11.8176 2.85102C11.3924 3.33825 11.0849 3.9167 10.9188 4.5417C10.7527 5.1667 10.7326 5.82151 10.8599 6.45553C10.9872 7.08956 11.2586 7.68583 11.653 8.19828C12.0475 8.71073 12.5545 9.12564 13.1348 9.41096C13.7151 9.69627 14.3533 9.84435 15 9.84375Z" fill="#95ACB9"/>
<path d="M14.5312 5.89969L13.2623 7.16859L13.9252 7.83141L15.3314 6.42516C15.4193 6.33727 15.4687 6.21806 15.4687 6.09375V4.21875H14.5312V5.89969ZM6.75 13.4897C6.62721 12.9132 6.56438 12.3255 6.5625 11.7361H5.625C5.6258 12.392 5.69492 13.046 5.83125 13.6875L6.75 13.4897ZM21.8081 6.73453L22.5647 6.18047C22.1774 5.65283 21.7365 5.16679 21.2489 4.73016L20.625 5.42859C21.0636 5.82165 21.4602 6.25932 21.8081 6.73453ZM9.33891 5.46234L8.70891 4.76766C8.22401 5.20724 7.78604 5.69595 7.40203 6.22594L8.16094 6.77625C8.50691 6.29857 8.90169 5.85822 9.33891 5.46234ZM7.28156 8.30391L6.42469 7.92469C6.15945 8.52358 5.95802 9.14875 5.82375 9.78984L6.74109 9.98203C6.86198 9.40527 7.04313 8.84281 7.28156 8.30391ZM24.1645 9.73312C24.0261 9.09306 23.8207 8.46933 23.5519 7.87219L22.6969 8.25703C22.9395 8.79402 23.1249 9.35509 23.25 9.93094L24.1645 9.73312ZM23.2547 13.4723L24.172 13.6664C24.3082 13.0202 24.3763 12.3614 24.375 11.7009L23.4375 11.7187C23.4378 12.3081 23.3765 12.8958 23.2547 13.4723Z" fill="#95ACB9"/>
<path d="M15 14.5312C15.9061 14.5312 16.6406 13.7967 16.6406 12.8906C16.6406 11.9845 15.9061 11.25 15 11.25C14.0939 11.25 13.3594 11.9845 13.3594 12.8906C13.3594 13.7967 14.0939 14.5312 15 14.5312Z" fill="#95ACB9"/>
<path d="M6.5625 17.3438L10.3125 18.2812L12.6562 16.875V21.0938L11.25 29.0625H13.5938L15 22.0312L16.4062 29.0625H18.75L17.3438 21.0938V16.875L19.6875 18.2812L23.4375 17.3438L22.9688 15.9375L19.6875 16.4062L18.1673 15.3548C17.6399 14.8275 16.9247 14.5313 16.1789 14.5312H13.8211C13.0753 14.5313 12.3601 14.8275 11.8327 15.3548L10.3125 16.4062L7.03125 15.9375L6.5625 17.3438Z" fill="#95ACB9"/>
</svg>
