<svg width="30" height="30" viewBox="0 0 30 30" fill="none" xmlns="http://www.w3.org/2000/svg">
<path fill-rule="evenodd" clip-rule="evenodd" d="M24.0674 14.4639H29.397C29.729 14.4639 30 14.7349 30 15.0669V18.8315C30 19.1636 29.729 19.4346 29.397 19.4346H24.0674C23.7354 19.4346 23.4644 19.1636 23.4644 18.8315V15.0645C23.4644 14.7349 23.7354 14.4639 24.0674 14.4639ZM3.26904 12.6499C5.07568 12.6499 6.53809 14.1147 6.53809 15.9189C6.53809 17.7231 5.07324 19.188 3.26904 19.188C1.46484 19.188 0 17.7256 0 15.9214C0 14.1172 1.46484 12.6499 3.26904 12.6499ZM2.81738 14.2759H3.21777C3.29102 14.2759 3.35205 14.3369 3.35205 14.4102V15.9507H4.7583C4.83154 15.9507 4.89258 16.0117 4.89258 16.085V16.4854C4.89258 16.5586 4.83154 16.6196 4.7583 16.6196H2.68555V14.4126C2.68311 14.3345 2.74414 14.2759 2.81738 14.2759ZM3.26904 13.3945C4.66553 13.3945 5.7959 14.5249 5.7959 15.9214C5.7959 17.3179 4.66553 18.4482 3.26904 18.4482C1.87256 18.4482 0.742188 17.3179 0.742188 15.9214C0.742188 14.5249 1.875 13.3945 3.26904 13.3945ZM12.8198 22.9868C13.645 25.4185 17.0996 25.5088 17.876 22.9868C18.7915 23.8071 21.4941 23.9756 22.5 24.5371C22.8174 24.7129 23.1055 24.9424 23.3374 25.2451C23.4912 25.4502 23.6987 25.8286 23.855 26.251H6.83838C6.99463 25.8286 7.20215 25.4502 7.35596 25.2451C7.58789 24.9399 7.87354 24.7153 8.19336 24.5371C9.20166 23.9731 11.9043 23.8071 12.8198 22.9868ZM16.2842 7.8208C16.4282 7.79639 16.4453 7.79883 16.5649 7.82812V5.30615L13.8306 6.04102V9.13428C13.833 9.15137 13.833 9.1709 13.833 9.18799C13.833 9.62744 13.252 10.0645 12.6831 10.1621C12.1143 10.2598 11.6528 9.98389 11.6528 9.54443C11.6528 9.10498 12.1143 8.66797 12.6831 8.57031C12.8979 8.53369 13.0957 8.55078 13.2617 8.60693V4.88135H13.2861L17.1338 4V8.23584C17.1411 8.27002 17.1436 8.30176 17.1436 8.33594C17.1436 8.70215 16.7578 9.06836 16.2842 9.14893C15.8081 9.23193 15.4248 9 15.4248 8.63379C15.4248 8.26758 15.8081 7.90137 16.2842 7.8208ZM12.1851 17.9478C12.0117 17.9551 11.8823 17.9917 11.792 18.0503C11.7407 18.0869 11.7041 18.1284 11.6772 18.1821C11.6504 18.2407 11.6357 18.3115 11.6382 18.3921C11.6455 18.6289 11.77 18.9414 12.0093 19.3003L12.0117 19.3052L12.793 20.5478C13.1055 21.0459 13.4351 21.5537 13.8452 21.9272C14.2358 22.2861 14.7144 22.5278 15.3442 22.5303C16.0254 22.5327 16.5259 22.2812 16.9312 21.9004C17.3535 21.5073 17.6831 20.9653 18.0127 20.4282L18.8916 18.978C19.0552 18.6045 19.1162 18.353 19.0796 18.2041C19.0576 18.1162 18.96 18.0723 18.7964 18.0649C18.7598 18.0625 18.7256 18.0625 18.6914 18.0649C18.6499 18.0649 18.6108 18.0674 18.5669 18.0723C18.5449 18.0747 18.5205 18.0723 18.4985 18.0674C18.4204 18.0723 18.3398 18.0674 18.2568 18.0552L18.5547 16.8467C16.3184 17.2007 14.6436 15.5381 12.2778 16.5122L12.4463 17.96C12.3608 17.9624 12.2681 17.96 12.1851 17.9478ZM19.0991 17.667C19.3164 17.7329 19.4556 17.8721 19.5117 18.0942C19.5752 18.3384 19.5068 18.6875 19.2969 19.1636C19.292 19.1709 19.2896 19.1807 19.2847 19.188L18.3936 20.6553C18.0493 21.2217 17.7002 21.7881 17.2363 22.2227C16.7529 22.6719 16.1597 22.9722 15.3491 22.9722C14.5923 22.9697 14.021 22.6816 13.5522 22.252C13.1006 21.8369 12.7539 21.3047 12.4243 20.7822L11.6431 19.5395C11.3574 19.1123 11.2085 18.7241 11.2012 18.4043C11.1963 18.2529 11.2207 18.1162 11.2769 17.9966C11.3354 17.8696 11.4258 17.7671 11.5454 17.6841C11.6016 17.645 11.665 17.6133 11.7358 17.5889C11.6846 16.915 11.665 16.1899 11.6968 15.4795C11.7139 15.311 11.7456 15.1401 11.792 14.9741C11.9922 14.2588 12.4927 13.9341 13.1128 13.5386C13.4546 13.3213 13.8306 13.1577 14.2188 13.0454C14.2896 13.0259 15.2612 10.7261 18.3813 14.1001C18.8159 14.5713 19.0869 14.9448 19.1479 15.7676L19.0991 17.667ZM3.95264 25.521C4.08203 25.8066 3.95264 26.1436 3.66699 26.2705C3.38135 26.3999 3.04443 26.2705 2.91748 25.9849C2.6001 25.2744 2.33887 24.5347 2.14844 23.7729C1.96045 23.0259 1.83594 22.2495 1.77979 21.4561C1.77002 21.3169 1.7627 21.1558 1.75537 20.9727C1.74805 20.7773 1.74561 20.6162 1.74561 20.4893C1.74561 20.1768 2.00195 19.9204 2.31445 19.9204C2.62695 19.9204 2.8833 20.1768 2.8833 20.4893C2.8833 20.6748 2.88574 20.8213 2.88818 20.9312C2.89307 21.0581 2.90039 21.207 2.9126 21.373C2.96387 22.0981 3.07861 22.8086 3.25195 23.4922C3.42773 24.1978 3.66211 24.8765 3.95264 25.521ZM6.46729 11.8125C6.24756 12.0347 5.88623 12.0347 5.66406 11.8149C5.44189 11.5952 5.44189 11.2339 5.66162 11.0117C6.2085 10.4648 6.92383 9.85937 7.68555 9.33203C8.35449 8.8706 9.0625 8.46533 9.729 8.20654C10.022 8.0918 10.3516 8.23828 10.4614 8.52881C10.5762 8.82178 10.4297 9.15137 10.1392 9.26123C9.56055 9.48584 8.93311 9.84473 8.33008 10.2622C7.62939 10.7505 6.96777 11.3096 6.46729 11.8125ZM20.2222 9.28564C19.9365 9.15625 19.8071 8.82178 19.9365 8.53613C20.0659 8.25049 20.4004 8.12109 20.686 8.25049C21.7261 8.72168 22.7002 9.32227 23.5791 10.0303C24.4653 10.7432 25.2588 11.5684 25.9399 12.4839C26.1279 12.7354 26.0742 13.0894 25.8203 13.2773C25.5664 13.4653 25.2148 13.4116 25.0269 13.1577C24.4043 12.3203 23.6768 11.5684 22.8662 10.9141C22.0654 10.2646 21.1768 9.71777 20.2222 9.28564ZM27.4194 21.4146C27.4414 21.1021 27.7124 20.8652 28.0249 20.8872C28.3374 20.9092 28.5742 21.1802 28.5522 21.4927C28.4937 22.269 28.3691 23.0234 28.1885 23.7534C28.0005 24.5005 27.7515 25.2231 27.4463 25.9141C27.3193 26.2021 26.9849 26.3315 26.6968 26.2046C26.4087 26.0776 26.2793 25.7432 26.4062 25.4551C26.687 24.8203 26.9165 24.1587 27.085 23.4775C27.2559 22.8135 27.3682 22.1226 27.4194 21.4146ZM26.3672 15.8262L27.832 16.8467C27.8564 16.8613 27.8784 16.8833 27.8955 16.9077C27.9639 17.0078 27.9395 17.1421 27.8394 17.2129L26.3818 18.2212C26.3452 18.2529 26.2964 18.27 26.2427 18.27C26.1206 18.27 26.0229 18.1724 26.0229 18.0503V16.0044C26.0229 15.9604 26.0352 15.9165 26.062 15.8799C26.1328 15.7798 26.2695 15.7554 26.3672 15.8262Z" fill="#95ACB9"/>
</svg>
