<svg width="30" height="30" viewBox="0 0 30 30" fill="none" xmlns="http://www.w3.org/2000/svg">
<g clip-path="url(#clip0_1508_330)">
<path d="M17.9297 6.5625C18.1886 6.5625 18.3984 6.35263 18.3984 6.09375C18.3984 5.83487 18.1886 5.625 17.9297 5.625C17.6708 5.625 17.4609 5.83487 17.4609 6.09375C17.4609 6.35263 17.6708 6.5625 17.9297 6.5625Z" fill="#95ACB9"/>
<path d="M21.9141 8.20312C22.1729 8.20312 22.3828 7.99326 22.3828 7.73438C22.3828 7.47549 22.1729 7.26562 21.9141 7.26562C21.6552 7.26562 21.4453 7.47549 21.4453 7.73438C21.4453 7.99326 21.6552 8.20312 21.9141 8.20312Z" fill="#95ACB9"/>
<path d="M12.0703 4.21875C12.3292 4.21875 12.5391 4.00888 12.5391 3.75C12.5391 3.49112 12.3292 3.28125 12.0703 3.28125C11.8114 3.28125 11.6016 3.49112 11.6016 3.75C11.6016 4.00888 11.8114 4.21875 12.0703 4.21875Z" fill="#95ACB9"/>
<path d="M8.08594 5.85938C8.34482 5.85938 8.55469 5.64951 8.55469 5.39062C8.55469 5.13174 8.34482 4.92188 8.08594 4.92188C7.82705 4.92188 7.61719 5.13174 7.61719 5.39062C7.61719 5.64951 7.82705 5.85938 8.08594 5.85938Z" fill="#95ACB9"/>
<path d="M10.1953 11.7187C10.1958 12.0334 10.2264 12.3474 10.2867 12.6562H15.7406C15.6305 12.4992 15.4102 12.4172 15.0141 12.3C14.5594 12.1641 13.9945 11.9977 13.6805 11.4539C13.5466 11.2286 13.4763 10.9712 13.4771 10.7091C13.4779 10.447 13.5498 10.1901 13.6852 9.96562C13.7919 9.80088 13.9305 9.65904 14.0926 9.54838C14.2548 9.43773 14.4374 9.36046 14.6297 9.32109V8.90625C14.6297 8.78193 14.6791 8.6627 14.767 8.57479C14.8549 8.48688 14.9741 8.4375 15.0984 8.4375C15.2228 8.4375 15.342 8.48688 15.4299 8.57479C15.5178 8.6627 15.5672 8.78193 15.5672 8.90625V9.3164C15.7679 9.36297 15.9585 9.44556 16.1297 9.56015C16.2329 9.62946 16.3043 9.73692 16.3283 9.85889C16.3522 9.98087 16.3267 10.1074 16.2574 10.2105C16.1881 10.3137 16.0807 10.3852 15.9587 10.4091C15.8367 10.4331 15.7102 10.4076 15.607 10.3383C15.5263 10.2845 15.4366 10.2456 15.3422 10.2234C15.0258 10.1625 14.6367 10.2117 14.4797 10.4648C14.4351 10.5442 14.4125 10.6341 14.4141 10.7251C14.4158 10.8161 14.4416 10.9051 14.4891 10.9828C14.6086 11.1891 14.8687 11.2781 15.2812 11.4C15.7828 11.55 16.4695 11.7539 16.7016 12.5086C16.7143 12.5571 16.7237 12.6064 16.7297 12.6562H19.9477C20.0784 11.9828 20.0669 11.2894 19.914 10.6207C19.761 9.95193 19.4698 9.32255 19.0593 8.77294C18.6487 8.22333 18.1278 7.76563 17.5299 7.42921C16.932 7.0928 16.2704 6.8851 15.5875 6.81946C14.9046 6.75381 14.2156 6.83167 13.5646 7.04802C12.9135 7.26438 12.3149 7.61446 11.8072 8.07579C11.2994 8.53713 10.8938 9.09952 10.6162 9.72688C10.3386 10.3542 10.1952 11.0327 10.1953 11.7187Z" fill="#95ACB9"/>
<path d="M24.8556 5.50634L17.6353 2.41947C17.5192 2.36961 17.3941 2.34387 17.2677 2.34382C17.0823 2.34413 16.9011 2.39916 16.7468 2.50203C16.5925 2.60489 16.472 2.75101 16.4004 2.92206L16.0025 3.86623L16.5122 5.07577L17.2683 3.28215L24.4882 6.36891C24.4902 6.37127 24.4915 6.37414 24.4919 6.37719C24.4924 6.38023 24.4919 6.38334 24.4907 6.38616L21.8484 12.6566H22.8657L25.3546 6.75023C25.4524 6.51901 25.4549 6.25849 25.3614 6.02548C25.2679 5.79247 25.0861 5.60585 24.8556 5.50634ZM6.32813 14.5248V24.8222C6.32583 24.9904 6.36869 25.1562 6.45223 25.3022C6.53578 25.4483 6.65696 25.5692 6.80315 25.6525L14.6078 29.9005C14.7282 29.9658 14.863 30 15 30C15.137 30 15.2718 29.9658 15.3922 29.9005L23.1969 25.6525C23.343 25.5692 23.4642 25.4483 23.5478 25.3022C23.6313 25.1562 23.6742 24.9904 23.6719 24.8222V14.5248C23.68 14.2864 23.5933 14.0546 23.4307 13.88C23.2682 13.7055 23.043 13.6026 22.8047 13.5939H7.19532C6.95699 13.6026 6.73185 13.7055 6.56928 13.88C6.40671 14.0546 6.31999 14.2864 6.32813 14.5248ZM20.9766 15.938H21.0938C21.2181 15.938 21.3373 15.9874 21.4252 16.0753C21.5131 16.1632 21.5625 16.2824 21.5625 16.4067C21.5625 16.5311 21.5131 16.6503 21.4252 16.7382C21.3373 16.8261 21.2181 16.8755 21.0938 16.8755H20.9766C20.8522 16.8755 20.733 16.8261 20.6451 16.7382C20.5572 16.6503 20.5078 16.5311 20.5078 16.4067C20.5078 16.2824 20.5572 16.1632 20.6451 16.0753C20.733 15.9874 20.8522 15.938 20.9766 15.938ZM19.2675 15.938H19.5117C19.6361 15.938 19.7553 15.9874 19.8432 16.0753C19.9311 16.1632 19.9805 16.2824 19.9805 16.4067C19.9805 16.5311 19.9311 16.6503 19.8432 16.7382C19.7553 16.8261 19.6361 16.8755 19.5117 16.8755H19.2675C19.1432 16.8755 19.024 16.8261 18.936 16.7382C18.8481 16.6503 18.7987 16.5311 18.7987 16.4067C18.7987 16.2824 18.8481 16.1632 18.936 16.0753C19.024 15.9874 19.1432 15.938 19.2675 15.938ZM17.5587 15.938H17.8027C17.927 15.938 18.0462 15.9874 18.1341 16.0753C18.222 16.1632 18.2714 16.2824 18.2714 16.4067C18.2714 16.5311 18.222 16.6503 18.1341 16.7382C18.0462 16.8261 17.927 16.8755 17.8027 16.8755H17.5587C17.4344 16.8755 17.3151 16.8261 17.2272 16.7382C17.1393 16.6503 17.0899 16.5311 17.0899 16.4067C17.0899 16.2824 17.1393 16.1632 17.2272 16.0753C17.3151 15.9874 17.4344 15.938 17.5587 15.938ZM17.3438 24.8445H17.4609C17.5853 24.8445 17.7045 24.8939 17.7924 24.9818C17.8803 25.0697 17.9297 25.1889 17.9297 25.3132C17.9297 25.4376 17.8803 25.5568 17.7924 25.6447C17.7045 25.7326 17.5853 25.782 17.4609 25.782H17.3438C17.2194 25.782 17.1002 25.7326 17.0123 25.6447C16.9244 25.5568 16.875 25.4376 16.875 25.3132C16.875 25.1889 16.9244 25.0697 17.0123 24.9818C17.1002 24.8939 17.2194 24.8445 17.3438 24.8445ZM15.8496 15.938H16.0938C16.2182 15.938 16.3374 15.9874 16.4253 16.0753C16.5132 16.1632 16.5626 16.2824 16.5626 16.4067C16.5626 16.5311 16.5132 16.6503 16.4253 16.7382C16.3374 16.8261 16.2182 16.8755 16.0938 16.8755H15.8496C15.7253 16.8755 15.6061 16.8261 15.5182 16.7382C15.4302 16.6503 15.3809 16.5311 15.3809 16.4067C15.3809 16.2824 15.4302 16.1632 15.5182 16.0753C15.6061 15.9874 15.7253 15.938 15.8496 15.938ZM15.7853 24.8445H16.0078C16.1321 24.8445 16.2513 24.8939 16.3392 24.9818C16.4272 25.0697 16.4765 25.1889 16.4765 25.3132C16.4765 25.4376 16.4272 25.5568 16.3392 25.6447C16.2513 25.7326 16.1321 25.782 16.0078 25.782H15.7853C15.661 25.782 15.5417 25.7326 15.4538 25.6447C15.3659 25.5568 15.3165 25.4376 15.3165 25.3132C15.3165 25.1889 15.3659 25.0697 15.4538 24.9818C15.5417 24.8939 15.661 24.8445 15.7853 24.8445ZM14.4493 25.782H14.2266C14.1023 25.782 13.9831 25.7326 13.8951 25.6447C13.8072 25.5568 13.7579 25.4376 13.7579 25.3132C13.7579 25.1889 13.8072 25.0697 13.8951 24.9818C13.9831 24.8939 14.1023 24.8445 14.2266 24.8445H14.4493C14.5736 24.8445 14.6929 24.8939 14.7808 24.9818C14.8687 25.0697 14.9181 25.1889 14.9181 25.3132C14.9181 25.4376 14.8687 25.5568 14.7808 25.6447C14.6929 25.7326 14.5736 25.782 14.4493 25.782ZM14.1406 15.938H14.3848C14.5091 15.938 14.6283 15.9874 14.7162 16.0753C14.8042 16.1632 14.8535 16.2824 14.8535 16.4067C14.8535 16.5311 14.8042 16.6503 14.7162 16.7382C14.6283 16.8261 14.5091 16.8755 14.3848 16.8755H14.1406C14.0162 16.8755 13.897 16.8261 13.8091 16.7382C13.7212 16.6503 13.6718 16.5311 13.6718 16.4067C13.6718 16.2824 13.7212 16.1632 13.8091 16.0753C13.897 15.9874 14.0162 15.938 14.1406 15.938ZM13.3594 25.3132C13.3594 25.4375 13.31 25.5568 13.2221 25.6447C13.1342 25.7326 13.015 25.782 12.8906 25.782H12.7734C12.6491 25.782 12.5299 25.7326 12.442 25.6447C12.3541 25.5568 12.3047 25.4376 12.3047 25.3132C12.3047 25.1889 12.3541 25.0697 12.442 24.9818C12.5299 24.8939 12.6491 24.8445 12.7734 24.8445H12.8906C13.015 24.8445 13.1342 24.8939 13.2221 24.9818C13.31 25.0697 13.3594 25.1889 13.3594 25.3132ZM12.4317 15.938H12.6757C12.8 15.938 12.9193 15.9874 13.0072 16.0753C13.0951 16.1632 13.1445 16.2824 13.1445 16.4067C13.1445 16.5311 13.0951 16.6503 13.0072 16.7382C12.9193 16.8261 12.8 16.8755 12.6757 16.8755H12.4317C12.3074 16.8755 12.1882 16.8261 12.1003 16.7382C12.0124 16.6503 11.963 16.5311 11.963 16.4067C11.963 16.2824 12.0124 16.1632 12.1003 16.0753C12.1882 15.9874 12.3074 15.938 12.4317 15.938ZM10.7227 15.938H10.9669C11.0912 15.938 11.2104 15.9874 11.2984 16.0753C11.3863 16.1632 11.4356 16.2824 11.4356 16.4067C11.4356 16.5311 11.3863 16.6503 11.2984 16.7382C11.2104 16.8261 11.0912 16.8755 10.9669 16.8755H10.7227C10.5983 16.8755 10.4791 16.8261 10.3912 16.7382C10.3033 16.6503 10.2539 16.5311 10.2539 16.4067C10.2539 16.2824 10.3033 16.1632 10.3912 16.0753C10.4791 15.9874 10.5983 15.938 10.7227 15.938ZM9.14063 15.938H9.25782C9.38214 15.938 9.50138 15.9874 9.58929 16.0753C9.6772 16.1632 9.72659 16.2824 9.72659 16.4067C9.72659 16.5311 9.6772 16.6503 9.58929 16.7382C9.50138 16.8261 9.38214 16.8755 9.25782 16.8755H9.14063C9.01631 16.8755 8.89708 16.8261 8.80917 16.7382C8.72126 16.6503 8.67187 16.5311 8.67187 16.4067C8.67187 16.2824 8.72126 16.1632 8.80917 16.0753C8.89708 15.9874 9.01631 15.938 9.14063 15.938ZM12.7323 0C12.6059 5.29465e-05 12.4809 0.0257886 12.3647 0.0756445L5.1444 3.16252C4.91391 3.26204 4.73211 3.44865 4.63864 3.68166C4.54516 3.91467 4.5476 4.17518 4.64542 4.4064L8.12188 12.6565H9.13923L5.50935 4.04232C5.50794 4.03938 5.50752 4.03605 5.50817 4.03285C5.50881 4.02965 5.51049 4.02674 5.51293 4.02457L12.7326 0.938016L12.7357 0.942307L14.8111 5.86758C14.9125 5.86234 15.0145 5.85967 15.1172 5.85955C15.3605 5.86009 15.6035 5.87571 15.8448 5.90635L13.5997 0.578241C13.5281 0.407181 13.4075 0.261063 13.2533 0.158199C13.099 0.055335 12.9177 0.000302827 12.7323 0Z" fill="#95ACB9"/>
</g>
<defs>
<clipPath id="clip0_1508_330">
<rect width="30" height="30" rx="10" fill="white"/>
</clipPath>
</defs>
</svg>
