<svg width="30" height="30" viewBox="0 0 30 30" fill="none" xmlns="http://www.w3.org/2000/svg">
<g clip-path="url(#clip0_1508_300)">
<path d="M1.875 28.75C2.56536 28.75 3.125 28.1904 3.125 27.5C3.125 26.8096 2.56536 26.25 1.875 26.25C1.18464 26.25 0.625 26.8096 0.625 27.5C0.625 28.1904 1.18464 28.75 1.875 28.75Z" fill="#95ACB9"/>
<path d="M5.625 25.625C6.66053 25.625 7.5 24.7855 7.5 23.75C7.5 22.7145 6.66053 21.875 5.625 21.875C4.58947 21.875 3.75 22.7145 3.75 23.75C3.75 24.7855 4.58947 25.625 5.625 25.625Z" fill="#95ACB9"/>
<path d="M29.375 12.5002C29.3756 12.9868 29.2625 13.4667 29.0449 13.9019C28.8272 14.337 28.5109 14.7154 28.1213 15.0067C27.7316 15.2981 27.2793 15.4944 26.8003 15.5801C26.3214 15.6658 25.829 15.6384 25.3625 15.5002C25.6497 16.2302 25.7008 17.0319 25.5086 17.7924C25.3163 18.5529 24.8904 19.234 24.2908 19.7397C23.6912 20.2455 22.948 20.5505 22.166 20.6118C21.3839 20.6731 20.6024 20.4876 19.9313 20.0815C19.7653 20.936 19.3073 21.7063 18.6356 22.2601C17.9639 22.8138 17.1205 23.1167 16.25 23.1167C15.3795 23.1167 14.5361 22.8138 13.8644 22.2601C13.1928 21.7063 12.7347 20.936 12.5688 20.0815C11.8977 20.4876 11.1161 20.6731 10.334 20.6118C9.55199 20.5505 8.80886 20.2455 8.20924 19.7397C7.60963 19.234 7.18372 18.5529 6.99146 17.7924C6.7992 17.0319 6.85028 16.2302 7.13751 15.5002C6.67989 15.6336 6.19782 15.6606 5.72819 15.5791C5.25855 15.4975 4.81379 15.3096 4.42794 15.0297C4.0421 14.7499 3.72539 14.3854 3.50205 13.9643C3.27872 13.5432 3.15468 13.0766 3.13942 12.6002C3.12416 12.1237 3.21809 11.6501 3.41403 11.2156C3.60996 10.7811 3.9027 10.3971 4.26985 10.0931C4.637 9.78914 5.06882 9.57316 5.53228 9.46173C5.99574 9.3503 6.47854 9.34637 6.94376 9.45023C6.82817 8.84447 6.86376 8.21956 7.04737 7.63084C7.23098 7.04213 7.55695 6.50778 7.9964 6.07513C8.43585 5.64248 8.97522 5.32488 9.56672 5.15047C10.1582 4.97606 10.7836 4.95022 11.3875 5.07523C11.6492 3.98256 12.2713 3.00987 13.1534 2.31403C14.0356 1.61818 15.1264 1.23975 16.25 1.23975C17.3736 1.23975 18.4644 1.61818 19.3466 2.31403C20.2287 3.00987 20.8508 3.98256 21.1125 5.07523C21.7164 4.95022 22.3418 4.97606 22.9333 5.15047C23.5248 5.32488 24.0642 5.64248 24.5036 6.07513C24.9431 6.50778 25.269 7.04213 25.4526 7.63084C25.6363 8.21956 25.6718 8.84447 25.5563 9.45023C26.0141 9.34598 26.4896 9.34626 26.9473 9.45105C27.4051 9.55583 27.8333 9.76243 28.2002 10.0555C28.5671 10.3485 28.8633 10.7205 29.0667 11.1438C29.2701 11.567 29.3755 12.0307 29.375 12.5002Z" fill="#95ACB9"/>
<path d="M13.899 16.2223H11.1111V15.101L12.7792 13.4306H11.1111V12.5001H13.899V13.6214L12.2309 15.2917H13.899V16.2223ZM17.6161 14.3612H14.8283V13.2398L16.4963 11.5695H14.8283V10.6389H17.6161V11.7603L15.9481 13.4306H17.6161V14.3612ZM21.3333 12.5001H18.5454V11.3787L20.2135 9.70839H18.5454V8.77783H21.3333V9.89915L19.6652 11.5695H21.3333V12.5001Z" fill="white"/>
<path d="M23.125 27.5C25.8864 27.5 28.125 25.2614 28.125 22.5C28.125 19.7386 25.8864 17.5 23.125 17.5C20.3636 17.5 18.125 19.7386 18.125 22.5C18.125 25.2614 20.3636 27.5 23.125 27.5Z" fill="#95ACB9"/>
<path d="M21.875 24.6312L20.9938 23.75L22.5 22.2438V19.375H23.75V22.7562L21.875 24.6312Z" fill="white"/>
<path d="M1.875 25.6249C1.50416 25.6249 1.14165 25.7348 0.833307 25.9409C0.524964 26.1469 0.284641 26.4397 0.142727 26.7823C0.000812411 27.1249 -0.0363188 27.5019 0.0360284 27.8657C0.108376 28.2294 0.286952 28.5635 0.549176 28.8257C0.811399 29.0879 1.14549 29.2665 1.50921 29.3388C1.87292 29.4112 2.24992 29.374 2.59253 29.2321C2.93514 29.0902 3.22798 28.8499 3.43401 28.5415C3.64003 28.2332 3.75 27.8707 3.75 27.4999C3.75 27.0026 3.55246 26.5257 3.20083 26.174C2.8492 25.8224 2.37228 25.6249 1.875 25.6249ZM1.875 28.1249C1.70924 28.1249 1.55027 28.059 1.43306 27.9418C1.31585 27.8246 1.25 27.6656 1.25 27.4999C1.25 27.3341 1.31585 27.1751 1.43306 27.0579C1.55027 26.9407 1.70924 26.8749 1.875 26.8749C2.04076 26.8749 2.19973 26.9407 2.31694 27.0579C2.43415 27.1751 2.5 27.3341 2.5 27.4999C2.5 27.6656 2.43415 27.8246 2.31694 27.9418C2.19973 28.059 2.04076 28.1249 1.875 28.1249ZM5.625 21.2499C5.13055 21.2499 4.6472 21.3965 4.23607 21.6712C3.82495 21.9459 3.50452 22.3363 3.3153 22.7931C3.12608 23.25 3.07657 23.7526 3.17304 24.2376C3.2695 24.7225 3.5076 25.168 3.85723 25.5176C4.20686 25.8673 4.65232 26.1054 5.13727 26.2018C5.62223 26.2983 6.12489 26.2488 6.58171 26.0596C7.03853 25.8703 7.42897 25.5499 7.70367 25.1388C7.97838 24.7277 8.125 24.2443 8.125 23.7499C8.125 23.0868 7.86161 22.4509 7.39277 21.9821C6.92393 21.5133 6.28804 21.2499 5.625 21.2499ZM5.625 24.9999C5.37777 24.9999 5.1361 24.9265 4.93054 24.7892C4.72498 24.6518 4.56476 24.4566 4.47015 24.2282C4.37554 23.9998 4.35079 23.7485 4.39902 23.506C4.44725 23.2635 4.5663 23.0408 4.74112 22.866C4.91593 22.6912 5.13866 22.5721 5.38114 22.5239C5.62361 22.4756 5.87495 22.5004 6.10335 22.595C6.33176 22.6896 6.52699 22.8498 6.66434 23.0554C6.80169 23.261 6.875 23.5026 6.875 23.7499C6.875 24.0814 6.7433 24.3993 6.50888 24.6337C6.27446 24.8682 5.95652 24.9999 5.625 24.9999ZM30 12.4999C30 11.5053 29.6049 10.5515 28.9017 9.84821C28.1984 9.14495 27.2446 8.74986 26.25 8.74986C26.2515 8.14805 26.1289 7.55241 25.8898 7.00016C25.6506 6.44791 25.3001 5.95094 24.8602 5.54032C24.4202 5.12969 23.9003 4.81425 23.3329 4.61372C22.7654 4.41319 22.1628 4.33187 21.5625 4.37486C21.1786 3.27178 20.4609 2.31555 19.5089 1.63888C18.557 0.962199 17.418 0.598633 16.25 0.598633C15.082 0.598633 13.943 0.962199 12.9911 1.63888C12.0391 2.31555 11.3214 3.27178 10.9375 4.37486C10.3372 4.33187 9.73455 4.41319 9.16714 4.61372C8.59973 4.81425 8.0798 5.12969 7.63984 5.54032C7.19989 5.95094 6.84939 6.44791 6.61024 7.00016C6.3711 7.55241 6.24846 8.14805 6.25 8.74986C5.25544 8.75483 4.30359 9.15469 3.60384 9.86146C2.9041 10.5682 2.51378 11.524 2.51875 12.5186C2.52372 13.5132 2.92358 14.465 3.63036 15.1648C4.33714 15.8645 5.29294 16.2548 6.2875 16.2499C6.17759 17.0044 6.26679 17.7745 6.54624 18.484C6.8257 19.1934 7.28571 19.8175 7.88068 20.2943C8.47565 20.7712 9.18491 21.0843 9.93817 21.2025C10.6914 21.3208 11.4625 21.2402 12.175 20.9686C12.5812 22.0064 13.368 22.85 14.375 23.3274C15.382 23.8048 16.5333 23.8799 17.5938 23.5374C17.8358 24.8272 18.5212 25.9917 19.5313 26.8295C20.5414 27.6673 21.8127 28.1255 23.125 28.1249C28.6938 28.1249 30.8875 20.8186 26.1687 17.7749C26.2741 17.2732 26.2889 16.7567 26.2125 16.2499C26.7081 16.2548 27.1998 16.1615 27.6591 15.9752C28.1184 15.789 28.5362 15.5136 28.8884 15.1649C29.2406 14.8161 29.5202 14.4011 29.711 13.9436C29.9018 13.4862 30 12.9955 30 12.4999ZM27.5 22.4999C27.5014 23.4296 27.2065 24.3356 26.6582 25.0864C26.1098 25.8373 25.3366 26.3939 24.4505 26.6756C23.5645 26.9573 22.6118 26.9494 21.7305 26.653C20.8493 26.3567 20.0854 25.7873 19.5496 25.0275C19.0138 24.2677 18.734 23.3569 18.7507 22.4273C18.7675 21.4978 19.0799 20.5977 19.6428 19.8577C20.2056 19.1177 20.9896 18.5762 21.8809 18.3118C22.7723 18.0474 23.7247 18.0739 24.6 18.3874C25.4479 18.691 26.1814 19.2489 26.7004 19.9849C27.2195 20.721 27.4987 21.5992 27.5 22.4999ZM27.75 14.4999C26.5813 15.3686 25.5625 14.9061 24.3125 14.5436C24.7813 15.7311 25.0938 16.3124 24.9938 17.1999C24.1666 16.9063 23.2823 16.8103 22.4115 16.9197C21.5406 17.029 20.7075 17.3406 19.9786 17.8296C19.2498 18.3185 18.6454 18.9712 18.214 19.7355C17.7825 20.4998 17.5358 21.3545 17.4938 22.2311C17.0642 22.4198 16.5977 22.5093 16.1289 22.493C15.66 22.4768 15.2009 22.3552 14.7854 22.1373C14.37 21.9194 14.0089 21.6107 13.7291 21.2342C13.4492 20.8577 13.2577 20.423 13.1688 19.9624L13 19.0749L12.2313 19.5499C11.6719 19.8881 11.0206 20.0425 10.3689 19.9912C9.71729 19.94 9.09811 19.6857 8.59856 19.2641C8.09901 18.8425 7.74423 18.2749 7.58417 17.6411C7.4241 17.0073 7.4668 16.3393 7.70625 15.7311L8.175 14.5436L6.925 14.8999C6.55875 15.0075 6.17271 15.0299 5.79648 14.9652C5.42024 14.9006 5.06381 14.7506 4.75452 14.5269C4.44522 14.3031 4.19128 14.0115 4.01216 13.6744C3.83304 13.3373 3.7335 12.9636 3.72117 12.5821C3.70885 12.2005 3.78407 11.8212 3.94106 11.4732C4.09805 11.1253 4.33265 10.8179 4.62686 10.5746C4.92107 10.3314 5.26708 10.1587 5.63836 10.0699C6.00964 9.98113 6.39632 9.97854 6.76875 10.0624L7.7 10.2686L7.51875 9.33111C7.42123 8.82364 7.45107 8.29991 7.60561 7.80681C7.76014 7.3137 8.03455 6.86662 8.40426 6.50558C8.77397 6.14454 9.22744 5.88082 9.72407 5.73802C10.2207 5.59523 10.745 5.57782 11.25 5.68736L11.8375 5.80611L11.9813 5.22486C12.209 4.26729 12.753 3.41451 13.5254 2.80434C14.2977 2.19417 15.2532 1.86226 16.2375 1.86226C17.2218 1.86226 18.1773 2.19417 18.9496 2.80434C19.722 3.41451 20.266 4.26729 20.4938 5.22486L20.6375 5.80611L21.25 5.68736C21.7533 5.58269 22.2746 5.60377 22.7677 5.74874C23.2609 5.89372 23.7106 6.1581 24.0772 6.51846C24.4437 6.87883 24.7157 7.32405 24.8691 7.81466C25.0224 8.30528 25.0523 8.82615 24.9562 9.33111L24.775 10.2686L25.7063 10.0624C26.2635 9.93938 26.846 10.0107 27.3571 10.2646C27.8682 10.5184 28.277 10.9395 28.5157 11.4578C28.7545 11.9761 28.8087 12.5605 28.6694 13.1139C28.5301 13.6673 28.2057 14.1563 27.75 14.4999Z" fill="white"/>
</g>
<defs>
<clipPath id="clip0_1508_300">
<rect width="30" height="30" rx="10" fill="white"/>
</clipPath>
</defs>
</svg>
