<svg width="30" height="30" viewBox="0 0 30 30" fill="none" xmlns="http://www.w3.org/2000/svg">
<path d="M8.25 8.625C8.25 8.75 8.375 8.875 8.5 9L11 11.5C11.25 11.75 11.5 11.875 11.875 11.875C12.25 11.875 12.5 11.75 12.75 11.5C13.25 11 13.25 10.25 12.75 9.75L12.375 9.375H17.625L17.25 9.75C17 10 16.875 10.25 16.875 10.625C16.875 11.375 17.375 11.875 18.125 11.875C18.5 11.875 18.75 11.75 19 11.5L21.5 9C21.625 8.875 21.75 8.75 21.75 8.625C21.75 8.5 21.875 8.375 21.875 8.125C21.875 8 21.875 7.75 21.75 7.625C21.625 7.5 21.625 7.375 21.5 7.25L19 4.75C18.5 4.25 17.75 4.25 17.25 4.75C16.75 5.25 16.75 6 17.25 6.5L17.625 6.875H12.375L12.75 6.5C13.25 6 13.25 5.25 12.75 4.75C12.25 4.25 11.5 4.25 11 4.75L8.5 7.25C8.375 7.375 8.25 7.5 8.25 7.625C8.25 7.75 8.125 7.875 8.125 8.125C8.125 8.25 8.125 8.5 8.25 8.625ZM7.5 18.375C9.25 18.375 10.75 16.875 10.75 15.125C10.75 13.375 9.25 11.875 7.5 11.875C5.75 11.875 4.25 13.375 4.25 15.125C4.25 16.875 5.75 18.375 7.5 18.375ZM12.25 21.75C9 19.125 4.25 19.625 1.625 22.875C1.375 23.25 1.25 23.625 1.25 24C1.25 24.875 2 25.625 2.875 25.625H12.125C12.75 25.625 13.375 25.25 13.625 24.75C13.875 24.25 13.875 23.5 13.375 23C13 22.5 12.625 22.125 12.25 21.75ZM19.25 15.125C19.25 16.875 20.75 18.375 22.5 18.375C24.25 18.375 25.75 16.875 25.75 15.125C25.75 13.375 24.25 11.875 22.5 11.875C20.75 11.875 19.25 13.375 19.25 15.125ZM28.375 23C28 22.625 27.625 22.125 27.25 21.875C24 19.25 19.25 19.75 16.625 23C16.375 23.25 16.25 23.625 16.25 24C16.25 24.875 17 25.625 17.875 25.625H27.125C27.75 25.625 28.375 25.25 28.625 24.75C28.875 24.125 28.75 23.5 28.375 23Z" fill="#95ACB9"/>
</svg>
