<svg width="30" height="30" viewBox="0 0 30 30" fill="none" xmlns="http://www.w3.org/2000/svg">
<g clip-path="url(#clip0_1508_259)">
<path d="M10.5198 13.3454C10.463 12.5483 10.9535 12.1376 10.6417 11.3623C10.2858 10.4775 9.36223 10.3978 9.32813 9.7445C9.29719 9.15065 10.0525 9.0661 10.3307 8.29536C10.7707 7.07626 9.31325 6.09001 9.74843 5.37622C10.1147 4.77563 11.7039 4.71399 12.5918 5.36872C13.3965 5.96221 13.1732 6.80954 14.0933 7.32604C14.7758 7.70924 15.1603 7.38973 15.5713 7.77874C16.1807 8.35542 15.4645 9.17977 15.9651 10.2117C16.4454 11.2017 17.3654 10.9798 17.9478 12.0343C18.5229 13.0756 18.096 14.2334 18.0299 14.4063C17.5187 15.7439 16.1081 16.4749 14.8843 16.5724C12.6491 16.7505 10.6269 14.8477 10.5198 13.3454Z" fill="#95ACB9"/>
<path d="M17.9478 12.034C17.3654 10.9795 16.4454 11.2014 15.9651 10.2114C15.4645 9.17953 16.1807 8.35512 15.5713 7.77838C15.1602 7.38944 14.7758 7.70889 14.0933 7.32574C13.1732 6.8093 13.3966 5.96186 12.5918 5.36842C11.9126 4.86756 10.8235 4.78635 10.1849 5.04451C10.4172 5.117 10.6364 5.22637 10.834 5.36842C11.6387 5.96192 11.4154 6.80924 12.3354 7.32574C13.0179 7.70895 13.4024 7.38944 13.8135 7.77838C14.4229 8.35512 13.7067 9.17953 14.2073 10.2114C14.6876 11.2014 15.6076 10.9795 16.19 12.034C16.7651 13.0753 16.3382 14.2331 16.2721 14.406C15.8408 15.5345 14.7694 16.2312 13.7101 16.48C14.0944 16.571 14.4905 16.6021 14.8843 16.5721C16.1081 16.4746 17.5186 15.7436 18.0299 14.406C18.096 14.2331 18.5229 13.0754 17.9478 12.034Z" fill="#95ACB9"/>
<path d="M3.5108 13.1133C3.44166 12.0233 4.08877 11.4581 3.68459 10.3996C3.22345 9.1919 2.01115 9.08918 1.97095 8.1958C1.93439 7.38369 2.92679 7.26287 3.29752 6.2066C3.88381 4.53586 1.97681 3.19693 2.55326 2.21754C3.03842 1.39348 5.12582 1.29803 6.28715 2.18748C7.33984 2.99373 7.04066 4.15441 8.24529 4.85449C9.13885 5.37387 9.64597 4.93418 10.183 5.4634C10.9793 6.24803 10.033 7.3807 10.6833 8.78871C11.3071 10.1396 12.5168 9.82969 13.2742 11.2681C14.0222 12.6885 13.4536 14.2753 13.3656 14.5123C12.6849 16.3455 10.8274 17.3552 9.21976 17.4971C6.28322 17.7562 3.64105 15.1674 3.5108 13.1133Z" fill="#95ACB9"/>
<path d="M13.2743 11.2683C12.5169 9.82991 11.3071 10.1398 10.6833 8.78894C10.0331 7.38093 10.9794 6.24831 10.1831 5.46362C9.64602 4.9344 9.13895 5.37409 8.24533 4.85472C7.04064 4.15464 7.33988 2.99396 6.28719 2.18771C5.35127 1.47093 3.81453 1.39417 2.99902 1.82249C3.23158 1.91445 3.45069 2.03729 3.65047 2.18771C4.70316 2.99396 4.40398 4.15464 5.60861 4.85472C6.50217 5.37409 7.0093 4.9344 7.54637 5.46362C8.34266 6.24825 7.39637 7.38093 8.04658 8.78894C8.67043 10.1398 9.88016 9.82991 10.6375 11.2683C11.3855 12.6888 10.817 14.2755 10.7289 14.5126C10.1733 16.0089 8.83367 16.9563 7.48578 17.3311C8.04908 17.4904 8.63651 17.5467 9.2198 17.4973C10.8274 17.3554 12.6849 16.3457 13.3656 14.5125C13.4537 14.2755 14.0223 12.6888 13.2743 11.2683Z" fill="#95ACB9"/>
<path d="M27.2592 15.0686C27.1598 13.9808 26.4335 13.522 26.6701 12.4139C26.9399 11.1496 28.122 10.8616 28.0243 9.97272C27.9355 9.16471 26.9363 9.19788 26.4076 8.21122C25.5713 6.65057 27.2496 5.03421 26.5293 4.15518C25.9232 3.4155 23.846 3.64225 22.8353 4.69981C21.9191 5.65835 22.3933 6.75921 21.3107 7.63624C20.5076 8.28686 19.9389 7.93044 19.4896 8.53594C18.8235 9.43378 19.9328 10.4074 19.5069 11.8986C19.0982 13.3294 17.8553 13.2093 17.3281 14.7471C16.8075 16.2657 17.6134 17.746 17.7369 17.9667C18.6914 19.6734 20.6821 20.3854 22.2924 20.2782C25.2339 20.0826 27.4464 17.1183 27.2592 15.0686Z" fill="#95ACB9"/>
<path d="M26.6701 12.4141C26.94 11.1498 28.122 10.8618 28.0243 9.97292C27.9355 9.16491 26.9363 9.19808 26.4076 8.21142C25.5713 6.65077 27.2496 5.03441 26.5293 4.15538C26.0796 3.60659 24.8204 3.5903 23.7874 4.05009C23.8255 4.08202 23.8607 4.11725 23.8926 4.15538C24.6129 5.03441 22.9346 6.65077 23.7709 8.21142C24.2996 9.19814 25.2988 9.16486 25.3876 9.97292C25.4853 10.8618 24.3033 11.1498 24.0334 12.4141C23.7968 13.5222 24.5232 13.981 24.6225 15.0688C24.7885 16.886 23.068 19.422 20.6257 20.1102C21.1686 20.2557 21.7314 20.3125 22.2924 20.2784C25.234 20.0829 27.4465 17.1185 27.2592 15.0688C27.1599 13.981 26.4335 13.5222 26.6701 12.4141Z" fill="#95ACB9"/>
<path d="M18.4553 17.5152C19.8944 17.5152 21.0611 16.3485 21.0611 14.9094C21.0611 13.4703 19.8944 12.3037 18.4553 12.3037C17.0162 12.3037 15.8496 13.4703 15.8496 14.9094C15.8496 16.3485 17.0162 17.5152 18.4553 17.5152Z" fill="#95ACB9"/>
<path d="M18.4553 12.3037C18.1558 12.3035 17.8584 12.355 17.5764 12.4561C18.082 12.6373 18.5192 12.9702 18.8283 13.4094C19.1374 13.8485 19.3033 14.3724 19.3033 14.9095C19.3033 15.4465 19.1374 15.9704 18.8283 16.4096C18.5192 16.8487 18.082 17.1817 17.5764 17.3629C17.9341 17.491 18.3155 17.5394 18.6939 17.5046C19.0722 17.4698 19.4384 17.3526 19.7667 17.1614C20.095 16.9702 20.3776 16.7095 20.5945 16.3975C20.8115 16.0856 20.9576 15.73 21.0226 15.3556C21.0876 14.9813 21.07 14.5973 20.971 14.2304C20.872 13.8636 20.6939 13.5229 20.4493 13.2321C20.2047 12.9413 19.8995 12.7076 19.5551 12.5472C19.2106 12.3868 18.8353 12.3037 18.4553 12.3037Z" fill="#95ACB9"/>
<path d="M14.0608 17.5152C15.4999 17.5152 16.6665 16.3485 16.6665 14.9094C16.6665 13.4703 15.4999 12.3037 14.0608 12.3037C12.6217 12.3037 11.4551 13.4703 11.4551 14.9094C11.4551 16.3485 12.6217 17.5152 14.0608 17.5152Z" fill="#95ACB9"/>
<path d="M14.0608 12.3037C13.7612 12.3035 13.4639 12.355 13.1819 12.4561C13.6874 12.6373 14.1246 12.9702 14.4337 13.4094C14.7428 13.8485 14.9087 14.3724 14.9087 14.9095C14.9087 15.4465 14.7428 15.9704 14.4337 16.4096C14.1246 16.8487 13.6874 17.1817 13.1819 17.3629C13.5396 17.491 13.921 17.5394 14.2993 17.5046C14.6777 17.4698 15.0439 17.3526 15.3722 17.1614C15.7005 16.9702 15.983 16.7095 16.2 16.3975C16.4169 16.0856 16.5631 15.73 16.6281 15.3556C16.6931 14.9813 16.6755 14.5973 16.5765 14.2304C16.4774 13.8636 16.2994 13.5229 16.0548 13.2321C15.8102 12.9413 15.505 12.7076 15.1606 12.5472C14.8161 12.3868 14.4407 12.3037 14.0608 12.3037Z" fill="#95ACB9"/>
<path d="M8.11835 24.502H21.8817V26.9504C21.8817 27.2932 21.8141 27.6326 21.683 27.9493C21.5518 28.266 21.3595 28.5538 21.1171 28.7961C20.8747 29.0385 20.587 29.2308 20.2703 29.362C19.9536 29.4931 19.6142 29.5607 19.2714 29.5606H10.7286C10.3859 29.5607 10.0464 29.4931 9.72973 29.362C9.41303 29.2308 9.12528 29.0385 8.88289 28.7961C8.6405 28.5538 8.44823 28.266 8.31705 27.9493C8.18586 27.6326 8.11835 27.2932 8.11835 26.9504V24.502Z" fill="#95ACB9"/>
<path d="M19.2449 24.502V26.9504C19.2449 27.6427 18.9699 28.3066 18.4804 28.7961C17.9909 29.2856 17.327 29.5606 16.6347 29.5606H19.2714C19.6142 29.5606 19.9536 29.4931 20.2703 29.362C20.587 29.2308 20.8748 29.0385 21.1171 28.7961C21.3595 28.5537 21.5518 28.266 21.683 27.9493C21.8141 27.6326 21.8817 27.2932 21.8817 26.9504V24.502H19.2449Z" fill="#95ACB9"/>
<path d="M23.2764 15.1562H29.5605C29.5606 16.5524 29.2857 17.9349 28.7514 19.2247C28.2172 20.5146 27.4341 21.6866 26.4469 22.6738C25.4597 23.661 24.2877 24.4441 22.9978 24.9784C21.7079 25.5126 20.3254 25.7876 18.9293 25.7875H11.0707C8.25113 25.7875 5.54705 24.6674 3.55331 22.6736C1.55957 20.6799 0.439484 17.9758 0.439453 15.1562H23.2764Z" fill="#95ACB9"/>
<path d="M26.9238 15.1562C26.9238 17.9759 25.8037 20.6801 23.8099 22.6739C21.8161 24.6677 19.112 25.7878 16.2923 25.7878H18.929C21.7487 25.7878 24.4529 24.6677 26.4467 22.6739C28.4405 20.6801 29.5606 17.9759 29.5606 15.1562H26.9238Z" fill="#95ACB9"/>
<path d="M29.5605 14.7168H27.6507C27.5782 14.3861 27.468 14.0648 27.3222 13.7592C27.1306 13.3241 26.9922 13.0097 27.0998 12.5059C27.2089 11.9955 27.5105 11.6708 27.8021 11.3568C28.1443 10.9885 28.5322 10.571 28.461 9.92463C28.3925 9.29902 27.9625 9.01572 27.5831 8.76576C27.2812 8.56683 26.9961 8.37904 26.795 8.00363C26.4349 7.33144 26.6672 6.60892 26.892 5.91019C27.1198 5.20203 27.3553 4.46972 26.8694 3.87675C26.5771 3.52009 26.0606 3.31015 25.4151 3.28554C24.533 3.25197 23.2952 3.5822 22.5174 4.39601C22.0085 4.92863 21.8627 5.49535 21.7341 5.99533C21.6011 6.5123 21.496 6.92052 21.0339 7.29494C20.7193 7.54982 20.4605 7.60853 20.1864 7.67076C19.8471 7.74781 19.4623 7.83511 19.1365 8.27386C18.6697 8.90287 18.8417 9.56334 18.9935 10.1461C19.1241 10.6476 19.2592 11.1662 19.0845 11.7777C19.0703 11.8273 19.0544 11.8744 19.0376 11.9204C18.8457 11.8829 18.6507 11.864 18.4553 11.8639C18.4214 11.8639 18.3879 11.866 18.3542 11.8671C18.3479 11.8514 18.3406 11.8361 18.3325 11.8213C17.9791 11.1818 17.5069 10.9213 17.1274 10.712C16.7858 10.5236 16.539 10.3875 16.3605 10.0198C16.1707 9.62849 16.206 9.27394 16.2433 8.89859C16.2874 8.45504 16.3423 7.90308 15.8733 7.45888C15.5501 7.15326 15.219 7.1297 14.9528 7.11072C14.7407 7.09566 14.5576 7.08259 14.3082 6.94261C13.9456 6.73894 13.8301 6.48341 13.6701 6.12968C13.5071 5.76945 13.3224 5.36111 12.8525 5.01447C11.9968 4.38371 10.5469 4.28849 9.7701 4.76257C9.63509 4.73774 9.49858 4.72199 9.36146 4.71541C9.08109 4.69607 8.81625 4.67779 8.46615 4.47435C7.95228 4.1757 7.7857 3.78851 7.57482 3.29837C7.37074 2.824 7.13947 2.28629 6.5543 1.83822C5.66062 1.15379 4.38668 1.01791 3.52031 1.18683C2.88645 1.31046 2.40855 1.5974 2.17482 1.99461C1.78576 2.65525 2.13111 3.34267 2.4651 4.00748C2.79457 4.66338 3.13529 5.3416 2.88299 6.06101C2.74195 6.46261 2.48912 6.69212 2.22146 6.93511C1.88496 7.24068 1.50352 7.58691 1.53205 8.21545C1.56105 8.86519 2.00842 9.21781 2.40311 9.52894C2.73967 9.79425 3.0876 10.0686 3.27381 10.5565C3.45779 11.0377 3.36932 11.3698 3.24703 11.8294C3.14941 12.1961 3.03879 12.6118 3.07236 13.141C3.11772 13.6941 3.28035 14.2313 3.54943 14.7168H0.439453C0.322903 14.7168 0.211126 14.7631 0.128713 14.8455C0.0462994 14.9279 0 15.0397 0 15.1562C0 20.0779 3.22852 24.2589 7.67871 25.6947V26.95C7.67964 27.7586 8.00126 28.5338 8.57301 29.1055C9.14475 29.6773 9.91994 29.9989 10.7285 29.9998H19.2715C20.0801 29.9989 20.8552 29.6773 21.427 29.1055C21.9987 28.5338 22.3204 27.7586 22.3213 26.95V25.6994C24.5513 24.9792 26.4957 23.5709 27.8753 21.6767C29.2549 19.7824 29.9988 17.4997 30 15.1563C30 15.0397 29.9537 14.928 29.8713 14.8455C29.7889 14.7631 29.6771 14.7168 29.5605 14.7168ZM19.8422 8.79769C19.9676 8.62882 20.0786 8.59648 20.381 8.52781C20.6901 8.45767 21.1135 8.36158 21.5871 7.97779C22.2748 7.42074 22.4396 6.77984 22.5852 6.21435C22.7018 5.76125 22.8025 5.3699 23.1528 5.00322C23.6547 4.47804 24.5708 4.13275 25.3816 4.16375C25.7607 4.17822 26.0628 4.27918 26.1895 4.4338C26.3596 4.64146 26.2522 5.02841 26.0552 5.64113C25.8007 6.43255 25.4839 7.41752 26.0201 8.41865C26.3264 8.99041 26.7551 9.27277 27.0995 9.4997C27.4434 9.72628 27.5657 9.82314 27.5873 10.0206C27.612 10.2451 27.4825 10.4097 27.1581 10.7586C26.8204 11.1223 26.3999 11.5749 26.2403 12.3223C26.0733 13.1039 26.3094 13.6402 26.5178 14.1134C26.6093 14.3086 26.6865 14.5103 26.7486 14.7168H23.4177C23.4745 14.5368 23.5302 14.3566 23.5846 14.176L25.0496 13.3527C25.1 13.3244 25.1442 13.2865 25.1799 13.2411C25.2155 13.1957 25.2419 13.1438 25.2575 13.0882C25.273 13.0326 25.2775 12.9745 25.2706 12.9172C25.2638 12.8599 25.2457 12.8045 25.2174 12.7542C25.1891 12.7039 25.1512 12.6597 25.1058 12.624C25.0605 12.5884 25.0085 12.562 24.9529 12.5464C24.8974 12.5308 24.8393 12.5264 24.782 12.5332C24.7247 12.5401 24.6693 12.5582 24.619 12.5865L23.9229 12.9777C24.2135 11.8809 24.4585 10.7641 24.6509 9.64789C24.6617 9.59063 24.6609 9.53181 24.6487 9.47484C24.6366 9.41788 24.6132 9.3639 24.5799 9.31606C24.5467 9.26821 24.5043 9.22746 24.4551 9.19615C24.406 9.16485 24.3511 9.14363 24.2937 9.13373C24.2363 9.12382 24.1775 9.12543 24.1207 9.13846C24.064 9.15149 24.0103 9.17568 23.963 9.20962C23.9156 9.24356 23.8755 9.28657 23.8449 9.33616C23.8144 9.38575 23.794 9.44092 23.7849 9.49847C23.6535 10.2588 23.4987 11.0149 23.3208 11.7657L22.8889 10.7165C22.8669 10.6631 22.8347 10.6146 22.7939 10.5737C22.7532 10.5328 22.7048 10.5003 22.6516 10.4781C22.5983 10.4559 22.5412 10.4444 22.4835 10.4443C22.4258 10.4442 22.3686 10.4554 22.3152 10.4774C22.2619 10.4993 22.2133 10.5316 22.1724 10.5723C22.1315 10.613 22.0991 10.6614 22.0769 10.7147C22.0547 10.768 22.0432 10.8251 22.0431 10.8828C22.0429 10.9405 22.0542 10.9977 22.0761 11.051L22.9554 13.1871C22.9373 13.2522 22.9197 13.3177 22.9013 13.3826C22.8658 13.5078 22.8295 13.6327 22.7924 13.7574C22.7917 13.7597 22.791 13.7619 22.7904 13.7642C22.6963 14.0828 22.5978 14.4003 22.4948 14.7168H21.494C21.4604 14.1947 21.293 13.6901 21.008 13.2514C20.723 12.8128 20.3299 12.4548 19.8666 12.2119C19.8891 12.1494 19.9105 12.0857 19.9295 12.0192C20.1701 11.1768 19.9893 10.4824 19.8439 9.92451C19.7009 9.37531 19.6359 9.07578 19.8422 8.79775V8.79769ZM18.4553 12.7428C18.9963 12.7435 19.5174 12.9464 19.9165 13.3116C20.3156 13.6769 20.5638 14.178 20.6124 14.7168H17.0994C17.0739 14.3059 16.965 13.9044 16.7794 13.5369C16.9821 13.2882 17.2377 13.0879 17.5276 12.9505C17.8175 12.8132 18.1344 12.7422 18.4552 12.7428H18.4553ZM12.3308 5.72181C12.616 5.93216 12.7277 6.17919 12.8692 6.49191C13.045 6.88039 13.2636 7.36396 13.8778 7.70896C14.1879 7.88217 14.5353 7.97773 14.8904 7.98746C15.1108 8.0031 15.1784 8.01148 15.2691 8.0972C15.4122 8.23279 15.4103 8.39181 15.3686 8.8117C15.3254 9.24693 15.2715 9.78863 15.5696 10.4035C15.8701 11.0224 16.3126 11.2664 16.7029 11.4816C16.9789 11.6339 17.2242 11.7693 17.4306 12.0415C16.9858 12.1996 16.5843 12.4596 16.2579 12.8006C15.9743 12.5038 15.6332 12.2677 15.2555 12.1067C14.8778 11.9457 14.4713 11.8631 14.0607 11.8639C14.03 11.8639 13.9996 11.8653 13.9691 11.8662C13.8991 11.5874 13.7964 11.3179 13.6631 11.0632C13.2236 10.2286 12.6493 9.90078 12.1427 9.6115C11.6912 9.35369 11.3345 9.15007 11.0823 8.60404C10.8155 8.02648 10.869 7.49334 10.9209 6.97771C10.9735 6.45447 11.0321 5.87023 10.6742 5.36445C11.171 5.28962 11.8673 5.38009 12.3308 5.72181ZM16.2174 14.7168H11.9034C11.9509 14.1775 12.1987 13.6755 12.598 13.3099C12.9973 12.9442 13.519 12.7414 14.0604 12.7414C14.6018 12.7414 15.1236 12.9442 15.5228 13.3099C15.9221 13.6755 16.1699 14.1775 16.2174 14.7168ZM2.94727 8.83871C2.57344 8.54404 2.42021 8.4016 2.41014 8.17595C2.40111 7.97755 2.50711 7.86294 2.81232 7.58591C3.1176 7.30876 3.49752 6.96382 3.71238 6.35205C4.08814 5.28037 3.62373 4.35582 3.25055 3.61296C2.96162 3.03781 2.79604 2.67195 2.93232 2.4405C3.03369 2.26824 3.31641 2.12211 3.68865 2.04945C4.48453 1.89429 5.44324 2.09427 6.01998 2.53601C6.42293 2.84457 6.5826 3.21582 6.76752 3.64566C6.9982 4.18191 7.25965 4.78964 8.02465 5.23431C8.5517 5.54052 8.98477 5.57041 9.301 5.5922C9.61025 5.61353 9.7248 5.62847 9.87463 5.77619C10.1214 6.01923 10.1033 6.32521 10.0465 6.88988C9.98883 7.46345 9.91711 8.1773 10.2845 8.97254C10.6546 9.77392 11.2137 10.0931 11.707 10.3747C12.1676 10.6378 12.5654 10.8649 12.8856 11.4727C12.9768 11.6468 13.0491 11.8302 13.1012 12.0197C12.5259 12.2117 12.0208 12.5708 11.6505 13.0512C11.2802 13.5316 11.0615 14.1115 11.0223 14.7168H9.62912C9.36912 14.2991 9.11822 13.8762 8.87643 13.4481L9.41824 11.196C9.44552 11.0827 9.42666 10.9632 9.36581 10.8638C9.30497 10.7643 9.20713 10.6932 9.09381 10.6659C8.98049 10.6386 8.86098 10.6575 8.76157 10.7183C8.66215 10.7792 8.59098 10.877 8.56371 10.9903L8.25117 12.2894C7.9409 11.687 7.6482 11.0747 7.37309 10.4523L7.86275 8.75416C7.89505 8.64217 7.88153 8.52194 7.82517 8.41991C7.76882 8.31789 7.67424 8.24243 7.56226 8.21014C7.45027 8.17785 7.33004 8.19137 7.22801 8.24772C7.12599 8.30408 7.05053 8.39865 7.01824 8.51064L6.8318 9.15722C6.5618 8.47242 6.31424 7.78031 6.08912 7.08089C6.0718 7.02554 6.0437 6.97417 6.00643 6.92973C5.96916 6.8853 5.92347 6.84868 5.87198 6.82198C5.82049 6.79529 5.76423 6.77905 5.70643 6.77421C5.64864 6.76936 5.59046 6.77601 5.53524 6.79375C5.48003 6.8115 5.42887 6.84 5.38473 6.87761C5.34058 6.91523 5.30432 6.9612 5.27802 7.0129C5.25173 7.06459 5.23593 7.12098 5.23153 7.17881C5.22713 7.23664 5.23423 7.29476 5.2524 7.34984C5.61266 8.46886 6.0286 9.56918 6.49869 10.6467C6.50189 10.6548 6.50533 10.6627 6.509 10.6706C6.51937 10.6943 6.52951 10.718 6.53988 10.7418L5.67826 10.4196C5.62415 10.3992 5.56653 10.3896 5.5087 10.3914C5.45088 10.3933 5.39398 10.4065 5.34129 10.4304C5.2886 10.4543 5.24114 10.4883 5.20164 10.5306C5.16214 10.5729 5.13138 10.6226 5.11112 10.6767C5.09086 10.7309 5.0815 10.7886 5.08357 10.8464C5.08565 10.9042 5.09912 10.9611 5.12322 11.0137C5.14732 11.0663 5.18156 11.1136 5.22399 11.1529C5.26642 11.1923 5.3162 11.2228 5.37047 11.2429L7.06272 11.8755C7.20131 12.1628 7.34357 12.448 7.48951 12.7311C7.58705 12.92 7.68658 13.108 7.78811 13.2953L6.74561 12.9056C6.69149 12.8852 6.63387 12.8756 6.57605 12.8774C6.51822 12.8793 6.46133 12.8925 6.40864 12.9164C6.35594 12.9403 6.30848 12.9744 6.26899 13.0166C6.22949 13.0589 6.19872 13.1086 6.17846 13.1628C6.1582 13.217 6.14884 13.2746 6.15092 13.3324C6.15299 13.3902 6.16647 13.4471 6.19056 13.4997C6.21466 13.5523 6.2489 13.5996 6.29133 13.6389C6.33376 13.6783 6.38354 13.7088 6.43781 13.7289L8.46105 14.4853C8.50688 14.5626 8.55316 14.6397 8.59945 14.7168H4.57582C4.20305 14.1657 3.98186 13.5929 3.94957 13.0853C3.92508 12.6993 4.00828 12.3866 4.09641 12.0555C4.22941 11.5558 4.38018 10.9894 4.095 10.2429C3.8223 9.52847 3.33715 9.14603 2.94727 8.83871ZM21.4424 26.95C21.4418 27.5256 21.2129 28.0774 20.8059 28.4844C20.3989 28.8914 19.8471 29.1203 19.2715 29.1209H10.7285C10.153 29.1203 9.60116 28.8914 9.19418 28.4844C8.7872 28.0774 8.55827 27.5256 8.55762 26.95V25.9391C9.38155 26.1308 10.2248 26.2274 11.0707 26.2269H18.9293C19.7751 26.2273 20.6182 26.1315 21.4424 25.9414L21.4424 26.95ZM26.1362 22.3631C24.9284 23.5758 23.4334 24.4631 21.7903 24.9424C21.7714 24.9465 21.7528 24.9519 21.7346 24.9584C20.8221 25.2177 19.878 25.3488 18.9294 25.3481H11.0707C5.59805 25.3481 1.11908 21.0126 0.888281 15.5957H29.1118C29.0089 18.1461 27.946 20.5633 26.1362 22.3631Z" fill="white"/>
</g>
<defs>
<clipPath id="clip0_1508_259">
<rect width="30" height="30" rx="10" fill="white"/>
</clipPath>
</defs>
</svg>
