 <svg version="1.1" xmlns="http://www.w3.org/2000/svg" width="512" height="512">
<path d="M0 0 C0.98584076 0.00054382 1.97168152 0.00108765 2.98739624 0.00164795 C19.35690674 0.04301309 35.11789842 1.0175184 51.1875 4.375 C52.20424805 4.58398926 53.22099609 4.79297852 54.26855469 5.00830078 C91.50281869 12.92102642 126.12956103 29.09107587 156.1875 52.375 C157.08597656 53.06078125 157.98445313 53.7465625 158.91015625 54.453125 C174.46302342 66.57992476 189.09791145 80.79632064 201.1875 96.375 C201.950625 97.30957031 202.71375 98.24414062 203.5 99.20703125 C230.5420054 132.96620145 247.73935513 174.75073002 254.1875 217.375 C254.36482666 218.49962646 254.54215332 219.62425293 254.72485352 220.78295898 C256.37625708 232.33690444 256.54420897 243.77965547 256.5 255.4375 C256.49726578 256.93159393 256.49726578 256.93159393 256.49447632 258.45587158 C256.44973255 272.96830287 255.99219043 287.09809519 253.1875 301.375 C253.02652832 302.27057617 252.86555664 303.16615234 252.69970703 304.08886719 C244.81047508 347.69563051 225.12100867 388.83356217 196.1875 422.375 C195.55328125 423.12007813 194.9190625 423.86515625 194.265625 424.6328125 C182.45448485 438.13779833 169.70389772 450.80918743 155.1875 461.375 C154.03755169 462.23149066 152.88781411 463.08826433 151.73828125 463.9453125 C143.54660474 469.9859414 135.03104922 475.34505071 126.1875 480.375 C125.55569824 480.73948242 124.92389648 481.10396484 124.27294922 481.47949219 C98.24416464 496.37750327 68.82611377 506.02291257 39.1875 510.375 C37.98504639 510.55160156 36.78259277 510.72820312 35.54370117 510.91015625 C23.82743596 512.51411689 12.18834274 512.77574553 0.375 512.75 C-0.61183777 512.74912384 -1.59867554 512.74824768 -2.61541748 512.74734497 C-67.56969852 512.55782667 -129.98321624 487.47829016 -176.8125 442.375 C-177.47185547 441.74287598 -178.13121094 441.11075195 -178.81054688 440.45947266 C-188.29880305 431.31502521 -197.0387044 422.01765991 -204.8125 411.375 C-205.67056152 410.22394983 -206.52863451 409.07290823 -207.38671875 407.921875 C-213.42486829 399.73069386 -218.78345521 391.21695895 -223.8125 382.375 C-224.17698242 381.74319824 -224.54146484 381.11139648 -224.91699219 380.46044922 C-239.84723018 354.37535999 -249.32635054 325.03914886 -253.8125 295.375 C-254.07740234 293.69132324 -254.07740234 293.69132324 -254.34765625 291.97363281 C-256.0045586 280.36052257 -256.21123513 268.84320055 -256.1875 257.125 C-256.18695618 256.11298523 -256.18641235 255.10097046 -256.18585205 254.05828857 C-256.1451051 237.52382605 -255.22136907 221.60435136 -251.8125 205.375 C-251.60351074 204.35970215 -251.39452148 203.3444043 -251.17919922 202.29833984 C-242.40130189 160.98633315 -223.39863066 122.3544774 -195.8125 90.375 C-195.17828125 89.62992187 -194.5440625 88.88484375 -193.890625 88.1171875 C-182.07948485 74.61220167 -169.32889772 61.94081257 -154.8125 51.375 C-153.66255169 50.51850934 -152.51281411 49.66173567 -151.36328125 48.8046875 C-143.17160474 42.7640586 -134.65604922 37.40494929 -125.8125 32.375 C-125.18069824 32.01051758 -124.54889648 31.64603516 -123.89794922 31.27050781 C-97.86916464 16.37249673 -68.45111377 6.72708743 -38.8125 2.375 C-37.61004639 2.19839844 -36.40759277 2.02179687 -35.16870117 1.83984375 C-23.45224155 0.2358565 -11.81347836 -0.02463344 0 0 Z M-97.92236328 67.35400391 C-99.8324462 68.38577435 -101.7568964 69.38638329 -103.68359375 70.38671875 C-119.36889786 78.69632299 -133.62962035 89.4563184 -146.28417969 101.88183594 C-147.85104961 103.41266285 -149.44300004 104.91374464 -151.0390625 106.4140625 C-168.70932772 123.25883622 -182.71442899 144.20750096 -192.8125 166.375 C-193.14878418 167.10944336 -193.48506836 167.84388672 -193.83154297 168.60058594 C-217.41684917 220.73419372 -218.8905601 279.07229271 -198.91308594 332.68676758 C-196.00389326 340.19394065 -192.66635578 347.40698336 -188.83349609 354.48486328 C-187.80172565 356.3949462 -186.80111671 358.3193964 -185.80078125 360.24609375 C-177.01558559 376.83279062 -165.50467345 391.43371515 -152.37304688 404.78369141 C-150.96616158 406.21830942 -149.58308974 407.67618721 -148.203125 409.13671875 C-141.63956508 415.96839795 -134.39556702 421.73248163 -126.8125 427.375 C-125.80703125 428.12523437 -124.8015625 428.87546875 -123.765625 429.6484375 C-91.36189029 452.90189479 -50.96407687 468.28244009 -10.8125 469.375 C-10.06838867 469.40078125 -9.32427734 469.4265625 -8.55761719 469.453125 C50.27347106 471.28944457 105.07402729 449.80214654 147.92871094 409.74755859 C188.0879977 371.40125496 211.78620727 317.40649533 213.37109375 261.9453125 C214.35728581 205.87043171 194.07044311 151.02390013 155.1328125 110.41796875 C154.64329102 109.91313965 154.15376953 109.40831055 153.64941406 108.88818359 C152.20604917 107.3941997 150.78617853 105.88038875 149.3671875 104.36328125 C132.85347297 86.98221405 111.93665711 73.28250163 90.1875 63.375 C89.45305664 63.03871582 88.71861328 62.70243164 87.96191406 62.35595703 C29.19674262 35.77052354 -40.77250723 36.40584124 -97.92236328 67.35400391 Z " fill="#ffffff" transform="translate(255.8125,-0.375)"/>
<path d="M0 0 C6.40408109 3.80816294 10.52879927 8.85504645 12.48046875 16.08984375 C12.6603941 18.57259204 12.73724662 21.06381379 12.74116516 23.55307007 C12.74690348 24.64872691 12.74690348 24.64872691 12.75275773 25.76651824 C12.76303899 28.20298086 12.75910491 30.63920568 12.75512695 33.07568359 C12.75947615 34.82711504 12.76465999 36.57854459 12.77061462 38.32997131 C12.78399404 43.08002316 12.78458443 47.82999538 12.78205132 52.58006239 C12.78098082 56.5486851 12.78586705 60.51729175 12.79065675 64.48591101 C12.80174843 73.85064562 12.80219134 83.21534012 12.79614258 92.58007812 C12.79010322 102.23332574 12.80241363 111.88642758 12.82371265 121.53965032 C12.84134004 129.83452926 12.84732818 138.12936185 12.8440749 146.42425883 C12.84226361 151.3753211 12.84488288 156.3262794 12.85878944 161.27732468 C12.87138153 165.93458795 12.8694106 170.59162434 12.85637856 175.2488842 C12.85401618 176.95484049 12.8567353 178.66081282 12.86500168 180.36675072 C12.87549993 182.7023117 12.86734444 185.03711572 12.85469055 187.37265015 C12.85485829 188.67749044 12.85502604 189.98233074 12.85519886 191.32671165 C12.14729855 198.43562099 10.03120071 203.44271932 4.48046875 208.08984375 C-1.52619619 212.50290371 -6.04580593 213.84942382 -13.51953125 213.08984375 C-19.17184132 211.67416388 -24.27046518 209.34187172 -27.67578125 204.41796875 C-31.11862971 198.66349346 -31.64496672 194.50939871 -31.66670227 187.87385559 C-31.67037896 187.14583211 -31.67405565 186.41780863 -31.67784375 185.66772383 C-31.68885952 183.22745 -31.69272085 180.78721878 -31.6965332 178.34692383 C-31.70279946 176.59741074 -31.70944641 174.84789898 -31.71644592 173.09838867 C-31.73746989 167.35206018 -31.74784694 161.60573147 -31.7578125 155.859375 C-31.76186071 153.87965061 -31.76597766 151.89992636 -31.77016258 149.92020226 C-31.7892108 140.61850135 -31.80344246 131.31680837 -31.81177455 122.01509172 C-31.82154518 111.28516254 -31.84786175 100.55543975 -31.88827544 89.82558328 C-31.91845578 81.5273397 -31.93324526 73.22915522 -31.93655556 64.93085784 C-31.9389039 59.97688651 -31.94783625 55.02313576 -31.97301674 50.0692234 C-31.99633593 45.40620752 -32.00051523 40.74355687 -31.99025536 36.08049774 C-31.98976082 34.37333904 -31.99605703 32.66616212 -32.0098114 30.95905876 C-32.15446521 11.93417621 -32.15446521 11.93417621 -25.74011707 5.23003864 C-18.52317966 -1.38754773 -9.50452579 -3.43341784 0 0 Z " fill="#ffffff" transform="translate(265.51953125,192.91015625)"/>
<path d="M0 0 C4.90708223 4.90708223 7.04375389 10.15630831 7.5 17 C7.40116071 22.89741081 5.73006929 27.48991761 1.9375 32 C-4.26427746 37.19218578 -8.47955831 39.58969001 -16.59765625 39.46875 C-22.45103207 38.87385155 -27.59930808 36.40069192 -31.75 32.25 C-35.98531064 26.12596975 -37.50488863 20.67756487 -36.75 13.25 C-35.33432013 7.59768993 -33.00202797 2.49906607 -28.078125 -0.90625 C-18.51366643 -6.62857564 -9.23787062 -5.87864494 0 0 Z " fill="#ffffff" transform="translate(270.75,110.75)"/>
</svg>
