 <svg version="1.1" xmlns="http://www.w3.org/2000/svg" width="512" height="512">
<path d="M0 0 C1.47664962 -0.00418366 2.95329603 -0.00966679 4.42993659 -0.01631981 C8.44731408 -0.03065803 12.4644844 -0.02656651 16.48187268 -0.019153 C20.83034143 -0.01439452 25.17876706 -0.02695475 29.52722168 -0.03717041 C38.03077945 -0.05431185 46.53426318 -0.05520807 55.03783373 -0.04995751 C61.95431423 -0.04590568 68.87077295 -0.04737136 75.78725243 -0.05270576 C77.26741369 -0.0538284 77.26741369 -0.0538284 78.7774772 -0.05497371 C80.7825243 -0.05650529 82.78757139 -0.05804364 84.79261848 -0.05958868 C103.56944103 -0.07329702 122.34622185 -0.06788788 141.12304344 -0.05640347 C158.27287152 -0.04647407 175.42259167 -0.05940967 192.57240311 -0.08333766 C210.21356321 -0.10776432 227.85467312 -0.11732769 245.49584979 -0.11068493 C255.38730839 -0.10720048 265.27868403 -0.10937345 275.17012978 -0.12693596 C283.59087254 -0.14170267 292.01147393 -0.14223528 300.43221406 -0.12486505 C304.72199538 -0.11638911 309.01152465 -0.11412133 313.30129242 -0.1295166 C352.15605206 -0.25906993 352.15605206 -0.25906993 368.71476746 8.13768005 C369.4132782 8.47912048 370.11178894 8.82056091 370.83146667 9.17234802 C376.98997027 12.27502968 382.49030857 16.03666469 387.83976746 20.38768005 C388.46882996 20.86592224 389.09789246 21.34416443 389.74601746 21.8368988 C406.37829014 35.0293151 416.54309247 56.86887055 419.83976746 77.38768005 C420.22656937 82.4435001 420.2511716 87.48057848 420.22744751 92.5479126 C420.23163117 94.02456222 420.23711429 95.50120862 420.24376732 96.97784919 C420.25810554 100.99522668 420.25401402 105.012397 420.24660051 109.02978528 C420.24184203 113.37825403 420.25440226 117.72667966 420.26461792 122.07513428 C420.28175936 130.57869205 420.28265558 139.08217577 420.27740502 147.58574633 C420.27335319 154.50222683 420.27481887 161.41868555 420.28015327 168.33516502 C420.2809017 169.3219392 420.28165012 170.30871338 420.28242122 171.3253898 C420.2839528 173.3304369 420.28549115 175.33548399 420.28703619 177.34053107 C420.30074453 196.11735363 420.29533539 214.89413445 420.28385098 233.67095604 C420.27392158 250.82078412 420.28685718 267.97050427 420.31078517 285.12031571 C420.33521183 302.76147581 420.3447752 320.40258572 420.33813244 338.04376239 C420.33464799 347.93522098 420.33682096 357.82659663 420.35438347 367.71804237 C420.36915018 376.13878514 420.36968279 384.55938653 420.35231256 392.98012666 C420.34383662 397.26990798 420.34156884 401.55943725 420.35696411 405.84920502 C420.48638869 444.66279509 420.48638869 444.66279509 412.15226746 461.20018005 C411.81413025 461.89538757 411.47599304 462.59059509 411.12760925 463.30686951 C407.78152837 469.94172228 403.56929417 475.65714671 398.83976746 481.38768005 C397.66414246 482.96549255 397.66414246 482.96549255 396.46476746 484.57518005 C381.89180488 500.18906853 360.558356 511.03209702 339.22676122 512.66409767 C335.37590935 512.77361825 331.53129242 512.79339315 327.67953491 512.77536011 C326.20288529 512.77954377 324.72623889 512.78502689 323.24959832 512.79167992 C319.23222083 512.80601814 315.21505051 512.80192661 311.19766223 512.79451311 C306.84919348 512.78975463 302.50076785 512.80231486 298.15231323 512.81253052 C289.64875546 512.82967196 281.14527174 512.83056818 272.64170118 512.82531761 C265.72522068 512.82126578 258.80876196 512.82273147 251.89228249 512.82806587 C250.90550831 512.82881429 249.91873413 512.82956272 248.90205771 512.83033382 C246.89701061 512.8318654 244.89196352 512.83340374 242.88691644 512.83494879 C224.11009388 512.84865713 205.33331306 512.84324799 186.55649147 512.83176357 C169.40666339 512.82183417 152.25694324 512.83476978 135.1071318 512.85869776 C117.4659717 512.88312443 99.82486179 512.8926878 82.18368512 512.88604504 C72.29222653 512.88256058 62.40085088 512.88473356 52.50940514 512.90229607 C44.08866237 512.91706278 35.66806098 512.91759539 27.24732085 512.90022516 C22.95753953 512.89174922 18.66801026 512.88948144 14.37824249 512.90487671 C-24.47651714 513.03443004 -24.47651714 513.03443004 -41.03523254 504.63768005 C-42.08299866 504.12551941 -42.08299866 504.12551941 -43.15193176 503.60301208 C-49.31043536 500.50033042 -54.81077366 496.73869542 -60.16023254 492.38768005 C-60.78929504 491.90943787 -61.41835754 491.43119568 -62.06648254 490.9384613 C-78.69929617 477.74561595 -88.86259092 455.9067854 -92.16023254 435.38768005 C-92.54884469 430.32384617 -92.57578692 425.2784336 -92.55464172 420.20294189 C-92.55954336 418.72359228 -92.56573898 417.24424649 -92.57309961 415.76490706 C-92.58936128 411.73999587 -92.58720963 407.71528231 -92.58172464 403.69034994 C-92.57903726 399.33365811 -92.59361813 394.97701695 -92.6058197 390.62034607 C-92.62680464 382.10008015 -92.63141853 373.57988238 -92.62963182 365.05959366 C-92.62832061 358.12835078 -92.63214659 351.19712903 -92.63955688 344.26589012 C-92.64165624 342.26404228 -92.64375384 340.26219444 -92.6458497 338.26034659 C-92.64689323 337.26374676 -92.64793676 336.26714693 -92.64901191 335.24034711 C-92.66788654 316.42006976 -92.66687271 297.59983144 -92.66004258 278.77954855 C-92.65447002 261.59548587 -92.67528534 244.41157241 -92.70840305 227.22754458 C-92.74220914 209.5479528 -92.75729973 191.86843235 -92.75268602 174.18880767 C-92.75044822 164.27714116 -92.75558322 154.36561252 -92.78057861 144.45397377 C-92.8016814 136.01460318 -92.8050953 127.57544605 -92.78627902 119.13606641 C-92.77717594 114.83788178 -92.77580942 110.54009418 -92.79663467 106.24194145 C-92.98021334 65.7068672 -92.98021334 65.7068672 -82.78523254 48.26268005 C-82.39948059 47.5687616 -82.01372864 46.87484314 -81.61628723 46.15989685 C-78.59426548 40.8426608 -75.16371384 36.01415206 -71.16023254 31.38768005 C-70.41773254 30.39768005 -69.67523254 29.40768005 -68.91023254 28.38768005 C-51.9681503 8.53967431 -25.24327568 -0.1181832 0 0 Z M-46.05867004 52.8837738 C-58.75156309 68.00671886 -60.31731007 85.19344189 -60.29394531 104.10002136 C-60.29581677 105.46810857 -60.2981188 106.83619525 -60.30081064 108.20428109 C-60.3068936 111.93998769 -60.3067992 115.67567179 -60.30561626 119.4113822 C-60.30541136 123.44968856 -60.31093945 127.48798786 -60.31567383 131.52629089 C-60.32396159 139.42912113 -60.32672782 147.33194391 -60.32728621 155.23477814 C-60.32776224 161.66176631 -60.32982133 168.08875204 -60.33298683 174.51573944 C-60.34178813 192.75779935 -60.346407 210.99985339 -60.34565636 229.24191543 C-60.3456164 230.22426581 -60.34557645 231.20661618 -60.34553528 232.21873474 C-60.3454944 233.20229148 -60.34545352 234.18584823 -60.3454114 235.19920972 C-60.34500503 251.13558046 -60.35457363 267.07192755 -60.36867364 283.00829145 C-60.38305415 299.39159711 -60.38994291 315.77489124 -60.38907987 332.15820336 C-60.38874849 341.34816757 -60.39146974 350.53810699 -60.40225792 359.72806549 C-60.41138495 367.5527758 -60.4135201 375.37745009 -60.4067485 383.20216343 C-60.40349445 387.18971723 -60.40338605 391.177202 -60.41210175 395.16474915 C-60.42001727 398.82402767 -60.41848436 402.483183 -60.40981761 406.14245871 C-60.40757872 408.07420574 -60.41507138 410.00595676 -60.42305726 411.93768859 C-60.34340056 432.34544974 -56.08459772 448.94256514 -41.97273254 464.07518005 C-27.14723382 478.27354263 -9.09547752 480.54540881 10.51451111 480.52139282 C11.89069755 480.52326366 13.26688347 480.52556545 14.64306855 480.52825814 C18.40576821 480.53434881 22.16844555 480.53424579 25.93114901 480.53306377 C29.99672058 480.53285907 34.06228512 480.53838511 38.12785339 480.54312134 C46.08596479 480.5514134 54.04406877 480.55417552 62.00218412 480.55473372 C68.4735412 480.55520955 74.94489583 480.55726769 81.41625214 480.56043434 C99.77996091 480.56923691 118.14366384 480.57385433 136.50737473 480.57310387 C137.49652722 480.57306391 138.48567971 480.57302396 139.50480652 480.57298279 C140.4951723 480.57294191 141.48553809 480.57290103 142.50591496 480.57285891 C158.55295571 480.57245253 174.59997299 480.58202098 190.64700696 480.59612115 C207.13988732 480.61049828 223.63275623 480.61739061 240.12564301 480.61652738 C249.37874738 480.61619588 258.63182713 480.61892252 267.88492584 480.62970543 C275.76348768 480.63882801 283.64201375 480.64097125 291.52057859 480.63419601 C295.5363551 480.63093969 299.55206304 480.63084186 303.56783295 480.63954926 C307.25177111 480.64745465 310.9355868 480.64594199 314.61952212 480.63726512 C316.56696812 480.63502202 318.51441803 480.64252693 320.46184897 480.65050477 C340.43797273 480.57290121 356.73633891 475.99340684 371.52726746 462.20018005 C386.06743718 447.01777669 387.99818691 428.66780016 387.97348022 408.67533875 C387.97535168 407.30725153 387.97765372 405.93916486 387.98034555 404.57107902 C387.98642851 400.83537242 387.98633411 397.09968832 387.98515117 393.36397791 C387.98494628 389.32567155 387.99047436 385.28737225 387.99520874 381.24906921 C388.0034965 373.34623897 388.00626273 365.4434162 388.00682112 357.54058197 C388.00729715 351.11359379 388.00935624 344.68660807 388.01252174 338.25962067 C388.02132304 320.01756076 388.02594192 301.77550672 388.02519127 283.53344467 C388.02515131 282.5510943 388.02511136 281.56874393 388.02507019 280.55662537 C388.02502931 279.57306862 388.02498843 278.58951188 388.02494631 277.57615039 C388.02453994 261.63977965 388.03410854 245.70343255 388.04820856 229.76706865 C388.06258906 213.383763 388.06947783 197.00046887 388.06861478 180.61715674 C388.0682834 171.42719254 388.07100465 162.23725312 388.08179283 153.04729462 C388.09091986 145.22258431 388.09305502 137.39791002 388.08628341 129.57319668 C388.08302936 125.58564288 388.08292096 121.5981581 388.09163666 117.61061096 C388.09955218 113.95133244 388.09801927 110.2921771 388.08935253 106.6329014 C388.08711363 104.70115436 388.09460629 102.76940335 388.10259217 100.83767152 C388.02293547 80.42991037 383.76413263 63.83279497 369.65226746 48.70018005 C354.82676873 34.50181748 336.77501243 32.22995129 317.1650238 32.25396729 C315.78883736 32.25209645 314.41265144 32.24979466 313.03646636 32.24710196 C309.27376671 32.2410113 305.51108936 32.24111432 301.74838591 32.24229634 C297.68281433 32.24250104 293.61724979 32.23697499 289.55168152 32.23223877 C281.59357013 32.22394671 273.63546614 32.22118458 265.67735079 32.22062639 C259.20599372 32.22015055 252.73463908 32.21809242 246.26328278 32.21492577 C227.89957401 32.2061232 209.53587107 32.20150578 191.17216018 32.20225624 C190.18300769 32.2022962 189.1938552 32.20233615 188.17472839 32.20237732 C186.68917972 32.20243864 186.68917972 32.20243864 185.17361996 32.2025012 C169.1265792 32.20290758 153.07956192 32.19333913 137.03252795 32.17923895 C120.5396476 32.16486183 104.04677868 32.1579695 87.5538919 32.15883273 C78.30078753 32.15916423 69.04770778 32.15643759 59.79460907 32.14565468 C51.91604723 32.13653209 44.03752116 32.13438886 36.15895632 32.1411641 C32.14317981 32.14442041 28.12747187 32.14451825 24.11170197 32.13581085 C20.4277638 32.12790546 16.74394811 32.12941812 13.06001279 32.13809498 C11.1125668 32.14033809 9.16511688 32.13283317 7.21768594 32.12485534 C-13.8295634 32.20662002 -31.25118369 37.42224653 -46.05867004 52.8837738 Z " fill="#ffffff" transform="translate(92.16023254394531,-0.3876800537109375)"/>
<path d="M0 0 C3.88446678 2.58964452 6.69907021 5.64814041 8.8125 9.875 C8.90439837 11.30682823 8.93443458 12.74286948 8.93275452 14.17764282 C8.93481651 15.53223854 8.93481651 15.53223854 8.93692017 16.91419983 C8.93332489 17.9075383 8.92972961 18.90087677 8.92602539 19.92431641 C8.92617142 20.96824051 8.92631744 22.01216461 8.9264679 23.08772278 C8.92576922 26.55069023 8.91797891 30.0136044 8.91015625 33.4765625 C8.90829191 35.87267019 8.90686808 38.26877827 8.90586853 40.66488647 C8.90204461 46.98108975 8.89221538 53.29727014 8.88116455 59.61346436 C8.87094774 66.05480642 8.86637033 72.49615217 8.86132812 78.9375 C8.85059302 91.58334311 8.83370945 104.22917034 8.8125 116.875 C9.35934039 116.87223462 9.90618078 116.86946924 10.46959209 116.86662006 C23.78190846 116.80033658 37.09419588 116.75089952 50.40664196 116.71956348 C56.84448071 116.70390057 63.28220045 116.68265054 69.7199707 116.64868164 C75.93153874 116.61611101 82.14299222 116.5981517 88.35463905 116.59036827 C90.72573971 116.58482067 93.09683402 116.57398774 95.46788597 116.55780983 C98.78626482 116.53606653 102.10416892 116.53303184 105.42260742 116.53442383 C106.40516006 116.523638 107.38771271 116.51285217 108.40003967 116.5017395 C114.31152398 116.52861257 117.97064393 117.11926078 122.359375 121.375 C126.41759482 126.43459874 127.48592704 130.43458871 126.8125 136.875 C125.06461339 141.56669564 122.56785352 144.58906567 118.8125 147.875 C115.99594272 148.81385243 114.30189608 148.99866869 111.38960266 148.99525452 C110.48516418 148.99662918 109.58072571 148.99800385 108.64888 148.99942017 C107.65913681 148.99582489 106.66939362 148.99222961 105.6496582 148.98852539 C104.60558807 148.98867142 103.56151794 148.98881744 102.48580933 148.9889679 C99.02827897 148.98827018 95.57080222 148.98048431 92.11328125 148.97265625 C89.7186028 148.97079157 87.32392396 148.9693679 84.929245 148.96836853 C78.62127635 148.96454728 72.31333066 148.95472031 66.00537109 148.94366455 C59.57064118 148.93344202 53.13590756 148.9288691 46.70117188 148.92382812 C34.07160478 148.91309772 21.44205361 148.89621774 8.8125 148.875 C8.81526538 149.42184039 8.81803076 149.96868078 8.82087994 150.53209209 C8.88716342 163.84440846 8.93660048 177.15669588 8.96793652 190.46914196 C8.98359943 196.90698071 9.00484946 203.34470045 9.03881836 209.7824707 C9.07138899 215.99403874 9.0893483 222.20549222 9.09713173 228.41713905 C9.10267933 230.78823971 9.11351226 233.15933402 9.12969017 235.53038597 C9.15143347 238.84876482 9.15446816 242.16666892 9.15307617 245.48510742 C9.163862 246.46766006 9.17464783 247.45021271 9.1857605 248.46253967 C9.15888743 254.37402398 8.56823922 258.03314393 4.3125 262.421875 C-0.74709874 266.48009482 -4.74708871 267.54842704 -11.1875 266.875 C-15.87919564 265.12711339 -18.90156567 262.63035352 -22.1875 258.875 C-23.12635243 256.05844272 -23.31116869 254.36439608 -23.30775452 251.45210266 C-23.30981651 250.09544495 -23.30981651 250.09544495 -23.31192017 248.71138 C-23.30652725 247.22676521 -23.30652725 247.22676521 -23.30102539 245.7121582 C-23.30117142 244.66808807 -23.30131744 243.62401794 -23.3014679 242.54830933 C-23.30077018 239.09077897 -23.29298431 235.63330222 -23.28515625 232.17578125 C-23.28329157 229.7811028 -23.2818679 227.38642396 -23.28086853 224.991745 C-23.27704728 218.68377635 -23.26722031 212.37583066 -23.25616455 206.06787109 C-23.24594202 199.63314118 -23.2413691 193.19840756 -23.23632812 186.76367188 C-23.22559772 174.13410478 -23.20871774 161.50455361 -23.1875 148.875 C-23.7334186 148.87868717 -24.2793372 148.88237434 -24.84179878 148.88617325 C-38.13774927 148.97458933 -51.43364811 149.04048559 -64.72982979 149.08224869 C-71.1598417 149.10312412 -77.58964145 149.13144168 -84.01953125 149.17675781 C-90.22462932 149.22021605 -96.4295233 149.24413744 -102.63476181 149.25450897 C-105.0022592 149.26190029 -107.3697454 149.27633371 -109.73715591 149.29792023 C-113.05304361 149.32695294 -116.3680877 149.33095592 -119.68408203 149.32910156 C-120.6630394 149.34348267 -121.64199677 149.35786377 -122.65061951 149.37268066 C-128.35212816 149.3381749 -131.6877366 148.73039467 -136.1875 144.875 C-140.18802979 140.4419805 -141.57235389 137.11631602 -141.4609375 131.06640625 C-140.98022754 127.21385932 -139.68456563 123.85395549 -137.1875 120.875 C-131.27529727 116.66767565 -126.71166793 116.31560722 -119.57055664 116.42089844 C-118.5259024 116.42031433 -117.48124817 116.41973022 -116.40493774 116.41912842 C-112.96883349 116.42190424 -109.53360806 116.45297373 -106.09765625 116.484375 C-103.70869928 116.49183914 -101.31973617 116.49753126 -98.93077087 116.50152588 C-92.65557835 116.51676839 -86.38075856 116.5560389 -80.10571289 116.6003418 C-73.69747967 116.64132398 -67.28918599 116.65954323 -60.88085938 116.6796875 C-48.31624761 116.72253397 -35.75189367 116.78999569 -23.1875 116.875 C-23.19118717 116.33000319 -23.19487434 115.78500639 -23.19867325 115.22349453 C-23.28712772 101.9438838 -23.35300413 88.6643249 -23.39474869 75.38448238 C-23.41561549 68.96234591 -23.4439173 62.54042222 -23.48925781 56.1184082 C-23.53274681 49.91978936 -23.55664394 43.72137507 -23.56700897 37.52261543 C-23.57439476 35.15873558 -23.58881745 32.79486682 -23.61042023 30.43107414 C-23.63949382 27.11778521 -23.64345421 23.80533951 -23.64160156 20.49194336 C-23.65598267 19.51658127 -23.67036377 18.54121918 -23.68518066 17.53630066 C-23.64837091 11.44489234 -22.7394985 7.86632785 -19.1875 2.875 C-13.56503681 -1.83794709 -6.78036172 -2.39306884 0 0 Z " fill="#ffffff" transform="translate(263.1875,123.125)"/>
</svg>
