 <!DOCTYPE svg PUBLIC "-//W3C//DTD SVG 1.1//EN" "http://www.w3.org/Graphics/SVG/1.1/DTD/svg11.dtd">
<svg xmlns="http://www.w3.org/2000/svg" version="1.1" width="512px" height="512px" style="shape-rendering:geometricPrecision; text-rendering:geometricPrecision; image-rendering:optimizeQuality; fill-rule:evenodd; clip-rule:evenodd" xmlns:xlink="http://www.w3.org/1999/xlink">
<g><path style="opacity:0.959" fill="#ffffff" d="M 117.5,-0.5 C 219.833,-0.5 322.167,-0.5 424.5,-0.5C 437.115,3.62216 444.615,12.2888 447,25.5C 447.667,179.167 447.667,332.833 447,486.5C 444.942,499.314 437.775,507.647 425.5,511.5C 322.833,511.5 220.167,511.5 117.5,511.5C 89.727,505.229 72.227,488.229 65,460.5C 63.8451,392.193 63.3451,323.859 63.5,255.5C 63.3451,187.141 63.8451,118.807 65,50.5C 72.2308,22.7671 89.7308,5.76714 117.5,-0.5 Z M 123.5,24.5 C 170.5,24.5 217.5,24.5 264.5,24.5C 264.333,67.8346 264.5,111.168 265,154.5C 267.743,165.075 274.576,170.741 285.5,171.5C 292.499,170.75 298.333,167.75 303,162.5C 310.333,151.167 317.667,139.833 325,128.5C 331.333,138.5 337.667,148.5 344,158.5C 355.317,174.083 367.984,175.417 382,162.5C 383,160.5 384,158.5 385,156.5C 385.5,112.501 385.667,68.5013 385.5,24.5C 396.505,24.3335 407.505,24.5002 418.5,25C 419.667,25.5 420.5,26.3333 421,27.5C 421.5,145.833 421.667,264.166 421.5,382.5C 323.528,381.34 225.528,381.174 127.5,382C 113.877,382.485 101.544,386.652 90.5,394.5C 89.3333,282.168 89.1667,169.835 90,57.5C 94.4626,39.5363 105.629,28.5363 123.5,24.5 Z M 289.5,24.5 C 313.167,24.5 336.833,24.5 360.5,24.5C 360.667,61.5015 360.5,98.5015 360,135.5C 351.303,122.301 342.803,108.967 334.5,95.5C 326.339,89.4159 319.172,90.4159 313,98.5C 305.333,110.833 297.667,123.167 290,135.5C 289.5,98.5015 289.333,61.5015 289.5,24.5 Z M 124.5,407.5 C 222.501,407.333 320.501,407.5 418.5,408C 419.416,408.374 420.25,408.874 421,409.5C 421.5,417.827 421.666,426.16 421.5,434.5C 327.833,434.333 234.166,434.5 140.5,435C 133.026,435.755 129.026,439.922 128.5,447.5C 129.026,455.078 133.026,459.245 140.5,460C 234.167,460.371 327.834,460.205 421.5,459.5C 421.666,467.84 421.5,476.173 421,484.5C 420.5,485 420,485.5 419.5,486C 320.5,486.667 221.5,486.667 122.5,486C 94.3993,477.302 84.566,458.802 93,430.5C 99.9188,417.803 110.419,410.136 124.5,407.5 Z"/></g>
</svg>
