<svg width="500" height="500" viewBox="0 0 500 500" fill="none" xmlns="http://www.w3.org/2000/svg">
<circle cx="250" cy="250" r="250" fill="#64FFDA" fill-opacity="0.16"/>
<path d="M247.722 132C247.722 132 247.346 144.081 245.391 150C242.57 158.544 232.945 164.655 233.844 173.602C234.655 181.659 249.039 190.601 249.039 190.601C249.039 190.601 261.162 180.834 263.623 173.901C265.563 168.439 264.714 162.137 263.017 156.601C260.198 147.412 247.722 132 247.722 132ZM248.836 195.2C244.74 195.2 241.541 198.987 241.541 203.702V212.599L258.256 201.9C257.535 198.075 254.511 195.203 250.961 195.203H248.833L248.836 195.2ZM258.356 205.2L249.039 211L241.541 216.302V228.501L258.356 217.602V205.2ZM258.356 221.002L241.541 231.501V241.402H166.284C165.934 241.402 165.609 241.377 165.271 241.402C160.174 241.802 156.256 245.122 156.256 249.202V306.903C157.846 308.09 159.571 309.172 161.42 310.104C167.859 313.346 175.784 314.911 183.502 314.503C190.406 314.14 197.17 312.2 202.647 309.004C208.122 305.808 212.288 301.355 214.498 296.404L216.626 291.704L218.754 296.404C221.312 301.891 226.346 306.661 232.832 309.805C239.316 312.943 247.241 314.434 254.911 313.905C261.653 313.438 268.254 311.488 273.551 308.305C278.845 305.119 282.883 300.759 284.996 295.903L286.921 291.405L289.249 295.705C291.953 300.734 296.674 305.24 302.519 308.403C308.364 311.567 315.399 313.388 322.576 313.705C329.945 314.028 337.43 312.672 343.846 309.904V249.202C343.846 244.85 339.303 241.402 333.718 241.402H258.356V234.6L247.416 241.402H242.555L258.356 231.101V221.002ZM244.988 254.402L252.683 261.404L262.814 259.103L258.458 268.502L263.826 277.302L253.394 276.104L246.505 283.904L244.478 273.702L234.857 269.601L243.974 264.602L244.988 254.402ZM312.142 272.204L319.839 279.203L329.968 277.003L325.612 286.304L330.982 295.201L320.548 294.002L313.661 301.703L311.634 291.602L302.013 287.502L311.231 282.502L312.142 272.204ZM178.032 273.304L185.73 280.402L195.961 278.103L191.505 287.502L196.872 296.303L186.541 295.104L179.552 302.904L177.524 292.702L168.004 288.602L177.121 283.602L178.032 273.304ZM287.327 300.505C284.748 304.545 281.043 308.104 276.387 310.905C270.389 314.508 263.052 316.675 255.419 317.204C246.726 317.805 237.749 316.265 230.401 312.704C224.541 309.864 219.903 305.769 216.726 301.103C214.047 305.193 210.172 308.908 205.381 311.705C199.188 315.319 191.613 317.39 183.808 317.805C175.068 318.267 166.177 316.574 158.89 312.904C157.978 312.444 157.112 312.017 156.256 311.503V345.105H343.844V313.804C337.2 316.292 329.687 317.432 322.268 317.103C314.225 316.75 306.432 314.649 299.883 311.105C294.731 308.314 290.396 304.681 287.324 300.502L287.327 300.505ZM196.367 321.201C198.863 321.208 201.254 322.19 203.019 323.933C204.784 325.675 205.779 328.036 205.787 330.501C205.787 335.617 201.548 339.702 196.367 339.702C195.141 339.708 193.926 339.474 192.793 339.014C191.66 338.553 190.63 337.876 189.763 337.02C188.897 336.165 188.21 335.148 187.744 334.029C187.278 332.91 187.041 331.711 187.047 330.501C187.047 325.385 191.185 321.201 196.367 321.201ZM249.241 321.601C251.737 321.608 254.129 322.59 255.894 324.333C257.659 326.075 258.654 328.437 258.661 330.901C258.661 336.017 254.421 340.102 249.241 340.102C248.016 340.108 246.801 339.874 245.668 339.414C244.534 338.954 243.505 338.276 242.638 337.421C241.771 336.565 241.085 335.548 240.619 334.429C240.153 333.31 239.916 332.111 239.922 330.901C239.922 325.785 244.06 321.601 249.241 321.601ZM302.216 323.101C303.442 323.096 304.656 323.33 305.789 323.79C306.922 324.251 307.952 324.928 308.818 325.784C309.684 326.64 310.37 327.656 310.836 328.775C311.303 329.894 311.539 331.093 311.533 332.302C311.533 337.418 307.396 341.603 302.216 341.603C299.72 341.595 297.328 340.613 295.563 338.871C293.798 337.128 292.804 334.767 292.796 332.302C292.796 327.187 297.034 323.101 302.216 323.101ZM356 348.103L144 348.201L144.1 355.401C144.155 361.505 149.067 364.901 154.026 364.901L345.568 365C351.491 365 356.045 361.325 356 355.801V348.103Z" fill="#054141"/>
</svg>
