<svg width="60" height="60" viewBox="0 0 60 60" fill="none" xmlns="http://www.w3.org/2000/svg">
<rect width="60" height="60" rx="10" fill="#054141"/>
<path d="M43.4615 46.9232H16.3846C14.5385 46.9232 13 45.3848 13 43.5386V18.6925C13 16.8463 14.2308 15.3079 15.8462 15.3079H17.5385V17.5386H15.8462C15.6154 17.5386 15.3077 18.0002 15.3077 18.6925V43.5386C15.3077 44.154 15.8462 44.6925 16.4615 44.6925H43.5385C44.1538 44.6925 44.6923 44.154 44.6923 43.5386V18.6925C44.6923 18.0002 44.3077 17.5386 44.1538 17.5386H42.4615V15.3079H44.1538C45.6923 15.3079 47 16.8463 47 18.6925V43.5386C46.8462 45.3848 45.3077 46.9232 43.4615 46.9232Z" fill="white"/>
<path d="M20.9231 19.8462C20.3077 19.8462 19.7692 19.3077 19.7692 18.6923V14.1538C19.7692 13.5385 20.3077 13 20.9231 13C21.5384 13 22.0769 13.5385 22.0769 14.1538V18.6923C22 19.3077 21.5384 19.8462 20.9231 19.8462ZM38.923 19.8462C38.3077 19.8462 37.7692 19.3077 37.7692 18.6923V14.1538C37.7692 13.5385 38.3077 13 38.923 13C39.5384 13 40.0769 13.5385 40.0769 14.1538V18.6923C40.0769 19.3077 39.5384 19.8462 38.923 19.8462ZM24.3077 15.3077H35.5384V17.6154H24.3077V15.3077ZM15.2307 22.0769H44.6154V24.3846H15.2307V22.0769ZM40.0769 26.6154H42.3077V28.8462H40.0769V26.6154ZM35.5384 26.6154H37.8461V28.8462H35.5384V26.6154ZM31.0769 26.6154H33.3077V28.8462H31.0769V26.6154ZM26.5384 26.6154H28.7692V28.8462H26.5384V26.6154ZM22 26.6154H24.3077V28.8462H22V26.6154ZM40.0769 31.1538H42.3077V33.3846H40.0769V31.1538ZM35.5384 31.1538H37.8461V33.3846H35.5384V31.1538ZM31.0769 31.1538H33.3077V33.3846H31.0769V31.1538ZM26.5384 31.1538H28.7692V33.3846H26.5384V31.1538ZM22 31.1538H24.3077V33.3846H22V31.1538ZM17.5384 31.1538H19.7692V33.3846H17.5384V31.1538ZM40.0769 35.6154H42.3077V37.9231H40.0769V35.6154ZM35.5384 35.6154H37.8461V37.9231H35.5384V35.6154ZM31.0769 35.6154H33.3077V37.9231H31.0769V35.6154ZM26.5384 35.6154H28.7692V37.9231H26.5384V35.6154ZM22 35.6154H24.3077V37.9231H22V35.6154ZM17.5384 35.6154H19.7692V37.9231H17.5384V35.6154ZM35.5384 40.1538H37.8461V42.3846H35.5384V40.1538ZM31.0769 40.1538H33.3077V42.3846H31.0769V40.1538ZM26.5384 40.1538H28.7692V42.3846H26.5384V40.1538ZM22 40.1538H24.3077V42.3846H22V40.1538ZM17.5384 40.1538H19.7692V42.3846H17.5384V40.1538Z" fill="white"/>
</svg>
