 <svg version="1.1" xmlns="http://www.w3.org/2000/svg" width="512" height="512">
<path d="M0 0 C1.05739847 -0.00551503 1.05739847 -0.00551503 2.13615853 -0.01114148 C4.492559 -0.0221328 6.84891531 -0.02601446 9.20533752 -0.02983093 C10.89762511 -0.03609924 12.58991132 -0.04274637 14.28219604 -0.04974365 C19.83672636 -0.0707505 25.39125683 -0.08114593 30.94581604 -0.09111023 C32.8625903 -0.09515967 34.77936441 -0.09927664 36.69613838 -0.10346031 C45.70685099 -0.12250806 54.71755544 -0.13673748 63.7282843 -0.14507228 C74.10441364 -0.1548301 84.48032884 -0.18111331 94.85638279 -0.22157317 C102.89145723 -0.25182106 110.92647061 -0.26654953 118.96160084 -0.26985329 C123.75307641 -0.27219474 128.54432312 -0.28103594 133.33573723 -0.30631447 C137.85104556 -0.32975113 142.36597688 -0.33376638 146.88133049 -0.32355309 C148.52833823 -0.32306131 150.17536551 -0.32927457 151.82231522 -0.34310913 C168.19402588 -0.47281103 182.03897219 2.39317094 194.69972229 13.64717102 C195.42159729 14.47217102 196.14347229 15.29717102 196.88722229 16.14717102 C197.36546448 16.63443665 197.84370667 17.12170227 198.33644104 17.62373352 C202.90283817 22.47768714 205.53673894 27.94734538 207.88722229 34.14717102 C208.41170959 35.52098938 208.41170959 35.52098938 208.9467926 36.92256165 C210.64815571 42.95983547 210.09373332 49.37415756 210.01222229 55.58467102 C210.00319885 56.88855774 209.99417542 58.19244446 209.98487854 59.5358429 C209.96140626 62.73980934 209.92856956 65.94339366 209.88722229 69.14717102 C210.81048813 69.14050919 211.73375397 69.13384735 212.68499756 69.12698364 C221.43702581 69.06657289 230.18898281 69.02104545 238.9411726 68.9917345 C243.4394752 68.97615828 247.93760378 68.95506929 252.43580627 68.92085266 C256.78654982 68.88796934 261.13712726 68.87025773 265.48798561 68.86253929 C267.1379641 68.85704727 268.78793474 68.84632466 270.43784142 68.82998085 C289.62523386 68.64767911 306.65166707 72.27170573 320.88722229 86.14717102 C331.2378146 98.11674877 336.20503848 111.05352117 336.15464783 126.74720764 C336.15917894 127.79096565 336.16371005 128.83472367 336.16837847 129.91011071 C336.18100254 133.39510076 336.17940337 136.87993413 336.17774963 140.36494446 C336.18373612 142.86879171 336.19054195 145.37263712 336.19810486 147.8764801 C336.21392723 153.96480952 336.22021272 160.05307773 336.22132961 166.141422 C336.22228187 171.0934604 336.22640103 176.04548608 336.23273087 180.99752045 C336.25033333 195.05588103 336.25957132 209.11421115 336.25806992 223.17258283 C336.25795005 224.30807528 336.25795005 224.30807528 336.25782776 225.46650696 C336.257746 226.2244326 336.25766424 226.98235825 336.25758 227.76325133 C336.25676743 240.04108898 336.27590028 252.31880384 336.30410449 264.59660599 C336.33287563 277.22142447 336.34664246 289.84618316 336.34491694 302.47103524 C336.34425449 309.55166834 336.34968307 316.63217273 336.37127304 323.71277618 C336.39145635 330.37443189 336.39076808 337.03577147 336.37623978 343.69745636 C336.37415269 346.13706357 336.37884651 348.57668784 336.39096069 351.01626587 C336.50029246 374.56616356 336.50029246 374.56616356 331.88722229 384.14717102 C331.40640198 385.23513977 330.92558167 386.32310852 330.43019104 387.44404602 C322.71849787 401.40065499 311.2677208 411.36244804 295.88722229 416.14717102 C287.08189755 418.6183617 278.20903501 418.43357823 269.15122986 418.41459656 C267.45458259 418.4183372 265.75793704 418.42294037 264.0612942 418.4283272 C259.41730919 418.44052154 254.77339641 418.44030095 250.12939906 418.43793845 C245.11353247 418.43752938 240.09768875 418.44857811 235.08183289 418.45805359 C225.26127266 418.47464529 215.44073644 418.48016232 205.62016337 418.48127834 C197.63426524 418.48222974 189.64837502 418.48634462 181.6624794 418.4926796 C159.00354578 418.51028747 136.34463108 418.51951924 113.68569057 418.51801865 C112.464906 418.51793874 111.24412143 418.51785882 109.98634338 418.51777649 C108.15292143 418.51765385 108.15292143 418.51765385 106.28246064 418.51752873 C86.48043567 418.51671609 66.67848681 418.53584941 46.87648384 418.56405322 C26.52682127 418.59280752 6.17719578 418.6065921 -14.17248762 418.60486567 C-25.59036752 418.60420262 -37.00816764 418.60965755 -48.42602921 418.63122177 C-58.14866875 418.64946712 -67.87119234 418.65375341 -77.59384163 418.64020292 C-82.54977658 418.63369006 -87.50548932 418.63349509 -92.46140289 418.65090942 C-97.00784884 418.66671992 -101.55389784 418.66369576 -106.10033457 418.64634116 C-107.73557377 418.64328872 -109.3708432 418.64683657 -111.00604673 418.65806131 C-129.50506963 418.77652634 -146.3036134 415.12642885 -160.30809021 402.08076477 C-170.92772955 390.70257976 -176.42954594 377.07696621 -176.38020325 361.67411804 C-176.38473436 360.63192002 -176.38926547 359.589722 -176.39393389 358.51594222 C-176.40657518 355.0301802 -176.40495766 351.54457449 -176.40330505 348.05879211 C-176.40929055 345.55671488 -176.41609615 343.05463949 -176.42366028 340.55256653 C-176.43949277 334.4644329 -176.44576871 328.3763605 -176.44688503 322.28821199 C-176.44783695 317.33568153 -176.45195444 312.38316379 -176.45828629 307.43063736 C-176.47589363 293.37143428 -176.48512624 279.31226169 -176.48362534 265.25304751 C-176.48354543 264.49574987 -176.48346551 263.73845223 -176.48338318 262.95820618 C-176.48330142 262.19997734 -176.48321966 261.44174851 -176.48313542 260.66054304 C-176.48232321 248.38331734 -176.50144581 236.10621453 -176.52965991 223.82902436 C-176.55843986 211.20536271 -176.57219732 198.58176089 -176.57047236 185.95806563 C-176.5698101 178.87794467 -176.57522974 171.79795246 -176.59682846 164.71786118 C-176.61702614 158.05457412 -176.6163145 151.39160303 -176.6017952 144.72828674 C-176.5997096 142.28910042 -176.60439302 139.84989699 -176.61651611 137.4107399 C-176.70312807 118.77001075 -175.35511036 101.37844806 -161.98777771 86.89717102 C-145.88193109 71.8650475 -129.69598953 68.81332792 -108.51121521 68.95185852 C-106.82157052 68.95559545 -105.13192364 68.95843921 -103.442276 68.96043396 C-99.02659468 68.96801691 -94.61104798 68.98761862 -90.19541931 69.00984192 C-85.67700521 69.03041628 -81.15856905 69.0394603 -76.64012146 69.04951477 C-67.79761223 69.07087031 -58.95521179 69.10494061 -50.11277771 69.14717102 C-50.13372498 68.36180969 -50.15467224 67.57644836 -50.17625427 66.76728821 C-50.26036705 63.14405066 -50.31173759 59.52101954 -50.36277771 55.89717102 C-50.39629333 54.66224915 -50.42980896 53.42732727 -50.46434021 52.15498352 C-50.61879124 37.48213607 -45.79679023 25.19488584 -36.11277771 14.14717102 C-25.29051904 5.34387967 -14.12869068 0.04790654 0 0 Z M18.88722229 135.14717102 C17.93976135 135.66408508 16.99230042 136.18099915 16.01612854 136.71357727 C9.81290353 140.26518972 4.34000811 144.54201376 -1.11277771 149.14717102 C-1.87590271 149.77494446 -2.63902771 150.4027179 -3.42527771 151.04951477 C-9.43859216 156.15456818 -14.32532377 161.8934489 -19.11277771 168.14717102 C-19.70832458 168.91545227 -20.30387146 169.68373352 -20.91746521 170.47529602 C-40.55604169 197.08239964 -47.95452401 229.92888519 -43.5400238 262.48066711 C-41.66903764 274.15775906 -38.16187286 285.45965415 -33.11277771 296.14717102 C-32.7350824 296.98119446 -32.35738708 297.8152179 -31.96824646 298.67451477 C-17.54254742 329.21453983 9.55187686 350.90370414 40.89112854 362.23310852 C73.2154646 372.99440188 107.60761404 369.41366402 137.85597229 354.30342102 C166.23381411 339.4975905 188.8196505 312.96278393 198.47340393 282.45942688 C200.77453328 274.80252759 202.98613972 267.10863473 203.88722229 259.14717102 C204.01999573 257.9999054 204.15276917 256.85263977 204.28956604 255.67060852 C207.05824051 224.62412399 198.11734772 191.74307362 178.38722229 167.33467102 C176.89665255 165.59736874 175.39706431 163.8677507 173.88722229 162.14717102 C173.24011292 161.36728821 172.59300354 160.5874054 171.92628479 159.78388977 C166.8478214 153.7830116 161.12206762 148.91551048 154.88722229 144.14717102 C154.09573792 143.54002258 153.30425354 142.93287415 152.48878479 142.30732727 C113.34992643 113.63583801 60.83630052 111.97134364 18.88722229 135.14717102 Z " fill="#e6d500" transform="translate(176.11277770996094,46.85282897949219)"/>
<path d="M0 0 C0.66773438 0.48082031 1.33546875 0.96164063 2.0234375 1.45703125 C16.76583698 12.91180644 26.41929763 33.32983283 29.58203125 51.30859375 C32.38885042 76.09779113 26.33373576 98.43849437 11.23828125 118.3203125 C-3.05112794 135.51553446 -23.96614086 145.5540343 -46.00024414 147.72436523 C-68.63373797 149.42926887 -89.43247438 142.30903428 -107.1875 128.375 C-123.29944306 114.27973157 -133.45329606 95.30373209 -136 74 C-137.46913469 49.67294121 -131.33101672 28.13580023 -115.9375 9 C-85.01085656 -24.61891821 -35.79732794 -26.87211814 0 0 Z " fill="#e6d500" transform="translate(309,226)"/>
</svg>
