 <svg version="1.1" xmlns="http://www.w3.org/2000/svg" width="512" height="512">
<path d="M0 0 C0.84159668 0.41121094 1.68319336 0.82242188 2.55029297 1.24609375 C14.71431322 7.25565919 26.15449842 13.83809333 37 22 C37.63679688 22.47598633 38.27359375 22.95197266 38.9296875 23.44238281 C80.44047508 54.84637723 109.58844388 100.66731329 117.86572266 152.31176758 C125.02664425 205.53278832 112.12774049 259.07140139 79.56787109 301.99169922 C61.26750677 325.43280743 38.85818263 344.39358588 13 359 C12.35901367 359.36834961 11.71802734 359.73669922 11.05761719 360.11621094 C-24.15874472 380.2273874 -64.0695861 388.76093613 -104 393 C-104.80405273 393.08620605 -105.60810547 393.17241211 -106.43652344 393.26123047 C-110.95532866 393.7157268 -115.46174192 393.91890974 -120 394 C-121.03850098 394.02046387 -122.07700195 394.04092773 -123.14697266 394.06201172 C-145.43308405 394.43186763 -167.32606497 393.46285361 -189.375 390.125 C-190.45241455 389.96273926 -191.5298291 389.80047852 -192.63989258 389.63330078 C-197.74143645 388.82293881 -202.70855221 387.8680818 -207.69140625 386.5 C-216.51286357 383.7550145 -216.51286357 383.7550145 -225.11328125 385.58984375 C-227.43734795 387.76930185 -229.49307064 390.04056485 -231.55078125 392.46826172 C-234.25504817 395.32651149 -237.49642765 397.43963251 -240.75 399.625 C-241.43513672 400.08624268 -242.12027344 400.54748535 -242.82617188 401.02270508 C-266.20171222 416.48293628 -291.96512289 424.2494481 -320.0390625 424.09765625 C-321.04593109 424.0962413 -322.05279968 424.09482635 -323.09017944 424.09336853 C-326.26848473 424.08782431 -329.44671644 424.07528259 -332.625 424.0625 C-334.79557189 424.05747778 -336.9661449 424.05291614 -339.13671875 424.04882812 C-344.42450376 424.03787323 -349.71224662 424.02119176 -355 424 C-353.08282553 419.80466692 -350.20541348 417.00401994 -346.92578125 413.8359375 C-345.68802048 412.61862232 -344.45039471 411.40116987 -343.21289062 410.18359375 C-341.2716075 408.28550448 -339.32791149 406.38998096 -337.38110352 404.49755859 C-327.93838503 395.29980776 -319.74067696 386.28427017 -313.8125 374.375 C-313.47790771 373.70694336 -313.14331543 373.03888672 -312.79858398 372.35058594 C-309.36386851 365.17476798 -307.61070601 357.75322892 -306 350 C-305.67467753 348.66468948 -305.3459635 347.33011208 -305 346 C-305.70253906 345.76023437 -306.40507812 345.52046875 -307.12890625 345.2734375 C-335.78490525 332.56342978 -359.62383447 299.76082762 -374 273 C-374.53367187 272.01515625 -375.06734375 271.0303125 -375.6171875 270.015625 C-381.47568381 258.78431084 -385.63238327 247.12553749 -388.75 234.875 C-388.94859619 234.10091797 -389.14719238 233.32683594 -389.35180664 232.52929688 C-392.56708886 219.27710156 -393.40998562 206.19621062 -393.375 192.625 C-393.37412384 191.79128876 -393.37324768 190.95757751 -393.37234497 190.09860229 C-393.21734979 145.21596743 -376.98739346 102.9519525 -349 68 C-348.17549521 66.95074554 -347.35126058 65.90127871 -346.52734375 64.8515625 C-342.01073314 59.19611525 -337.2181144 54.00985263 -332 49 C-331.195625 48.195625 -330.39125 47.39125 -329.5625 46.5625 C-328.716875 45.716875 -327.87125 44.87125 -327 44 C-326.43667969 43.39027344 -325.87335938 42.78054687 -325.29296875 42.15234375 C-294.05344848 9.24034438 -247.40016162 -10.99992739 -204 -21 C-203.15711426 -21.19577637 -202.31422852 -21.39155273 -201.44580078 -21.59326172 C-136.17657474 -36.34810156 -60.13962275 -29.46446446 0 0 Z M-289 52 C-290.00933594 52.80566406 -291.01867187 53.61132812 -292.05859375 54.44140625 C-305.93130754 65.7299661 -318.5653257 78.45775922 -329 93 C-329.43006348 93.59635254 -329.86012695 94.19270508 -330.30322266 94.80712891 C-336.90284504 104.06332684 -342.22679589 113.69505934 -347 124 C-347.53367187 125.12792969 -348.06734375 126.25585938 -348.6171875 127.41796875 C-364.80015046 163.1798014 -367.84111974 203.99087908 -354.25 241.0625 C-347.30139257 259.11065785 -337.53029809 274.25440059 -325 289 C-324.08927734 290.09634766 -324.08927734 290.09634766 -323.16015625 291.21484375 C-319.13629981 295.96865147 -314.77035952 300.00830741 -310 304 C-309.12601563 304.76183594 -308.25203125 305.52367187 -307.3515625 306.30859375 C-299.66298223 312.91500119 -291.52678122 318.53346718 -283 324 C-282.12214844 324.57363281 -281.24429688 325.14726562 -280.33984375 325.73828125 C-276.94321938 328.15982232 -276.94321938 328.15982232 -273 329 C-274.04446215 348.65398908 -276.32724195 367.69682857 -284 386 C-279.10024991 385.45392098 -275.22195559 383.89651461 -270.9375 381.5625 C-270.28483154 381.20833008 -269.63216309 380.85416016 -268.9597168 380.48925781 C-257.16498792 373.89644608 -244.60237358 364.45485538 -236.79296875 353.27148438 C-235.59375 351.578125 -235.59375 351.578125 -233 349 C-229.81640625 348.953125 -229.81640625 348.953125 -226 350 C-225.26378418 350.19400391 -224.52756836 350.38800781 -223.76904297 350.58789062 C-222.08692929 351.03555264 -220.40829517 351.49641938 -218.73266602 351.96777344 C-148.63669625 371.58411435 -66.07743266 367.78947772 -1.72509766 331.72509766 C40.39167018 307.16250029 70.78278607 270.05748114 83.74609375 222.84375 C84.16874685 221.23038656 84.58699121 219.6158592 85 218 C85.17934082 217.31808594 85.35868164 216.63617188 85.54345703 215.93359375 C91.23166997 193.20333667 89.89371672 165.50944561 84 143 C83.81808105 142.28972656 83.63616211 141.57945312 83.44873047 140.84765625 C73.42699125 102.94595797 49.4631441 70.05085713 18 47 C17.43361816 46.58395508 16.86723633 46.16791016 16.28369141 45.73925781 C-62.31277581 -11.13887428 -186.25370308 -12.40410673 -289 52 Z " fill="#ffffff" transform="translate(393,58)"/>
</svg>
