 <svg version="1.1" xmlns="http://www.w3.org/2000/svg" width="512" height="512">
<path d="M0 0 C4.22367701 0.00913286 8.44729031 -0.00495962 12.67095423 -0.01591969 C20.92346615 -0.03362248 29.17583181 -0.0299019 37.42834926 -0.01826912 C44.14071977 -0.00920243 50.85304955 -0.00802473 57.56542444 -0.01236439 C58.52403854 -0.01297732 59.48265263 -0.01359025 60.47031564 -0.01422176 C62.41826814 -0.01550077 64.36622063 -0.01679763 66.3141731 -0.01811212 C84.54164526 -0.02949378 102.76903669 -0.01644221 120.9964956 0.00508934 C136.60598892 0.02295812 152.21536321 0.01985333 167.82485437 0.0014143 C185.99110638 -0.02003519 204.1572878 -0.02839537 222.3235507 -0.01613665 C224.26397752 -0.01486257 226.20440434 -0.01360508 228.14483118 -0.01236439 C229.57658639 -0.01143873 229.57658639 -0.01143873 231.03726596 -0.01049438 C237.73457639 -0.0070537 244.4318417 -0.01284206 251.12914515 -0.0222826 C259.30095909 -0.03354941 267.47261953 -0.03036477 275.64441609 -0.00915962 C279.80662378 0.0012882 283.96857637 0.00558096 288.13078165 -0.00775623 C320.24228366 -0.10219022 320.24228366 -0.10219022 333.85512781 4.52289867 C334.70660898 4.80838825 335.55809015 5.09387783 336.43537378 5.38801861 C360.44725588 14.26344225 379.06992061 32.20049644 390.55044031 54.87055492 C399.32852354 74.08088279 399.4443546 92.96842907 399.37802649 113.66777086 C399.36889363 117.89144788 399.38298611 122.11506117 399.39394617 126.33872509 C399.41164897 134.59123701 399.40792839 142.84360268 399.39629561 151.09612012 C399.38722892 157.80849063 399.38605121 164.52082041 399.39039087 171.2331953 C399.39100381 172.1918094 399.39161674 173.15042349 399.39224824 174.1380865 C399.39352726 176.086039 399.39482412 178.03399149 399.39613861 179.98194396 C399.40752027 198.20941612 399.3944687 216.43680755 399.37293714 234.66426647 C399.35506837 250.27375978 399.35817316 265.88313407 399.37661219 281.49262524 C399.39806167 299.65887724 399.40642186 317.82505866 399.39416313 335.99132156 C399.39288906 337.93174838 399.39163157 339.87217521 399.39039087 341.81260204 C399.38977377 342.76710552 399.38915667 343.721609 399.38852087 344.70503682 C399.38508018 351.40234725 399.39086854 358.09961257 399.40030909 364.79691601 C399.41157589 372.96872996 399.40839126 381.14039039 399.38718611 389.31218696 C399.37673828 393.47439465 399.37244552 397.63634723 399.38578272 401.79855251 C399.48013544 433.87995366 399.48013544 433.87995366 394.85512781 447.52289867 C394.43481665 448.79219723 394.43481665 448.79219723 394.00601435 450.08713818 C385.29948907 474.00131829 366.99284711 492.84225328 344.51137781 504.21430492 C325.30503616 513.00252777 306.40852128 513.11212201 285.71025562 513.04579735 C281.48657861 513.03666449 277.26296531 513.05075697 273.0393014 513.06171703 C264.78678947 513.07941983 256.53442381 513.07569925 248.28190637 513.06406647 C241.56953585 513.05499978 234.85720607 513.05382208 228.14483118 513.05816174 C227.18621709 513.05877467 226.22760299 513.0593876 225.23993999 513.06001911 C223.29198749 513.06129812 221.344035 513.06259498 219.39608252 513.06390947 C201.16861036 513.07529113 182.94121893 513.06223956 164.71376002 513.04070801 C149.1042667 513.02283923 133.49489242 513.02594402 117.88540125 513.04438305 C99.71914924 513.06583253 81.55296783 513.07419272 63.38670492 513.06193399 C61.44627811 513.06065992 59.50585128 513.05940243 57.56542444 513.05816174 C56.61092097 513.05754463 55.65641749 513.05692753 54.67298967 513.05629173 C47.97567924 513.05285104 41.27841392 513.0586394 34.58111048 513.06807995 C26.40929653 513.07934676 18.23763609 513.07616212 10.06583953 513.05495697 C5.90363184 513.04450915 1.74167926 513.04021638 -2.42052603 513.05355358 C-34.50192718 513.1479063 -34.50192718 513.1479063 -48.14487219 508.52289867 C-49.41417074 508.10258751 -49.41417074 508.10258751 -50.70911169 507.67378521 C-74.62329181 498.96725993 -93.46422679 480.66061798 -104.83627844 458.17914867 C-113.62450128 438.97280702 -113.73409553 420.07629215 -113.66777086 399.37802649 C-113.658638 395.15434947 -113.67273048 390.93073617 -113.68369055 386.70707226 C-113.70139335 378.45456034 -113.69767276 370.20219467 -113.68603998 361.94967723 C-113.67697329 355.23730672 -113.67579559 348.52497693 -113.68013525 341.81260204 C-113.68074818 340.85398795 -113.68136111 339.89537386 -113.68199262 338.90771085 C-113.68327164 336.95975835 -113.68456849 335.01180586 -113.68588299 333.06385338 C-113.69726465 314.83638123 -113.68421308 296.60898979 -113.66268152 278.38153088 C-113.64481275 262.77203757 -113.64791753 247.16266328 -113.66635656 231.55317211 C-113.68780605 213.38692011 -113.69616623 195.22073869 -113.68390751 177.05447578 C-113.68263343 175.11404897 -113.68137595 173.17362214 -113.68013525 171.2331953 C-113.67951815 170.27869183 -113.67890105 169.32418835 -113.67826524 168.34076053 C-113.67482456 161.6434501 -113.68061292 154.94618478 -113.69005346 148.24888134 C-113.70132027 140.07706739 -113.69813563 131.90540696 -113.67693049 123.73361039 C-113.66648266 119.5714027 -113.6621899 115.40945012 -113.6755271 111.24724483 C-113.76987981 79.16584368 -113.76987981 79.16584368 -109.14487219 65.52289867 C-108.86466475 64.67669964 -108.5844573 63.8305006 -108.29575872 62.95865917 C-99.58923345 39.04447906 -81.28259149 20.20354407 -58.80112219 8.83149242 C-39.59478054 0.04326958 -20.69826566 -0.06632466 0 0 Z " fill="#262626" transform="translate(113.14487218856812,-0.5228986740112305)"/>
<path d="M0 0 C6.54292074 2.99883867 13.4062026 9.92289949 17.27734375 16.0078125 C18.14169503 18.39061872 18.30066169 20.34160236 18.3125 22.875 C18.32925781 23.69742188 18.34601563 24.51984375 18.36328125 25.3671875 C17.53267625 31.38684092 14.05703013 35.31795177 9.88270569 39.49151611 C9.36843708 40.00975913 8.85416847 40.52800214 8.32431597 41.06194949 C6.60875371 42.78709387 4.88273175 44.50136317 3.15649414 46.21582031 C1.92054826 47.45419545 0.68524856 48.69321577 -0.54945374 49.93283081 C-3.89791749 53.29068725 -7.25570184 56.63907674 -10.61552119 59.98556614 C-14.13116432 63.48988241 -17.63908012 67.00191894 -21.14808655 70.51287842 C-27.04006014 76.40573442 -32.93798124 82.29258532 -38.83959961 88.17578125 C-45.66412702 94.97912718 -52.47976784 101.79127545 -59.29059309 108.60833669 C-65.84315055 115.16658646 -72.40136024 121.71915433 -78.96237373 128.26894379 C-81.75470246 131.05662629 -84.54513576 133.84618606 -87.33408928 136.63724518 C-90.61674849 139.9217865 -93.90435446 143.20129517 -97.19586754 146.47696304 C-98.40373156 147.68058108 -99.6098996 148.88590381 -100.81425095 150.09303665 C-102.45683148 151.73883502 -104.10542627 153.37836179 -105.75572205 155.01641846 C-106.67730575 155.93594929 -107.59888945 156.85548012 -108.54839993 157.80287552 C-111.79944866 160.71646605 -113.96848551 161.82146865 -118.25 162.5625 C-127.79252177 161.13112173 -136.69774449 148.48498474 -143.3984375 141.8046875 C-144.02849323 141.17745914 -144.65854897 140.55023079 -145.3076973 139.90399551 C-148.63246475 136.59412243 -151.95442184 133.28146023 -155.27392578 129.96630859 C-158.69690657 126.54884347 -162.12909187 123.14077877 -165.56345177 119.73475456 C-168.21244938 117.10437056 -170.854725 114.46731232 -173.4951973 111.82837296 C-174.75818361 110.56840916 -176.02366577 109.31094196 -177.29169846 108.05605698 C-179.06018408 106.30462819 -180.81896042 104.54397753 -182.57568359 102.78076172 C-183.35955948 102.01070801 -183.35955948 102.01070801 -184.15927124 101.22509766 C-188.44855219 96.8859686 -190.27892434 93.14408919 -190.375 87.0625 C-190.12232382 78.48414383 -184.18036527 73.94975774 -178.4375 68.171875 C-174.90312671 65.02265778 -172.36676894 63.71245668 -167.625 63.6875 C-166.89539063 63.67074219 -166.16578125 63.65398437 -165.4140625 63.63671875 C-157.84646826 64.77553148 -153.19777498 70.41064907 -148.1015625 75.60546875 C-147.26660248 76.44467361 -146.43164246 77.28387848 -145.57138062 78.14851379 C-142.9154424 80.82119719 -140.27014655 83.50413991 -137.625 86.1875 C-135.82230744 88.00524467 -134.01892959 89.82231 -132.21484375 91.63867188 C-127.8019239 96.0846059 -123.39768776 100.53900138 -119 105 C-115.56208595 103.51888908 -113.3415409 101.58446336 -110.71154785 98.93859863 C-109.86200027 98.08891006 -109.0124527 97.2392215 -108.13716125 96.36378479 C-107.21340195 95.42969284 -106.28964264 94.49560089 -105.33789062 93.53320312 C-104.34917492 92.54064798 -103.36000206 91.54854803 -102.3704071 90.55686951 C-100.2422407 88.42238535 -98.11722048 86.2848344 -95.99455261 84.1448822 C-92.63812166 80.76140017 -89.27406999 77.38556523 -85.90881348 74.01086426 C-78.76661525 66.846468 -71.63288434 59.67366742 -64.5 52.5 C-56.79954579 44.75551756 -49.09767325 37.01247945 -41.38600111 29.27916479 C-38.04077934 25.92397551 -34.70049592 22.56396867 -31.36389923 19.20020294 C-29.28767053 17.10905887 -27.20730965 15.02206362 -25.12580299 12.93617439 C-23.7014041 11.50624419 -22.28204668 10.07129759 -20.86283875 8.63621521 C-20.01329117 7.78652664 -19.16374359 6.93683807 -18.28845215 6.06140137 C-17.55252586 5.32103386 -16.81659958 4.58066635 -16.0583725 3.81786346 C-11.13053811 -0.53418171 -6.3572426 -0.77180581 0 0 Z " fill="#FFD200" transform="translate(342,172)"/>
</svg>
