<svg width="30" height="30" viewBox="0 0 30 30" fill="none" xmlns="http://www.w3.org/2000/svg">
<path d="M17.2896 14.9986L27.5197 4.78368C27.8254 4.47787 27.9972 4.06311 27.9972 3.63064C27.9972 3.19817 27.8254 2.78341 27.5197 2.4776C27.2139 2.1718 26.7992 2 26.3668 2C25.9343 2 25.5196 2.1718 25.2138 2.4776L15 12.7088L4.78615 2.4776C4.48038 2.1718 4.06567 2 3.63324 2C3.20081 2 2.7861 2.1718 2.48032 2.4776C2.17455 2.78341 2.00277 3.19817 2.00277 3.63064C2.00277 4.06311 2.17455 4.47787 2.48032 4.78368L12.7104 14.9986L2.48032 25.2136C2.32813 25.3645 2.20732 25.5441 2.12488 25.742C2.04244 25.9399 2 26.1522 2 26.3666C2 26.581 2.04244 26.7932 2.12488 26.9911C2.20732 27.189 2.32813 27.3687 2.48032 27.5196C2.63128 27.6718 2.81088 27.7927 3.00875 27.8751C3.20663 27.9576 3.41887 28 3.63324 28C3.8476 28 4.05985 27.9576 4.25772 27.8751C4.4556 27.7927 4.6352 27.6718 4.78615 27.5196L15 17.2884L25.2138 27.5196C25.3648 27.6718 25.5444 27.7927 25.7423 27.8751C25.9402 27.9576 26.1524 28 26.3668 28C26.5811 28 26.7934 27.9576 26.9912 27.8751C27.1891 27.7927 27.3687 27.6718 27.5197 27.5196C27.6719 27.3687 27.7927 27.189 27.8751 26.9911C27.9576 26.7932 28 26.581 28 26.3666C28 26.1522 27.9576 25.9399 27.8751 25.742C27.7927 25.5441 27.6719 25.3645 27.5197 25.2136L17.2896 14.9986Z" fill="#fff"/>
</svg>
