<svg width="500" height="500" viewBox="0 0 500 500" fill="none" xmlns="http://www.w3.org/2000/svg">
<circle cx="250" cy="250" r="250" fill="#64FFDA" fill-opacity="0.16"/>
<g clip-path="url(#clip0_113_1612)">
<path d="M226.146 245.604C224.184 243.643 221.524 242.541 218.75 242.541C215.976 242.541 213.316 243.643 211.354 245.604C209.393 247.566 208.291 250.226 208.291 253C208.291 255.774 209.393 258.434 211.354 260.396L242.604 291.646C243.577 292.611 244.732 293.375 246.001 293.893C247.27 294.412 248.629 294.675 250 294.667C251.426 294.621 252.828 294.284 254.118 293.674C255.408 293.065 256.559 292.197 257.5 291.125L330.417 207.792C332.1 205.701 332.912 203.042 332.683 200.367C332.453 197.693 331.201 195.211 329.186 193.438C327.171 191.664 324.549 190.737 321.867 190.85C319.186 190.963 316.651 192.106 314.792 194.042L250 269.042L226.146 245.604Z" fill="#054141"/>
<path d="M343.75 242.583C340.987 242.583 338.338 243.68 336.384 245.634C334.431 247.587 333.333 250.237 333.333 253C333.333 275.101 324.554 296.297 308.926 311.925C293.298 327.553 272.101 336.333 250 336.333C233.543 336.325 217.456 331.445 203.768 322.307C190.081 313.17 179.405 300.184 173.088 284.987C166.771 269.79 165.095 253.063 168.272 236.915C171.448 220.767 179.335 205.921 190.938 194.25C198.653 186.431 207.851 180.229 217.992 176.008C228.134 171.787 239.015 169.631 250 169.666C256.661 169.708 263.297 170.476 269.792 171.958C271.151 172.378 272.581 172.516 273.996 172.362C275.41 172.208 276.778 171.767 278.015 171.064C279.251 170.361 280.331 169.413 281.188 168.277C282.044 167.141 282.659 165.842 282.994 164.459C283.329 163.077 283.377 161.64 283.135 160.238C282.894 158.836 282.368 157.499 281.589 156.308C280.811 155.117 279.797 154.098 278.61 153.314C277.423 152.53 276.088 151.998 274.688 151.75C266.595 149.846 258.313 148.867 250 148.833C229.42 148.94 209.333 155.141 192.274 166.652C175.215 178.164 161.948 194.471 154.147 213.516C146.347 232.56 144.362 253.488 148.444 273.66C152.526 293.831 162.492 312.341 177.083 326.854C196.424 346.203 222.642 357.102 250 357.166C277.627 357.166 304.122 346.192 323.657 326.657C343.192 307.122 354.167 280.626 354.167 253C354.167 250.237 353.069 247.587 351.116 245.634C349.162 243.68 346.513 242.583 343.75 242.583Z" fill="#054141"/>
</g>
<defs>
<clipPath id="clip0_113_1612">
<rect width="250" height="250" fill="white" transform="translate(125 128)"/>
</clipPath>
</defs>
</svg>
