<?xml version="1.0" encoding="UTF-8"?>
<svg version="1.1" viewBox="0 0 2048 2048" width="1280" height="1280" xmlns="http://www.w3.org/2000/svg">
<path transform="translate(124,1)" d="m0 0h13l18 2 23 6 18 8 14 9 11 9 16 15 786 786 4-2 795-795 8-7 15-11 17-9 21-7 15-3 10-1h12l17 2 17 4 16 6 15 8 14 10 12 11 9 10 10 15 9 19 6 18 3 14v33l-5 20-7 19-8 15-9 12-12 14-792 792-2 1-1 3 4 2 792 792 7 8 11 14 9 16 6 15 5 17 2 10v32l-6 24-8 20-9 15-8 10-9 10-10 9-13 9-17 9-20 7-7 2h-53l-25-9-16-8-13-9-10-9-8-7-789-789-1-2-4 1-6 5-7 8-783 783-11 9-11 8-21 11-24 8h-53l-23-8-17-8-13-9-13-11-12-13-9-13-8-16-6-15-5-20v-37l6-22 8-20 8-13 9-12 15-16 788-788h2l-7-8-791-791-7-8-9-12-8-14-7-16-5-17-2-9v-37l8-28 9-19 9-13 8-10 12-12 15-11 14-8 18-7 17-4z" fill="#F14839"/>
</svg>
