<?xml version="1.0" encoding="UTF-8"?>
<svg version="1.1" viewBox="0 0 800 800" width="1280" height="1280" xmlns="http://www.w3.org/2000/svg">
<path transform="translate(233,87)" fill="#e6d500" d="m0 0h335l10 2 9 6 6 7 3 7v56h130l10 3 6 4 7 8 3 8v86l-3 16-6 18-8 16-6 10-10 13-10 11-5 6-7 6h-2v2l-14 11-16 11-17 10-16 8-25 10-19 6-26 6-20 3-2 6-8 11-7 10-9 11-13 15-5 6-8 7-10 9-15 11-4 1-1 88h48l24 1 14 3 13 5 12 7 11 10 9 14 4 12 1 6v30l-4 6-3 3-3 1h-369l-4-2v-2h-2l-3-5-1-5v-20l3-16 5-12 8-11 8-8 13-8 13-5 13-3 16-1h46l11 1-1-88-9-6-17-14-11-10-7-8-9-10-11-14-12-17-6-9-28-5-20-5-24-8-23-10-17-9-14-9-16-12-11-9-20-20-10-13-11-18-7-15-5-17-2-12-1-12v-70l2-9 5-8 5-5 6-4 7-2h131v-53l3-8 4-6 5-5 9-5zm3 29v78h-106l-49 1-1 1v67l2 17 5 16 8 16 10 14 11 12 14 14 17 13 18 11 19 10 20 8 26 8 26 5 21 3 7 10 10 16 9 12 9 11 9 10 19 19 15 11 13 8 3 2 1 132h-87l-18 2-12 5-8 6-6 7-4 9-1 11 177 1h48l106-1 1-3-2-10-5-10-9-8-10-5-10-3-11-1h-89v-129l2-4 11-6 12-9 13-11 18-18 9-11 12-16 11-17 6-10 2-1 25-3 20-4 20-6 22-8 19-9 21-13 12-9 10-8 19-19 12-17 8-15 5-15 2-13v-38l-1-38h-154l-1-77-1-1z"/>
<path transform="translate(570,215)" fill="#e6d500" d="m0 0h131l2 4v35l-1 18-3 12-4 9-8 14-10 13-7 6-5 6-11 9-14 10-17 10-21 10-28 10-32 11h-3l1-7 10-36 8-32 4-21 3-25 3-54zm27 29-1 1-3 37-4 28-5 24-3 13 10-3 12-5 19-11 13-9 13-11 8-8 9-12 6-12 2-7v-25z"/>
<path transform="translate(102,215)" fill="#e6d500" d="m0 0h132l1 1 1 11 2 38 4 33 5 26 12 45 6 21v2l-7-1-25-9-26-9-21-9-16-9-12-8-11-8-15-14-10-11-9-13-8-16-4-15v-54zm28 29v21l3 12 6 11 10 13 13 13 12 9 16 10 15 8 15 6h2l-1-7-6-28-5-35-2-26-1-7z"/>
</svg>
