 <svg version="1.1" xmlns="http://www.w3.org/2000/svg" width="512" height="512">
<path d="M0 0 C1.19223427 0.45867714 1.19223427 0.45867714 2.40855408 0.92662048 C5.03532892 1.9409369 7.65418877 2.97423344 10.2734375 4.0078125 C12.14530868 4.73510999 14.01763326 5.4612415 15.89038086 6.1862793 C20.82815245 8.10195664 25.75930715 10.03409554 30.68878174 11.9710083 C35.43167933 13.83281886 40.17900335 15.68326697 44.92578125 17.53515625 C51.57576064 20.13146004 58.22329109 22.73391546 64.86860657 25.34213257 C78.05236077 30.51616801 91.25386517 35.64363077 104.4609375 40.7578125 C120.18108146 46.8460444 135.89475739 52.95020532 151.59503174 59.08950806 C162.01451892 63.16379971 172.44211099 67.21632466 182.87890625 71.24609375 C185.13803106 72.11911416 187.39714569 72.99216092 189.65625 73.86523438 C194.03132077 75.55594939 198.40784312 77.24283488 202.78515625 78.92773438 C204.78521268 79.70037477 206.78521537 80.47315429 208.78515625 81.24609375 C209.69573288 81.5953743 210.60630951 81.94465485 211.54447937 82.30451965 C223.97172872 87.11774932 223.97172872 87.11774932 226.6484375 91.1328125 C226.90143716 93.5783028 226.90143716 93.5783028 226.90570641 96.55081081 C226.9121553 97.68293733 226.91860419 98.81506385 226.9252485 99.98149723 C226.9206027 101.85529759 226.9206027 101.85529759 226.91586304 103.76695251 C226.91959778 105.10312885 226.9241986 106.43930299 226.92959368 107.77547365 C226.94186072 111.45510801 226.94155889 115.1346517 226.93920493 118.81430185 C226.9387977 122.77961219 226.94982686 126.7448931 226.95932007 130.71018982 C226.9759509 138.48162044 226.98143054 146.25302072 226.98254482 154.02446764 C226.98349423 160.33920295 226.98759916 166.65392822 226.99394608 172.96866035 C227.01156352 190.86003755 227.02078406 208.75139073 227.01928513 226.64277666 C227.01920522 227.60781612 227.0191253 228.57285559 227.01904297 229.56713867 C227.01896121 230.53335211 227.01887945 231.49956555 227.01879521 232.49505819 C227.01798198 248.16060009 227.03712763 263.82604593 227.0653197 279.49156003 C227.09401835 295.56497758 227.10786169 311.63834822 227.10613215 327.71179205 C227.10546724 336.74060564 227.11100361 345.76931849 227.13248825 354.79810905 C227.15066031 362.48423711 227.1550802 370.17021876 227.1414694 377.85635894 C227.13491976 381.77991911 227.13489392 385.7031981 227.1521759 389.62673187 C227.16782423 393.21619811 227.16512855 396.80515828 227.14760764 400.39461154 C227.14305264 402.31321738 227.1582595 404.23183841 227.17408693 406.15038437 C227.16488934 407.28511863 227.15569175 408.41985289 227.14621544 409.58897305 C227.14686754 411.06060804 227.14686754 411.06060804 227.14753282 412.56197304 C226.50487036 415.87232671 225.22626466 417.02859887 222.6484375 419.1328125 C220.15420532 420.42707825 220.15420532 420.42707825 217.32275391 421.55395508 C216.26011322 421.98222092 215.19747253 422.41048676 214.10263062 422.85173035 C212.95501251 423.30155777 211.80739441 423.75138519 210.625 424.21484375 C209.42477203 424.69411819 208.22454407 425.17339264 206.98794556 425.66719055 C203.21434779 427.17177327 199.43231801 428.65431604 195.6484375 430.1328125 C194.49371948 430.58493103 193.33900146 431.03704956 192.14929199 431.50286865 C185.30813477 434.17523027 178.45602847 436.81844125 171.59863281 439.44882202 C165.99934892 441.59677867 160.40292274 443.75215092 154.8063736 445.90722084 C152.93273981 446.62862921 151.05899447 447.3497473 149.1852417 448.07084656 C138.6607671 452.12293378 128.1509747 456.21175502 117.6484375 460.3203125 C102.82520914 466.11736844 87.99008511 471.88307539 73.1484375 477.6328125 C57.43410645 483.72163429 41.72408594 489.82128718 26.0234375 495.9453125 C24.77324829 496.43257813 24.77324829 496.43257813 23.49780273 496.9296875 C21.88967092 497.55656185 20.28173468 498.1839382 18.67401123 498.81185913 C17.1510633 499.40599074 15.62735903 499.99818785 14.10284424 500.58828735 C10.54918957 501.96934461 7.02362526 503.38837821 3.52832031 504.91162109 C2.53887924 505.33395271 2.53887924 505.33395271 1.52944946 505.76481628 C-0.23269158 506.52096554 -1.98662502 507.29616519 -3.73974609 508.07299805 C-12.37892441 510.60799014 -19.24583619 508.95766295 -27.3515625 505.5390625 C-28.28798584 505.16108521 -29.22440918 504.78310791 -30.18920898 504.39367676 C-32.20064743 503.57969627 -34.20896414 502.75796606 -36.21435547 501.92919922 C-40.50331833 500.15687293 -44.80719071 498.42220188 -49.1105957 496.68530273 C-51.31952791 495.79346942 -53.52769552 494.89974006 -55.73510742 494.00415039 C-65.04767277 490.23114058 -74.41735957 486.62655558 -83.8203125 483.0859375 C-100.75733001 476.70841856 -117.5978113 470.10579643 -134.41308594 463.41455078 C-148.350113 457.8713644 -162.32219721 452.43780355 -176.3515625 447.1328125 C-192.19601918 441.13977592 -207.97546785 434.99212882 -223.7265625 428.7578125 C-224.78746094 428.33854492 -225.84835938 427.91927734 -226.94140625 427.48730469 C-229.94102179 426.30112713 -232.93950195 425.11213394 -235.9375 423.921875 C-236.83334808 423.56743317 -237.72919617 423.21299133 -238.65219116 422.84780884 C-239.47901398 422.51856415 -240.30583679 422.18931946 -241.15771484 421.85009766 C-241.87486664 421.5652652 -242.59201843 421.28043274 -243.3309021 420.98696899 C-249.06458848 418.56327352 -249.06458848 418.56327352 -251.3515625 415.1328125 C-251.60456216 412.6873222 -251.60456216 412.6873222 -251.60883141 409.71481419 C-251.6152803 408.58268767 -251.62172919 407.45056115 -251.6283735 406.28412777 C-251.6252763 405.03492753 -251.6221791 403.78572728 -251.61898804 402.49867249 C-251.62272278 401.16249615 -251.6273236 399.82632201 -251.63271868 398.49015135 C-251.64498572 394.81051699 -251.64468389 391.1309733 -251.64232993 387.45132315 C-251.6419227 383.48601281 -251.65295186 379.5207319 -251.66244507 375.55543518 C-251.6790759 367.78400456 -251.68455554 360.01260428 -251.68566982 352.24115736 C-251.68661923 345.92642205 -251.69072416 339.61169678 -251.69707108 333.29696465 C-251.71468852 315.40558745 -251.72390906 297.51423427 -251.72241013 279.62284834 C-251.72233022 278.65780888 -251.7222503 277.69276941 -251.72216797 276.69848633 C-251.72208621 275.73227289 -251.72200445 274.76605945 -251.72192021 273.77056681 C-251.72110698 258.10502491 -251.74025263 242.43957907 -251.7684447 226.77406497 C-251.79714335 210.70064742 -251.81098669 194.62727678 -251.80925715 178.55383295 C-251.80859224 169.52501936 -251.81412861 160.49630651 -251.83561325 151.46751595 C-251.85378531 143.78138789 -251.8582052 136.09540624 -251.8445944 128.40926606 C-251.83804476 124.48570589 -251.83801892 120.5624269 -251.8553009 116.63889313 C-251.87094923 113.04942689 -251.86825355 109.46046672 -251.85073264 105.87101346 C-251.84617764 103.95240762 -251.8613845 102.03378659 -251.87721193 100.11524063 C-251.86801434 98.98050637 -251.85881675 97.84577211 -251.84934044 96.67665195 C-251.84977517 95.69556196 -251.85020991 94.71447196 -251.85065782 93.70365196 C-251.20799536 90.39329829 -249.92938966 89.23702613 -247.3515625 87.1328125 C-244.85733032 85.83854675 -244.85733032 85.83854675 -242.02587891 84.71166992 C-240.96323822 84.28340408 -239.90059753 83.85513824 -238.80575562 83.41389465 C-237.65813751 82.96406723 -236.51051941 82.51423981 -235.328125 82.05078125 C-234.12789703 81.57150681 -232.92766907 81.09223236 -231.69107056 80.59843445 C-227.91747279 79.09385173 -224.13544301 77.61130896 -220.3515625 76.1328125 C-219.19684448 75.68069397 -218.04212646 75.22857544 -216.85241699 74.76275635 C-210.01125977 72.09039473 -203.15915347 69.44718375 -196.30175781 66.81680298 C-190.70247392 64.66884633 -185.10604774 62.51347408 -179.5094986 60.35840416 C-177.63586481 59.63699579 -175.76211947 58.9158777 -173.8883667 58.19477844 C-163.36389109 54.14269083 -152.85415246 50.05373678 -142.3515625 45.9453125 C-122.55957759 38.2061294 -102.74640167 30.52209129 -82.93031311 22.84486389 C-75.16225932 19.83513835 -67.39538435 16.82238269 -59.62890625 13.80859375 C-56.26799397 12.50458509 -52.90706944 11.20060803 -49.54614258 9.89663696 C-47.39504585 9.06196032 -45.24400313 8.2271445 -43.09301758 7.3921814 C-40.1051397 6.23239756 -37.11704582 5.07317188 -34.12890625 3.9140625 C-33.25403061 3.57429886 -32.37915497 3.23453522 -31.47776794 2.88447571 C-29.85382862 2.25476875 -28.22832686 1.62907136 -26.6010437 1.00805664 C-25.14109383 0.44000896 -23.6897199 -0.15079452 -22.24978638 -0.76782227 C-14.14757458 -4.13762175 -7.90686299 -3.16584881 0 0 Z M-25.3203125 19.76171875 C-26.78646751 20.33407761 -26.78646751 20.33407761 -28.28224182 20.91799927 C-31.4758847 22.16748516 -34.66367205 23.43123061 -37.8515625 24.6953125 C-40.0497065 25.55857075 -42.24819577 26.42095032 -44.44702148 27.2824707 C-50.01446714 29.46665363 -55.57714009 31.66270887 -61.1383667 33.8626709 C-66.10430654 35.82565329 -71.07377932 37.77963731 -76.04296875 39.734375 C-84.81739651 43.18819177 -93.58647852 46.65535641 -102.3515625 50.1328125 C-99.85929903 51.79432148 -97.91235647 52.7922868 -95.16357422 53.85009766 C-93.88841446 54.34396469 -93.88841446 54.34396469 -92.5874939 54.84780884 C-91.66143341 55.20225067 -90.73537292 55.5566925 -89.78125 55.921875 C-88.80999176 56.2970224 -87.83873352 56.6721698 -86.83804321 57.0586853 C-83.63545675 58.29497077 -80.43098913 59.52630551 -77.2265625 60.7578125 C-73.85225902 62.05931899 -70.47846528 63.36214112 -67.10467529 64.66497803 C-64.81744556 65.54809456 -62.53004997 66.43078163 -60.24249268 67.31304932 C-50.91674004 70.91040007 -41.60262404 74.53687508 -32.29376221 78.17767334 C-15.45334691 84.76392428 1.40314719 91.30825564 18.26477051 97.83999634 C31.05336467 102.79423725 43.83678981 107.76127048 56.61035156 112.75415039 C60.07499479 114.10839632 63.54044505 115.4605365 67.00683594 116.81030273 C68.62695685 117.44123392 70.24707414 118.07217441 71.8671875 118.703125 C72.63540833 119.00225296 73.40362915 119.30138092 74.19512939 119.60957336 C78.69824805 121.36524882 83.19180123 123.14313654 87.6796875 124.9375 C89.58592596 125.6901334 91.49217467 126.44274083 93.3984375 127.1953125 C94.6035498 127.68874146 94.6035498 127.68874146 95.83300781 128.19213867 C103.12268124 131.04401472 107.77909867 128.83733303 114.8125 126.1328125 C115.62199097 125.82484741 116.43148193 125.51688232 117.26550293 125.19958496 C119.9364841 124.18164085 122.60503143 123.15748612 125.2734375 122.1328125 C127.13132818 121.4224751 128.98923863 120.71218941 130.84716797 120.00195312 C151.17996544 112.21312481 171.42042429 104.18909518 191.6484375 96.1328125 C191.6484375 95.4728125 191.6484375 94.8128125 191.6484375 94.1328125 C190.6275 93.74762451 189.6065625 93.36243652 188.5546875 92.96557617 C167.51865612 85.02147463 146.54106019 76.94724516 125.6484375 68.6328125 C109.84948233 62.3458444 94.01116588 56.18487887 78.10610962 50.17163086 C61.47631219 43.87978182 44.94057592 37.35971491 28.42382812 30.77734375 C23.76444824 28.92085546 19.10153561 27.07354569 14.43548584 25.23388672 C12.52934014 24.48082914 10.62448914 23.72448836 8.72076416 22.96533203 C5.85284699 21.82360986 2.9799012 20.69551421 0.10546875 19.5703125 C-1.19043938 19.04993408 -1.19043938 19.04993408 -2.51252747 18.51904297 C-11.37830928 15.08150771 -16.66577288 16.30088779 -25.3203125 19.76171875 Z M-132.45776367 61.63891602 C-133.31407379 61.9714035 -134.17038391 62.30389099 -135.05264282 62.64645386 C-135.990466 63.01449127 -136.92828918 63.38252869 -137.89453125 63.76171875 C-138.87489349 64.14329132 -139.85525574 64.52486389 -140.86532593 64.91799927 C-144.09107076 66.17413418 -147.31503268 67.43478309 -150.5390625 68.6953125 C-153.87284931 69.994519 -157.20711817 71.29248275 -160.54142761 72.59034729 C-162.80509009 73.47152047 -165.06860817 74.35306468 -167.33198547 75.23497009 C-178.18087464 79.46086474 -189.04508307 83.64641198 -199.9140625 87.8203125 C-201.59855749 88.46751352 -203.28304661 89.11472985 -204.9675293 89.76196289 C-208.76192186 91.21965643 -212.55662872 92.67652856 -216.3515625 94.1328125 C-216.3515625 94.7928125 -216.3515625 95.4528125 -216.3515625 96.1328125 C-191.73007573 105.78703164 -167.09630576 115.40843124 -142.43484497 124.96011353 C-128.5661927 130.33179285 -114.70410249 135.7197191 -100.8515625 141.1328125 C-83.33575633 147.977078 -65.80481986 154.78198865 -48.26953125 161.57617188 C-46.79841385 162.1469899 -46.79841385 162.1469899 -45.2975769 162.7293396 C-43.37568834 163.47286423 -41.45230891 164.21254804 -39.52737427 164.94815063 C-35.0620723 166.65970435 -30.64093025 168.42106358 -26.26513672 170.35107422 C-17.6270048 174.51825645 -17.6270048 174.51825645 -8.39453125 174.5234375 C-6.69707365 173.76227166 -5.01848076 172.95871762 -3.3515625 172.1328125 C-1.29043605 171.31301953 0.78517665 170.5371411 2.86201477 169.75805664 C6.15637551 168.51481647 9.42847278 167.21710069 12.70315552 165.9230957 C17.22602247 164.13598893 21.75398868 162.36187553 26.28125 160.5859375 C27.21141434 160.22064941 28.14157867 159.85536133 29.09992981 159.47900391 C39.28524733 155.48255878 49.49636181 151.55374465 59.7109375 147.6328125 C61.00250259 147.13678528 61.00250259 147.13678528 62.32015991 146.6307373 C67.09571448 144.79669116 71.87179103 142.96401291 76.6484375 141.1328125 C76.6484375 140.4728125 76.6484375 139.8128125 76.6484375 139.1328125 C75.42068604 138.65674561 74.19293457 138.18067871 72.92797852 137.69018555 C72.10318497 137.37036713 71.27839142 137.05054871 70.42860413 136.72103882 C68.53955726 135.98855232 66.65050895 135.25606955 64.76145935 134.52359009 C59.35070522 132.42556194 53.93997863 130.32746284 48.52929688 128.22924805 C37.32866101 123.88582264 26.12770184 119.54323604 14.92578125 115.203125 C-4.82771128 107.5489988 -24.57667747 99.88382572 -44.30804443 92.17282104 C-54.62168332 88.14249066 -64.94037078 84.12548997 -75.265625 80.125 C-76.36489319 79.69906555 -77.46416138 79.2731311 -78.59674072 78.83428955 C-83.96305768 76.75535547 -89.32985548 74.67767248 -94.69726562 72.6015625 C-96.66801442 71.83865962 -98.6387188 71.07564203 -100.609375 70.3125 C-101.54537537 69.95033386 -102.48137573 69.58816772 -103.44573975 69.21502686 C-110.21826703 66.58857576 -116.95851277 63.88957399 -123.67919922 61.13330078 C-127.37146465 59.75097813 -128.8907695 60.24582778 -132.45776367 61.63891602 Z M-233.3515625 109.1328125 C-233.3515625 206.8128125 -233.3515625 304.4928125 -233.3515625 405.1328125 C-203.64946573 416.87293678 -203.64946573 416.87293678 -173.89208984 428.46801758 C-168.74595895 430.45627541 -163.60158391 432.44906915 -158.45703125 434.44140625 C-156.91406876 435.03881119 -156.91406876 435.03881119 -155.3399353 435.64828491 C-145.50334969 439.45824177 -135.67649088 443.2929152 -125.8515625 447.1328125 C-114.93004475 451.40114375 -104.0045867 455.65896817 -93.0703125 459.89453125 C-91.50006065 460.5028051 -91.50006065 460.5028051 -89.89808655 461.12336731 C-85.67066591 462.76072499 -81.44315599 464.39785098 -77.21530151 466.03408813 C-66.79186692 470.06854623 -56.37215437 474.1108954 -45.98046875 478.2265625 C-44.79981339 478.69386528 -44.79981339 478.69386528 -43.5953064 479.17060852 C-39.98394968 480.60093191 -36.374407 482.03559235 -32.76757812 483.47729492 C-31.52607003 483.97061175 -30.2845354 484.46386182 -29.04296875 484.95703125 C-27.98279541 485.38072998 -26.92262207 485.80442871 -25.83032227 486.2409668 C-23.47696612 487.2456621 -23.47696612 487.2456621 -21.3515625 487.1328125 C-21.3515625 389.4528125 -21.3515625 291.7728125 -21.3515625 191.1328125 C-28.50635865 188.15164744 -35.64545428 185.1900493 -42.86328125 182.375 C-43.73356964 182.03440552 -44.60385803 181.69381104 -45.5005188 181.34289551 C-48.34614866 180.22978479 -51.19257307 179.11872306 -54.0390625 178.0078125 C-56.06926944 177.21439356 -58.09946118 176.4209357 -60.12963867 175.62744141 C-76.86745567 169.08891431 -93.621082 162.59127205 -110.37768555 156.10107422 C-123.20968952 151.13042922 -136.03428291 146.14129635 -148.8515625 141.1328125 C-164.42603438 135.04741513 -180.01112204 128.98968164 -195.6015625 122.9453125 C-196.64981201 122.53885498 -197.69806152 122.13239746 -198.77807617 121.71362305 C-203.63585521 119.83021341 -208.49409698 117.94802306 -213.35351562 116.06884766 C-216.43313583 114.87761747 -219.51023762 113.68042136 -222.58398438 112.47412109 C-223.76025391 112.01473145 -224.93652344 111.5553418 -226.1484375 111.08203125 C-227.12651367 110.69748779 -228.10458984 110.31294434 -229.11230469 109.91674805 C-231.27075412 109.02267125 -231.27075412 109.02267125 -233.3515625 109.1328125 Z M201.83959961 110.8984375 C200.82929184 111.2878804 199.81898407 111.6773233 198.77806091 112.0785675 C197.67180862 112.50896835 196.56555634 112.9393692 195.42578125 113.3828125 C193.69987511 114.04986458 193.69987511 114.04986458 191.93910217 114.73039246 C188.80595627 115.9421946 185.67401372 117.15701498 182.54260254 118.3732872 C179.92561452 119.38913231 177.30766391 120.40248296 174.68968773 121.41577816 C157.70331831 127.99044459 140.72928143 134.59682665 123.76538086 141.22924805 C105.59299859 148.33366898 87.39846608 155.38082799 69.20452881 162.42982483 C61.5028953 165.41379478 53.80205413 168.39980339 46.1015625 171.38671875 C43.86848975 172.25284873 41.63541683 173.11897829 39.40234375 173.98510742 C36.19056419 175.23085368 32.97879924 176.47663755 29.76708984 177.7225647 C27.76790203 178.49809165 25.76867634 179.273521 23.76940918 180.04884338 C21.89925569 180.77415648 20.02921555 181.49976192 18.15930176 182.22569275 C14.24903345 183.74266568 10.33734111 185.2549785 6.41601562 186.74316406 C4.63614258 187.41943848 4.63614258 187.41943848 2.8203125 188.109375 C1.32902832 188.67132568 1.32902832 188.67132568 -0.19238281 189.24462891 C-2.29439322 189.94732959 -2.29439322 189.94732959 -3.3515625 191.1328125 C-3.44857251 192.71229767 -3.47527888 194.29614069 -3.47461033 195.87860203 C-3.47660138 196.91167817 -3.47859243 197.94475431 -3.48064381 199.00913578 C-3.47773097 200.15794364 -3.47481813 201.30675149 -3.47181702 202.4903717 C-3.47267144 203.69995763 -3.47352587 204.90954355 -3.47440618 206.15578359 C-3.4757744 209.52841149 -3.47262681 212.90098208 -3.46762812 216.27360308 C-3.46332702 219.90483962 -3.4647698 223.53607425 -3.4655304 227.16731262 C-3.46605585 233.46372463 -3.46290684 239.76012631 -3.45729256 246.05653572 C-3.44918042 255.16019092 -3.44656263 264.2638411 -3.44530457 273.36749952 C-3.44311359 288.13603442 -3.43645229 302.9045638 -3.42700195 317.6730957 C-3.417829 332.02303032 -3.4107476 346.37296344 -3.40649414 360.72290039 C-3.40623142 361.60678836 -3.40596869 362.49067633 -3.40569801 363.40134878 C-3.40439301 367.83536322 -3.40312929 372.26937768 -3.40188611 376.70339215 C-3.39151209 413.51320282 -3.37389255 450.32300723 -3.3515625 487.1328125 C-1.93704098 486.6650127 -0.52284397 486.19623158 0.89122009 485.72705078 C1.67878661 485.46610626 2.46635313 485.20516174 3.2777853 484.93630981 C6.89334284 483.71087034 10.46013284 482.36646477 14.02734375 481.0078125 C14.81560043 480.70887085 15.60385712 480.4099292 16.41600037 480.10192871 C19.01527092 479.11472145 21.61321204 478.12407786 24.2109375 477.1328125 C25.11948486 476.78677979 26.02803223 476.44074707 26.96411133 476.08422852 C42.93049513 469.9988336 58.82324743 463.73574201 74.69924927 457.41894531 C88.63983854 451.87427415 102.61536819 446.43892611 116.6484375 441.1328125 C134.90585229 434.22844261 153.06416539 427.08629787 171.20007324 419.8692627 C183.66696769 414.9128571 196.15386521 410.02199296 208.6484375 405.1328125 C208.6484375 307.4528125 208.6484375 209.7728125 208.6484375 109.1328125 C206.05573469 109.1328125 204.26320033 109.95976565 201.83959961 110.8984375 Z " fill="#ffffff" transform="translate(268.3515625,2.8671875)"/>
</svg>
