<svg xmlns="http://www.w3.org/2000/svg" version="1.1" viewBox="0 0 800 800" width="1280" height="1280">
<path transform="translate(379,79)" d="m0 0h41l9 2 7 6 4 8v64l15 1 24 4 19 5 19 8 19 11 12 9 7 8 2 6-1 10-6 8-6 7-8 7-29 29-8 4h-9l-11-4-14-7-7-2-19-2h-81l-13 2-10 5-7 7-5 10-1 4v16l5 12 7 8 10 5 108 32 33 10 17 7 14 8 14 10 13 12 11 13 8 13 8 16 6 18 3 14 1 8v23l-3 19-5 19-5 11-4 8-8 12-13 15-8 8-14 10-23 12-24 8-14 3-18 2v18l-1 46-3 6-5 6-9 3h-49l-7-4-5-6-2-3-1-7-1-59-19-1-17-3-21-6-18-8-15-8-17-12-5-6-3-6v-9l3-7 9-10 23-23h2l2-4 12-11 8-4 10 1 21 10 13 3 7 1h94l11-3 7-4 5-4 5-8 3-9v-14l-5-12-6-8-8-5-15-5-41-12-57-17-36-11-16-7-14-9-12-9-12-11-9-11-10-15-8-16-6-17-3-15-1-9v-23l3-18 5-17 10-21 9-13 8-11h2l2-4 14-12 16-11 19-9 21-6 12-2 19-1v-62l3-8 4-5 7-4z" fill="#fdea62"/>
<path transform="translate(22)" d="m0 0h759v2l9 6 6 7 4 6v757h-2l-2 6-7 9-11 7h-756l-11-7-6-7-2-5-2-1-1-2v-756l6-10 4-5 6-4h2l1-2zm15 20-11 1-4 4-1 3-1 21v707l1 16 2 5 4 2h745l5-3 2-4v-744l-3-5-2-2-9-1z" fill="#fdea62"/>
</svg>