 <svg version="1.1" xmlns="http://www.w3.org/2000/svg" width="512" height="512">
<path d="M0 0 C0.79635343 -0.00320648 1.59270686 -0.00641296 2.41319221 -0.0097166 C5.09822213 -0.01805889 7.78303144 -0.01207758 10.46806526 -0.00622082 C12.405899 -0.00923958 14.34373155 -0.01312766 16.28156197 -0.01781338 C21.61970097 -0.02813772 26.95777315 -0.02590032 32.29591775 -0.02163279 C38.04789796 -0.01917358 43.79986175 -0.02816969 49.55183601 -0.03567028 C60.82570497 -0.04844186 72.09955014 -0.05020791 83.37342511 -0.04787002 C92.53422792 -0.04608941 101.69502348 -0.04783096 110.85582542 -0.05209446 C112.15797091 -0.05268965 113.4601164 -0.05328484 114.80172084 -0.05389806 C117.44675031 -0.05510977 120.09177979 -0.05632391 122.73680927 -0.05754044 C140.50561612 -0.06533174 158.27441986 -0.06924392 176.04322815 -0.06522369 C176.7383571 -0.06506732 177.43348604 -0.06491094 178.14967951 -0.06474983 C181.67300659 -0.06394402 185.19633367 -0.06309825 188.71966074 -0.06223653 C189.41942584 -0.06206544 190.11919094 -0.06189435 190.84016105 -0.06171808 C192.25525684 -0.06137142 193.67035263 -0.06102289 195.08544842 -0.06067249 C217.1055915 -0.05531498 239.12569454 -0.06324554 261.14583015 -0.08170605 C285.87624754 -0.10241434 310.60663918 -0.11311988 335.33706582 -0.10913056 C348.434792 -0.10721532 361.5324817 -0.10973737 374.63020134 -0.1238451 C385.78057054 -0.13573341 396.9308808 -0.13719252 408.08125077 -0.12505493 C413.77305914 -0.11914824 419.46475959 -0.11811609 425.1565609 -0.13005733 C430.36387476 -0.1408554 435.57098978 -0.13788559 440.7782941 -0.12379565 C442.66521351 -0.12113188 444.5521482 -0.12356749 446.43905269 -0.13153151 C448.99865271 -0.14158749 451.55755487 -0.13325869 454.11712646 -0.12025452 C454.85426335 -0.12756386 455.59140024 -0.13487321 456.3508746 -0.14240405 C462.48091408 -0.07759554 466.36636347 1.60555477 470.87190437 5.69197559 C475.60269432 10.93420229 477.33746927 14.28417877 477.49690437 21.44197559 C477.53428719 22.52865528 477.57167 23.61533497 477.61018562 24.73494434 C476.67594773 32.45740623 471.84872456 38.41541172 467.30940437 44.50447559 C466.14397183 46.0920124 464.97995974 47.68059276 463.81721687 49.27010059 C463.21812508 50.08801075 462.61903328 50.90592091 462.00178719 51.74861622 C459.00676702 55.87823564 456.0969819 60.06650083 453.18440437 64.25447559 C448.72601744 70.65558197 444.21145312 77.00929164 439.62190437 83.31697559 C435.158519 89.45396116 430.82119117 95.66340537 426.55940437 101.94197559 C422.25057397 108.28902658 417.84069739 114.53608617 413.27327156 120.69929981 C409.36554103 125.97883306 405.57720171 131.33692649 401.80305672 136.71248341 C398.16487517 141.88652651 394.46671084 147.01390491 390.74690437 152.12947559 C386.243283 158.32970359 381.86333238 164.60162956 377.55940437 170.94197559 C373.25111989 177.2881878 368.84103704 183.53379242 364.27546883 189.69710255 C358.78066234 197.12329622 353.49292688 204.69463201 348.18440437 212.25447559 C342.11081709 220.89658453 336.01040027 229.51568525 329.80940437 238.06697559 C323.32922751 247.01406579 316.9384334 256.02138347 310.66292 265.11336231 C309.76441909 266.41452694 308.8628905 267.71361683 307.95588875 269.00887012 C299.56103239 281.03714922 297.58810767 292.28910323 297.67024422 306.72810841 C297.66477227 308.35235219 297.65752439 309.97659081 297.64865303 311.60081959 C297.63341015 315.07438188 297.63047435 318.54764923 297.63741875 322.02123737 C297.64827281 327.51891946 297.63074536 333.01629719 297.60960579 338.51393604 C297.57943932 347.20926509 297.56765959 355.90450293 297.56402934 364.59987998 C297.5573644 380.17674725 297.52828062 395.75355138 297.47893298 411.3303411 C297.46248122 416.79079967 297.45700903 422.25112556 297.46052337 427.7116065 C297.46096154 431.10992424 297.4533797 434.50819215 297.44384766 437.90649509 C297.44117392 439.47699882 297.44190115 441.04751275 297.44635773 442.61801243 C297.49837642 462.31691073 297.49837642 462.31691073 291.18440437 470.25447559 C286.72869005 474.5252625 281.58067557 476.29586349 275.90315437 478.42244434 C274.87685417 478.81508472 273.85055397 479.20772511 272.79315376 479.61226368 C269.42683579 480.89760027 266.05575188 482.16989622 262.68440437 483.44197559 C260.35477495 484.32835592 258.02543194 485.21548936 255.69636726 486.10335255 C249.71026694 488.38254803 243.7199562 490.6504411 237.72816658 492.91463184 C233.17440352 494.63634188 228.62263248 496.36328097 224.07084846 498.09021473 C215.21492843 501.44944758 206.35645652 504.80189929 197.49299812 508.14119434 C196.68918205 508.44440601 195.88536598 508.74761768 195.05719185 509.06001759 C187.17486219 512.02585087 179.02994731 514.4105423 170.72737312 511.34822559 C164.79600399 507.809818 160.26892724 502.91944894 158.18440437 496.25447559 C157.99697834 493.49011533 157.91170728 490.82811719 157.92611885 488.06525135 C157.92244315 487.24456844 157.91876744 486.42388553 157.91498035 485.57833344 C157.90500607 482.83026212 157.90915011 480.08239338 157.91316414 477.33430958 C157.90877659 475.36291762 157.90347433 473.39152752 157.89732552 471.42014027 C157.88582384 467.17442599 157.88036595 462.92876164 157.87944412 458.68303204 C157.87750261 451.96250216 157.85944324 445.24207528 157.83868599 438.5215807 C157.78950147 421.82326046 157.75865028 405.12491215 157.73738289 388.4265337 C157.72083934 375.4592544 157.69795576 362.49206319 157.65436214 349.5248428 C157.63264136 342.85203737 157.62452286 336.17939949 157.62675488 329.50656116 C157.62508118 325.34212253 157.61098932 321.17779203 157.5935421 317.01339245 C157.58797018 315.09143076 157.58743174 313.16944639 157.59247971 311.24748325 C157.63966869 291.1649103 153.43370289 276.71690548 141.05940437 260.66512012 C137.0975717 255.52319278 133.37985452 250.25815043 129.74690437 244.87947559 C124.94724316 237.78978464 120.02366783 230.80861725 114.98933601 223.88387012 C111.3453569 218.86976364 107.74817152 213.82587757 104.18440437 208.75447559 C100.10420725 202.95044046 95.97572782 197.18447442 91.80940437 191.44197559 C86.59803254 184.25603123 81.49165169 177.00170306 76.41755867 169.71834278 C72.54293635 164.16674136 68.60509395 158.66607971 64.62190437 153.19197559 C60.1740888 147.07867248 55.86094895 140.88918826 51.62190437 134.62947559 C47.11211603 127.9732957 42.42842875 121.49533804 37.56086922 115.09724903 C33.67418666 109.96708418 30.0096545 104.71151811 26.39436531 99.38777637 C22.95606604 94.33815723 19.40599289 89.37984663 15.80940437 84.44197559 C10.7132725 77.43999788 5.7920838 70.33498371 0.93245125 63.16731739 C-2.50544573 58.11542595 -6.04541043 53.1585389 -9.69059563 48.25447559 C-24.11143888 28.80599258 -24.11143888 28.80599258 -22.81559563 17.25447559 C-20.75422767 9.70440502 -16.61002968 5.38179894 -10.19274223 1.19591743 C-6.82360989 -0.13838906 -3.56904013 -0.02115236 0 0 Z " fill="#ffffff" transform="translate(28.815595626831055,-0.25447559356689453)"/>
</svg>
