<svg width="25" height="25" viewBox="0 0 25 25" fill="none" xmlns="http://www.w3.org/2000/svg">
<g clip-path="url(#clip0_377_119)">
<path d="M24.9868 12.7343C24.9868 11.71 24.9018 10.9626 24.7177 10.1875H12.749V14.8104H19.7744C19.6328 15.9593 18.8679 17.6894 17.1682 18.852L17.1444 19.0068L20.9286 21.8716L21.1908 21.8971C23.5987 19.724 24.9868 16.5267 24.9868 12.7343Z" fill="#4285F4"/>
<path d="M12.749 24.9132C16.1908 24.9132 19.0803 23.8059 21.1908 21.8959L17.1682 18.8507C16.0917 19.5843 14.647 20.0964 12.749 20.0964C9.37797 20.0964 6.51684 17.9235 5.49692 14.9199L5.34743 14.9323L1.41248 17.9082L1.36102 18.048C3.45729 22.1173 7.7632 24.9132 12.749 24.9132Z" fill="#34A853"/>
<path d="M5.49691 14.9209C5.22779 14.1458 5.07205 13.3153 5.07205 12.4572C5.07205 11.599 5.22779 10.7685 5.48275 9.99343L5.47562 9.82835L1.49136 6.80469L1.361 6.86528C0.497031 8.55392 0.00128174 10.4502 0.00128174 12.4572C0.00128174 14.4641 0.497031 16.3603 1.361 18.049L5.49691 14.9209Z" fill="#FBBC05"/>
<path d="M12.749 4.8167C15.1427 4.8167 16.7574 5.8271 17.6781 6.67147L21.2758 3.23884C19.0662 1.23187 16.1908 0 12.749 0C7.76319 0 3.45729 2.7959 1.36102 6.86517L5.48277 9.99332C6.51684 6.98979 9.37797 4.8167 12.749 4.8167Z" fill="#EB4335"/>
</g>
<defs>
<clipPath id="clip0_377_119">
<rect width="25" height="25" fill="white"/>
</clipPath>
</defs>
</svg>
