<svg width="20" height="20" viewBox="0 0 20 20" fill="none" xmlns="http://www.w3.org/2000/svg">
<rect width="20" height="20" rx="10" transform="matrix(1 0 0 -1 0 20)" fill="#054141"/>
<path d="M10.6542 10.0005L13.577 12.919C13.6644 13.0064 13.7135 13.1249 13.7135 13.2485C13.7135 13.372 13.6644 13.4905 13.577 13.5779C13.4897 13.6653 13.3712 13.7144 13.2476 13.7144C13.1241 13.7144 13.0056 13.6653 12.9182 13.5779L9.99999 10.6547L7.08175 13.5779C6.99439 13.6653 6.8759 13.7144 6.75235 13.7144C6.62879 13.7144 6.5103 13.6653 6.42294 13.5779C6.33558 13.4905 6.2865 13.372 6.2865 13.2485C6.2865 13.1249 6.33558 13.0064 6.42294 12.919L9.34582 10.0005L6.42294 7.08191C6.37946 7.03878 6.34494 6.98746 6.32139 6.93092C6.29783 6.87437 6.28571 6.81373 6.28571 6.75247C6.28571 6.69122 6.29783 6.63057 6.32139 6.57403C6.34494 6.51749 6.37946 6.46617 6.42294 6.42303C6.46607 6.37954 6.51738 6.34502 6.57392 6.32147C6.63046 6.29791 6.6911 6.28578 6.75235 6.28578C6.81359 6.28578 6.87423 6.29791 6.93077 6.32147C6.98731 6.34502 7.03862 6.37954 7.08175 6.42303L9.99999 9.34623L12.9182 6.42303C12.9614 6.37954 13.0127 6.34502 13.0692 6.32147C13.1258 6.29791 13.1864 6.28578 13.2476 6.28578C13.3089 6.28578 13.3695 6.29791 13.4261 6.32147C13.4826 6.34502 13.5339 6.37954 13.577 6.42303C13.6205 6.46617 13.655 6.51749 13.6786 6.57403C13.7022 6.63057 13.7143 6.69122 13.7143 6.75247C13.7143 6.81373 13.7022 6.87437 13.6786 6.93092C13.655 6.98746 13.6205 7.03878 13.577 7.08191L10.6542 10.0005Z" fill="white"/>
</svg>
