 <svg version="1.1" xmlns="http://www.w3.org/2000/svg" width="512" height="512">
<path d="M0 0 C0.83913382 -0.00297112 1.67826764 -0.00594224 2.54282975 -0.0090034 C5.35312791 -0.01767124 8.16338338 -0.01919703 10.97369385 -0.02069092 C12.98936046 -0.02532044 15.0050262 -0.03034528 17.02069092 -0.03573608 C22.4960308 -0.04884895 27.97135842 -0.05530284 33.44671154 -0.05974674 C36.86853131 -0.06267918 40.29034774 -0.06678431 43.71216583 -0.07125092 C54.42132099 -0.08492274 65.13046851 -0.09459101 75.8396318 -0.09845281 C88.19615063 -0.10293331 100.55255883 -0.12048224 112.90904403 -0.1494534 C122.46419811 -0.17107789 132.01932108 -0.1811575 141.57449937 -0.18249393 C147.27958572 -0.18354137 152.98456804 -0.18943651 158.6896286 -0.20731354 C164.0576521 -0.22380747 169.42549349 -0.22594323 174.79353333 -0.21717453 C176.76030719 -0.21640488 178.7270909 -0.22073739 180.69384003 -0.23063278 C183.38595247 -0.24338005 186.07742258 -0.23746046 188.76953125 -0.22705078 C189.92739502 -0.23913539 189.92739502 -0.23913539 191.10864997 -0.25146413 C200.00178409 -0.17144893 208.04132315 2.61224045 214.45513916 8.92950439 C221.35610669 16.39234611 223.76877339 23.63826173 223.75898743 33.8352356 C223.76104942 35.50098885 223.76104942 35.50098885 223.76315308 37.20039368 C223.7595578 38.40376877 223.75596252 39.60714386 223.7522583 40.84698486 C223.75240433 42.12557877 223.75255035 43.40417267 223.75270081 44.72151184 C223.75298693 48.21486096 223.74712008 51.70817552 223.74012685 55.20151663 C223.73386254 58.85702939 223.73328708 62.512543 223.73210144 66.1680603 C223.72899719 73.08460651 223.72079603 80.00113686 223.71075195 86.91767609 C223.69956266 94.79432581 223.69407327 102.67097629 223.68905652 110.54763198 C223.67861265 126.74524456 223.66103078 142.9428412 223.63873291 159.14044189 C224.72355957 159.1281958 225.80838623 159.11594971 226.92608643 159.10333252 C245.5502836 159.28948876 264.94826172 171.33621169 278.16217041 183.60919189 C294.88332879 200.69958721 303.27146037 222.72001353 303.95123291 246.45294189 C303.45431839 270.53868113 294.33756527 292.21542038 277.50592041 309.39434814 C259.16780293 326.95796747 236.55790126 334.72147083 211.40435791 334.35137939 C187.37964536 333.56606797 166.13400611 322.36348544 149.51763916 305.27716064 C136.63873291 290.63108639 136.63873291 290.63108639 136.63873291 284.14044189 C135.90158145 284.14412907 135.16442999 284.14781624 134.40494061 284.15161514 C116.43390631 284.24011285 98.46291574 284.30622269 80.49170971 284.34769058 C71.80081015 284.36827932 63.11005642 284.39632901 54.41925049 284.44219971 C46.8406609 284.48218084 39.26217698 284.50790149 31.68348485 284.51679587 C27.67391421 284.52199163 23.66464575 284.53412566 19.65517235 284.56336212 C15.87371236 284.59070999 12.09267621 284.59884829 8.31112671 284.59287262 C6.27711044 284.59448095 4.2431393 284.61590159 2.20924377 284.63812256 C-8.58000681 284.59009175 -17.67603413 282.71472317 -25.64251709 275.05841064 C-32.99972558 266.84843481 -34.66894455 258.26432622 -34.6219635 247.51400757 C-34.62578905 246.57501078 -34.6296146 245.636014 -34.63355607 244.66856277 C-34.64383268 241.53820036 -34.63990407 238.40802321 -34.63592529 235.27764893 C-34.64027472 233.02671134 -34.64545864 230.77577523 -34.65141296 228.52484131 C-34.66478938 222.42151575 -34.66538313 216.31825216 -34.66284966 210.2149148 C-34.66177903 205.11555734 -34.66666569 200.01621238 -34.67145509 194.9168576 C-34.68317934 182.19686705 -34.68232787 169.47692128 -34.67589828 156.75693117 C-34.67073035 145.72579949 -34.68198324 134.69475615 -34.7009965 123.66364194 C-34.72039717 112.32026499 -34.7283359 100.97694195 -34.72487324 89.63354385 C-34.72306179 83.27175873 -34.72568294 76.91005452 -34.73958778 70.54828262 C-34.75217712 64.56462988 -34.75021138 58.58115374 -34.7371769 52.59750366 C-34.73481399 50.40539363 -34.7375355 48.21327112 -34.74580002 46.02117538 C-34.75629327 43.02086125 -34.7481459 40.02113691 -34.73548889 37.02084351 C-34.74286318 36.16051077 -34.75023746 35.30017803 -34.75783521 34.41377461 C-34.67449655 24.97547677 -32.38311247 16.13002702 -25.53704834 9.32794189 C-17.50752738 1.98666559 -10.74602767 -0.01192477 0 0 Z M-12.36126709 26.14044189 C-13.6844468 30.10998101 -13.50584408 33.90885084 -13.50170898 38.0473938 C-13.50468011 38.96931208 -13.50765123 39.89123036 -13.51071239 40.84108555 C-13.51941326 43.9433215 -13.5209088 47.04551892 -13.5223999 50.14776611 C-13.52702704 52.36666954 -13.53205156 54.58557218 -13.53744507 56.80447388 C-13.55057993 62.84162919 -13.55701599 68.87877338 -13.56145573 74.91594076 C-13.56438432 78.68513356 -13.56848869 82.4543233 -13.5729599 86.22351456 C-13.58506934 96.65834072 -13.59545153 107.09316509 -13.59883499 117.52799797 C-13.59905456 118.19581494 -13.59927412 118.86363191 -13.59950034 119.55168576 C-13.59971862 120.22110241 -13.5999369 120.89051906 -13.60016179 121.58022106 C-13.60060526 122.93672045 -13.60105182 124.29321985 -13.60150146 125.64971924 C-13.60172289 126.32259012 -13.60194432 126.995461 -13.60217246 127.68872191 C-13.60612138 138.59421435 -13.62357864 149.49964001 -13.64686099 160.40510665 C-13.67056901 171.60025755 -13.68277853 182.79538407 -13.68420291 193.99056256 C-13.68525266 200.27681714 -13.69119681 206.56297752 -13.70902252 212.84920883 C-13.72545891 218.76054196 -13.72768027 224.67170962 -13.71888351 230.5830574 C-13.7181108 232.75469149 -13.7224866 234.92633431 -13.73234177 237.09794617 C-13.74499192 240.05867064 -13.73922217 243.01880289 -13.72875977 245.97952271 C-13.73681617 246.84226645 -13.74487257 247.7050102 -13.75317311 248.5938977 C-13.71466741 253.24129279 -13.48798678 256.44515531 -10.36126709 260.14044189 C-6.75371201 262.91231282 -4.13730583 263.51377037 0.36512756 263.50120544 C1.50791168 263.50532944 2.6506958 263.50945343 3.82810974 263.51370239 C5.69466972 263.49752365 5.69466972 263.49752365 7.59893799 263.48101807 C9.57513123 263.48167519 9.57513123 263.48167519 11.59124756 263.48234558 C15.19633174 263.48320524 18.8011156 263.46558441 22.40613008 263.44462371 C26.17641309 263.42585199 29.94670322 263.42410608 33.71702576 263.42054749 C40.85324295 263.41122846 47.98932203 263.38661666 55.12547845 263.35649902 C63.25117603 263.32295053 71.37688026 263.30646788 79.50262988 263.29141271 C96.21474503 263.26006693 112.92672134 263.20730927 129.63873291 263.14044189 C129.47705627 261.86801636 129.31537964 260.59559082 129.14880371 259.28460693 C126.04981101 234.89495144 131.85074304 211.78462055 146.63873291 192.14044189 C159.19888299 176.02134118 176.05999445 166.55845757 195.63873291 161.14044189 C197.97235702 160.47479378 200.30572493 159.80824626 202.63873291 159.14044189 C202.70884614 142.42457608 202.76173239 125.70875805 202.79416943 108.99278069 C202.80963152 101.23107866 202.8307084 93.46946805 202.86505127 85.70782471 C202.89497384 78.9419572 202.9143127 72.17615592 202.92099839 65.41022408 C202.92490584 61.82843142 202.93407497 58.24682818 202.95592308 54.66509628 C202.98012811 50.66444278 202.98070107 46.66411762 202.97930908 42.66339111 C202.99009491 41.4787175 203.00088074 40.29404388 203.01199341 39.07347107 C203.05882751 31.14016632 203.05882751 31.14016632 199.63873291 24.14044189 C195.42243847 20.87648633 191.59061895 20.71013614 186.44709778 20.74603271 C185.21584865 20.73689606 185.21584865 20.73689606 183.9597258 20.72757483 C181.21139256 20.71093611 178.46352218 20.71572184 175.71514893 20.72052002 C173.74387124 20.71318023 171.77259786 20.70459427 169.80133057 20.69485474 C164.44805072 20.67262147 159.09492472 20.66970894 153.74160504 20.67160225 C149.27328558 20.67172186 144.80499883 20.66316174 140.33668846 20.65482473 C129.79599037 20.63558443 119.25537148 20.63270927 108.71466064 20.63946533 C97.83833092 20.64610816 86.96234015 20.62323334 76.08607918 20.5861516 C66.7492116 20.55547263 57.41245317 20.54409258 48.07553619 20.54798841 C42.49847611 20.55005763 36.92167982 20.54454982 31.34466743 20.52009583 C26.10046252 20.49786093 20.8568095 20.49967958 15.61260223 20.52002335 C13.68810792 20.52343905 11.76357668 20.51832023 9.83913231 20.50403976 C7.21122643 20.48588491 4.58520041 20.49856729 1.95735168 20.51898193 C0.81556224 20.50020516 0.81556224 20.50020516 -0.34929365 20.48104906 C-6.11851486 20.57710714 -8.50567933 22.1240055 -12.36126709 26.14044189 Z M165.63873291 201.14044189 C152.6011875 217.61904437 146.58155096 235.43254232 149.03717041 256.57012939 C152.14080254 274.34547703 162.29947336 290.29950036 176.63873291 301.14044189 C192.73033208 311.89346102 210.45014081 315.45447597 229.57623291 312.14044189 C246.83250918 307.97782939 261.59070497 297.73711329 271.63873291 283.14044189 C277.55781421 273.29229085 281.90769943 262.68190991 282.63873291 251.14044189 C282.69158447 250.41727783 282.74443604 249.69411377 282.79888916 248.94903564 C283.42739576 232.36192672 277.64190624 217.10492761 267.63873291 204.14044189 C266.87560791 203.10919189 266.11248291 202.07794189 265.32623291 201.01544189 C253.1011689 187.93746644 236.31273261 180.02038574 218.41217041 179.01544189 C198.47707427 178.50915374 179.27238124 186.51216798 165.63873291 201.14044189 Z " fill="#ffffff" transform="translate(121.36126708984375,88.85955810546875)"/>
<path d="M0 0 C1.17487976 -0.00571014 2.34975952 -0.01142029 3.5602417 -0.01730347 C4.85070404 -0.01842133 6.14116638 -0.01953918 7.47073364 -0.02069092 C8.84235772 -0.02531981 10.21398051 -0.03034456 11.58560181 -0.03573608 C15.31291325 -0.0488544 19.04020668 -0.05530381 22.76753759 -0.05974674 C25.09614778 -0.06267809 27.42475304 -0.066783 29.75336075 -0.07125092 C37.03891695 -0.08492371 44.32446191 -0.0945917 51.61003006 -0.09845281 C60.02057608 -0.10293462 68.43095967 -0.12048906 76.84145629 -0.1494534 C83.34260608 -0.17106536 89.84371015 -0.18115681 96.34489548 -0.18249393 C100.22784616 -0.18354221 104.11064411 -0.18945503 107.99355698 -0.20731354 C111.64614602 -0.22378615 115.29846738 -0.22595382 118.95108032 -0.21717453 C120.92893416 -0.21603646 122.90677909 -0.22975969 124.88458252 -0.243927 C126.65536163 -0.23557327 126.65536163 -0.23557327 128.46191406 -0.22705078 C129.48581678 -0.22851734 130.50971951 -0.2299839 131.56464958 -0.2314949 C135.83632265 0.3372938 138.45797075 2.09047698 141.23294067 5.32794189 C142.52468312 8.55729801 142.53601776 10.67053839 142.26809692 14.07794189 C140.75488245 17.50702877 138.64180864 19.48267972 135.35794067 21.14044189 C130.81055195 21.88378876 126.30377186 21.7922845 121.70510864 21.73980713 C120.31171227 21.74167247 118.91831738 21.74571189 117.52493286 21.75175476 C113.75212487 21.76171081 109.98007083 21.74059202 106.20737219 21.71327472 C102.2561221 21.68940696 98.30488599 21.69238939 94.35357666 21.69197083 C87.72095 21.68734644 81.08861089 21.66372718 74.45608521 21.62750244 C66.78862256 21.58573663 59.12141859 21.56818538 51.45384872 21.5648827 C43.2866459 21.56128307 35.11953608 21.54241159 26.95237207 21.51776242 C24.60001112 21.51153533 22.24765725 21.50789811 19.89529037 21.50472832 C16.19997833 21.4988264 12.50485094 21.48250974 8.80961609 21.45812416 C6.80659464 21.44713791 4.80352739 21.44584521 2.80047607 21.44482422 C1.6088385 21.43484909 0.41720093 21.42487396 -0.81054688 21.41459656 C-1.84622362 21.40994605 -2.88190037 21.40529554 -3.94896126 21.40050411 C-7.84708096 21.02407755 -9.88133262 20.00609642 -12.45455933 17.07794189 C-14.13941557 12.91013962 -13.839725 9.4407851 -12.64205933 5.14044189 C-9.11072867 0.43200102 -5.63305862 0.01637734 0 0 Z " fill="#000000" transform="translate(151.64205932617188,144.85955810546875)"/>
<path d="M0 0 C1.81074257 -0.0129007 1.81074257 -0.0129007 3.6580658 -0.02606201 C5.00297503 -0.03049735 6.34788473 -0.0347957 7.6927948 -0.03897095 C9.10368045 -0.04687118 10.51456407 -0.05514008 11.92544556 -0.06375122 C16.56556771 -0.08997951 21.20569892 -0.1052792 25.84587097 -0.11953735 C27.4424509 -0.12489662 29.03903077 -0.13027413 30.63561058 -0.13566971 C37.27618153 -0.15729922 43.91675003 -0.17603653 50.5573473 -0.1872921 C60.07837541 -0.20353536 69.59899567 -0.23672105 79.11987001 -0.29369295 C85.81207756 -0.33237499 92.50417595 -0.35192268 99.19649237 -0.35721266 C103.19471587 -0.36086843 107.19250446 -0.37291287 111.19060707 -0.4053154 C114.95246623 -0.43536618 118.71362667 -0.44171911 122.47558022 -0.42993164 C123.8554698 -0.42971065 125.23539151 -0.43803699 126.61516953 -0.45558548 C138.34731756 -0.59666444 138.34731756 -0.59666444 141.64450073 2.53411865 C143.45478172 5.35397279 144.00330182 6.82832559 143.95133972 10.15390015 C143.96423035 10.97890015 143.97712097 11.80390015 143.99040222 12.65390015 C143.2653854 15.38337523 142.31195518 17.13307502 140.25578308 19.08561325 C135.62604869 21.64898706 129.77693158 20.84227586 124.61930847 20.8008728 C123.20797091 20.8076514 121.7966422 20.8165559 120.3853302 20.8274231 C116.55874523 20.850195 112.73283515 20.84138937 108.90623856 20.82552767 C104.89936267 20.8128575 100.89254408 20.82461187 96.88566589 20.8324585 C90.15712625 20.84155185 83.42886112 20.82957557 76.70036316 20.80575562 C68.92427286 20.7785447 61.14883805 20.7873591 53.37276363 20.81488764 C46.69317742 20.83758684 40.01378839 20.84077491 33.33417606 20.8276943 C29.34613362 20.81990415 25.35839917 20.81884591 21.37037659 20.83537674 C17.62067906 20.84983434 13.87182554 20.83977767 10.12221909 20.81090546 C8.74720536 20.80430132 7.37212044 20.80618102 5.99713516 20.81721878 C-5.69210977 20.90239438 -5.69210977 20.90239438 -8.96784973 17.73846436 C-11.51611422 13.8774534 -12.12268754 11.82378364 -11.67366028 7.15390015 C-8.29092527 1.17773496 -6.68862902 0.03537603 0 0 Z " fill="#000000" transform="translate(149.6736602783203,215.84609985351563)"/>
<path d="M0 0 C2.80721819 1.22052965 4.40925442 2.12430655 6.12060547 4.66113281 C7.33853527 7.90037975 7.22363851 10.71610201 7.1953125 14.171875 C7.1924826 14.8542926 7.18965271 15.53671021 7.18673706 16.23980713 C7.17558098 18.41005307 7.15048557 20.57987971 7.125 22.75 C7.11496426 24.22525444 7.10583944 25.70051537 7.09765625 27.17578125 C7.07565687 30.78398942 7.04115883 34.39195375 7 38 C7.94319092 37.97381592 8.88638184 37.94763184 9.8581543 37.9206543 C13.37133145 37.83523078 16.88339908 37.77265702 20.3972168 37.7253418 C21.91529801 37.70025891 23.43325918 37.6661834 24.95092773 37.62280273 C27.13815965 37.56186707 29.32379039 37.53373105 31.51171875 37.51171875 C32.82615967 37.48553467 34.14060059 37.45935059 35.49487305 37.43237305 C39.88537608 38.14337949 41.29851319 39.53772613 44 43 C45.16697548 47.01147822 45.22859326 49.25707191 44 53.25 C41.52314032 56.65568206 38.93881237 57.84723715 35 59 C32.00238661 59.3999452 29.0523492 59.42151481 26.03125 59.3984375 C25.1921106 59.40130768 24.35297119 59.40417786 23.48840332 59.40713501 C21.72354452 59.40916618 19.95866272 59.40370296 18.19384766 59.39111328 C15.50762115 59.37504559 12.82289901 59.39099382 10.13671875 59.41015625 C8.41405921 59.40817365 6.6914006 59.40432962 4.96875 59.3984375 C4.17376099 59.40451019 3.37877197 59.41058289 2.55969238 59.4168396 C-2.68222253 59.35141669 -6.38155107 58.54793568 -11 56 C-13.58615855 53.1706943 -14.37738293 51.32311587 -14.40405273 47.51025391 C-14.41673691 46.62898834 -14.42942108 45.74772278 -14.44248962 44.8397522 C-14.43955399 43.8948996 -14.43661835 42.950047 -14.43359375 41.9765625 C-14.4388356 40.99763031 -14.44407745 40.01869812 -14.44947815 39.01010132 C-14.45589704 36.94066312 -14.45456308 34.87118843 -14.44604492 32.80175781 C-14.43754899 29.64321474 -14.46627606 26.48648879 -14.49804688 23.328125 C-14.49965941 21.31510471 -14.49908036 19.30208122 -14.49609375 17.2890625 C-14.50732773 16.34825836 -14.51856171 15.40745422 -14.53013611 14.43814087 C-14.46912032 8.66518915 -13.8180091 5.41138746 -10 1 C-6.80621918 -0.59689041 -3.47478685 -0.37348957 0 0 Z " fill="#000000" transform="translate(338,291)"/>
<path d="M0 0 C0.73353195 -0.00817749 1.4670639 -0.01635498 2.2228241 -0.02478027 C4.65529563 -0.04963413 7.0877088 -0.06615021 9.52026367 -0.08056641 C10.35066351 -0.08589008 11.18106335 -0.09121376 12.03662682 -0.09669876 C16.43196057 -0.12343038 20.82726593 -0.14280516 25.22265625 -0.15722656 C29.76250142 -0.17387425 34.30162062 -0.21865232 38.84119129 -0.26959801 C42.33193291 -0.30325491 45.82250189 -0.31480222 49.31339073 -0.32045364 C50.98675777 -0.32717054 52.66011327 -0.34240414 54.33332253 -0.36634445 C56.67724373 -0.39796758 59.01920271 -0.39803817 61.36328125 -0.390625 C62.39758774 -0.415233 62.39758774 -0.415233 63.45278931 -0.44033813 C67.27883446 -0.39087593 68.79371419 0.1261977 71.80375671 2.5730896 C74.0561244 5.42095657 74.55657725 6.61880215 74.50073242 10.19287109 C74.52006836 11.43037109 74.52006836 11.43037109 74.53979492 12.69287109 C73.56546659 16.36093071 71.79700252 17.81176532 68.87573242 20.19287109 C66.17566366 20.68936168 64.10307307 20.87963207 61.41088867 20.83984375 C60.30993362 20.85298615 60.30993362 20.85298615 59.18673706 20.86639404 C56.76996053 20.88833117 54.35502626 20.87385756 51.93823242 20.85693359 C50.25341441 20.86030341 48.56859877 20.86515742 46.88378906 20.87142944 C43.35645351 20.87879299 39.82975196 20.86811255 36.30249023 20.84472656 C31.78609248 20.81623836 27.27118031 20.83264521 22.75483704 20.86258888 C19.27686413 20.88067629 15.79924215 20.87489738 12.32125854 20.86194992 C10.65631941 20.85861986 8.99134818 20.86268896 7.32644653 20.87434769 C4.99696759 20.88708118 2.66987759 20.86764924 0.34057617 20.83984375 C-0.34424835 20.8499649 -1.02907288 20.86008606 -1.73464966 20.87051392 C-5.55819552 20.78616612 -7.04593454 20.25802433 -10.02832031 17.7774353 C-13.07545554 14.01993778 -13.58994577 12.03592427 -13.12426758 7.19287109 C-9.40496141 0.62209686 -7.16152428 0.04385749 0 0 Z " fill="#ffffff" transform="translate(151.124267578125,290.80712890625)"/>
</svg>
