<?xml version="1.0" encoding="UTF-8"?>
<!DOCTYPE svg PUBLIC "-//W3C//DTD SVG 1.1//EN" "http://www.w3.org/Graphics/SVG/1.1/DTD/svg11.dtd">
<svg xmlns="http://www.w3.org/2000/svg" version="1.1" width="512px" height="512px" style="shape-rendering:geometricPrecision; text-rendering:geometricPrecision; image-rendering:optimizeQuality; fill-rule:evenodd; clip-rule:evenodd" xmlns:xlink="http://www.w3.org/1999/xlink">
<g><path style="opacity:0.949" fill="#ffffff" d="M 112.5,88.5 C 181.167,88.3333 249.834,88.5 318.5,89C 333.231,92.397 341.731,101.564 344,116.5C 344.5,160.165 344.667,203.832 344.5,247.5C 387.289,253.321 413.456,277.321 423,319.5C 428.102,363.136 411.269,394.969 372.5,415C 332.75,429.852 298.25,422.019 269,391.5C 264.418,386.009 260.585,380.009 257.5,373.5C 209.17,372.667 160.837,372.167 112.5,372C 98.2145,368.715 89.7145,359.881 87,345.5C 86.3333,268.833 86.3333,192.167 87,115.5C 89.9114,101.092 98.4114,92.0917 112.5,88.5 Z M 114.5,109.5 C 181.501,109.333 248.501,109.5 315.5,110C 319.742,111.245 322.242,114.078 323,118.5C 323.833,161.504 323.667,204.504 322.5,247.5C 276.556,258.381 251.889,287.381 248.5,334.5C 248.449,340.133 249.116,345.633 250.5,351C 205.5,351.667 160.5,351.667 115.5,351C 112.804,350.31 110.637,348.81 109,346.5C 107.342,270.224 107.009,193.89 108,117.5C 109.277,114.062 111.443,111.395 114.5,109.5 Z M 331.5,267.5 C 366.53,267.912 389.697,284.579 401,317.5C 407.51,354.314 394.01,380.814 360.5,397C 331.163,406.541 305.997,400.041 285,377.5C 263.799,347.652 264.466,318.318 287,289.5C 299.318,276.924 314.152,269.591 331.5,267.5 Z"/></g>
<g><path style="opacity:0.945" fill="#ffffff" d="M 145.5,144.5 C 192.168,144.333 238.835,144.5 285.5,145C 292.474,148.118 294.641,153.285 292,160.5C 290.457,162.378 288.624,163.878 286.5,165C 239.167,165.667 191.833,165.667 144.5,165C 137.741,161.639 135.908,156.472 139,149.5C 140.805,147.174 142.972,145.508 145.5,144.5 Z"/></g>
<g><path style="opacity:0.988" fill="#ffffff" d="M 143.5,215.5 C 191.501,215.333 239.501,215.5 287.5,216C 292.275,219.655 293.775,224.488 292,230.5C 290.5,232 289,233.5 287.5,235C 239.5,235.667 191.5,235.667 143.5,235C 135.555,228.503 135.555,222.003 143.5,215.5 Z"/></g>
<g><path style="opacity:0.979" fill="#ffffff" d="M 143.5,290.5 C 168.836,290.333 194.169,290.5 219.5,291C 224.272,294.699 225.772,299.533 224,305.5C 222.833,307.333 221.333,308.833 219.5,310C 194.167,310.667 168.833,310.667 143.5,310C 135.555,303.503 135.555,297.003 143.5,290.5 Z"/></g>
<g><path style="opacity:0.938" fill="#ffffff" d="M 329.5,290.5 C 336.204,289.27 341.038,291.603 344,297.5C 344.5,307.828 344.666,318.161 344.5,328.5C 355.172,328.333 365.839,328.5 376.5,329C 384.5,335.333 384.5,341.667 376.5,348C 362.222,349.597 347.889,349.93 333.5,349C 329.035,348.687 325.868,346.521 324,342.5C 323.333,327.5 323.333,312.5 324,297.5C 324.967,294.379 326.8,292.046 329.5,290.5 Z"/></g>
</svg>
