<?xml version="1.0" encoding="UTF-8"?>
<svg version="1.1" xmlns="http://www.w3.org/2000/svg" width="512" height="512">
<path d="M0 0 C0.90787996 -0.00507454 1.81575991 -0.01014909 2.75115138 -0.0153774 C4.2416329 -0.01612404 4.2416329 -0.01612404 5.76222515 -0.01688576 C7.35018722 -0.02345914 7.35018722 -0.02345914 8.97022933 -0.03016531 C12.52969583 -0.04355595 16.08913757 -0.04973289 19.64862347 -0.0558567 C22.19627272 -0.06375769 24.74392085 -0.07202663 27.2915678 -0.08063698 C34.94743305 -0.10459991 42.60329706 -0.11978861 50.25918797 -0.13269705 C52.42356702 -0.13641103 54.58794544 -0.14038412 56.75232387 -0.14444971 C70.20668952 -0.16969534 83.66105625 -0.19173811 97.11544037 -0.20417786 C100.23115639 -0.20710734 103.34687237 -0.21006903 106.46258831 -0.21308327 C107.2369421 -0.21382932 108.0112959 -0.21457537 108.80911496 -0.21534403 C121.33415841 -0.22797922 133.8590593 -0.2611778 146.38403622 -0.3028851 C159.25846749 -0.3454025 172.13282601 -0.36888443 185.00732726 -0.37409842 C192.22956512 -0.37750215 199.4515805 -0.38913337 206.67374897 -0.42220116 C213.47572899 -0.45329459 220.27731678 -0.45856372 227.07935619 -0.4468174 C229.56769981 -0.44659734 232.05606179 -0.45484614 234.54434299 -0.47247124 C255.53142541 -0.61296065 271.66512797 1.87044529 287.66107464 16.69951439 C303.99198858 33.91318044 305.09733136 54.08995281 305.00482464 76.60576439 C305.00752523 78.94027937 305.01141235 81.27479326 305.01642132 83.60930443 C305.02228028 88.47053946 305.01386402 93.33147816 304.99505901 98.19267845 C304.97216977 104.41099171 304.98547879 110.62861801 305.00934887 116.84690666 C305.02381763 121.65456364 305.01919756 126.46205815 305.0088377 131.26972008 C305.0061787 133.56296433 305.00941093 135.85622355 305.01875591 138.1494503 C305.02895034 141.35078054 305.01338343 144.55100093 304.99115276 147.75224876 C304.99924969 148.68952812 305.00734661 149.62680748 305.0156889 150.59248924 C304.93893246 156.57942284 303.8815026 161.14094497 300.47357464 166.13701439 C295.59240948 170.78007393 291.50656858 171.49429452 284.97748089 171.41826439 C280.02310909 170.86176709 277.33432158 168.11407848 274.16107464 164.51201439 C271.92477969 161.36463631 271.34830051 159.76770301 271.33554363 155.97086143 C271.33009029 155.09763237 271.32463696 154.22440331 271.31901836 153.32471275 C271.31797604 152.36421516 271.31693371 151.40371758 271.31585979 150.414114 C271.31077908 149.40415367 271.30569836 148.39419334 271.30046368 147.35362816 C271.28974269 145.15411758 271.28112933 142.95459597 271.27434444 140.75506973 C271.26257197 137.2700675 271.24312106 133.78519012 271.22122478 130.30023766 C271.15956904 120.38918296 271.10563992 110.47813919 271.07220745 100.56694603 C271.05121911 94.50856077 271.01587598 88.45039997 270.97144985 82.39214325 C270.95731601 80.08579788 270.94857334 77.77941276 270.94539547 75.47302628 C270.94046686 72.23700572 270.91725584 69.00157622 270.89007854 65.7656765 C270.89308468 64.81934853 270.89609081 63.87302055 270.89918804 62.89801598 C270.78661739 53.83625731 268.79058753 46.53887057 262.50091839 39.86357689 C256.00433355 34.3308399 248.10289384 33.00877128 239.77878094 33.01675987 C238.66827877 33.01538521 237.5577766 33.01401054 236.41362286 33.01259422 C235.21024776 33.0161895 234.00687267 33.01978477 232.76703167 33.023489 C231.48843777 33.02334297 230.20984386 33.02319695 228.89250469 33.02304649 C225.39915558 33.02276037 221.90584101 33.02862722 218.4124999 33.03562045 C214.75698714 33.04188476 211.10147353 33.04246022 207.44595623 33.04364586 C200.52941002 33.04675011 193.61287968 33.05495127 186.69634044 33.06499535 C178.81969073 33.07618464 170.94304024 33.08167403 163.06638455 33.08669078 C146.86877197 33.09713465 130.67117533 33.11471652 114.47357464 33.13701439 C115.5775761 33.49940208 116.68157757 33.86178978 117.81903362 34.23515892 C121.95548614 35.59696406 126.08577942 36.9766951 130.21454144 38.36162376 C131.99451272 38.95596818 133.77606948 39.54558788 135.559268 40.13017845 C151.30653015 45.29842019 164.17334421 50.74272084 172.34857464 66.13701439 C176.7741556 75.05007254 176.75830106 84.251189 176.71408367 93.97516441 C176.71495698 95.36886563 176.71671025 96.76256652 176.719262 98.15626568 C176.72371503 101.96690287 176.71576013 105.77742676 176.70570588 109.58804953 C176.69704408 113.70449407 176.69999347 117.82093256 176.70151043 121.93738365 C176.70255756 129.06307608 176.69629898 136.18873179 176.68503475 143.31441498 C176.66875934 153.61686727 176.66356966 163.91930187 176.66105877 174.22176563 C176.65668487 190.9380728 176.64338404 207.65436041 176.62445354 224.37065697 C176.60608685 240.60600754 176.59193421 256.84135279 176.58343792 273.07671165 C176.58291247 274.07797766 176.58238703 275.07924366 176.58184566 276.11085106 C176.57923552 281.13406326 176.57670812 286.15727549 176.57422185 291.18048775 C176.55349885 332.8326769 176.51828162 374.48484452 176.47357464 416.13701439 C185.31476739 416.05234712 194.15577341 415.95736331 202.99671364 415.8494873 C207.10265494 415.79970537 211.20857275 415.75337493 215.31463909 415.71513939 C219.28292748 415.67805638 223.25101017 415.63163659 227.21912098 415.57895088 C228.72720548 415.56052842 230.23533386 415.54537647 231.74348545 415.53367043 C248.193476 415.5089991 248.193476 415.5089991 262.47357464 408.13701439 C269.73103543 400.47725533 270.77328922 392.98407597 270.72894573 382.79887962 C270.73256618 381.78337029 270.73618664 380.76786095 270.7399168 379.7215786 C270.74678796 377.5259694 270.74932053 375.3303432 270.74796963 373.13472366 C270.7470018 369.65848731 270.75997597 366.18255793 270.77694988 362.70636559 C270.82315369 352.82625735 270.84783906 342.9461821 270.85443401 333.06596947 C270.85944644 327.01477513 270.88367798 320.96390386 270.9197607 314.91281891 C270.92956 312.60956893 270.93188997 310.30627452 270.92658901 308.0030098 C270.91952438 304.78357259 270.93678763 301.5651006 270.95941448 298.34575462 C270.9471558 296.92186676 270.9471558 296.92186676 270.93464947 295.46921349 C271.0048842 289.85159017 271.69616341 286.5780775 275.47357464 282.13701439 C280.50192497 277.70727719 283.35522754 276.8368485 289.93451214 276.92217064 C294.70309636 277.32566623 297.48787667 279.09655542 300.72357464 282.51201439 C304.63993059 288.38654832 304.77067964 293.3009774 304.76410198 300.18120384 C304.77081921 301.19011177 304.77753643 302.1990197 304.78445721 303.2385006 C304.80345863 306.57581577 304.80736374 309.91292971 304.80951214 313.25029564 C304.81594293 315.58136641 304.8226715 317.91243638 304.82968426 320.24350548 C304.8416655 325.13681976 304.84536464 330.03006343 304.84418011 334.92339134 C304.84397787 341.155758 304.87117738 347.38766376 304.90572453 353.61992168 C304.92811354 358.44076116 304.93201384 363.26149228 304.93096066 368.08237839 C304.93330254 370.37739893 304.94204522 372.67242311 304.95762539 374.96739197 C305.0885897 396.26838096 303.24891286 414.62507686 287.88373089 430.78545189 C276.90133153 441.50085612 264.01311347 448.52001268 248.3351469 448.36406517 C247.55383907 448.36435722 246.77253124 448.36464928 245.96754742 448.36495018 C243.40824202 448.36356687 240.84923486 448.34805324 238.28998089 448.33232689 C236.50636739 448.3285932 234.72275184 448.32574791 232.93913555 448.32375145 C228.26201928 448.31614302 223.58502871 448.29651868 218.90796185 448.27434349 C214.12841778 448.25382476 209.34885325 448.24473688 204.56927776 448.23467064 C195.20398839 448.21327001 185.838792 448.17916798 176.47357464 448.13701439 C176.48208447 448.91532112 176.49059429 449.69362785 176.49936199 450.49551964 C176.53332386 454.0517771 176.55433906 457.60800031 176.57513714 461.16435814 C176.58875286 462.3887661 176.60236858 463.61317406 176.6163969 464.87468529 C176.65363509 473.36355877 176.24168844 480.40184909 172.47357464 488.13701439 C171.82001995 489.49246361 171.82001995 489.49246361 171.15326214 490.87529564 C165.51860481 501.2670817 157.17662264 506.58057395 146.47357464 511.13701439 C131.8766366 515.32229895 117.4651924 510.994485 103.72748089 506.10967064 C101.86605895 505.47247039 100.00360644 504.83827398 98.14021587 504.20685387 C94.23156296 502.87903453 90.32820742 501.53704582 86.42798138 500.18468285 C80.54409262 498.15154836 74.63811431 496.19022636 68.72308636 494.24980736 C67.75127737 493.93099413 66.77946838 493.6121809 65.77821064 493.28370667 C63.81330202 492.63931482 61.84835718 491.99503341 59.88337612 491.3508625 C54.00466863 489.41903687 48.13342276 487.46470874 42.26123905 485.51316452 C37.28162077 483.85855902 32.30105166 482.20696459 27.31805706 480.5625515 C22.35792367 478.92563454 17.400299 477.28132587 12.44437122 475.6317215 C10.59184187 475.01642737 8.73847324 474.40365333 6.884202 473.79362869 C-10.61401119 468.03310562 -24.5788736 462.9618987 -34.11626911 446.16435814 C-36.77096909 440.46520998 -37.77643186 435.27882804 -37.78369427 429.01260567 C-37.78720034 428.32740972 -37.79070642 427.64221378 -37.79431874 426.93625432 C-37.80359969 424.64735913 -37.79871806 422.35872023 -37.7938509 420.06981468 C-37.79758883 418.40931627 -37.80219092 416.74881961 -37.80758154 415.08832574 C-37.81980933 410.53052347 -37.81955133 405.97279462 -37.81719279 401.4149797 C-37.81678457 396.49731615 -37.8278243 391.57967612 -37.83730793 386.66202354 C-37.85391774 377.02922177 -37.85941747 367.39644448 -37.86053269 357.76362959 C-37.86148318 349.93303241 -37.86559353 342.1024433 -37.87193394 334.27184868 C-37.88954636 312.06789997 -37.89877282 289.86397059 -37.89727299 267.66001484 C-37.89719308 266.4631034 -37.89711316 265.26619196 -37.89703083 264.03301048 C-37.89694907 262.83463666 -37.89686731 261.63626283 -37.89678307 260.40157464 C-37.89597019 240.98073882 -37.91510841 221.55998055 -37.94330756 202.13916716 C-37.97203756 182.19529804 -37.98584779 162.25146675 -37.98412001 142.30757642 C-37.98345615 131.11169932 -37.98894693 119.91590354 -38.01047611 108.72004509 C-38.02868941 99.18749773 -38.03303399 89.65506853 -38.01945727 80.1225113 C-38.01292839 75.2603774 -38.01280762 70.3984702 -38.03016376 65.53635788 C-38.04590294 61.0813381 -38.04302221 56.62672461 -38.0255955 52.17171469 C-38.02252747 50.56406544 -38.02615056 48.95638579 -38.03731565 47.34877238 C-38.12167964 34.3348498 -36.28940747 24.10941534 -27.52642536 14.13701439 C-27.02498005 13.53115501 -26.52353474 12.92529564 -26.00689411 12.30107689 C-19.50910925 5.06023634 -9.80614977 0.02918087 0 0 Z M-3.52642536 37.13701439 C-5.30633303 41.48607619 -5.77679566 45.16132699 -5.77810764 49.83999443 C-5.78101452 50.49176704 -5.78392141 51.14353965 -5.78691638 51.81506294 C-5.79420772 53.99624597 -5.78727719 56.17714694 -5.78039265 58.35832787 C-5.78269742 59.93903004 -5.78587406 61.51973115 -5.78984714 63.10043001 C-5.79820147 67.44212215 -5.79406695 71.78372644 -5.7878747 76.1254189 C-5.78335384 80.80850462 -5.79033215 85.49157512 -5.79583454 90.17465782 C-5.80473409 99.34805117 -5.80280403 108.52141182 -5.79700926 117.69480646 C-5.79249499 125.14932548 -5.79187885 132.60383533 -5.79405689 140.05835533 C-5.79436336 141.11877341 -5.79466982 142.17919149 -5.79498558 143.27174345 C-5.79562502 145.42587086 -5.79627345 147.57999827 -5.79693076 149.73412567 C-5.8026357 169.93982071 -5.79607359 190.14549761 -5.78533003 210.35118967 C-5.77639437 227.69370674 -5.77794637 245.03619703 -5.78716755 262.37871361 C-5.79786728 282.51144143 -5.80208636 302.64415334 -5.79594302 322.7768836 C-5.79530591 324.92314688 -5.79467717 327.06941016 -5.79405689 329.21567345 C-5.79374834 330.27171348 -5.79343979 331.32775351 -5.79312189 332.41579476 C-5.79139406 339.86252944 -5.79431195 347.30925405 -5.799016 354.75598717 C-5.80462153 363.82937609 -5.80311528 372.9027304 -5.79245451 381.97611535 C-5.78719339 386.60667903 -5.78514857 391.23718498 -5.79175282 395.86774826 C-5.79770524 400.10533176 -5.79444883 404.34280391 -5.78379771 408.58037728 C-5.78156069 410.11461374 -5.78270674 411.64885958 -5.78754929 413.18309003 C-5.79362268 415.26687227 -5.78740115 417.35027211 -5.77810764 419.43403435 C-5.77778294 420.59196668 -5.77745823 421.74989902 -5.77712369 422.94292021 C-5.43546664 427.29590015 -4.51468137 430.81555759 -1.88641071 434.32997704 C1.23416928 436.7194006 4.53992685 437.85447595 8.23334026 439.04961205 C9.01328854 439.31267521 9.79323681 439.57573837 10.59681988 439.84677315 C13.18756393 440.7177089 15.78354954 441.57178489 18.37982464 442.42607689 C20.21911754 443.04086247 22.05801839 443.65682208 23.89654827 444.27388573 C27.77634963 445.57452494 31.65816048 446.8689105 35.54144573 448.15910912 C41.31963246 450.08164844 47.08735734 452.03409746 52.85248089 453.99541283 C61.36290785 456.8898674 69.87886217 459.76729073 78.40045452 462.62870979 C83.22835843 464.25025167 88.05428098 465.87726668 92.87640667 467.51592064 C97.67241684 469.14551662 102.47271206 470.76183246 107.27632427 472.3688755 C109.07352343 472.97260286 110.86917895 473.58094804 112.66313457 474.19424629 C115.14340095 475.04126508 117.62882756 475.87105308 120.11615276 476.69707298 C121.19126865 477.07083817 121.19126865 477.07083817 122.28810406 477.45215416 C127.26493498 479.07764265 132.24320154 479.96522219 137.47357464 479.13701439 C140.75532782 476.60732965 142.16601241 475.05970107 143.47357464 471.13701439 C143.56996935 469.00141274 143.60453957 466.86286453 143.60779572 464.72509098 C143.61014795 464.06833804 143.61250018 463.41158509 143.61492369 462.73493055 C143.62161774 460.51881897 143.62115534 458.30276597 143.62074566 456.08664513 C143.62404402 454.48790866 143.62776953 452.88917304 143.63188714 451.29043847 C143.6419182 446.88498831 143.6456257 442.47955176 143.64827645 438.07409179 C143.65217615 433.32755825 143.66175463 428.58103554 143.67048931 423.8345089 C143.69026178 412.36659449 143.70032031 400.8986792 143.7092171 389.43075201 C143.71359817 384.03363247 143.7189654 378.63651391 143.72420597 373.23939514 C143.741218 355.30451187 143.75571343 337.36962922 143.76295471 319.43473911 C143.76486468 314.77942657 143.766785 310.12411403 143.76874065 305.4688015 C143.76922439 304.31171333 143.76970813 303.15462517 143.77020653 301.96247373 C143.77851155 283.20729409 143.80385655 264.45217814 143.83632133 245.69702633 C143.86936189 226.45278992 143.8874007 207.2085859 143.89059895 187.96432096 C143.89276669 177.15474614 143.90155397 166.34526423 143.92706013 155.53571701 C143.94872601 146.33231508 143.9568378 137.12902861 143.94709335 127.92560407 C143.94253687 123.22815653 143.94451289 118.53094744 143.96385479 113.83353233 C143.98140315 109.53466901 143.98055693 105.23621955 143.9649575 100.93735234 C143.96256872 99.38081297 143.9669704 97.82424557 143.97878615 96.26774921 C143.99384409 94.15348153 143.98427728 92.04069193 143.96855927 89.92646122 C143.97002448 88.16434017 143.97002448 88.16434017 143.97151929 86.36662072 C143.36062945 82.40446613 141.97264407 80.23937883 139.47357464 77.13701439 C136.47068417 75.42936876 136.47068417 75.42936876 132.86224651 74.31816673 C132.1736832 74.07876051 131.4851199 73.83935429 130.77569103 73.59269333 C129.21495286 73.05387483 127.65071535 72.52512376 126.08377361 72.00462151 C123.27848361 71.07216785 120.4834826 70.11240291 117.68866253 69.14903831 C110.88794176 66.81394431 104.07240948 64.52388626 97.25482464 62.23857689 C96.0217709 61.82484196 94.78871716 61.41110703 93.51829815 60.98483467 C87.6780888 59.02548293 81.8369541 57.06892143 75.99463415 55.11587203 C69.29154588 52.87496149 62.59191073 50.62408246 55.89493513 48.36497176 C50.0528456 46.39505481 44.2064022 44.43836431 38.358325 42.48629951 C35.88508092 41.65864166 33.41318726 40.82693672 30.94270611 39.99106789 C27.4963779 38.82607708 24.04532021 37.67631251 20.59271526 36.5300808 C19.58063 36.184179 18.56854473 35.83827721 17.52579021 35.48189354 C6.22990585 31.75185866 6.22990585 31.75185866 -3.52642536 37.13701439 Z " fill="#ffffff" transform="translate(37.5264253616333,-0.13701438903808594)"/>
<path d="M0 0 C5.51008199 3.16699976 9.71654339 7.43342027 14.17675781 11.91796875 C14.97421417 12.71192047 15.77167053 13.50587219 16.59329224 14.32388306 C19.218278 16.94009203 21.83591078 19.5635182 24.453125 22.1875 C26.2779261 24.01095356 28.10302398 25.83411016 29.92840576 27.65698242 C33.74785075 31.47348186 37.563756 35.29347023 41.37695312 39.11621094 C45.78237341 43.53252966 50.1949733 47.94157643 54.61134076 52.34694576 C58.86709822 56.59252998 63.11720607 60.84371867 67.36495209 65.09732056 C69.17042925 66.90413296 70.97739624 68.70945788 72.78586578 70.51327515 C75.30905082 73.03139093 77.82575214 75.55581192 80.34082031 78.08203125 C81.09096405 78.82812653 81.84110779 79.5742218 82.61398315 80.34292603 C83.29802216 81.03260468 83.98206116 81.72228333 84.68682861 82.43286133 C85.57941816 83.32658195 85.57941816 83.32658195 86.49003983 84.23835754 C89.67465763 87.95379191 90.31336213 91.03026325 90.375 95.875 C90.40335938 96.88304687 90.43171875 97.89109375 90.4609375 98.9296875 C89.37065338 106.1920885 83.06137648 111.22443151 78.08203125 116.17675781 C77.28807953 116.97421417 76.49412781 117.77167053 75.67611694 118.59329224 C73.05990797 121.218278 70.4364818 123.83591078 67.8125 126.453125 C65.98904644 128.2779261 64.16588984 130.10302398 62.34301758 131.92840576 C58.52651814 135.74785075 54.70652977 139.563756 50.88378906 143.37695312 C46.46747034 147.78237341 42.05842357 152.1949733 37.65305424 156.61134076 C33.40747002 160.86709822 29.15628133 165.11720607 24.90267944 169.36495209 C23.09586704 171.17042925 21.29054212 172.97739624 19.48672485 174.78586578 C16.96860907 177.30905082 14.44418808 179.82575214 11.91796875 182.34082031 C11.17187347 183.09096405 10.4257782 183.84110779 9.65707397 184.61398315 C8.96739532 185.29802216 8.27771667 185.98206116 7.56713867 186.68682861 C6.67341805 187.57941816 6.67341805 187.57941816 5.76164246 188.49003983 C1.13358836 192.45689323 -3.17910035 192.42747493 -9.0859375 192.3125 C-14.38740101 191.74397844 -16.83972495 189.22134216 -20.375 185.5 C-22.72325726 180.44221514 -22.97097307 175.48314207 -22 170 C-19.40155888 165.67134889 -16.4349408 162.19021337 -12.86425781 158.63720703 C-12.36624161 158.13889877 -11.8682254 157.64059052 -11.3551178 157.12718201 C-9.72582084 155.49926617 -8.08958054 153.87852925 -6.453125 152.2578125 C-5.31497199 151.12339395 -4.17726293 149.98852982 -3.03997803 148.85324097 C-0.05895561 145.87982086 2.92802567 142.91245863 5.9163208 139.9463501 C8.96999633 136.91320656 12.01795265 133.87432768 15.06640625 130.8359375 C21.03871232 124.88502127 27.01733065 118.94049747 33 113 C32.14062552 112.99945523 31.28125105 112.99891047 30.39583492 112.99834919 C9.48019434 112.98337843 -11.43523316 112.9409196 -32.35075474 112.86790943 C-42.46538769 112.83326418 -52.57988442 112.80790451 -62.69458008 112.80444336 C-71.51111352 112.80140282 -80.32740434 112.78090028 -89.14384407 112.73947543 C-93.81165282 112.71815188 -98.47911668 112.70554151 -103.14697456 112.71384621 C-107.54252647 112.72139043 -111.9373798 112.70554875 -116.33280373 112.67193985 C-117.94401237 112.66371102 -119.55529053 112.66395147 -121.16649246 112.67340279 C-134.85271092 112.74572378 -134.85271092 112.74572378 -139.3924408 109.62675476 C-143.61414708 105.37397037 -145.14952134 102.00205982 -145.4375 96.0625 C-145.25927437 90.90945465 -144.12058013 88.10602648 -141 84 C-136.53806461 80.4319381 -133.5801983 79.4979976 -127.90054321 79.48101807 C-127.20937987 79.47351681 -126.51821652 79.46601556 -125.80610883 79.458287 C-123.50275377 79.43807507 -121.20038922 79.44609907 -118.89697266 79.45410156 C-117.24092641 79.44536296 -115.58488861 79.43487617 -113.92886353 79.42277527 C-109.44169135 79.3949297 -104.95479488 79.39151026 -100.46754885 79.39249516 C-95.77496456 79.38936482 -91.08250422 79.36374407 -86.38998413 79.34051514 C-77.50786099 79.2999609 -68.62581125 79.27961577 -59.74360979 79.26654124 C-49.62993338 79.25066926 -39.51638186 79.21225278 -29.40277791 79.17194796 C-8.60189314 79.08955689 12.19898576 79.03545981 33 79 C32.34045319 78.34489441 31.68090637 77.68978882 31.00137329 77.01483154 C24.78677739 70.84030909 18.57700354 64.66098636 12.37259865 58.47622299 C9.18268275 55.29674443 5.99093308 52.11915321 2.79492188 48.94580078 C-0.28930685 45.88330199 -3.36862493 42.81594407 -6.44459915 39.74515533 C-7.61901901 38.57443094 -8.79519786 37.40546835 -9.97315598 36.23830414 C-11.62269984 34.60327698 -13.2658794 32.96209844 -14.90771484 31.31933594 C-15.39611343 30.8381279 -15.88451202 30.35691986 -16.38771057 29.86112976 C-20.81767384 25.40402266 -22.29520146 22.39716495 -22.375 16.125 C-22.27363418 10.91733093 -21.69948398 7.89419367 -18 4 C-12.87322962 -0.87043186 -6.74482111 -1.1943954 0 0 Z " fill="#ffffff" transform="translate(422,128)"/>
</svg>
