<svg version="1.1" xmlns="http://www.w3.org/2000/svg" width="512" height="512">
<path d="M0 0 C3.12282609 2.4478735 5.87362867 5.20154456 8.65487671 8.02668762 C9.47716031 8.84187683 10.29944391 9.65706604 11.14664519 10.49695796 C13.40998486 12.74581059 15.66186608 15.00543152 17.9092114 17.2702471 C20.34184869 19.71631038 22.78891417 22.14786823 25.23413086 24.5813446 C30.01504018 29.34391314 34.78245039 34.11977551 39.54519765 38.90049962 C43.4167028 42.78605063 47.29326875 46.66648525 51.17348099 50.54334068 C51.72646766 51.09584991 52.27945433 51.64835914 52.84919817 52.21761107 C53.97271273 53.34009927 55.09624178 54.46257296 56.21978517 55.58503231 C66.14492152 65.50160912 76.05740634 75.43073855 85.96337891 85.36645508 C95.57088394 95.00280739 105.18920784 104.62819842 114.81884766 114.24243164 C125.31280322 124.71962069 135.80035482 135.20314615 146.2771765 145.69747084 C147.39458404 146.81672272 148.51199639 147.9359698 149.6294136 149.05521202 C150.17915863 149.60586914 150.72890366 150.15652626 151.29530763 150.72386995 C155.16626278 154.60042678 159.04165222 158.4725163 162.91871262 162.34296608 C167.64342491 167.05994175 172.36081466 171.78409986 177.06907289 176.51750139 C179.4705588 178.93147324 181.87509543 181.34217633 184.28842545 183.74431229 C186.90398687 186.35119701 189.50693613 188.97005756 192.10702515 191.59236145 C192.8703372 192.34743274 193.63364926 193.10250403 194.42009199 193.88045627 C200.47827511 200.03464962 203.42748381 205.03310414 203.4375 213.9375 C203.46650391 215.65259766 203.46650391 215.65259766 203.49609375 217.40234375 C202.28970616 226.15102852 197.05631204 231.52405461 191.0247345 237.4899292 C190.21503997 238.30656925 189.40534544 239.12320931 188.57111472 239.96459603 C185.86388961 242.69007195 183.14263748 245.40108324 180.42114258 248.11230469 C178.47266583 250.06564852 176.52716662 252.0219487 174.58148193 253.97807312 C169.84840005 258.73276031 165.10453393 263.47654315 160.35656736 268.21636215 C156.49657906 272.0700423 152.64033864 275.92743539 148.78671837 279.78748322 C148.23756195 280.33754129 147.68840553 280.88759937 147.122608 281.45432587 C146.00689709 282.57188805 144.89119182 283.68945587 143.77549215 284.80702928 C133.32050742 295.27858034 122.85292467 305.73746589 112.38123145 316.1923044 C102.80816715 325.75067226 93.24984421 335.32362441 83.69855694 344.90374908 C73.88249165 354.74922935 64.05722768 364.58543851 54.22167319 374.41145062 C53.10855495 375.52354635 51.99545065 376.63565604 50.88236046 377.74777985 C50.33474888 378.29491504 49.78713729 378.84205023 49.22293142 379.40576528 C45.37158987 383.25494551 41.52625651 387.1100651 37.68329811 390.96761322 C32.99705132 395.67140319 28.30205014 400.36623855 23.59567115 405.04988852 C21.19630774 407.43812779 18.80257436 409.8313553 16.41672325 412.23313713 C13.82595004 414.83983567 11.22022217 417.43061738 8.61018372 420.01800537 C7.86482906 420.77519576 7.1194744 421.53238615 6.35153323 422.3125217 C0.97301058 427.59676316 -4.45890805 431.25004073 -12.00390625 432.49609375 C-23.96341491 432.22221187 -29.49705199 428.2849237 -38 420 C-38.88558594 419.18789063 -39.77117187 418.37578125 -40.68359375 417.5390625 C-48.30142795 410.36267783 -53.15441696 404.09645432 -53.5625 393.375 C-52.77890676 376.62569439 -35.86529317 364.72286154 -24.74975586 353.63623047 C-23.22113915 352.1078963 -21.69274353 350.57934098 -20.16455078 349.05058289 C-16.04141759 344.92716432 -11.91522174 340.80682315 -7.78844523 336.6870513 C-3.46650242 332.37138532 0.85258412 328.05286269 5.17198181 323.73464966 C13.3401394 315.56959266 21.51084142 307.40708681 29.6824736 299.24550736 C38.99041433 289.94876737 48.29549526 280.64916725 57.60034382 271.34933257 C76.73039493 252.22971703 95.86401261 233.11367404 115 214 C110.96642268 209.15753648 106.741131 204.60725257 102.2624054 200.17579651 C101.61011072 199.52617524 100.95781604 198.87655396 100.28575486 198.2072472 C98.11646248 196.04795299 95.94359058 193.89229747 93.77075195 191.73657227 C92.20799808 190.18229257 90.64550483 188.62775079 89.08325195 187.07296753 C85.72710863 183.73350272 82.36960123 180.39541749 79.01116371 177.05825996 C73.70001975 171.77979727 68.39488545 166.49532292 63.09111023 161.2094574 C61.74682865 159.86980552 61.74682865 159.86980552 60.37538987 158.50308996 C58.5434235 156.67743097 56.71146592 154.85176315 54.87951696 153.02608669 C50.18027948 148.34321303 45.48046357 143.66092039 40.7800293 138.97924805 C40.30870149 138.50979729 39.83737368 138.04034654 39.35176321 137.55667 C31.70667768 129.9425023 24.05425778 122.33574218 16.39958546 114.73121393 C8.52868882 106.91143999 0.66756132 99.08192514 -7.18551666 91.24425548 C-11.59038225 86.84876534 -15.99973103 82.45798935 -20.42004967 78.07803535 C-24.57499453 73.96092685 -28.71816334 69.83232905 -32.85260773 65.6946373 C-34.37082804 64.17938768 -35.89333976 62.66842375 -37.42044258 61.16212654 C-39.50651339 59.10322197 -41.57653592 57.02938998 -43.64335632 54.95118713 C-44.24918586 54.36060392 -44.8550154 53.77002071 -45.4792034 53.16154104 C-50.1422984 48.42014368 -52.48001068 43.7928633 -53.3984375 37.09375 C-53.39070313 36.2378125 -53.38296875 35.381875 -53.375 34.5 C-53.38273437 33.6440625 -53.39046875 32.788125 -53.3984375 31.90625 C-52.40477964 24.65839266 -49.50196647 19.71849297 -44.4375 14.5625 C-43.90737305 14.00900879 -43.37724609 13.45551758 -42.83105469 12.88525391 C-41.23767668 11.23895401 -39.62407131 9.61597877 -38 8 C-37.09894531 7.09894531 -36.19789063 6.19789062 -35.26953125 5.26953125 C-24.66040182 -4.81325378 -13.17707086 -7.39521618 0 0 Z " fill="#FFFFFF" transform="translate(181,42)"/>
</svg>
