<?xml version="1.0" encoding="UTF-8"?>
<svg version="1.1" xmlns="http://www.w3.org/2000/svg" width="512" height="512">
<path d="M0 0 C0.91297852 0.16628906 1.82595703 0.33257812 2.76660156 0.50390625 C44.3986228 8.16363077 83.16052206 26.40624883 116 53 C116.54446777 53.44005371 117.08893555 53.88010742 117.64990234 54.33349609 C131.72173929 65.81174863 144.93680647 78.57719064 156 93 C156.75925781 93.93070312 157.51851563 94.86140625 158.30078125 95.8203125 C184.1596216 128.07168914 200.62794761 167.52514646 208 208 C208.16371094 208.83563477 208.32742188 209.67126953 208.49609375 210.53222656 C213.78656862 238.24163521 213.41678597 270.35093304 208 298 C207.83371094 298.91297852 207.66742188 299.82595703 207.49609375 300.76660156 C199.83636923 342.3986228 181.59375117 381.16052206 155 414 C154.55994629 414.54446777 154.11989258 415.08893555 153.66650391 415.64990234 C142.18825137 429.72173929 129.42280936 442.93680647 115 454 C114.06929688 454.75925781 113.13859375 455.51851563 112.1796875 456.30078125 C79.92831086 482.1596216 40.47485354 498.62794761 0 506 C-0.83563477 506.16371094 -1.67126953 506.32742188 -2.53222656 506.49609375 C-30.24163521 511.78656862 -62.35093304 511.41678597 -90 506 C-90.91297852 505.83371094 -91.82595703 505.66742188 -92.76660156 505.49609375 C-134.3986228 497.83636923 -173.16052206 479.59375117 -206 453 C-206.54446777 452.55994629 -207.08893555 452.11989258 -207.64990234 451.66650391 C-221.72173929 440.18825137 -234.93680647 427.42280936 -246 413 C-246.75925781 412.06929688 -247.51851562 411.13859375 -248.30078125 410.1796875 C-274.1596216 377.92831086 -290.62794761 338.47485354 -298 298 C-298.16371094 297.16436523 -298.32742188 296.32873047 -298.49609375 295.46777344 C-303.78656862 267.75836479 -303.41678597 235.64906696 -298 208 C-297.83371094 207.08702148 -297.66742188 206.17404297 -297.49609375 205.23339844 C-289.83636923 163.6013772 -271.59375117 124.83947794 -245 92 C-244.55994629 91.45553223 -244.11989258 90.91106445 -243.66650391 90.35009766 C-232.18825137 76.27826071 -219.42280936 63.06319353 -205 52 C-204.06929688 51.24074219 -203.13859375 50.48148438 -202.1796875 49.69921875 C-169.92831086 23.8403784 -130.47485354 7.37205239 -90 0 C-89.16436523 -0.16371094 -88.32873047 -0.32742188 -87.46777344 -0.49609375 C-59.75836479 -5.78656862 -27.64906696 -5.41678597 0 0 Z M-103.875 132.9375 C-106.98289113 137.41651957 -108.28926865 140.97813313 -108.3125 146.4375 C-108.32925781 147.34371094 -108.34601563 148.24992187 -108.36328125 149.18359375 C-107.64208497 154.77480361 -104.60749963 158.77688175 -100.85829163 162.82211304 C-99.65987231 164.11696184 -99.65987231 164.11696184 -98.43724251 165.43796921 C-94.76720269 169.29591727 -91.04142706 173.09011562 -87.26733398 176.84619141 C-86.44671982 177.6669516 -85.62610565 178.48771179 -84.78062439 179.33334351 C-82.10481457 182.00846433 -79.42549515 184.68003944 -76.74609375 187.3515625 C-74.87543695 189.22035151 -73.00500282 191.08936344 -71.13478088 192.95858765 C-66.73842853 197.35185169 -62.3395371 201.74256398 -57.93969065 206.13232839 C-52.92427327 211.13650628 -47.91174946 216.1435784 -42.89944732 221.15087628 C-32.60281173 231.4371042 -22.30260983 241.71975589 -12 252 C-13.41475342 255.21323113 -15.10765621 257.35170311 -17.59237671 259.81942749 C-18.33820511 260.5651149 -19.08403351 261.31080231 -19.85246277 262.0790863 C-21.08057426 263.29169884 -21.08057426 263.29169884 -22.33349609 264.52880859 C-23.62639809 265.81732979 -23.62639809 265.81732979 -24.94541931 267.13188171 C-26.81865405 268.99750265 -28.69358887 270.86120928 -30.5716362 272.72196579 C-33.54402329 275.66726839 -36.50873194 278.62021944 -39.47232056 281.57437134 C-46.30183729 288.37981163 -53.14130645 295.17522124 -59.98091888 301.97051239 C-66.24508954 308.19428 -72.50711434 314.42016672 -78.76105368 320.65421736 C-81.7042216 323.58744843 -84.65219081 326.51573899 -87.60398459 329.44028831 C-89.87586341 331.69367426 -92.14124354 333.95357953 -94.40771484 336.21240234 C-95.22240738 337.01676224 -96.03709991 337.82112213 -96.8764801 338.64985657 C-103.08479065 344.8570023 -108.06622316 349.99748522 -108.3125 359.1875 C-108.23859236 365.40395343 -106.84650302 369.94293374 -102.57421875 374.53125 C-97.9918201 378.60449324 -93.63520161 380.28665872 -87.5625 380.3125 C-86.20318359 380.33763672 -86.20318359 380.33763672 -84.81640625 380.36328125 C-79.27816208 379.64891688 -75.28228039 376.66327411 -71.27145386 372.94888306 C-69.97547586 371.74935438 -69.97547586 371.74935438 -68.6533165 370.5255928 C-64.26307877 366.3466896 -59.94518946 362.10100865 -55.65673828 357.81787109 C-54.66687726 356.8326539 -53.67682524 355.84762856 -52.68659973 354.86277771 C-50.02957142 352.21870904 -47.37574198 349.57145406 -44.72294855 346.92313719 C-43.06127235 345.26441341 -41.39901988 343.60626917 -39.73659897 341.94829178 C-34.52206566 336.74737853 -29.30949713 331.54450818 -24.09982789 326.33872259 C-18.10844313 320.35183107 -12.11054697 314.37156436 -6.10698712 308.39688241 C-1.44667277 303.75820258 3.20784327 299.11375636 7.8580209 294.46491492 C10.62773693 291.69624392 13.39979969 288.93002706 16.17794418 286.16981125 C18.78659131 283.57767964 21.38793862 280.97843613 23.98395729 278.37365913 C25.3855573 276.97092644 26.79456185 275.57560442 28.20381165 274.18055725 C34.75560336 267.58537281 39.54682031 262.06305774 40.08203125 252.47265625 C39.65371786 239.56206682 26.25589948 230.10639139 17.80200195 221.65673828 C16.81515249 220.66688728 15.82850493 219.67683496 14.84204102 218.68659973 C12.19382537 216.02964995 9.54247035 213.37585574 6.89020562 210.72294855 C5.22936222 209.06138963 3.56923483 207.39911871 1.90935326 205.73659897 C-3.89165818 199.92637566 -9.69520612 194.11870026 -15.5012207 188.31347656 C-20.89940492 182.91589496 -26.29196377 177.51273765 -31.68196648 172.10698712 C-36.32746104 167.44840759 -40.97681245 162.79370118 -45.62917358 158.1419791 C-48.40042109 155.37098589 -51.17011158 152.59848008 -53.93591881 149.82205582 C-56.53267353 147.21560168 -59.13421048 144.61401661 -61.73944855 142.01604271 C-63.14426475 140.61276504 -64.54415037 139.20455676 -65.94386292 137.79618835 C-75.01796573 128.65445044 -75.01796573 128.65445044 -87.1875 125.6875 C-94.16434714 125.77044798 -99.20198671 127.68036004 -103.875 132.9375 Z " fill="#000000" transform="translate(301,3)"/>
</svg>
