<?xml version="1.0" encoding="UTF-8"?>
<svg version="1.1" xmlns="http://www.w3.org/2000/svg" width="512" height="512">
<path d="M0 0 C0.9384375 0.73476562 1.876875 1.46953125 2.84375 2.2265625 C19.83516075 16.02113566 35.52145731 32.01040063 48 50 C48.44730469 50.63454102 48.89460938 51.26908203 49.35546875 51.92285156 C55.89655904 61.24054836 61.68563987 70.9358538 67 81 C67.33209473 81.61939453 67.66418945 82.23878906 68.00634766 82.87695312 C85.17133567 115.34617958 92.46663922 152.67339684 92.3125 189.125 C92.30976578 190.47279037 92.30976578 190.47279037 92.30697632 191.84780884 C92.25956153 205.76072728 91.67098089 219.31089141 89 233 C88.83902832 233.86898926 88.67805664 234.73797852 88.51220703 235.63330078 C81.12132454 274.64665262 64.47440952 311.50346725 39 342 C38.52062988 342.58088379 38.04125977 343.16176758 37.54736328 343.76025391 C27.38700344 356.044474 16.61100594 367.18790584 4 377 C3.06196533 377.74467529 3.06196533 377.74467529 2.10498047 378.50439453 C-7.52535373 386.14937708 -17.2413001 393.0455944 -28 399 C-29.143479 399.64533691 -29.143479 399.64533691 -30.31005859 400.30371094 C-57.6117498 415.62658802 -87.0663548 424.6379802 -118 429 C-118.7319458 429.1045752 -119.4638916 429.20915039 -120.21801758 429.31689453 C-183.418008 436.96795997 -247.4458257 417.82873403 -297.3125 378.9375 C-313.42937186 365.69186918 -328.7342993 350.90932154 -341 334 C-341.3923584 333.46310547 -341.7847168 332.92621094 -342.18896484 332.37304688 C-366.47685704 298.90475842 -381.24072843 260.84237838 -387 220 C-387.15686279 218.9020813 -387.15686279 218.9020813 -387.31689453 217.78198242 C-390.07966444 194.96071223 -389.5345351 169.49341264 -385 147 C-384.80132324 146.01112793 -384.60264648 145.02225586 -384.39794922 144.00341797 C-375.21774331 99.89029367 -355.12290056 58.17975098 -323.60058594 25.65185547 C-322.44179538 24.45594685 -321.28962968 23.25360722 -320.14160156 22.04736328 C-310.16265737 11.58572344 -299.80854682 2.34482026 -288 -6 C-287.36884277 -6.44923828 -286.73768555 -6.89847656 -286.08740234 -7.36132812 C-257.44377074 -27.5768178 -225.31881305 -40.34944286 -191 -47 C-190.15147461 -47.16661133 -189.30294922 -47.33322266 -188.42871094 -47.50488281 C-123.29348102 -59.6470349 -51.50493304 -41.23288179 0 0 Z M-191 1 C-192.4864502 1.36206543 -192.4864502 1.36206543 -194.00292969 1.73144531 C-225.88575297 9.76022089 -255.13951154 25.33253596 -279 48 C-280.3486155 49.15236175 -281.70241463 50.29869836 -283.0625 51.4375 C-312.94941248 77.69442311 -332.22802376 118.30964949 -339 157 C-339.17660156 157.9909668 -339.35320312 158.98193359 -339.53515625 160.00292969 C-341.12127666 169.81704971 -341.40055655 179.46029485 -341.375 189.375 C-341.37412384 190.20904358 -341.37324768 191.04308716 -341.37234497 191.90240479 C-341.32395267 205.92210677 -340.35016635 219.33648276 -337 233 C-336.75862305 233.9909668 -336.51724609 234.98193359 -336.26855469 236.00292969 C-328.23977911 267.88575297 -312.66746404 297.13951154 -290 321 C-288.84763825 322.3486155 -287.70130164 323.70241463 -286.5625 325.0625 C-260.30557689 354.94941248 -219.69035051 374.22802376 -181 381 C-180.0090332 381.17660156 -179.01806641 381.35320312 -177.99707031 381.53515625 C-168.18295029 383.12127666 -158.53970515 383.40055655 -148.625 383.375 C-147.79095642 383.37412384 -146.95691284 383.37324768 -146.09759521 383.37234497 C-116.98426089 383.27185344 -89.1437405 376.98023761 -63 364 C-62.35272949 363.68450195 -61.70545898 363.36900391 -61.03857422 363.04394531 C-38.5331668 351.98322814 -16.78292651 335.58188038 -1 316 C-0.19433594 315.03191406 0.61132812 314.06382812 1.44140625 313.06640625 C30.12588091 278.08267751 45.49563567 235.23210713 45.375 190.0625 C45.37412384 189.25463043 45.37324768 188.44676086 45.37234497 187.6144104 C45.26944117 158.69701931 38.88671971 130.95538435 26 105 C25.68450195 104.35272949 25.36900391 103.70545898 25.04394531 103.03857422 C13.81064811 80.18201561 -3.01966768 57.91778786 -23 42 C-24.33998047 40.90365234 -24.33998047 40.90365234 -25.70703125 39.78515625 C-51.8085045 19.00247377 -82.07232215 4.76333502 -115 -1 C-115.9909668 -1.17660156 -116.98193359 -1.35320312 -118.00292969 -1.53515625 C-127.81704971 -3.12127666 -137.46029485 -3.40055655 -147.375 -3.375 C-148.20904358 -3.37412384 -149.04308716 -3.37324768 -149.90240479 -3.37234497 C-163.92210677 -3.32395267 -177.33648276 -2.35016635 -191 1 Z " fill="#ffffff" transform="translate(404,66)"/>
<path d="M0 0 C7.59 0 15.18 0 23 0 C23 5.61 23 11.22 23 17 C24.2375 17.12375 25.475 17.2475 26.75 17.375 C50.74124627 20.09882524 73.0780771 28.29975018 93 42 C92.39024731 45.10189719 91.39858986 47.1629936 89.55859375 49.72265625 C89.06085449 50.42132813 88.56311523 51.12 88.05029297 51.83984375 C87.51807129 52.57332031 86.98584961 53.30679688 86.4375 54.0625 C85.89754395 54.8153125 85.35758789 55.568125 84.80126953 56.34375 C83.71410742 57.85756097 82.6242945 59.36947201 81.53173828 60.87939453 C80.17672005 62.75534103 78.83343577 64.63878137 77.49609375 66.52734375 C72.25510725 73.87244637 72.25510725 73.87244637 70 75 C67.39866217 73.54167425 64.89478317 72.02647499 62.375 70.4375 C49.59300929 62.66890669 37.83774697 59.17951721 23 56 C23 76.46 23 96.92 23 118 C28.445 118.99 28.445 118.99 34 120 C37.7770682 121.00051427 41.43965855 122.26599922 45.125 123.5625 C46.61616333 124.08650391 46.61616333 124.08650391 48.13745117 124.62109375 C66.12446253 131.14237902 83.88901683 140.20453286 93.1875 157.6875 C100.90620215 174.19863452 101.85216959 194.40074119 96.24609375 211.8203125 C89.10159563 230.0511008 75.22936498 242.88142667 57.4140625 250.68359375 C45.70845145 255.19708451 35.57320034 257 23 257 C23 265.25 23 273.5 23 282 C15.41 282 7.82 282 0 282 C0 273.75 0 265.5 0 257 C-3.96 256.67 -7.92 256.34 -12 256 C-15.21234851 255.33022405 -18.29060787 254.62930337 -21.4375 253.75 C-22.25387939 253.52675049 -23.07025879 253.30350098 -23.91137695 253.07348633 C-30.79633529 251.14461321 -37.45249166 248.88884004 -44 246 C-44.60344238 245.73380859 -45.20688477 245.46761719 -45.82861328 245.19335938 C-59.48194137 239.05749902 -71.62447823 230.69222805 -83 221 C-82.4121328 217.876027 -81.52407006 216.10985095 -79.41015625 213.75 C-78.87737061 213.14679932 -78.34458496 212.54359863 -77.7956543 211.92211914 C-77.22371338 211.28781982 -76.65177246 210.65352051 -76.0625 210 C-74.88182951 208.6662341 -73.70215512 207.33158582 -72.5234375 205.99609375 C-71.93272461 205.3294873 -71.34201172 204.66288086 -70.73339844 203.97607422 C-68.16527269 201.04841087 -65.67049294 198.06242067 -63.1875 195.0625 C-62.37667969 194.08410156 -61.56585938 193.10570312 -60.73046875 192.09765625 C-59.87388672 191.05931641 -59.87388672 191.05931641 -59 190 C-55.21230562 191.32237049 -52.64411307 192.94063865 -49.625 195.5625 C-34.79121564 207.68922875 -18.53685148 214.05683961 0 219 C0 197.55 0 176.1 0 154 C-2.64 153.67 -5.28 153.34 -8 153 C-29.52507522 147.72019399 -53.85122998 138.4260861 -66.5 119.125 C-75.11767698 103.18611072 -76.03924418 84.08038127 -72.09765625 66.6640625 C-66.77136663 48.88449074 -55.39696612 36.37393155 -39.68359375 27.02734375 C-27.04807406 20.25677518 -14.29894912 17.64995223 0 17 C0 11.39 0 5.78 0 0 Z M-24.81640625 64.76953125 C-30.68371364 71.2589146 -31.46745535 76.89182107 -31.3046875 85.5546875 C-30.73058615 92.04644892 -28.29076238 96.00164576 -23.75 100.5625 C-17.85503385 105.417178 -7.71432177 111 0 111 C0 92.19 0 73.38 0 54 C-9.51564695 54 -18.13042848 58.25609484 -24.81640625 64.76953125 Z M23 161 C23 180.47 23 199.94 23 220 C34.99913599 218.66676267 45.0692636 215.57389109 53 206 C56.75689873 199.77922731 58.14475184 193.18904152 57 186 C54.27903191 177.28179613 49.80474751 172.01117193 41.9375 167.4921875 C32.86463297 162.78358656 32.86463297 162.78358656 23 161 Z " fill="#ffffff" transform="translate(248,115)"/>
</svg>
