<svg version="1.1" xmlns="http://www.w3.org/2000/svg" width="512" height="512">
<path d="M0 0 C4.54532397 2.76060295 8.2299367 6.53413704 12.01953125 10.2265625 C13.34791016 11.44472656 13.34791016 11.44472656 14.703125 12.6875 C22.3209592 19.86388467 27.17394821 26.13010818 27.58203125 36.8515625 C26.79843801 53.60086811 9.88482442 65.50370096 -1.23071289 76.59033203 C-2.7593296 78.1186662 -4.28772522 79.64722152 -5.81591797 81.17597961 C-9.93905116 85.29939818 -14.06524701 89.41973935 -18.19202352 93.5395112 C-22.51396633 97.85517718 -26.83305287 102.17369981 -31.15245056 106.49191284 C-39.32060815 114.65696984 -47.49131017 122.81947569 -55.66294235 130.98105514 C-64.97088308 140.27779513 -74.27596401 149.57739525 -83.58081257 158.87722993 C-102.71086368 177.99684547 -121.84448136 197.11288846 -140.98046875 216.2265625 C-136.94689143 221.06902602 -132.72159975 225.61930993 -128.24287415 230.05076599 C-127.59057947 230.70038726 -126.93828479 231.35000854 -126.26622361 232.0193153 C-124.09693123 234.17860951 -121.92405933 236.33426503 -119.7512207 238.48999023 C-118.18846683 240.04426993 -116.62597358 241.59881171 -115.0637207 243.15359497 C-111.70757738 246.49305978 -108.35006998 249.83114501 -104.99163246 253.16830254 C-99.6804885 258.44676523 -94.3753542 263.73123958 -89.07157898 269.0171051 C-88.17539126 269.91020636 -87.27920354 270.80330761 -86.35585862 271.72347254 C-84.52389225 273.54913153 -82.69193467 275.37479935 -80.85998571 277.20047581 C-76.16074823 281.88334947 -71.46093232 286.56564211 -66.76049805 291.24731445 C-66.28917024 291.71676521 -65.81784243 292.18621596 -65.33223196 292.6698925 C-57.68714643 300.2840602 -50.03472653 307.89082032 -42.38005421 315.49534857 C-34.50915757 323.31512251 -26.64803007 331.14463736 -18.79495209 338.98230702 C-14.3900865 343.37779716 -9.98073772 347.76857315 -5.56041908 352.14852715 C-1.40547422 356.26563565 2.73769459 360.39423345 6.87213898 364.5319252 C8.39035929 366.04717482 9.91287101 367.55813875 11.43997383 369.06443596 C13.52604464 371.12334053 15.59606717 373.19717252 17.66288757 375.27537537 C18.26871711 375.86595858 18.87454665 376.45654179 19.49873465 377.06502146 C24.16182965 381.80641882 26.49954193 386.4336992 27.41796875 393.1328125 C27.41023438 393.98875 27.4025 394.8446875 27.39453125 395.7265625 C27.40226562 396.5825 27.41 397.4384375 27.41796875 398.3203125 C26.42431089 405.56816984 23.52149772 410.50806953 18.45703125 415.6640625 C17.9269043 416.21755371 17.39677734 416.77104492 16.85058594 417.34130859 C15.25720793 418.98760849 13.64360256 420.61058373 12.01953125 422.2265625 C11.11847656 423.12761719 10.21742188 424.02867187 9.2890625 424.95703125 C1.80821946 432.06673169 -3.7132835 434.48761933 -13.9765625 434.72265625 C-22.79834933 433.26574217 -28.52573595 428.40590925 -34.63534546 422.19987488 C-35.45762906 421.38468567 -36.27991266 420.56949646 -37.12711394 419.72960454 C-39.39045361 417.48075191 -41.64233483 415.22113098 -43.88968015 412.9563154 C-46.32231744 410.51025212 -48.76938292 408.07869427 -51.21459961 405.6452179 C-55.99550893 400.88264936 -60.76291914 396.10678699 -65.5256664 391.32606288 C-69.39717155 387.44051187 -73.2737375 383.56007725 -77.15394974 379.68322182 C-77.70693641 379.13071259 -78.25992308 378.57820336 -78.82966692 378.00895143 C-79.95318148 376.88646323 -81.07671053 375.76398954 -82.20025392 374.64153019 C-92.12539027 364.72495338 -102.03787509 354.79582395 -111.94384766 344.86010742 C-121.55135269 335.22375511 -131.16967659 325.59836408 -140.79931641 315.98413086 C-151.29327197 305.50694181 -161.78082357 295.02341635 -172.25764525 284.52909166 C-173.37505279 283.40983978 -174.49246514 282.2905927 -175.60988235 281.17135048 C-176.15962738 280.62069336 -176.70937241 280.07003624 -177.27577638 279.50269255 C-181.14673153 275.62613572 -185.02212097 271.7540462 -188.89918137 267.88359642 C-193.62389366 263.16662075 -198.34128341 258.44246264 -203.04954164 253.70906111 C-205.45102755 251.29508926 -207.85556418 248.88438617 -210.2688942 246.48225021 C-212.88445562 243.87536549 -215.48740488 241.25650494 -218.0874939 238.63420105 C-218.85080595 237.87912976 -219.61411801 237.12405847 -220.40056074 236.34610623 C-226.45874386 230.19191288 -229.40795256 225.19345836 -229.41796875 216.2890625 C-229.43730469 215.14566406 -229.45664063 214.00226563 -229.4765625 212.82421875 C-228.27017491 204.07553398 -223.03678079 198.70250789 -217.00520325 192.7366333 C-215.79066146 191.51167322 -215.79066146 191.51167322 -214.55158347 190.26196647 C-211.84435836 187.53649055 -209.12310623 184.82547926 -206.40161133 182.11425781 C-204.45313458 180.16091398 -202.50763537 178.2046138 -200.56195068 176.24848938 C-195.8288688 171.49380219 -191.08500268 166.75001935 -186.33703611 162.01020035 C-182.47704781 158.1565202 -178.62080739 154.29912711 -174.76718712 150.43907928 C-174.2180307 149.88902121 -173.66887428 149.33896313 -173.10307675 148.77223663 C-171.98736584 147.65467445 -170.87166057 146.53710663 -169.7559609 145.41953322 C-159.30097617 134.94798216 -148.83339342 124.48909661 -138.3617002 114.0342581 C-128.7886359 104.47589024 -119.23031296 94.90293809 -109.67902569 85.32281342 C-99.8629604 75.47733315 -90.03769643 65.64112399 -80.20214194 55.81511188 C-79.0890237 54.70301615 -77.9759194 53.59090646 -76.86282921 52.47878265 C-76.31521763 51.93164746 -75.76760604 51.38451227 -75.20340017 50.82079722 C-71.35205862 46.97161699 -67.50672526 43.1164974 -63.66376686 39.25894928 C-58.97752007 34.55515931 -54.28251889 29.86032395 -49.5761399 25.17667398 C-47.17677649 22.78843471 -44.78304311 20.3952072 -42.397192 17.99342537 C-39.80641879 15.38672683 -37.20069092 12.79594512 -34.59065247 10.20855713 C-33.84529781 9.45136674 -33.09994315 8.69417635 -32.33200198 7.9140408 C-23.4299292 -0.83198578 -12.12449817 -5.2844045 0 0 Z " fill="#FFFFFF" transform="translate(356.98046875,39.7734375)"/>
</svg>
