<?xml version="1.0" encoding="UTF-8"?>
<svg version="1.1" xmlns="http://www.w3.org/2000/svg" width="512" height="512">
<path d="M0 0 C0.91297852 0.16628906 1.82595703 0.33257812 2.76660156 0.50390625 C44.3986228 8.16363077 83.16052206 26.40624883 116 53 C116.54446777 53.44005371 117.08893555 53.88010742 117.64990234 54.33349609 C131.72173929 65.81174863 144.93680647 78.57719064 156 93 C156.75925781 93.93070312 157.51851563 94.86140625 158.30078125 95.8203125 C184.1596216 128.07168914 200.62794761 167.52514646 208 208 C208.16371094 208.83563477 208.32742188 209.67126953 208.49609375 210.53222656 C213.78656862 238.24163521 213.41678597 270.35093304 208 298 C207.83371094 298.91297852 207.66742188 299.82595703 207.49609375 300.76660156 C199.83636923 342.3986228 181.59375117 381.16052206 155 414 C154.55994629 414.54446777 154.11989258 415.08893555 153.66650391 415.64990234 C142.18825137 429.72173929 129.42280936 442.93680647 115 454 C114.06929688 454.75925781 113.13859375 455.51851563 112.1796875 456.30078125 C79.92831086 482.1596216 40.47485354 498.62794761 0 506 C-0.83563477 506.16371094 -1.67126953 506.32742188 -2.53222656 506.49609375 C-30.24163521 511.78656862 -62.35093304 511.41678597 -90 506 C-90.91297852 505.83371094 -91.82595703 505.66742188 -92.76660156 505.49609375 C-134.3986228 497.83636923 -173.16052206 479.59375117 -206 453 C-206.54446777 452.55994629 -207.08893555 452.11989258 -207.64990234 451.66650391 C-221.72173929 440.18825137 -234.93680647 427.42280936 -246 413 C-246.75925781 412.06929688 -247.51851562 411.13859375 -248.30078125 410.1796875 C-274.1596216 377.92831086 -290.62794761 338.47485354 -298 298 C-298.16371094 297.16436523 -298.32742188 296.32873047 -298.49609375 295.46777344 C-303.78656862 267.75836479 -303.41678597 235.64906696 -298 208 C-297.83371094 207.08702148 -297.66742188 206.17404297 -297.49609375 205.23339844 C-289.83636923 163.6013772 -271.59375117 124.83947794 -245 92 C-244.55994629 91.45553223 -244.11989258 90.91106445 -243.66650391 90.35009766 C-232.18825137 76.27826071 -219.42280936 63.06319353 -205 52 C-204.06929688 51.24074219 -203.13859375 50.48148438 -202.1796875 49.69921875 C-169.92831086 23.8403784 -130.47485354 7.37205239 -90 0 C-89.16436523 -0.16371094 -88.32873047 -0.32742188 -87.46777344 -0.49609375 C-59.75836479 -5.78656862 -27.64906696 -5.41678597 0 0 Z M-18.72854614 133.05111694 C-20.02452414 134.25064562 -20.02452414 134.25064562 -21.3466835 135.4744072 C-25.73692123 139.6533104 -30.05481054 143.89899135 -34.34326172 148.18212891 C-35.33312274 149.1673461 -36.32317476 150.15237144 -37.31340027 151.13722229 C-39.97042858 153.78129096 -42.62425802 156.42854594 -45.27705145 159.07686281 C-46.93872765 160.73558659 -48.60098012 162.39373083 -50.26340103 164.05170822 C-55.47793434 169.25262147 -60.69050287 174.45549182 -65.90017211 179.66127741 C-71.89155687 185.64816893 -77.88945303 191.62843564 -83.89301288 197.60311759 C-88.55332723 202.24179742 -93.20784327 206.88624364 -97.8580209 211.53508508 C-100.62773693 214.30375608 -103.39979969 217.06997294 -106.17794418 219.83018875 C-108.78659131 222.42232036 -111.38793862 225.02156387 -113.98395729 227.62634087 C-115.3855573 229.02907356 -116.79456185 230.42439558 -118.20381165 231.81944275 C-124.75560336 238.41462719 -129.54682031 243.93694226 -130.08203125 253.52734375 C-129.65371786 266.43793318 -116.25589948 275.89360861 -107.80200195 284.34326172 C-106.81515249 285.33311272 -105.82850493 286.32316504 -104.84204102 287.31340027 C-102.19382537 289.97035005 -99.54247035 292.62414426 -96.89020562 295.27705145 C-95.22936222 296.93861037 -93.56923483 298.60088129 -91.90935326 300.26340103 C-86.10834182 306.07362434 -80.30479388 311.88129974 -74.4987793 317.68652344 C-69.10059508 323.08410504 -63.70803623 328.48726235 -58.31803352 333.89301288 C-53.67253896 338.55159241 -49.02318755 343.20629882 -44.37082642 347.8580209 C-41.59957891 350.62901411 -38.82988842 353.40151992 -36.06408119 356.17794418 C-33.46732647 358.78439832 -30.86578952 361.38598339 -28.26055145 363.98395729 C-26.85573525 365.38723496 -25.45584963 366.79544324 -24.05613708 368.20381165 C-14.98203427 377.34554956 -14.98203427 377.34554956 -2.8125 380.3125 C3.40395343 380.23859236 7.94293374 378.84650302 12.53125 374.57421875 C16.60449324 369.9918201 18.28665872 365.63520161 18.3125 359.5625 C18.32925781 358.65628906 18.34601563 357.75007812 18.36328125 356.81640625 C17.64208497 351.22519639 14.60749963 347.22311825 10.85829163 343.17788696 C10.05934542 342.31465443 9.26039921 341.45142189 8.43724251 340.56203079 C4.76720269 336.70408273 1.04142706 332.90988438 -2.73266602 329.15380859 C-3.55328018 328.3330484 -4.37389435 327.51228821 -5.21937561 326.66665649 C-7.89518543 323.99153567 -10.57450485 321.31996056 -13.25390625 318.6484375 C-15.12456305 316.77964849 -16.99499718 314.91063656 -18.86521912 313.04141235 C-23.26157147 308.64814831 -27.6604629 304.25743602 -32.06030935 299.86767161 C-37.07572673 294.86349372 -42.08825054 289.8564216 -47.10055268 284.84912372 C-57.39718827 274.5628958 -67.69739017 264.28024411 -78 254 C-76.58524658 250.78676887 -74.89234379 248.64829689 -72.40762329 246.18057251 C-71.66179489 245.4348851 -70.91596649 244.68919769 -70.14753723 243.9209137 C-69.32879623 243.11250534 -68.51005524 242.30409698 -67.66650391 241.47119141 C-66.80456924 240.61217728 -65.94263458 239.75316315 -65.05458069 238.86811829 C-63.18134595 237.00249735 -61.30641113 235.13879072 -59.4283638 233.27803421 C-56.45597671 230.33273161 -53.49126806 227.37978056 -50.52767944 224.42562866 C-43.69816271 217.62018837 -36.85869355 210.82477876 -30.01908112 204.02948761 C-23.75491046 197.80572 -17.49288566 191.57983328 -11.23894632 185.34578264 C-8.2957784 182.41255157 -5.34780919 179.48426101 -2.39601541 176.55971169 C-0.12413659 174.30632574 2.14124354 172.04642047 4.40771484 169.78759766 C5.22240738 168.98323776 6.03709991 168.17887787 6.8764801 167.35014343 C13.08479065 161.1429977 18.06622316 156.00251478 18.3125 146.8125 C18.23859236 140.59604657 16.84650302 136.05706626 12.57421875 131.46875 C7.9918201 127.39550676 3.63520161 125.71334128 -2.4375 125.6875 C-3.79681641 125.66236328 -3.79681641 125.66236328 -5.18359375 125.63671875 C-10.72183792 126.35108312 -14.71771961 129.33672589 -18.72854614 133.05111694 Z " fill="#000000" transform="translate(301,3)"/>
</svg>
