<svg width="500" height="500" viewBox="0 0 500 500" fill="none" xmlns="http://www.w3.org/2000/svg">
<circle cx="250" cy="250" r="250" fill="#64FFDA" fill-opacity="0.16"/>
<path fill-rule="evenodd" clip-rule="evenodd" d="M325.562 245.532H369.975C372.742 245.532 375 247.79 375 250.557V281.929C375 284.696 372.742 286.954 369.975 286.954H325.562C322.795 286.954 320.536 284.696 320.536 281.929V250.537C320.536 247.79 322.795 245.532 325.562 245.532ZM152.242 230.416C167.297 230.416 179.484 242.623 179.484 257.658C179.484 272.693 167.277 284.9 152.242 284.9C137.207 284.9 125 272.713 125 257.678C125 242.643 137.207 230.416 152.242 230.416ZM148.478 243.965H151.815C152.425 243.965 152.934 244.474 152.934 245.084V257.922H164.653C165.263 257.922 165.771 258.431 165.771 259.041V262.378C165.771 262.988 165.263 263.497 164.653 263.497H147.38V245.105C147.359 244.454 147.868 243.965 148.478 243.965ZM152.242 236.621C163.879 236.621 173.299 246.041 173.299 257.678C173.299 269.315 163.879 278.735 152.242 278.735C140.605 278.735 131.185 269.315 131.185 257.678C131.185 246.041 140.625 236.621 152.242 236.621ZM231.832 316.556C238.708 336.82 267.497 337.573 273.966 316.556C281.596 323.392 304.118 324.796 312.5 329.476C315.145 330.94 317.546 332.853 319.478 335.376C320.76 337.085 322.489 340.238 323.792 343.758H181.986C183.289 340.238 185.018 337.085 186.3 335.376C188.232 332.833 190.613 330.961 193.278 329.476C201.681 324.776 224.202 323.392 231.832 316.556ZM260.701 190.173C261.902 189.97 262.044 189.99 263.041 190.234V169.218L240.255 175.341V201.119C240.275 201.261 240.275 201.424 240.275 201.566C240.275 205.228 235.433 208.87 230.693 209.684C225.952 210.498 222.107 208.199 222.107 204.537C222.107 200.875 225.952 197.233 230.693 196.419C232.483 196.114 234.131 196.256 235.514 196.724V165.678H235.718L267.782 158.333V193.632C267.843 193.917 267.863 194.181 267.863 194.466C267.863 197.518 264.648 200.569 260.701 201.241C256.734 201.932 253.54 200 253.54 196.948C253.54 193.896 256.734 190.844 260.701 190.173ZM226.542 274.564C225.098 274.625 224.019 274.93 223.267 275.419C222.839 275.724 222.534 276.07 222.31 276.517C222.087 277.006 221.965 277.596 221.985 278.267C222.046 280.241 223.083 282.845 225.077 285.835L225.098 285.876L231.608 296.232C234.212 300.382 236.959 304.614 240.377 307.727C243.632 310.717 247.62 312.732 252.869 312.752C258.545 312.772 262.716 310.677 266.093 307.503C269.613 304.227 272.359 299.711 275.106 295.235L282.43 283.15C283.793 280.037 284.302 277.942 283.997 276.701C283.813 275.968 283 275.602 281.637 275.541C281.331 275.521 281.047 275.521 280.762 275.541C280.416 275.541 280.09 275.561 279.724 275.602C279.541 275.622 279.338 275.602 279.154 275.561C278.503 275.602 277.832 275.561 277.14 275.459L279.622 265.389C260.986 268.339 247.03 254.484 227.315 262.601L228.719 274.666C228.007 274.686 227.234 274.666 226.542 274.564ZM284.159 272.225C285.97 272.774 287.13 273.934 287.598 275.785C288.127 277.819 287.557 280.729 285.807 284.696C285.767 284.757 285.746 284.839 285.706 284.9L278.28 297.127C275.411 301.847 272.502 306.567 268.636 310.188C264.608 313.932 259.664 316.434 252.909 316.434C246.602 316.414 241.842 314.013 237.935 310.433C234.172 306.974 231.283 302.539 228.536 298.185L222.026 287.829C219.645 284.269 218.404 281.034 218.343 278.369C218.302 277.107 218.506 275.968 218.974 274.971C219.462 273.913 220.215 273.059 221.212 272.367C221.68 272.041 222.209 271.777 222.799 271.574C222.371 265.958 222.209 259.916 222.473 253.995C222.616 252.592 222.88 251.167 223.267 249.784C224.935 243.823 229.106 241.117 234.273 237.821C237.122 236.01 240.255 234.647 243.49 233.711C244.08 233.549 252.177 214.384 278.178 242.5C281.799 246.427 284.058 249.54 284.566 256.396L284.159 272.225ZM157.939 337.675C159.017 340.055 157.939 342.863 155.558 343.921C153.178 344.999 150.37 343.921 149.312 341.54C146.667 335.62 144.491 329.455 142.904 323.108C141.337 316.882 140.299 310.412 139.832 303.8C139.75 302.64 139.689 301.298 139.628 299.772C139.567 298.144 139.547 296.801 139.547 295.743C139.547 293.139 141.683 291.003 144.287 291.003C146.891 291.003 149.028 293.139 149.028 295.743C149.028 297.29 149.048 298.51 149.068 299.426C149.109 300.484 149.17 301.725 149.272 303.108C149.699 309.151 150.655 315.071 152.1 320.768C153.564 326.648 155.518 332.304 157.939 337.675ZM178.894 223.437C177.063 225.289 174.052 225.289 172.201 223.458C170.349 221.626 170.349 218.615 172.18 216.764C176.737 212.207 182.699 207.161 189.046 202.767C194.621 198.921 200.521 195.544 206.075 193.388C208.516 192.431 211.263 193.652 212.179 196.073C213.135 198.514 211.914 201.261 209.493 202.177C204.671 204.048 199.443 207.039 194.417 210.518C188.578 214.587 183.065 219.246 178.894 223.437ZM293.518 202.38C291.138 201.302 290.059 198.514 291.138 196.134C292.216 193.754 295.003 192.675 297.384 193.754C306.051 197.68 314.168 202.685 321.493 208.585C328.878 214.526 335.49 221.403 341.166 229.032C342.733 231.128 342.285 234.078 340.169 235.644C338.053 237.211 335.124 236.763 333.557 234.647C328.369 227.669 322.306 221.403 315.552 215.95C308.879 210.538 301.473 205.981 293.518 202.38ZM353.495 303.454C353.678 300.85 355.937 298.877 358.541 299.06C361.145 299.243 363.118 301.501 362.935 304.105C362.447 310.575 361.41 316.862 359.904 322.945C358.337 329.17 356.262 335.193 353.719 340.95C352.661 343.351 349.874 344.429 347.473 343.371C345.072 342.313 343.994 339.526 345.052 337.125C347.392 331.836 349.304 326.322 350.708 320.646C352.132 315.112 353.068 309.354 353.495 303.454ZM344.727 256.884L356.934 265.389C357.137 265.511 357.32 265.694 357.463 265.897C358.032 266.731 357.829 267.85 356.995 268.44L344.849 276.843C344.543 277.107 344.137 277.25 343.689 277.25C342.672 277.25 341.858 276.436 341.858 275.419V258.37C341.858 258.003 341.96 257.637 342.183 257.332C342.773 256.498 343.913 256.294 344.727 256.884Z" fill="#054141"/>
</svg>
