<svg width="500" height="500" viewBox="0 0 500 500" fill="none" xmlns="http://www.w3.org/2000/svg">
<circle cx="250" cy="250" r="250" fill="#64FFDA" fill-opacity="0.16"/>
<path d="M292.074 183.849C288.634 182.115 285.611 181.732 283.812 181.714C283.708 181.71 283.605 181.698 283.499 181.698H244.864C243.992 181.698 243.157 181.849 242.375 182.115C238.994 182.93 232.186 185.513 225.865 193.173C217.72 203.012 210.896 220.226 210.902 250.418C210.902 251.191 210.91 251.982 210.92 252.775C210.93 253.564 210.945 254.367 210.964 255.175H210.16C203.416 255.177 197.951 260.638 197.949 267.382V281.893H189.854C187.174 281.893 185 284.065 185 286.747V356.913C185 359.592 187.174 361.767 189.854 361.767H191.512V366.54C191.512 367.612 192.381 368.481 193.453 368.481H199.601C200.673 368.481 201.544 367.612 201.544 366.54V361.767H234.79V366.54C234.79 367.612 235.659 368.481 236.731 368.481H242.879C243.951 368.481 244.82 367.612 244.82 366.54V361.767H246.478C249.158 361.767 251.332 359.592 251.332 356.913V286.747C251.332 284.065 249.158 281.893 246.478 281.893H238.38V267.382C238.38 260.905 233.337 255.627 226.966 255.215C226.945 254.404 226.928 253.601 226.917 252.813C226.907 252.005 226.899 251.203 226.899 250.417C226.907 224.414 232.364 211.243 237.132 204.728V257.76C239.395 260.333 240.779 263.696 240.779 267.383V279.493H246.475C250.476 279.493 253.729 282.747 253.729 286.745V356.913C253.729 360.661 250.871 363.754 247.218 364.127V366.538C247.218 367.024 247.119 367.485 246.971 367.922C247.787 368.091 248.629 368.182 249.495 368.182C256.323 368.182 261.86 362.649 261.86 355.819V265.548H266.495V355.819C266.495 362.649 272.032 368.182 278.858 368.182C285.686 368.182 291.223 362.649 291.223 355.819V205.857C291.816 207.074 292.413 208.468 293.004 210.096C295.823 217.909 298.193 230.727 298.185 250.734C298.185 256.249 298.007 262.307 297.621 268.96C297.361 273.37 300.728 277.154 305.141 277.413C305.299 277.422 305.456 277.427 305.613 277.427C309.819 277.427 313.346 274.143 313.595 269.891C313.997 262.958 314.185 256.593 314.187 250.735C314.146 220.551 309.324 203.849 302.751 193.805C299.469 188.817 295.627 185.621 292.074 183.849ZM243.334 312.413V316.747H193V312.413H243.334ZM233.381 267.383V281.894H202.951V267.383C202.959 263.403 206.178 260.182 210.16 260.176H211.989C212.504 261.107 213.196 261.922 214.021 262.577C215.388 263.662 217.115 264.309 218.984 264.309C219.064 264.309 219.144 264.307 219.224 264.305C221.013 264.252 222.643 263.609 223.947 262.576C224.776 261.919 225.469 261.104 225.984 260.175H226.175C230.156 260.182 233.375 263.402 233.381 267.383Z" fill="#054141"/>
<path d="M264.182 176C276.609 176 286.682 165.926 286.682 153.5C286.682 141.074 276.609 131 264.182 131C251.756 131 241.682 141.074 241.682 153.5C241.682 165.926 251.756 176 264.182 176Z" fill="#054141"/>
</svg>
