<svg width="234" height="203" viewBox="0 0 234 203" fill="none" xmlns="http://www.w3.org/2000/svg">
<path d="M117 93.75C142.888 93.75 163.875 72.7634 163.875 46.875C163.875 20.9867 142.888 0 117 0C91.1117 0 70.125 20.9867 70.125 46.875C70.125 72.7634 91.1117 93.75 117 93.75Z" fill="#054141"/>
<path d="M233.449 178.32C228.575 161.85 217.397 146.774 201.26 134.903C197.343 131.986 193.098 129.322 188.572 126.94C167.958 115.465 142.833 109.338 117.065 109.503C85.5582 109.384 55.2653 118.514 32.7928 134.903C16.655 146.774 5.47774 161.85 0.603241 178.32C-0.24402 181.232 -0.198252 184.248 0.737159 187.146C1.67257 190.043 3.4737 192.748 6.00734 195.059C8.63125 197.42 11.9354 199.314 15.6765 200.601C19.4176 201.889 23.5002 202.537 27.6237 202.498H206.507C210.643 202.5 214.726 201.812 218.454 200.484C222.182 199.156 225.46 197.222 228.045 194.826C230.533 192.542 232.308 189.877 233.243 187.023C234.177 184.169 234.248 181.196 233.449 178.32Z" fill="#054141"/>
</svg>
