<svg width="500" height="500" viewBox="0 0 500 500" fill="none" xmlns="http://www.w3.org/2000/svg">
<circle cx="250" cy="250" r="250" fill="#64FFDA" fill-opacity="0.16"/>
<g clip-path="url(#clip0_113_1283)">
<path d="M241.954 334.767C241.706 335.763 241.265 336.7 240.654 337.525C240.044 338.35 239.276 339.047 238.396 339.575C237.516 340.103 236.541 340.452 235.525 340.602C234.51 340.753 233.475 340.701 232.48 340.451L203.047 333.093C200.659 332.493 198.445 331.339 196.585 329.727L174.562 310.584C172.999 309.224 172.039 307.3 171.894 305.233C171.749 303.166 172.432 301.126 173.791 299.562C175.15 297.998 177.075 297.038 179.142 296.894C181.209 296.749 183.249 297.431 184.813 298.791L206.837 317.935L236.27 325.293C237.265 325.542 238.202 325.984 239.026 326.595C239.851 327.206 240.547 327.973 241.074 328.853C241.602 329.732 241.952 330.708 242.102 331.722C242.253 332.737 242.203 333.772 241.954 334.767ZM371.448 241.753C370.815 243.73 369.791 245.56 368.438 247.134C367.085 248.708 365.43 249.995 363.57 250.917L340.847 262.279L326.251 279.355C326.2 279.414 326.144 279.469 326.092 279.527C326.044 279.58 325.996 279.632 325.947 279.684C325.91 279.723 325.875 279.764 325.837 279.802L289.903 315.738C286.957 318.666 282.972 320.309 278.818 320.308C277.552 320.308 276.291 320.153 275.064 319.847L218.465 305.697C216.341 305.169 214.352 304.198 212.629 302.847L159.867 261.59L136.43 249.871C134.574 248.943 132.922 247.654 131.569 246.081C130.217 244.507 129.191 242.68 128.552 240.706C127.913 238.732 127.674 236.65 127.848 234.583C128.023 232.515 128.607 230.503 129.567 228.664L153.584 182.67C155.495 179.053 158.741 176.325 162.633 175.066C166.525 173.807 170.755 174.116 174.422 175.927L196.273 186.852L243.804 172.996C247.384 171.953 251.219 172.224 254.618 173.76L286.841 188.341H302.844L325.579 176.974C329.246 175.161 333.476 174.851 337.368 176.111C341.26 177.37 344.507 180.1 346.416 183.717L370.433 229.71C371.4 231.547 371.988 233.56 372.162 235.629C372.336 237.697 372.093 239.78 371.448 241.753ZM308.323 275.219L277.415 252.74L269.531 258.653C262.757 263.694 254.538 266.416 246.094 266.416C237.65 266.416 229.431 263.694 222.656 258.653L217.362 254.683C215.572 253.34 214.09 251.628 213.019 249.662C211.947 247.697 211.311 245.524 211.152 243.291C210.993 241.058 211.316 238.817 212.099 236.72C212.882 234.623 214.106 232.718 215.689 231.135L253.906 192.917C254.465 192.367 255.063 191.86 255.697 191.398L248.178 187.996L200.596 201.867L173.998 252.804L222.255 290.539L278.853 304.689L308.323 275.219ZM326.569 254.936L299.953 203.966H285.178L285.151 203.968C285.139 203.968 285.127 203.966 285.115 203.966H264.955L226.738 242.183L232.031 246.153C236.096 249.178 241.027 250.811 246.094 250.811C251.16 250.811 256.092 249.178 260.157 246.153L272.656 236.778C273.993 235.776 275.616 235.228 277.286 235.216C278.957 235.203 280.588 235.727 281.939 236.71L319.066 263.712L326.569 254.936Z" fill="#054141"/>
</g>
<defs>
<clipPath id="clip0_113_1283">
<rect width="250" height="250" fill="white" transform="translate(125 125)"/>
</clipPath>
</defs>
</svg>
