<svg width="85" height="84" viewBox="0 0 85 84" fill="none" xmlns="http://www.w3.org/2000/svg">
<rect x="0.400024" width="84" height="84" rx="42" fill="#64FFDA"/>
<path d="M29.3266 56.6742C28.5328 56.6742 27.8533 56.3825 27.288 55.799C26.7227 55.2155 26.4401 54.5141 26.4401 53.6948V35.8184C26.4401 34.999 26.7227 34.2976 27.288 33.7141C27.8533 33.1307 28.5328 32.8389 29.3266 32.8389H33.8729L36.543 29.8595H45.2026V32.8389H37.8058L35.1719 35.8184H29.3266V53.6948H52.419V40.2875H55.3055V53.6948C55.3055 54.5141 55.0229 55.2155 54.4576 55.799C53.8923 56.3825 53.2128 56.6742 52.419 56.6742H29.3266ZM52.419 35.8184V32.8389H49.5324V29.8595H52.419V26.8801H55.3055V29.8595H58.1921V32.8389H55.3055V35.8184H52.419ZM40.8728 51.4602C42.6769 51.4602 44.2104 50.8085 45.4732 49.505C46.7361 48.2015 47.3675 46.6187 47.3675 44.7566C47.3675 42.8944 46.7361 41.3116 45.4732 40.0081C44.2104 38.7047 42.6769 38.0529 40.8728 38.0529C39.0687 38.0529 37.5352 38.7047 36.2724 40.0081C35.0095 41.3116 34.3781 42.8944 34.3781 44.7566C34.3781 46.6187 35.0095 48.2015 36.2724 49.505C37.5352 50.8085 39.0687 51.4602 40.8728 51.4602ZM40.8728 48.4808C39.8625 48.4808 39.0086 48.1208 38.311 47.4008C37.6134 46.6808 37.2646 45.7994 37.2646 44.7566C37.2646 43.7138 37.6134 42.8324 38.311 42.1123C39.0086 41.3923 39.8625 41.0323 40.8728 41.0323C41.8831 41.0323 42.737 41.3923 43.4346 42.1123C44.1322 42.8324 44.481 43.7138 44.481 44.7566C44.481 45.7994 44.1322 46.6808 43.4346 47.4008C42.737 48.1208 41.8831 48.4808 40.8728 48.4808Z" fill="#054141"/>
</svg>
