<svg width="40" height="40" viewBox="0 0 40 40" fill="none" xmlns="http://www.w3.org/2000/svg">
<g clip-path="url(#clip0_113_864)">
<path d="M18.3419 0L17.5406 1.07546L18.6804 1.93584C10.0031 2.48365 3.19538 8.61514 1.91998 17.2437L3.24079 17.44C4.42871 9.40359 10.4939 3.86697 18.5322 3.2842L17.5406 4.03299L18.3419 5.10846L21.0129 3.09196C21.0958 3.02935 21.1631 2.94816 21.2095 2.85483C21.2558 2.7615 21.28 2.65858 21.28 2.55423C21.28 2.44988 21.2558 2.34696 21.2095 2.25363C21.1631 2.16029 21.0958 2.07911 21.0129 2.0165L18.3419 0Z" fill="#054141"/>
<path d="M23.3693 7.33984L23.3685 7.33984C22.6187 7.34039 21.8807 7.52588 21.2203 7.87986C20.76 8.12653 20.3474 8.4497 19.9995 8.83397C19.5024 8.28645 18.876 7.86586 18.1729 7.61302C17.2558 7.2832 16.2565 7.25626 15.3227 7.53616C14.389 7.81607 13.5702 8.38808 12.9876 9.16793C12.4255 9.92032 12.1122 10.8275 12.0899 11.7639C11.3468 12.0919 10.7035 12.6141 10.2302 13.2785C9.70566 14.0147 9.41499 14.8902 9.39467 15.7916C8.65222 16.12 8.00951 16.6422 7.53656 17.3063C6.99244 18.0703 6.70001 18.9842 6.70001 19.9214C6.70001 20.8586 6.99244 21.7725 7.53656 22.5365C8.0095 23.2006 8.6522 23.7228 9.39464 24.0511C9.4147 24.953 9.70539 25.829 10.2302 26.5656C10.7035 27.23 11.3468 27.7523 12.0899 28.0802C12.1122 29.0166 12.4255 29.9238 12.9876 30.6762C13.5702 31.4561 14.389 32.0281 15.3227 32.308C16.2565 32.5879 17.2558 32.5609 18.1729 32.2311C18.8763 31.9782 19.5028 31.5574 20 31.0096C20.4972 31.5574 21.1238 31.9782 21.8271 32.2311C22.7443 32.5609 23.7436 32.5879 24.6773 32.308C25.611 32.0281 26.4298 31.4561 27.0124 30.6762C27.5745 29.9238 27.8878 29.0166 27.9102 28.0802C28.6532 27.7523 29.2965 27.23 29.7698 26.5656C30.2944 25.8294 30.585 24.9539 30.6054 24.0525C31.3478 23.7242 31.9905 23.2019 32.4635 22.5378C33.0076 21.7738 33.3 20.8599 33.3 19.9227C33.3 18.9855 33.0076 18.0717 32.4635 17.3076C31.9905 16.6436 31.3478 16.1213 30.6054 15.793C30.5853 14.8911 30.2946 14.0151 29.7698 13.2785C29.2965 12.6141 28.6532 12.0919 27.9102 11.7639C27.8825 10.6003 27.4065 9.4907 26.5791 8.6664C25.7274 7.81791 24.573 7.34104 23.3693 7.33984ZM12.596 27.7426C12.5886 27.8212 12.5886 27.899 12.5886 27.9769C12.5895 28.8417 12.8699 29.6832 13.3882 30.377C13.9064 31.0707 14.6351 31.5798 15.4663 31.829C16.2976 32.0782 17.1872 32.0542 18.0037 31.7606C18.6543 31.5267 19.2308 31.1315 19.681 30.616L12.596 27.7426Z" fill="#054141" stroke="#054141"/>
<mask id="path-3-inside-1_113_864" fill="white">
<path d="M23.3688 7.83984C22.7013 7.84033 22.0443 8.00548 21.4565 8.32055C20.8686 8.63562 20.3683 9.09081 20 9.64547C19.5202 8.9248 18.8202 8.37714 18.0037 8.08352C17.1872 7.78991 16.2976 7.76591 15.4663 8.0151C14.6351 8.26429 13.9064 8.77342 13.3882 9.46718C12.8699 10.1609 12.5895 11.0025 12.5886 11.8673C12.5886 11.9451 12.5886 12.023 12.596 12.1015C11.8061 12.3762 11.1216 12.889 10.6374 13.5686C10.1532 14.2483 9.8932 15.0612 9.89353 15.8947C9.89353 15.9725 9.89353 16.0504 9.90094 16.1289C9.11164 16.4041 8.42772 16.9169 7.94383 17.5964C7.45994 18.2758 7.20001 19.0883 7.20001 19.9214C7.20001 20.7545 7.45994 21.567 7.94383 22.2464C8.42772 22.9259 9.11164 23.4387 9.90094 23.7139C9.89353 23.7937 9.89353 23.8716 9.89353 23.9495C9.8932 24.7829 10.1532 25.5959 10.6374 26.2755C11.1216 26.9552 11.8061 27.4679 12.596 27.7426C12.5886 27.8212 12.5886 27.899 12.5886 27.9769C12.5895 28.8417 12.8699 29.6832 13.3882 30.377C13.9064 31.0707 14.6351 31.5798 15.4663 31.829C16.2976 32.0782 17.1872 32.0542 18.0037 31.7606C18.8202 31.467 19.5202 30.9193 20 30.1987C20.4798 30.9193 21.1798 31.467 21.9963 31.7606C22.8128 32.0542 23.7025 32.0782 24.5337 31.829C25.3649 31.5798 26.0936 31.0707 26.6119 30.377C27.1301 29.6832 27.4105 28.8417 27.4114 27.9769C27.4114 27.899 27.4114 27.8212 27.404 27.7426C28.1939 27.4679 28.8784 26.9552 29.3626 26.2755C29.8468 25.5959 30.1068 24.7829 30.1065 23.9495C30.1065 23.8716 30.1065 23.7937 30.0991 23.7152C30.8884 23.44 31.5723 22.9272 32.0562 22.2478C32.5401 21.5683 32.8 20.7558 32.8 19.9227C32.8 19.0896 32.5401 18.2772 32.0562 17.5977C31.5723 16.9183 30.8884 16.4054 30.0991 16.1303C30.1065 16.0504 30.1065 15.9725 30.1065 15.8947C30.1068 15.0612 29.8468 14.2483 29.3626 13.5686C28.8784 12.889 28.1939 12.3762 27.404 12.1015C27.4114 12.023 27.4114 11.9451 27.4114 11.8673C27.4104 10.7994 26.9841 9.77568 26.2262 9.02062C25.4683 8.26557 24.4407 7.84091 23.3688 7.83984ZM19.3262 17.9446C17.0125 18.1715 15.2837 19.5462 15.2837 21.2645H16.6312C16.6312 20.3107 17.8096 19.4864 19.3262 19.2938V27.9769C19.3279 28.3553 19.2493 28.7298 19.0955 29.0758C18.9417 29.4218 18.7162 29.7315 18.4339 29.9846C18.1515 30.2377 17.8186 30.4285 17.4571 30.5445C17.0955 30.6605 16.7134 30.699 16.3359 30.6575C15.9583 30.616 15.5938 30.4955 15.2663 30.3039C14.9388 30.1122 14.6556 29.8538 14.4354 29.5454C14.2151 29.2371 14.0628 28.8859 13.9884 28.5148C13.914 28.1438 13.9191 27.7612 14.0035 27.3922C14.0232 27.3038 14.0247 27.2122 14.0079 27.1232C13.9911 27.0341 13.9564 26.9494 13.9058 26.874C13.8923 26.8539 13.8701 26.8425 13.8546 26.8237C14.3184 26.1622 14.5807 25.3814 14.6099 24.5751C14.6199 24.2453 14.5615 23.9171 14.4385 23.6108C14.3156 23.3046 14.1305 23.0268 13.895 22.7949L12.9605 23.7615C13.0644 23.8691 13.1448 23.9969 13.1968 24.1369C13.2487 24.2769 13.271 24.4261 13.2624 24.5751C13.2249 25.196 12.9949 25.7901 12.6041 26.2753C12.1004 25.996 11.7016 25.5609 11.4682 25.0358C11.2348 24.5107 11.1794 23.9241 11.3105 23.3648C11.33 23.2765 11.3315 23.1852 11.3148 23.0964C11.2981 23.0075 11.2635 22.9229 11.2132 22.8477C11.1628 22.7725 11.0977 22.7082 11.0218 22.6586C10.9459 22.6091 10.8608 22.5753 10.7714 22.5593C10.1488 22.4505 9.58469 22.1265 9.17818 21.6443C8.77166 21.162 8.54881 20.5525 8.54881 19.9227C8.54881 19.293 8.77166 18.6834 9.17818 18.2012C9.58469 17.719 10.1488 17.395 10.7714 17.2861C10.7795 17.2861 10.7863 17.2787 10.795 17.2767C11.7861 17.4721 12.5886 18.9025 12.5886 20.5933H13.9361C13.9361 18.2869 12.8022 16.4182 11.2518 15.988C11.2518 15.9584 11.2411 15.9242 11.2411 15.8947C11.2411 15.2648 11.4641 14.6551 11.8707 14.1729C12.2774 13.6907 12.8417 13.3667 13.4645 13.258C13.4726 13.258 13.4793 13.2507 13.4881 13.2487C14.4812 13.4447 15.2837 14.8751 15.2837 16.5659H16.6312C16.6312 14.2595 15.4972 12.3908 13.9469 11.9606C13.9469 11.931 13.9361 11.8968 13.9361 11.8673C13.9361 11.1552 14.2201 10.4722 14.7255 9.96871C15.2309 9.46519 15.9164 9.18231 16.6312 9.18231C17.346 9.18231 18.0315 9.46519 18.5369 9.96871C19.0423 10.4722 19.3262 11.1552 19.3262 11.8673V17.9446ZM28.759 15.8947C28.759 15.9242 28.7489 15.9578 28.7482 15.988C27.1979 16.4182 26.0639 18.2869 26.0639 20.5933H27.4114C27.4114 18.9025 28.2139 17.4721 29.2063 17.2761C29.2151 17.2761 29.2218 17.2841 29.2299 17.2855C29.8525 17.3943 30.4167 17.7183 30.8232 18.2005C31.2297 18.6828 31.4526 19.2923 31.4526 19.9221C31.4526 20.5518 31.2297 21.1614 30.8232 21.6436C30.4167 22.1258 29.8525 22.4499 29.2299 22.5587C29.1406 22.5746 29.0554 22.6084 28.9795 22.6579C28.9036 22.7075 28.8386 22.7718 28.7882 22.847C28.7379 22.9223 28.7033 23.0068 28.6866 23.0957C28.6699 23.1846 28.6713 23.2759 28.6909 23.3642C28.8219 23.9234 28.7665 24.51 28.5331 25.0351C28.2997 25.5602 27.901 25.9954 27.3973 26.2746C27.0061 25.7898 26.7756 25.196 26.7377 24.5751C26.729 24.4261 26.7513 24.2769 26.8032 24.1369C26.8552 23.9969 26.9356 23.8691 27.0395 23.7615L26.105 22.7949C25.8695 23.0268 25.6845 23.3046 25.5615 23.6108C25.4385 23.9171 25.3802 24.2453 25.3901 24.5751C25.4187 25.3812 25.6803 26.162 26.1434 26.8237C26.1279 26.8425 26.1057 26.8539 26.0922 26.874C26.0417 26.9494 26.0069 27.0341 25.9901 27.1232C25.9734 27.2122 25.9748 27.3038 25.9945 27.3922C26.0803 27.7616 26.0865 28.1449 26.0129 28.5169C25.9392 28.8889 25.7873 29.2411 25.5672 29.5504C25.347 29.8596 25.0636 30.119 24.7357 30.3113C24.4077 30.5036 24.0425 30.6245 23.6642 30.666C23.2859 30.7076 22.9031 30.6689 22.5409 30.5524C22.1788 30.436 21.8455 30.2444 21.5629 29.9904C21.2804 29.7363 21.0551 29.4255 20.9019 29.0785C20.7486 28.7315 20.6709 28.356 20.6738 27.9769V25.2007C22.2295 24.7764 23.3688 22.905 23.3688 20.5933H22.0213C22.0213 22.0203 21.4486 23.2621 20.6738 23.736V11.8673C20.6738 11.1552 20.9577 10.4722 21.4631 9.96871C21.9686 9.46519 22.6541 9.18231 23.3688 9.18231C24.0836 9.18231 24.7691 9.46519 25.2745 9.96871C25.78 10.4722 26.0639 11.1552 26.0639 11.8673C26.0639 11.8968 26.0538 11.9303 26.0531 11.9606C24.5028 12.3908 23.3688 14.2595 23.3688 16.5659H24.7164C24.7164 14.8751 25.5188 13.4447 26.5113 13.2487C26.52 13.2487 26.5268 13.2567 26.5349 13.258C27.1577 13.3666 27.7222 13.6904 28.129 14.1727C28.5358 14.655 28.7589 15.2647 28.759 15.8947Z"/>
</mask>
<path d="M23.3688 7.83984C22.7013 7.84033 22.0443 8.00548 21.4565 8.32055C20.8686 8.63562 20.3683 9.09081 20 9.64547C19.5202 8.9248 18.8202 8.37714 18.0037 8.08352C17.1872 7.78991 16.2976 7.76591 15.4663 8.0151C14.6351 8.26429 13.9064 8.77342 13.3882 9.46718C12.8699 10.1609 12.5895 11.0025 12.5886 11.8673C12.5886 11.9451 12.5886 12.023 12.596 12.1015C11.8061 12.3762 11.1216 12.889 10.6374 13.5686C10.1532 14.2483 9.8932 15.0612 9.89353 15.8947C9.89353 15.9725 9.89353 16.0504 9.90094 16.1289C9.11164 16.4041 8.42772 16.9169 7.94383 17.5964C7.45994 18.2758 7.20001 19.0883 7.20001 19.9214C7.20001 20.7545 7.45994 21.567 7.94383 22.2464C8.42772 22.9259 9.11164 23.4387 9.90094 23.7139C9.89353 23.7937 9.89353 23.8716 9.89353 23.9495C9.8932 24.7829 10.1532 25.5959 10.6374 26.2755C11.1216 26.9552 11.8061 27.4679 12.596 27.7426C12.5886 27.8212 12.5886 27.899 12.5886 27.9769C12.5895 28.8417 12.8699 29.6832 13.3882 30.377C13.9064 31.0707 14.6351 31.5798 15.4663 31.829C16.2976 32.0782 17.1872 32.0542 18.0037 31.7606C18.8202 31.467 19.5202 30.9193 20 30.1987C20.4798 30.9193 21.1798 31.467 21.9963 31.7606C22.8128 32.0542 23.7025 32.0782 24.5337 31.829C25.3649 31.5798 26.0936 31.0707 26.6119 30.377C27.1301 29.6832 27.4105 28.8417 27.4114 27.9769C27.4114 27.899 27.4114 27.8212 27.404 27.7426C28.1939 27.4679 28.8784 26.9552 29.3626 26.2755C29.8468 25.5959 30.1068 24.7829 30.1065 23.9495C30.1065 23.8716 30.1065 23.7937 30.0991 23.7152C30.8884 23.44 31.5723 22.9272 32.0562 22.2478C32.5401 21.5683 32.8 20.7558 32.8 19.9227C32.8 19.0896 32.5401 18.2772 32.0562 17.5977C31.5723 16.9183 30.8884 16.4054 30.0991 16.1303C30.1065 16.0504 30.1065 15.9725 30.1065 15.8947C30.1068 15.0612 29.8468 14.2483 29.3626 13.5686C28.8784 12.889 28.1939 12.3762 27.404 12.1015C27.4114 12.023 27.4114 11.9451 27.4114 11.8673C27.4104 10.7994 26.9841 9.77568 26.2262 9.02062C25.4683 8.26557 24.4407 7.84091 23.3688 7.83984ZM19.3262 17.9446C17.0125 18.1715 15.2837 19.5462 15.2837 21.2645H16.6312C16.6312 20.3107 17.8096 19.4864 19.3262 19.2938V27.9769C19.3279 28.3553 19.2493 28.7298 19.0955 29.0758C18.9417 29.4218 18.7162 29.7315 18.4339 29.9846C18.1515 30.2377 17.8186 30.4285 17.4571 30.5445C17.0955 30.6605 16.7134 30.699 16.3359 30.6575C15.9583 30.616 15.5938 30.4955 15.2663 30.3039C14.9388 30.1122 14.6556 29.8538 14.4354 29.5454C14.2151 29.2371 14.0628 28.8859 13.9884 28.5148C13.914 28.1438 13.9191 27.7612 14.0035 27.3922C14.0232 27.3038 14.0247 27.2122 14.0079 27.1232C13.9911 27.0341 13.9564 26.9494 13.9058 26.874C13.8923 26.8539 13.8701 26.8425 13.8546 26.8237C14.3184 26.1622 14.5807 25.3814 14.6099 24.5751C14.6199 24.2453 14.5615 23.9171 14.4385 23.6108C14.3156 23.3046 14.1305 23.0268 13.895 22.7949L12.9605 23.7615C13.0644 23.8691 13.1448 23.9969 13.1968 24.1369C13.2487 24.2769 13.271 24.4261 13.2624 24.5751C13.2249 25.196 12.9949 25.7901 12.6041 26.2753C12.1004 25.996 11.7016 25.5609 11.4682 25.0358C11.2348 24.5107 11.1794 23.9241 11.3105 23.3648C11.33 23.2765 11.3315 23.1852 11.3148 23.0964C11.2981 23.0075 11.2635 22.9229 11.2132 22.8477C11.1628 22.7725 11.0977 22.7082 11.0218 22.6586C10.9459 22.6091 10.8608 22.5753 10.7714 22.5593C10.1488 22.4505 9.58469 22.1265 9.17818 21.6443C8.77166 21.162 8.54881 20.5525 8.54881 19.9227C8.54881 19.293 8.77166 18.6834 9.17818 18.2012C9.58469 17.719 10.1488 17.395 10.7714 17.2861C10.7795 17.2861 10.7863 17.2787 10.795 17.2767C11.7861 17.4721 12.5886 18.9025 12.5886 20.5933H13.9361C13.9361 18.2869 12.8022 16.4182 11.2518 15.988C11.2518 15.9584 11.2411 15.9242 11.2411 15.8947C11.2411 15.2648 11.4641 14.6551 11.8707 14.1729C12.2774 13.6907 12.8417 13.3667 13.4645 13.258C13.4726 13.258 13.4793 13.2507 13.4881 13.2487C14.4812 13.4447 15.2837 14.8751 15.2837 16.5659H16.6312C16.6312 14.2595 15.4972 12.3908 13.9469 11.9606C13.9469 11.931 13.9361 11.8968 13.9361 11.8673C13.9361 11.1552 14.2201 10.4722 14.7255 9.96871C15.2309 9.46519 15.9164 9.18231 16.6312 9.18231C17.346 9.18231 18.0315 9.46519 18.5369 9.96871C19.0423 10.4722 19.3262 11.1552 19.3262 11.8673V17.9446ZM28.759 15.8947C28.759 15.9242 28.7489 15.9578 28.7482 15.988C27.1979 16.4182 26.0639 18.2869 26.0639 20.5933H27.4114C27.4114 18.9025 28.2139 17.4721 29.2063 17.2761C29.2151 17.2761 29.2218 17.2841 29.2299 17.2855C29.8525 17.3943 30.4167 17.7183 30.8232 18.2005C31.2297 18.6828 31.4526 19.2923 31.4526 19.9221C31.4526 20.5518 31.2297 21.1614 30.8232 21.6436C30.4167 22.1258 29.8525 22.4499 29.2299 22.5587C29.1406 22.5746 29.0554 22.6084 28.9795 22.6579C28.9036 22.7075 28.8386 22.7718 28.7882 22.847C28.7379 22.9223 28.7033 23.0068 28.6866 23.0957C28.6699 23.1846 28.6713 23.2759 28.6909 23.3642C28.8219 23.9234 28.7665 24.51 28.5331 25.0351C28.2997 25.5602 27.901 25.9954 27.3973 26.2746C27.0061 25.7898 26.7756 25.196 26.7377 24.5751C26.729 24.4261 26.7513 24.2769 26.8032 24.1369C26.8552 23.9969 26.9356 23.8691 27.0395 23.7615L26.105 22.7949C25.8695 23.0268 25.6845 23.3046 25.5615 23.6108C25.4385 23.9171 25.3802 24.2453 25.3901 24.5751C25.4187 25.3812 25.6803 26.162 26.1434 26.8237C26.1279 26.8425 26.1057 26.8539 26.0922 26.874C26.0417 26.9494 26.0069 27.0341 25.9901 27.1232C25.9734 27.2122 25.9748 27.3038 25.9945 27.3922C26.0803 27.7616 26.0865 28.1449 26.0129 28.5169C25.9392 28.8889 25.7873 29.2411 25.5672 29.5504C25.347 29.8596 25.0636 30.119 24.7357 30.3113C24.4077 30.5036 24.0425 30.6245 23.6642 30.666C23.2859 30.7076 22.9031 30.6689 22.5409 30.5524C22.1788 30.436 21.8455 30.2444 21.5629 29.9904C21.2804 29.7363 21.0551 29.4255 20.9019 29.0785C20.7486 28.7315 20.6709 28.356 20.6738 27.9769V25.2007C22.2295 24.7764 23.3688 22.905 23.3688 20.5933H22.0213C22.0213 22.0203 21.4486 23.2621 20.6738 23.736V11.8673C20.6738 11.1552 20.9577 10.4722 21.4631 9.96871C21.9686 9.46519 22.6541 9.18231 23.3688 9.18231C24.0836 9.18231 24.7691 9.46519 25.2745 9.96871C25.78 10.4722 26.0639 11.1552 26.0639 11.8673C26.0639 11.8968 26.0538 11.9303 26.0531 11.9606C24.5028 12.3908 23.3688 14.2595 23.3688 16.5659H24.7164C24.7164 14.8751 25.5188 13.4447 26.5113 13.2487C26.52 13.2487 26.5268 13.2567 26.5349 13.258C27.1577 13.3666 27.7222 13.6904 28.129 14.1727C28.5358 14.655 28.7589 15.2647 28.759 15.8947Z" stroke="#64FFDA" stroke-width="4" mask="url(#path-3-inside-1_113_864)"/>
<path d="M21.4195 36.7238L22.4161 35.9769L21.6107 34.9041L18.9262 36.9156C18.8428 36.9781 18.7752 37.059 18.7286 37.1521C18.682 37.2452 18.6577 37.3479 18.6577 37.452C18.6577 37.5561 18.682 37.6588 18.7286 37.7519C18.7752 37.845 18.8428 37.9259 18.9262 37.9884L21.6107 39.9999L22.4161 38.9271L21.2705 38.0689C29.9919 37.5224 36.8342 31.4061 38.1161 22.7988L36.7886 22.603C35.5946 30.6196 29.4987 36.1425 21.4195 36.7238ZM38.0671 18.7496C37.5201 10.0364 31.398 3.20059 22.7832 1.91992L22.5859 3.24618C30.6107 4.43633 36.1389 10.5272 36.7208 18.6007L35.9732 17.605L34.8993 18.4097L36.9128 21.0917C36.9753 21.1749 37.0563 21.2425 37.1495 21.2891C37.2427 21.3356 37.3455 21.3599 37.4497 21.3599C37.5539 21.3599 37.6566 21.3356 37.7498 21.2891C37.843 21.2425 37.9241 21.1749 37.9866 21.0917L40 18.4097L38.9262 17.605L38.0671 18.7496ZM3.27919 21.437L4.02685 22.4327L5.10067 21.6281L3.08725 18.9461C3.02202 18.8669 2.94005 18.8031 2.84721 18.7593C2.75438 18.7155 2.653 18.6928 2.55034 18.6928C2.44768 18.6928 2.34629 18.7155 2.25346 18.7593C2.16062 18.8031 2.07865 18.8669 2.01342 18.9461L0 21.6281L1.07383 22.4327L1.93289 21.2881C2.47987 30.0014 8.60201 36.8372 17.2168 38.1178L17.4141 36.7916C9.38926 35.5987 3.86107 29.5079 3.27919 21.437Z" fill="#054141"/>
</g>
<defs>
<clipPath id="clip0_113_864">
<rect width="40" height="40" fill="white"/>
</clipPath>
</defs>
</svg>
