<svg width="40" height="40" viewBox="0 0 40 40" fill="none" xmlns="http://www.w3.org/2000/svg">
<path d="M2.8597 12C2.8597 10.5881 1.71045 9.43881 0.298507 9.43881C0.131343 9.43881 0 9.30746 0 9.1403C0 8.97612 0.131343 8.84179 0.298507 8.84179C1.71045 8.84179 2.8597 7.69552 2.8597 6.2806C2.8597 6.11642 2.99104 5.98209 3.15821 5.98209C3.32239 5.98209 3.45672 6.11642 3.45672 6.2806C3.45672 7.69552 4.60597 8.84179 6.01791 8.84179H11.6448C11.809 8.84179 11.9433 8.97612 11.9433 9.1403C11.9433 9.30746 11.809 9.43881 11.6448 9.43881H6.01791C4.60597 9.43881 3.45672 10.5881 3.45672 12C3.45672 12.1672 3.32239 12.2985 3.15821 12.2985C2.99104 12.2985 2.8597 12.1672 2.8597 12ZM12.4806 17.0149C12.4806 17.1821 12.3463 17.3134 12.1821 17.3134H8.87761C7.46567 17.3134 6.31642 18.4627 6.31642 19.8746C6.31642 20.0418 6.18209 20.1731 6.01791 20.1731C5.85075 20.1731 5.7194 20.0418 5.7194 19.8746C5.7194 18.4627 4.57015 17.3134 3.15821 17.3134C2.99104 17.3134 2.8597 17.1821 2.8597 17.0149C2.8597 16.8507 2.99104 16.7164 3.15821 16.7164C4.57015 16.7164 5.7194 15.5672 5.7194 14.1552C5.7194 13.991 5.85075 13.8567 6.01791 13.8567C6.18209 13.8567 6.31642 13.991 6.31642 14.1552C6.31642 15.5672 7.46567 16.7164 8.87761 16.7164H12.1821C12.3463 16.7164 12.4806 16.8507 12.4806 17.0149ZM35.2388 4H17.1701C15.203 4 13.606 5.6 13.606 7.57015V25.6358C13.606 27.603 15.203 29.2 17.1701 29.2H18.606C18.597 30.4806 18.4209 31.5731 17.9642 32.4448C17.9284 32.5164 17.9194 32.597 17.9433 32.6746C17.9672 32.7493 18.0209 32.8119 18.0896 32.8478L25.5134 36.7224C25.5582 36.7463 25.606 36.7552 25.6537 36.7552C25.6925 36.7552 25.7313 36.7493 25.7672 36.7343C27.809 35.8806 28.7254 35.1433 30.1254 32.4657L31.8298 29.2H35.2388C37.206 29.2 38.806 27.603 38.806 25.6358V7.57313C38.806 5.6 37.206 4 35.2388 4ZM19.2657 10.8687C20.6776 10.8687 21.8269 9.7194 21.8269 8.30746C21.8269 8.14328 21.9612 8.00896 22.1254 8.00896C22.2896 8.00896 22.4239 8.14328 22.4239 8.30746C22.4239 9.7194 23.5731 10.8687 24.9851 10.8687C25.1493 10.8687 25.2836 11.003 25.2836 11.1672C25.2836 11.3313 25.1493 11.4657 24.9851 11.4657C23.5731 11.4657 22.4239 12.6149 22.4239 14.0269C22.4239 14.191 22.2896 14.3254 22.1254 14.3254C21.9612 14.3254 21.8269 14.191 21.8269 14.0269C21.8269 12.6149 20.6776 11.4657 19.2657 11.4657C19.1015 11.4657 18.9672 11.3313 18.9672 11.1672C18.9672 11.006 19.1015 10.8687 19.2657 10.8687ZM34.7343 22.3433L31.3761 28.7791C31.3731 28.7851 31.3701 28.7881 31.3701 28.794L29.594 32.191C28.3015 34.6687 27.4985 35.3522 25.6657 36.1313L18.6239 32.4567C19.6388 30.1881 19.1433 26.8627 18.5254 22.6955C18.3194 21.3045 18.1045 19.8687 17.9284 18.3403C17.9343 18.2358 17.9821 18.1373 18.0627 18.0657C18.1463 17.991 18.2537 17.9552 18.3672 17.9642C19.5134 18.0537 20.4328 18.9493 20.5493 20.0925L21.0149 24.597C21.0299 24.7284 21.1284 24.8358 21.2567 24.8597C21.3851 24.8866 21.5164 24.8239 21.5791 24.7045L26.806 14.6836C27.0866 14.1493 27.7104 13.8985 28.2239 14.1104C28.5164 14.2299 28.7373 14.4567 28.8448 14.7522C28.9493 15.0418 28.9284 15.3642 28.7851 15.6388L24.6239 23.609C24.5493 23.7552 24.606 23.9343 24.7522 24.0119C24.8985 24.0866 25.0776 24.0299 25.1552 23.8836L29.3134 15.9164L30.2687 14.0896C30.403 13.8269 30.6328 13.6358 30.9104 13.5463C31.191 13.4567 31.4866 13.4836 31.7463 13.6179C32.2836 13.9015 32.4955 14.5672 32.2119 15.1045L30.8955 17.6299V17.6328L27.7821 23.594C27.7637 23.6287 27.7524 23.6666 27.7487 23.7057C27.7451 23.7448 27.7492 23.7842 27.7609 23.8216C27.7725 23.8591 27.7915 23.8939 27.8166 23.924C27.8418 23.9541 27.8727 23.9789 27.9075 23.997C27.9522 24.0209 28 24.0299 28.0448 24.0299C28.1552 24.0299 28.2567 23.9731 28.3104 23.8716L31.4239 17.9045C31.5612 17.6448 31.7881 17.4537 32.0687 17.3672C32.3463 17.2776 32.6448 17.3015 32.9045 17.4388C33.1642 17.5731 33.3582 17.803 33.4448 18.0836C33.5313 18.3642 33.5045 18.6627 33.3701 18.9224L30.9373 23.5791C30.8627 23.7284 30.9194 23.9075 31.0657 23.9821C31.1104 24.006 31.1552 24.0179 31.203 24.0179C31.3104 24.0179 31.4149 23.9582 31.4687 23.8567L32.7881 21.3254C32.8818 21.1469 33.0226 20.9974 33.1952 20.8933C33.3677 20.7891 33.5656 20.7341 33.7672 20.7343C33.9373 20.7343 34.1075 20.7731 34.2687 20.8567C34.806 21.1373 35.0149 21.803 34.7343 22.3433ZM35.5164 9.59104C34.5045 9.59104 33.6836 10.4149 33.6836 11.4239C33.6836 11.5403 33.5881 11.6388 33.4687 11.6388C33.3522 11.6388 33.2537 11.5433 33.2537 11.4239C33.2537 10.4149 32.4299 9.59104 31.4209 9.59104C31.3045 9.59104 31.206 9.49552 31.206 9.37612C31.206 9.2597 31.3015 9.16119 31.4209 9.16119C32.4299 9.16119 33.2537 8.33731 33.2537 7.32836C33.2537 7.21194 33.3493 7.11343 33.4687 7.11343C33.5851 7.11343 33.6836 7.20896 33.6836 7.32836C33.6836 8.33731 34.5045 9.16119 35.5164 9.16119C35.6328 9.16119 35.7313 9.25672 35.7313 9.37612C35.7306 9.43288 35.7077 9.4871 35.6675 9.52724C35.6274 9.56738 35.5732 9.59027 35.5164 9.59104Z" fill="#054141"/>
</svg>
