<svg width="40" height="40" viewBox="0 0 40 40" fill="none" xmlns="http://www.w3.org/2000/svg">
<path d="M20 13.125C20.9877 13.1239 21.9577 12.8636 22.8133 12.37C23.6688 11.8765 24.3797 11.167 24.875 10.3125L23.7925 9.6875C23.4086 10.3525 22.8564 10.9047 22.1915 11.2886C21.5266 11.6726 20.7724 11.8748 20.0046 11.875C19.2367 11.8752 18.4824 11.6732 17.8173 11.2895C17.1523 10.9058 16.5999 10.3539 16.2157 9.68907C15.8315 9.02428 15.629 8.27009 15.6286 7.50227C15.6282 6.73445 15.8299 5.98005 16.2134 5.31486C16.5969 4.64967 17.1487 4.09712 17.8134 3.71273C18.4781 3.32834 19.2322 3.12564 20 3.125C20.6441 3.12698 21.2796 3.27215 21.8606 3.55L20.625 4.78562L25.9281 6.55312L24.1606 1.25L22.7913 2.61937C22.0431 2.19071 21.2064 1.93978 20.3459 1.88597C19.4853 1.83215 18.6239 1.9769 17.8282 2.30901C17.0325 2.64113 16.3238 3.15173 15.7568 3.80136C15.1899 4.45099 14.7798 5.22227 14.5584 6.0556C14.337 6.88893 14.3101 7.76201 14.4799 8.60738C14.6496 9.45275 15.0115 10.2478 15.5374 10.931C16.0633 11.6143 16.7393 12.1675 17.5131 12.5479C18.2869 12.9284 19.1378 13.1258 20 13.125Z" fill="#054141"/>
<path d="M19.375 7.86625L17.6831 9.55813L18.5669 10.4419L20.4419 8.56687C20.5591 8.44969 20.625 8.29075 20.625 8.125V5.625H19.375V7.86625ZM9 17.9862C8.83629 17.2176 8.75251 16.434 8.75 15.6481H7.5C7.50107 16.5226 7.59323 17.3946 7.775 18.25L9 17.9862ZM29.0775 8.97937L30.0863 8.24063C29.5699 7.53711 28.982 6.88906 28.3319 6.30687L27.5 7.23813C28.0849 7.76219 28.6136 8.34576 29.0775 8.97937ZM12.4519 7.28312L11.6119 6.35687C10.9654 6.94298 10.3814 7.5946 9.86938 8.30125L10.8812 9.035C11.3425 8.39809 11.8689 7.81096 12.4519 7.28312ZM9.70875 11.0719L8.56625 10.5662C8.2126 11.3648 7.94403 12.1983 7.765 13.0531L8.98812 13.3094C9.14931 12.5404 9.39084 11.7904 9.70875 11.0719ZM32.2194 12.9775C32.0348 12.1241 31.761 11.2924 31.4025 10.4963L30.2625 11.0094C30.5861 11.7254 30.8333 12.4735 31 13.2413L32.2194 12.9775ZM31.0063 17.9631L32.2294 18.2219C32.411 17.3602 32.5017 16.4819 32.5 15.6012L31.25 15.625C31.2504 16.4107 31.1687 17.1944 31.0063 17.9631Z" fill="#054141"/>
<path d="M20 19.375C21.2081 19.375 22.1875 18.3956 22.1875 17.1875C22.1875 15.9794 21.2081 15 20 15C18.7919 15 17.8125 15.9794 17.8125 17.1875C17.8125 18.3956 18.7919 19.375 20 19.375Z" fill="#054141"/>
<path d="M8.75 23.125L13.75 24.375L16.875 22.5V28.125L15 38.75H18.125L20 29.375L21.875 38.75H25L23.125 28.125V22.5L26.25 24.375L31.25 23.125L30.625 21.25L26.25 21.875L24.2231 20.4731C23.5199 19.77 22.5663 19.375 21.5719 19.375H18.4281C17.4337 19.375 16.4801 19.77 15.7769 20.4731L13.75 21.875L9.375 21.25L8.75 23.125Z" fill="#054141"/>
</svg>
