<svg width="40" height="40" viewBox="0 0 40 40" fill="none" xmlns="http://www.w3.org/2000/svg">
<path fill-rule="evenodd" clip-rule="evenodd" d="M32.0898 19.2853H39.196C39.6387 19.2853 40 19.6466 40 20.0894V25.1089C40 25.5516 39.6387 25.9129 39.196 25.9129H32.0898C31.6471 25.9129 31.2858 25.5516 31.2858 25.1089V20.0861C31.2858 19.6466 31.6471 19.2853 32.0898 19.2853ZM4.35872 16.8667C6.76758 16.8667 8.71745 18.8198 8.71745 21.2254C8.71745 23.631 6.76432 25.5841 4.35872 25.5841C1.95313 25.5841 0 23.6343 0 21.2287C0 18.8231 1.95313 16.8667 4.35872 16.8667ZM3.75651 19.0347H4.29036C4.38802 19.0347 4.4694 19.116 4.4694 19.2137V21.2677H6.3444C6.44206 21.2677 6.52344 21.3491 6.52344 21.4468V21.9806C6.52344 22.0783 6.44206 22.1597 6.3444 22.1597H3.58073V19.217C3.57747 19.1128 3.65885 19.0347 3.75651 19.0347ZM4.35872 17.8595C6.2207 17.8595 7.72786 19.3667 7.72786 21.2287C7.72786 23.0907 6.2207 24.5978 4.35872 24.5978C2.49675 24.5978 0.989583 23.0907 0.989583 21.2287C0.989583 19.3667 2.5 17.8595 4.35872 17.8595ZM17.0931 30.6492C18.1934 33.8914 22.7995 34.0119 23.8346 30.6492C25.0553 31.743 28.6589 31.9676 30 32.7163C30.4232 32.9507 30.8073 33.2567 31.1165 33.6603C31.3216 33.9338 31.5983 34.4383 31.8066 35.0015H9.11784C9.32617 34.4383 9.60286 33.9338 9.80794 33.6603C10.1172 33.2534 10.498 32.9539 10.9245 32.7163C12.2689 31.9644 15.8724 31.743 17.0931 30.6492ZM21.7122 10.4279C21.9043 10.3953 21.9271 10.3986 22.0866 10.4377V7.07503L18.4408 8.05485V12.1792C18.444 12.202 18.444 12.228 18.444 12.2508C18.444 12.8368 17.6693 13.4194 16.9108 13.5496C16.1523 13.6798 15.5371 13.312 15.5371 12.7261C15.5371 12.1401 16.1523 11.5575 16.9108 11.4272C17.1973 11.3784 17.4609 11.4012 17.6823 11.4761V6.50863H17.7148L22.8451 5.3335V10.9813C22.8548 11.0269 22.8581 11.0692 22.8581 11.1147C22.8581 11.603 22.3438 12.0913 21.7122 12.1987C21.0775 12.3094 20.5664 12.0002 20.5664 11.5119C20.5664 11.0236 21.0775 10.5353 21.7122 10.4279ZM16.2467 23.9305C16.0156 23.9403 15.8431 23.9891 15.7227 24.0672C15.6543 24.116 15.6055 24.1714 15.5697 24.243C15.5339 24.3211 15.5143 24.4155 15.5176 24.5229C15.5273 24.8387 15.6934 25.2554 16.0124 25.7339L16.0156 25.7404L17.0573 27.3973C17.474 28.0614 17.9134 28.7384 18.4603 29.2365C18.9811 29.715 19.6191 30.0373 20.459 30.0405C21.3672 30.0438 22.0345 29.7085 22.5749 29.2007C23.138 28.6766 23.5775 27.9539 24.0169 27.2378L25.1888 25.3042C25.4069 24.8062 25.4883 24.4709 25.4395 24.2723C25.4102 24.1551 25.2799 24.0965 25.0618 24.0868C25.013 24.0835 24.9674 24.0835 24.9219 24.0868C24.8665 24.0868 24.8145 24.09 24.7559 24.0965C24.7266 24.0998 24.694 24.0965 24.6647 24.09C24.5605 24.0965 24.4531 24.09 24.3424 24.0737L24.7396 22.4624C21.7578 22.9344 19.5247 20.7176 16.3704 22.0164L16.5951 23.9468C16.4811 23.95 16.3574 23.9468 16.2467 23.9305ZM25.4655 23.5562C25.7552 23.644 25.9408 23.8296 26.0156 24.1258C26.1003 24.4513 26.0091 24.9168 25.7292 25.5516C25.7227 25.5614 25.7194 25.5744 25.7129 25.5841L24.5247 27.5405C24.0658 28.2957 23.6003 29.0509 22.9818 29.6304C22.3372 30.2293 21.5462 30.6297 20.4655 30.6297C19.4564 30.6265 18.6947 30.2423 18.0697 29.6694C17.4674 29.116 17.0052 28.4064 16.5658 27.7098L15.5241 26.0529C15.1432 25.4832 14.9447 24.9657 14.9349 24.5392C14.9284 24.3374 14.9609 24.1551 15.0358 23.9956C15.1139 23.8263 15.2344 23.6896 15.3939 23.5789C15.4688 23.5269 15.5534 23.4845 15.6478 23.452C15.5794 22.5535 15.5534 21.5868 15.5957 20.6395C15.6185 20.4149 15.6608 20.187 15.7227 19.9657C15.9896 19.0119 16.6569 18.5789 17.4837 18.0516C17.9395 17.7619 18.4408 17.5438 18.9583 17.394C19.0527 17.368 20.3483 14.3016 24.5085 18.8003C25.0879 19.4285 25.4492 19.9266 25.5306 21.0236L25.4655 23.5562ZM5.27018 34.0282C5.44271 34.409 5.27018 34.8582 4.88932 35.0275C4.50846 35.2 4.05924 35.0275 3.88997 34.6466C3.4668 33.6994 3.11849 32.7131 2.86458 31.6974C2.61393 30.7013 2.44792 29.6662 2.37305 28.6082C2.36003 28.4227 2.35026 28.2078 2.34049 27.9637C2.33073 27.7033 2.32747 27.4884 2.32747 27.3192C2.32747 26.9025 2.66927 26.5607 3.08594 26.5607C3.5026 26.5607 3.8444 26.9025 3.8444 27.3192C3.8444 27.5666 3.84766 27.7619 3.85091 27.9084C3.85742 28.0776 3.86719 28.2762 3.88346 28.4976C3.95182 29.4644 4.10482 30.4116 4.33594 31.3231C4.57031 32.2638 4.88281 33.1688 5.27018 34.0282ZM8.62305 15.7502C8.33008 16.0464 7.84831 16.0464 7.55208 15.7534C7.25586 15.4604 7.25586 14.9787 7.54883 14.6825C8.278 13.9533 9.23177 13.146 10.2474 12.4429C11.1393 11.8276 12.0833 11.2873 12.972 10.9422C13.3626 10.7892 13.8021 10.9845 13.9486 11.3719C14.1016 11.7625 13.9062 12.202 13.5189 12.3485C12.7474 12.6479 11.9108 13.1265 11.1068 13.6831C10.1725 14.3341 9.29037 15.0796 8.62305 15.7502ZM26.9629 12.381C26.582 12.2085 26.4095 11.7625 26.582 11.3817C26.7546 11.0008 27.2005 10.8283 27.5814 11.0008C28.9681 11.6291 30.2669 12.4299 31.4388 13.3739C32.6204 14.3244 33.6784 15.4246 34.5866 16.6453C34.8372 16.9806 34.7656 17.4526 34.4271 17.7033C34.0885 17.9539 33.6198 17.8823 33.3691 17.5438C32.5391 16.4272 31.569 15.4246 30.4883 14.5522C29.4206 13.6864 28.2357 12.9572 26.9629 12.381ZM36.5592 28.5529C36.5885 28.1362 36.9499 27.8205 37.3665 27.8498C37.7832 27.8791 38.099 28.2404 38.0697 28.6571C37.9915 29.6922 37.8255 30.6981 37.5846 31.6714C37.334 32.6675 37.002 33.631 36.5951 34.5522C36.4258 34.9364 35.9798 35.1089 35.5957 34.9396C35.2116 34.7703 35.0391 34.3244 35.2083 33.9403C35.5827 33.0939 35.8887 32.2118 36.1133 31.3035C36.3411 30.4181 36.4909 29.4969 36.5592 28.5529ZM35.1562 21.1017L37.1094 22.4624C37.1419 22.4819 37.1712 22.5112 37.194 22.5438C37.2852 22.6772 37.2526 22.8563 37.1191 22.9507L35.1758 24.2951C35.127 24.3374 35.0618 24.3602 34.9902 24.3602C34.8275 24.3602 34.6973 24.23 34.6973 24.0672V21.3394C34.6973 21.2808 34.7135 21.2222 34.7494 21.1733C34.8438 21.0399 35.026 21.0073 35.1562 21.1017Z" fill="#054141"/>
</svg>
