<svg width="40" height="40" viewBox="0 0 40 40" fill="none" xmlns="http://www.w3.org/2000/svg">
<g clip-path="url(#clip0_113_828)">
<path d="M23.9062 8.75049C24.2514 8.75049 24.5312 8.47067 24.5312 8.12549C24.5312 7.78031 24.2514 7.50049 23.9062 7.50049C23.5611 7.50049 23.2812 7.78031 23.2812 8.12549C23.2812 8.47067 23.5611 8.75049 23.9062 8.75049Z" fill="#054141"/>
<path d="M29.2188 10.938C29.5639 10.938 29.8438 10.6582 29.8438 10.313C29.8438 9.96781 29.5639 9.68799 29.2188 9.68799C28.8736 9.68799 28.5938 9.96781 28.5938 10.313C28.5938 10.6582 28.8736 10.938 29.2188 10.938Z" fill="#054141"/>
<path d="M16.0938 5.625C16.4389 5.625 16.7188 5.34518 16.7188 5C16.7188 4.65482 16.4389 4.375 16.0938 4.375C15.7486 4.375 15.4688 4.65482 15.4688 5C15.4688 5.34518 15.7486 5.625 16.0938 5.625Z" fill="#054141"/>
<path d="M10.7812 7.81299C11.1264 7.81299 11.4062 7.53317 11.4062 7.18799C11.4062 6.84281 11.1264 6.56299 10.7812 6.56299C10.4361 6.56299 10.1562 6.84281 10.1562 7.18799C10.1562 7.53317 10.4361 7.81299 10.7812 7.81299Z" fill="#054141"/>
<path d="M13.5938 15.625C13.5944 16.0446 13.6352 16.4632 13.7156 16.875H20.9875C20.8406 16.6656 20.5469 16.5562 20.0187 16.4C19.4125 16.2187 18.6594 15.9969 18.2406 15.2719C18.0621 14.9715 17.9684 14.6283 17.9695 14.2788C17.9706 13.9294 18.0664 13.5868 18.2469 13.2875C18.3893 13.0678 18.5739 12.8787 18.7902 12.7312C19.0064 12.5836 19.2498 12.4806 19.5062 12.4281V11.875C19.5062 11.7092 19.5721 11.5503 19.6893 11.4331C19.8065 11.3158 19.9655 11.25 20.1312 11.25C20.297 11.25 20.456 11.3158 20.5732 11.4331C20.6904 11.5503 20.7562 11.7092 20.7562 11.875V12.4219C21.0238 12.484 21.278 12.5941 21.5062 12.7469C21.6438 12.8393 21.7391 12.9826 21.771 13.1452C21.8029 13.3078 21.769 13.4765 21.6766 13.6141C21.5842 13.7516 21.4409 13.8469 21.2782 13.8788C21.1156 13.9108 20.947 13.8768 20.8094 13.7844C20.7017 13.7127 20.5822 13.6608 20.4562 13.6312C20.0344 13.55 19.5156 13.6156 19.3062 13.9531C19.2468 14.059 19.2167 14.1787 19.2189 14.3001C19.2211 14.4215 19.2555 14.5401 19.3187 14.6437C19.4781 14.9187 19.825 15.0375 20.375 15.2C21.0437 15.4 21.9594 15.6719 22.2688 16.6781C22.2858 16.7428 22.2983 16.8086 22.3062 16.875H26.5969C26.7712 15.9771 26.7559 15.0526 26.5519 14.1609C26.348 13.2692 25.9598 12.4301 25.4124 11.6973C24.865 10.9644 24.1704 10.3542 23.3732 9.90562C22.576 9.45707 21.6939 9.18014 20.7834 9.09261C19.8728 9.00508 18.9541 9.10889 18.0861 9.39736C17.218 9.68584 16.4199 10.1526 15.7429 10.7677C15.0659 11.3828 14.525 12.1327 14.1549 12.9692C13.7848 13.8057 13.5936 14.7103 13.5938 15.625Z" fill="#054141"/>
<path d="M33.1408 7.34178L23.5137 3.22596C23.3589 3.15947 23.1921 3.12516 23.0236 3.1251C22.7764 3.12551 22.5348 3.19888 22.329 3.33604C22.1233 3.47319 21.9626 3.66801 21.8672 3.89608L21.3367 5.15497L22.0163 6.76769L23.0244 4.3762L32.651 8.49187C32.6536 8.49502 32.6553 8.49885 32.6559 8.50291C32.6565 8.50698 32.6559 8.51112 32.6542 8.51488L29.1312 16.8755H30.4877L33.8061 9.00031C33.9366 8.69202 33.9398 8.34466 33.8152 8.03397C33.6906 7.72329 33.4481 7.47447 33.1408 7.34178ZM8.4375 19.3664V33.0963C8.43443 33.3206 8.49157 33.5416 8.60297 33.7363C8.71437 33.931 8.87594 34.0923 9.07085 34.2033L19.4771 39.8673C19.6376 39.9544 19.8174 40 20 40C20.1826 40 20.3624 39.9544 20.5229 39.8673L30.9291 34.2033C31.1241 34.0923 31.2856 33.931 31.397 33.7363C31.5084 33.5416 31.5656 33.3206 31.5625 33.0963V19.3664C31.5734 19.0485 31.4577 18.7394 31.241 18.5067C31.0242 18.2741 30.724 18.1368 30.4063 18.1252H9.59375C9.27597 18.1368 8.97578 18.2741 8.75903 18.5067C8.54227 18.7394 8.42664 19.0485 8.4375 19.3664ZM27.9688 21.2506H28.125C28.2908 21.2506 28.4497 21.3165 28.567 21.4337C28.6842 21.5509 28.75 21.7099 28.75 21.8756C28.75 22.0414 28.6842 22.2004 28.567 22.3176C28.4497 22.4348 28.2908 22.5007 28.125 22.5007H27.9688C27.803 22.5007 27.644 22.4348 27.5268 22.3176C27.4096 22.2004 27.3437 22.0414 27.3437 21.8756C27.3437 21.7099 27.4096 21.5509 27.5268 21.4337C27.644 21.3165 27.803 21.2506 27.9688 21.2506ZM25.69 21.2506H26.0156C26.1814 21.2506 26.3404 21.3165 26.4576 21.4337C26.5748 21.5509 26.6406 21.7099 26.6406 21.8756C26.6406 22.0414 26.5748 22.2004 26.4576 22.3176C26.3404 22.4348 26.1814 22.5007 26.0156 22.5007H25.69C25.5242 22.5007 25.3653 22.4348 25.248 22.3176C25.1308 22.2004 25.065 22.0414 25.065 21.8756C25.065 21.7099 25.1308 21.5509 25.248 21.4337C25.3653 21.3165 25.5242 21.2506 25.69 21.2506ZM23.4116 21.2506H23.7369C23.9026 21.2506 24.0616 21.3165 24.1788 21.4337C24.296 21.5509 24.3619 21.7099 24.3619 21.8756C24.3619 22.0414 24.296 22.2004 24.1788 22.3176C24.0616 22.4348 23.9026 22.5007 23.7369 22.5007H23.4116C23.2458 22.5007 23.0868 22.4348 22.9696 22.3176C22.8524 22.2004 22.7865 22.0414 22.7865 21.8756C22.7865 21.7099 22.8524 21.5509 22.9696 21.4337C23.0868 21.3165 23.2458 21.2506 23.4116 21.2506ZM23.125 33.1259H23.2813C23.447 33.1259 23.606 33.1918 23.7232 33.309C23.8404 33.4262 23.9063 33.5852 23.9063 33.751C23.9063 33.9167 23.8404 34.0757 23.7232 34.1929C23.606 34.3101 23.447 34.376 23.2813 34.376H23.125C22.9592 34.376 22.8003 34.3101 22.683 34.1929C22.5658 34.0757 22.5 33.9167 22.5 33.751C22.5 33.5852 22.5658 33.4262 22.683 33.309C22.8003 33.1918 22.9592 33.1259 23.125 33.1259ZM21.1328 21.2506H21.4584C21.6242 21.2506 21.7832 21.3165 21.9004 21.4337C22.0176 21.5509 22.0835 21.7099 22.0835 21.8756C22.0835 22.0414 22.0176 22.2004 21.9004 22.3176C21.7832 22.4348 21.6242 22.5007 21.4584 22.5007H21.1328C20.967 22.5007 20.8081 22.4348 20.6909 22.3176C20.5736 22.2004 20.5078 22.0414 20.5078 21.8756C20.5078 21.7099 20.5736 21.5509 20.6909 21.4337C20.8081 21.3165 20.967 21.2506 21.1328 21.2506ZM21.0471 33.126H21.3437C21.5095 33.126 21.6684 33.1918 21.7856 33.309C21.9029 33.4262 21.9687 33.5852 21.9687 33.751C21.9687 33.9167 21.9029 34.0757 21.7856 34.1929C21.6684 34.3102 21.5095 34.376 21.3437 34.376H21.0471C20.8813 34.376 20.7223 34.3102 20.6051 34.1929C20.4879 34.0757 20.422 33.9167 20.422 33.751C20.422 33.5852 20.4879 33.4262 20.6051 33.309C20.7223 33.1918 20.8813 33.126 21.0471 33.126ZM19.2657 34.376H18.9688C18.803 34.376 18.6441 34.3102 18.5269 34.1929C18.4096 34.0757 18.3438 33.9167 18.3438 33.751C18.3438 33.5852 18.4096 33.4262 18.5269 33.309C18.6441 33.1918 18.803 33.126 18.9688 33.126H19.2657C19.4315 33.126 19.5905 33.1918 19.7077 33.309C19.8249 33.4262 19.8908 33.5852 19.8908 33.751C19.8908 33.9167 19.8249 34.0757 19.7077 34.1929C19.5905 34.3102 19.4315 34.376 19.2657 34.376ZM18.8541 21.2506H19.1797C19.3455 21.2506 19.5044 21.3165 19.6216 21.4337C19.7389 21.5509 19.8047 21.7099 19.8047 21.8756C19.8047 22.0414 19.7389 22.2004 19.6216 22.3176C19.5044 22.4348 19.3455 22.5007 19.1797 22.5007H18.8541C18.6883 22.5007 18.5293 22.4348 18.4121 22.3176C18.2949 22.2004 18.229 22.0414 18.229 21.8756C18.229 21.7099 18.2949 21.5509 18.4121 21.4337C18.5293 21.3165 18.6883 21.2506 18.8541 21.2506ZM17.8125 33.751C17.8125 33.9167 17.7466 34.0757 17.6294 34.1929C17.5122 34.3101 17.3533 34.376 17.1875 34.376H17.0313C16.8655 34.376 16.7065 34.3101 16.5893 34.1929C16.4721 34.0757 16.4062 33.9167 16.4062 33.751C16.4062 33.5852 16.4721 33.4262 16.5893 33.309C16.7065 33.1918 16.8655 33.1259 17.0313 33.1259H17.1875C17.3533 33.126 17.5122 33.1918 17.6294 33.309C17.7466 33.4262 17.8125 33.5852 17.8125 33.751ZM16.5756 21.2506H16.9009C17.0667 21.2506 17.2257 21.3165 17.3429 21.4337C17.4601 21.5509 17.526 21.7099 17.526 21.8756C17.526 22.0414 17.4601 22.2004 17.3429 22.3176C17.2257 22.4348 17.0667 22.5007 16.9009 22.5007H16.5756C16.4099 22.5007 16.2509 22.4348 16.1337 22.3176C16.0165 22.2004 15.9506 22.0414 15.9506 21.8756C15.9506 21.7099 16.0165 21.5509 16.1337 21.4337C16.2509 21.3165 16.4099 21.2506 16.5756 21.2506ZM14.2969 21.2506H14.6225C14.7883 21.2506 14.9472 21.3165 15.0645 21.4337C15.1817 21.5509 15.2475 21.7099 15.2475 21.8756C15.2475 22.0414 15.1817 22.2004 15.0645 22.3176C14.9472 22.4348 14.7883 22.5007 14.6225 22.5007H14.2969C14.1311 22.5007 13.9721 22.4348 13.8549 22.3176C13.7377 22.2004 13.6719 22.0414 13.6719 21.8756C13.6719 21.7099 13.7377 21.5509 13.8549 21.4337C13.9721 21.3165 14.1311 21.2506 14.2969 21.2506ZM12.1875 21.2506H12.3438C12.5095 21.2506 12.6685 21.3165 12.7857 21.4337C12.9029 21.5509 12.9688 21.7099 12.9688 21.8756C12.9688 22.0414 12.9029 22.2004 12.7857 22.3176C12.6685 22.4348 12.5095 22.5007 12.3438 22.5007H12.1875C12.0217 22.5007 11.8628 22.4348 11.7455 22.3176C11.6283 22.2004 11.5625 22.0414 11.5625 21.8756C11.5625 21.7099 11.6283 21.5509 11.7455 21.4337C11.8628 21.3165 12.0217 21.2506 12.1875 21.2506ZM16.9764 0C16.8079 7.05953e-05 16.6411 0.0343848 16.4863 0.100859L6.85919 4.21669C6.55187 4.34939 6.30947 4.5982 6.18484 4.90888C6.06021 5.21956 6.06346 5.56691 6.19388 5.87521L10.8292 16.8753H12.1856L7.34579 5.38976C7.34391 5.38584 7.34336 5.3814 7.34422 5.37713C7.34508 5.37286 7.3473 5.36899 7.35056 5.3661L16.9768 1.25069L16.981 1.25641L19.7482 7.82344C19.8833 7.81646 20.0194 7.81289 20.1563 7.81274C20.4806 7.81345 20.8046 7.83429 21.1264 7.87513L18.1329 0.770987C18.0374 0.542909 17.8767 0.348084 17.671 0.210932C17.4653 0.07378 17.2236 0.000403769 16.9764 0Z" fill="#054141"/>
</g>
<defs>
<clipPath id="clip0_113_828">
<rect width="40" height="40" fill="white"/>
</clipPath>
</defs>
</svg>
