<svg width="40" height="40" viewBox="0 0 40 40" fill="none" xmlns="http://www.w3.org/2000/svg">
<path d="M3.5 37C4.32843 37 5 36.3284 5 35.5C5 34.6716 4.32843 34 3.5 34C2.67157 34 2 34.6716 2 35.5C2 36.3284 2.67157 37 3.5 37Z" fill="#054141"/>
<path d="M8.5 33C9.88071 33 11 31.8807 11 30.5C11 29.1193 9.88071 28 8.5 28C7.11929 28 6 29.1193 6 30.5C6 31.8807 7.11929 33 8.5 33Z" fill="#054141"/>
<path d="M39 16.4121C39.0007 17.0349 38.8542 17.6492 38.5722 18.2061C38.2901 18.763 37.8803 19.2472 37.3753 19.6201C36.8703 19.993 36.2842 20.2443 35.6635 20.354C35.0429 20.4636 34.4049 20.4286 33.8003 20.2518C34.1725 21.1861 34.2387 22.2121 33.9896 23.1855C33.7404 24.1588 33.1885 25.0305 32.4115 25.6779C31.6345 26.3252 30.6715 26.7156 29.658 26.794C28.6446 26.8725 27.6318 26.6351 26.7621 26.1153C26.5471 27.209 25.9535 28.1948 25.0831 28.9036C24.2127 29.6124 23.1198 30 21.9917 30C20.8636 30 19.7707 29.6124 18.9003 28.9036C18.0299 28.1948 17.4363 27.209 17.2213 26.1153C16.3516 26.6351 15.3388 26.8725 14.3254 26.794C13.3119 26.7156 12.3489 26.3252 11.5719 25.6779C10.7949 25.0305 10.243 24.1588 9.99382 23.1855C9.74468 22.2121 9.81087 21.1861 10.1831 20.2518C9.59007 20.4225 8.96537 20.4571 8.35678 20.3527C7.74819 20.2483 7.17184 20.0078 6.67183 19.6496C6.17183 19.2914 5.76141 18.825 5.472 18.286C5.18259 17.747 5.02185 17.1498 5.00208 16.54C4.9823 15.9303 5.10403 15.3241 5.35793 14.768C5.61183 14.2118 5.99119 13.7204 6.46697 13.3313C6.94274 12.9422 7.50233 12.6658 8.10291 12.5232C8.70349 12.3806 9.32915 12.3755 9.932 12.5085C9.78222 11.7332 9.82834 10.9334 10.0663 10.1799C10.3042 9.42638 10.7266 8.74247 11.2961 8.18873C11.8656 7.63499 12.5645 7.2285 13.331 7.00528C14.0975 6.78205 14.908 6.74897 15.6905 6.90898C16.0296 5.51048 16.8358 4.26555 17.979 3.37495C19.1221 2.48435 20.5357 2 21.9917 2C23.4477 2 24.8613 2.48435 26.0044 3.37495C27.1476 4.26555 27.9538 5.51048 28.2929 6.90898C29.0754 6.74897 29.8858 6.78205 30.6524 7.00528C31.4189 7.2285 32.1178 7.63499 32.6873 8.18873C33.2568 8.74247 33.6792 9.42638 33.9171 10.1799C34.1551 10.9334 34.2012 11.7332 34.0514 12.5085C34.6447 12.3751 35.2609 12.3754 35.854 12.5095C36.4472 12.6436 37.0022 12.9081 37.4776 13.2831C37.9531 13.6582 38.3369 14.1343 38.6005 14.676C38.864 15.2177 39.0006 15.8111 39 16.4121Z" fill="#054141"/>
<path d="M19.5455 21H16V19.4937L18.1214 17.25H16V16H19.5455V17.5062L17.4241 19.75H19.5455V21ZM24.2727 18.5H20.7273V16.9938L22.8486 14.75H20.7273V13.5H24.2727V15.0062L22.1514 17.25H24.2727V18.5ZM29 16H25.4545V14.4938L27.5759 12.25H25.4545V11H29V12.5062L26.8786 14.75H29V16Z" fill="#64FFDA"/>
<path d="M31.5 36C35.0899 36 38 33.0899 38 29.5C38 25.9101 35.0899 23 31.5 23C27.9101 23 25 25.9101 25 29.5C25 33.0899 27.9101 36 31.5 36Z" fill="#054141"/>
<path d="M29.2789 32L28 30.8264L30.1859 28.8205V25H32V29.503L29.2789 32Z" fill="#64FFDA"/>
<path d="M3.4375 33.1783C2.95541 33.1783 2.48414 33.3197 2.0833 33.5846C1.68245 33.8495 1.37003 34.226 1.18554 34.6666C1.00106 35.1071 0.952785 35.5918 1.04684 36.0595C1.14089 36.5271 1.37304 36.9567 1.71393 37.2939C2.05482 37.631 2.48914 37.8607 2.96197 37.9537C3.4348 38.0467 3.9249 37.999 4.37029 37.8165C4.81569 37.634 5.19637 37.325 5.46421 36.9285C5.73204 36.5321 5.875 36.066 5.875 35.5892C5.875 34.9498 5.61819 34.3366 5.16107 33.8844C4.70395 33.4323 4.08397 33.1783 3.4375 33.1783ZM3.4375 36.3928C3.22201 36.3928 3.01535 36.3081 2.86298 36.1574C2.7106 36.0067 2.625 35.8023 2.625 35.5892C2.625 35.376 2.7106 35.1716 2.86298 35.0209C3.01535 34.8702 3.22201 34.7855 3.4375 34.7855C3.65299 34.7855 3.85965 34.8702 4.01203 35.0209C4.1644 35.1716 4.25 35.376 4.25 35.5892C4.25 35.8023 4.1644 36.0067 4.01203 36.1574C3.85965 36.3081 3.65299 36.3928 3.4375 36.3928ZM8.3125 27.553C7.66971 27.553 7.04136 27.7415 6.5069 28.0947C5.97244 28.448 5.55588 28.95 5.30989 29.5373C5.06391 30.1247 4.99955 30.771 5.12495 31.3946C5.25035 32.0181 5.55988 32.5909 6.0144 33.0404C6.46892 33.49 7.04802 33.7961 7.67846 33.9202C8.3089 34.0442 8.96236 33.9805 9.55622 33.7372C10.1501 33.4939 10.6577 33.0819 11.0148 32.5533C11.3719 32.0247 11.5625 31.4032 11.5625 30.7675C11.5625 29.9149 11.2201 29.0973 10.6106 28.4945C10.0011 27.8917 9.17445 27.553 8.3125 27.553ZM8.3125 32.3747C7.99111 32.3747 7.67693 32.2804 7.4097 32.1038C7.14247 31.9272 6.93419 31.6762 6.8112 31.3825C6.6882 31.0888 6.65602 30.7657 6.71873 30.4539C6.78143 30.1421 6.93619 29.8558 7.16345 29.631C7.39071 29.4062 7.68026 29.2531 7.99548 29.1911C8.3107 29.1291 8.63743 29.1609 8.93436 29.2826C9.23129 29.4042 9.48508 29.6102 9.66364 29.8745C9.8422 30.1388 9.9375 30.4496 9.9375 30.7675C9.9375 31.1937 9.7663 31.6025 9.46155 31.9039C9.1568 32.2054 8.74348 32.3747 8.3125 32.3747ZM40 16.3024C40 15.0236 39.4864 13.7972 38.5721 12.893C37.6579 11.9887 36.4179 11.4807 35.125 11.4807C35.127 10.7069 34.9676 9.94105 34.6567 9.23098C34.3458 8.5209 33.8901 7.88191 33.3182 7.35393C32.7463 6.82596 32.0704 6.42038 31.3327 6.16253C30.5951 5.90469 29.8116 5.80014 29.0313 5.85541C28.5322 4.43709 27.5992 3.20759 26.3616 2.33753C25.1241 1.46747 23.6434 1 22.125 1C20.6067 1 19.1259 1.46747 17.8884 2.33753C16.6508 3.20759 15.7178 4.43709 15.2188 5.85541C14.4384 5.80014 13.6549 5.90469 12.9173 6.16253C12.1797 6.42038 11.5037 6.82596 10.9318 7.35393C10.3599 7.88191 9.9042 8.5209 9.59332 9.23098C9.28243 9.94105 9.123 10.7069 9.125 11.4807C7.83207 11.4871 6.59466 12.0012 5.685 12.91C4.77533 13.8188 4.26791 15.0477 4.27438 16.3265C4.28084 17.6053 4.80065 18.8292 5.71947 19.7289C6.63828 20.6286 7.88082 21.1305 9.17375 21.1241C9.03087 22.0942 9.14682 23.0845 9.51011 23.9967C9.8734 24.9088 10.4714 25.7113 11.2449 26.3244C12.0183 26.9375 12.9404 27.3401 13.9196 27.4922C14.8989 27.6442 15.9013 27.5406 16.8275 27.1914C17.3555 28.5257 18.3784 29.6105 19.6876 30.2243C20.9967 30.8381 22.4932 30.9346 23.8719 30.4942C24.1865 32.1526 25.0776 33.65 26.3907 34.7272C27.7039 35.8044 29.3565 36.3936 31.0625 36.3928C38.3019 36.3928 41.1538 26.9985 35.0194 23.0849C35.1563 22.4399 35.1756 21.7758 35.0763 21.1241C35.7205 21.1305 36.3597 21.0104 36.9568 20.771C37.5539 20.5315 38.0971 20.1774 38.555 19.729C39.0128 19.2806 39.3763 18.7469 39.6243 18.1588C39.8723 17.5706 40 16.9397 40 16.3024ZM36.75 29.1602C36.7518 30.3557 36.3684 31.5206 35.6556 32.486C34.9428 33.4514 33.9376 34.1671 32.7857 34.5293C31.6339 34.8915 30.3953 34.8814 29.2497 34.5003C28.1041 34.1193 27.111 33.3872 26.4144 32.4102C25.7179 31.4333 25.3541 30.2622 25.3759 29.067C25.3977 27.8718 25.8039 26.7145 26.5356 25.763C27.2673 24.8115 28.2865 24.1153 29.4452 23.7753C30.604 23.4354 31.8421 23.4694 32.98 23.8724C34.0823 24.2629 35.0359 24.9802 35.7106 25.9266C36.3853 26.873 36.7483 28.0022 36.75 29.1602ZM37.075 18.874C35.5556 19.991 34.2313 19.3963 32.6063 18.9302C33.2156 20.4571 33.6219 21.2044 33.4919 22.3456C32.4166 21.9681 31.267 21.8448 30.1349 21.9854C29.0028 22.1259 27.9197 22.5266 26.9722 23.1553C26.0247 23.784 25.2391 24.6232 24.6782 25.6059C24.1172 26.5886 23.7966 27.6875 23.7419 28.8147C23.1835 29.0572 22.5771 29.1724 21.9675 29.1515C21.358 29.1306 20.7611 28.9742 20.221 28.694C19.681 28.4138 19.2116 28.017 18.8478 27.5328C18.484 27.0487 18.235 26.4898 18.1194 25.8976L17.9 24.7564L16.9006 25.3672C16.1735 25.8021 15.3268 26.0006 14.4796 25.9347C13.6325 25.8688 12.8275 25.5418 12.1781 24.9997C11.5287 24.4577 11.0675 23.7278 10.8594 22.9129C10.6513 22.0981 10.7068 21.2391 11.0181 20.4571L11.6275 18.9302L10.0025 19.3883C9.52638 19.5267 9.02452 19.5555 8.53542 19.4724C8.04632 19.3892 7.58296 19.1964 7.18087 18.9087C6.77879 18.621 6.44866 18.2461 6.21581 17.8126C5.98295 17.3791 5.85355 16.8987 5.83753 16.4081C5.82151 15.9175 5.91929 15.4298 6.12338 14.9824C6.32747 14.535 6.63245 14.1397 7.01492 13.827C7.39739 13.5142 7.84721 13.2922 8.32987 13.178C8.81253 13.0639 9.31521 13.0605 9.79938 13.1683L11.01 13.4335L10.7744 12.2281C10.6476 11.5756 10.6864 10.9022 10.8873 10.2682C11.0882 9.63412 11.4449 9.05927 11.9255 8.59505C12.4062 8.13084 12.9957 7.79175 13.6413 7.60814C14.2869 7.42454 14.9685 7.40216 15.625 7.543L16.3888 7.69569L16.5756 6.94832C16.8717 5.7171 17.5789 4.62061 18.583 3.83606C19.587 3.05151 20.8292 2.62475 22.1088 2.62475C23.3883 2.62475 24.6305 3.05151 25.6345 3.83606C26.6386 4.62061 27.3458 5.7171 27.6419 6.94832L27.8288 7.69569L28.625 7.543C29.2792 7.40842 29.9569 7.43553 30.598 7.62193C31.2391 7.80833 31.8238 8.14827 32.3003 8.61162C32.7769 9.07497 33.1304 9.64743 33.3298 10.2783C33.5291 10.9091 33.5681 11.5788 33.4431 12.2281L33.2075 13.4335L34.4181 13.1683C35.1425 13.0102 35.8998 13.1019 36.5642 13.4283C37.2286 13.7547 37.7601 14.2961 38.0705 14.9625C38.3808 15.629 38.4513 16.3804 38.2702 17.0919C38.0891 17.8034 37.6674 18.4323 37.075 18.874Z" fill="#64FFDA"/>
</svg>
