<svg width="40" height="40" viewBox="0 0 40 40" fill="none" xmlns="http://www.w3.org/2000/svg">
<path d="M11 11.5002C11 11.6668 11.1667 11.8335 11.3333 12.0002L14.6667 15.3335C15 15.6668 15.3333 15.8335 15.8333 15.8335C16.3333 15.8335 16.6667 15.6668 17 15.3335C17.6667 14.6668 17.6667 13.6668 17 13.0002L16.5 12.5002H23.5L23 13.0002C22.6667 13.3335 22.5 13.6668 22.5 14.1668C22.5 15.1668 23.1667 15.8335 24.1667 15.8335C24.6667 15.8335 25 15.6668 25.3333 15.3335L28.6667 12.0002C28.8333 11.8335 29 11.6668 29 11.5002C29 11.3335 29.1667 11.1668 29.1667 10.8335C29.1667 10.6668 29.1667 10.3335 29 10.1668C28.8333 10.0002 28.8333 9.8335 28.6667 9.66683L25.3333 6.3335C24.6667 5.66683 23.6667 5.66683 23 6.3335C22.3333 7.00016 22.3333 8.00016 23 8.66683L23.5 9.16683H16.5L17 8.66683C17.6667 8.00016 17.6667 7.00016 17 6.3335C16.3333 5.66683 15.3333 5.66683 14.6667 6.3335L11.3333 9.66683C11.1667 9.8335 11 10.0002 11 10.1668C11 10.3335 10.8333 10.5002 10.8333 10.8335C10.8333 11.0002 10.8333 11.3335 11 11.5002ZM9.99999 24.5002C12.3333 24.5002 14.3333 22.5002 14.3333 20.1668C14.3333 17.8335 12.3333 15.8335 9.99999 15.8335C7.66666 15.8335 5.66666 17.8335 5.66666 20.1668C5.66666 22.5002 7.66666 24.5002 9.99999 24.5002ZM16.3333 29.0002C12 25.5002 5.66666 26.1668 2.16666 30.5002C1.83332 31.0002 1.66666 31.5002 1.66666 32.0002C1.66666 33.1668 2.66666 34.1668 3.83332 34.1668H16.1667C17 34.1668 17.8333 33.6668 18.1667 33.0002C18.5 32.3335 18.5 31.3335 17.8333 30.6668C17.3333 30.0002 16.8333 29.5002 16.3333 29.0002ZM25.6667 20.1668C25.6667 22.5002 27.6667 24.5002 30 24.5002C32.3333 24.5002 34.3333 22.5002 34.3333 20.1668C34.3333 17.8335 32.3333 15.8335 30 15.8335C27.6667 15.8335 25.6667 17.8335 25.6667 20.1668ZM37.8333 30.6668C37.3333 30.1668 36.8333 29.5002 36.3333 29.1668C32 25.6668 25.6667 26.3335 22.1667 30.6668C21.8333 31.0002 21.6667 31.5002 21.6667 32.0002C21.6667 33.1668 22.6667 34.1668 23.8333 34.1668H36.1667C37 34.1668 37.8333 33.6668 38.1667 33.0002C38.5 32.1668 38.3333 31.3335 37.8333 30.6668Z" fill="#054141"/>
</svg>
