<svg width="40" height="40" viewBox="0 0 40 40" fill="none" xmlns="http://www.w3.org/2000/svg">
<g clip-path="url(#clip0_113_835)">
<path d="M14.0264 17.7939C13.9506 16.731 14.6047 16.1835 14.1889 15.1497C13.7144 13.97 12.483 13.8637 12.4375 12.9927C12.3963 12.2009 13.4033 12.0881 13.7742 11.0605C14.3609 9.43501 12.4177 8.12001 12.9979 7.16829C13.4863 6.36751 15.6052 6.28532 16.7891 7.15829C17.862 7.94962 17.5643 9.07938 18.791 9.76805C19.701 10.279 20.2137 9.85298 20.7617 10.3716C21.5743 11.1406 20.6193 12.2397 21.2868 13.6156C21.9272 14.9356 23.1539 14.6398 23.9304 16.0457C24.6972 17.4341 24.1281 18.9778 24.0399 19.2084C23.3582 20.9919 21.4774 21.9665 19.8458 22.0965C16.8654 22.334 14.1692 19.7969 14.0264 17.7939Z" fill="#054141"/>
<path d="M23.9304 16.0453C23.1538 14.6393 21.9273 14.9352 21.2868 13.6152C20.6193 12.2394 21.5743 11.1402 20.7618 10.3712C20.2137 9.85258 19.701 10.2785 18.791 9.76766C17.5643 9.07907 17.8621 7.94914 16.7891 7.15789C15.8834 6.49008 14.4313 6.3818 13.5798 6.72602C13.8896 6.82267 14.1818 6.96849 14.4453 7.15789C15.5183 7.94922 15.2205 9.07899 16.4473 9.76766C17.3573 10.2786 17.8699 9.85258 18.418 10.3712C19.2305 11.1402 18.2755 12.2394 18.943 13.6152C19.5834 14.9352 20.8101 14.6394 21.5866 16.0453C22.3534 17.4338 21.7843 18.9774 21.6962 19.208C21.121 20.7127 19.6925 21.6416 18.2801 21.9733C18.7925 22.0947 19.3206 22.1361 19.8457 22.0961C21.4774 21.9661 23.3582 20.9914 24.0399 19.208C24.128 18.9774 24.6972 17.4338 23.9304 16.0453Z" fill="#054141"/>
<path d="M4.68108 17.4842C4.5889 16.0309 5.45171 15.2773 4.9128 13.866C4.29796 12.2557 2.68155 12.1187 2.62796 10.9276C2.57921 9.84476 3.90241 9.68367 4.39671 8.27531C5.17843 6.04765 2.63577 4.26242 3.40437 2.95656C4.05124 1.85781 6.83444 1.73054 8.38288 2.91648C9.78648 3.99148 9.38757 5.53906 10.9937 6.47249C12.1851 7.16499 12.8613 6.57874 13.5774 7.28437C14.6391 8.33054 13.3774 9.84078 14.2444 11.7181C15.0762 13.5193 16.6891 13.1061 17.699 15.024C18.6962 16.9179 17.9382 19.0335 17.8209 19.3496C16.9132 21.7938 14.4366 23.1401 12.293 23.3293C8.37765 23.6748 4.85476 20.223 4.68108 17.4842Z" fill="#054141"/>
<path d="M17.699 15.0241C16.6891 13.1062 15.0762 13.5194 14.2444 11.7183C13.3774 9.84091 14.6391 8.33076 13.5774 7.28451C12.8613 6.57888 12.1852 7.16513 10.9937 6.47263C9.38749 5.53919 9.78647 3.99162 8.38288 2.91662C7.13499 1.96091 5.086 1.85857 3.99866 2.42966C4.30873 2.55227 4.60088 2.71606 4.86725 2.91662C6.27084 3.99162 5.87194 5.53919 7.47811 6.47263C8.66952 7.16513 9.34569 6.57888 10.0618 7.28451C11.1235 8.33068 9.86178 9.84091 10.7287 11.7183C11.5605 13.5194 13.1735 13.1062 14.1833 15.0241C15.1806 16.9181 14.4226 19.0336 14.3052 19.3497C13.5644 21.3448 11.7782 22.608 9.981 23.1079C10.7321 23.3203 11.5153 23.3953 12.293 23.3294C14.4365 23.1402 16.9132 21.794 17.8208 19.3497C17.9382 19.0336 18.6963 16.9181 17.699 15.0241Z" fill="#054141"/>
<path d="M36.3455 20.0917C36.2131 18.6414 35.2446 18.0296 35.5601 16.5522C35.9199 14.8664 37.496 14.4825 37.3657 13.2973C37.2473 12.2199 35.9151 12.2642 35.2101 10.9486C34.095 8.86776 36.3328 6.7126 35.3724 5.54057C34.5643 4.55432 31.7946 4.85666 30.447 6.26674C29.2255 7.54479 29.8577 9.0126 28.4142 10.182C27.3434 11.0495 26.5852 10.5742 25.9861 11.3816C25.098 12.5787 26.577 13.8769 26.0091 15.8652C25.4643 17.7729 23.807 17.6127 23.1041 19.6631C22.41 21.6879 23.4845 23.6617 23.6491 23.956C24.9218 26.2315 27.5761 27.1808 29.7232 27.038C33.6452 26.7771 36.5952 22.8247 36.3455 20.0917Z" fill="#054141"/>
<path d="M35.5601 16.5518C35.9199 14.866 37.496 14.4821 37.3657 13.2969C37.2473 12.2196 35.9151 12.2638 35.2101 10.9482C34.095 8.86737 36.3328 6.71221 35.3724 5.54018C34.7728 4.80846 33.0938 4.78675 31.7166 5.39979C31.7673 5.44237 31.8143 5.48935 31.8568 5.54018C32.8172 6.71221 30.5794 8.86737 31.6944 10.9482C32.3994 12.2639 33.7316 12.2195 33.8501 13.2969C33.9803 14.4821 32.4043 14.866 32.0444 16.5518C31.729 18.0292 32.6975 18.641 32.8299 20.0914C33.0512 22.5144 30.7573 25.8957 27.5009 26.8132C28.2247 27.0072 28.9752 27.083 29.7232 27.0376C33.6452 26.7768 36.5952 22.8243 36.3455 20.0914C36.2131 18.641 35.2446 18.0292 35.5601 16.5518Z" fill="#054141"/>
<path d="M24.6071 23.3534C26.5259 23.3534 28.0814 21.7979 28.0814 19.8791C28.0814 17.9603 26.5259 16.4048 24.6071 16.4048C22.6883 16.4048 21.1328 17.9603 21.1328 19.8791C21.1328 21.7979 22.6883 23.3534 24.6071 23.3534Z" fill="#054141"/>
<path d="M24.6071 16.4048C24.2077 16.4045 23.8113 16.4732 23.4352 16.6079C24.1093 16.8495 24.6922 17.2934 25.1044 17.879C25.5165 18.4645 25.7377 19.1631 25.7377 19.8791C25.7377 20.5952 25.5165 21.2937 25.1044 21.8793C24.6922 22.4648 24.1093 22.9087 23.4352 23.1503C23.9122 23.3212 24.4207 23.3856 24.9252 23.3392C25.4297 23.2928 25.9179 23.1367 26.3556 22.8817C26.7934 22.6267 27.1701 22.2791 27.4594 21.8632C27.7486 21.4473 27.9435 20.9732 28.0302 20.474C28.1169 19.9749 28.0934 19.4628 27.9614 18.9737C27.8293 18.4846 27.5919 18.0303 27.2658 17.6427C26.9397 17.255 26.5327 16.9433 26.0735 16.7295C25.6142 16.5156 25.1137 16.4048 24.6071 16.4048Z" fill="#054141"/>
<path d="M18.7477 23.3534C20.6665 23.3534 22.222 21.7979 22.222 19.8791C22.222 17.9603 20.6665 16.4048 18.7477 16.4048C16.8289 16.4048 15.2734 17.9603 15.2734 19.8791C15.2734 21.7979 16.8289 23.3534 18.7477 23.3534Z" fill="#054141"/>
<path d="M18.7477 16.4048C18.3483 16.4045 17.9519 16.4732 17.5759 16.6079C18.2499 16.8495 18.8329 17.2934 19.245 17.879C19.6572 18.4645 19.8783 19.1631 19.8783 19.8791C19.8783 20.5952 19.6572 21.2937 19.245 21.8793C18.8329 22.4648 18.2499 22.9087 17.5759 23.1503C18.0528 23.3212 18.5613 23.3856 19.0658 23.3392C19.5703 23.2928 20.0585 23.1367 20.4963 22.8817C20.934 22.6267 21.3108 22.2791 21.6 21.8632C21.8893 21.4473 22.0841 20.9732 22.1708 20.474C22.2575 19.9749 22.234 19.4628 22.102 18.9737C21.9699 18.4846 21.7326 18.0303 21.4064 17.6427C21.0803 17.255 20.6734 16.9433 20.2141 16.7295C19.7548 16.5156 19.2543 16.4048 18.7477 16.4048Z" fill="#054141"/>
<path d="M10.8245 32.6689H29.1756V35.9336C29.1756 36.3906 29.0855 36.8432 28.9106 37.2654C28.7357 37.6877 28.4794 38.0714 28.1562 38.3945C27.833 38.7177 27.4493 38.9741 27.027 39.149C26.6048 39.3239 26.1522 39.4139 25.6952 39.4139H14.3049C13.8478 39.4139 13.3952 39.3239 12.973 39.149C12.5507 38.9741 12.167 38.7177 11.8439 38.3945C11.5207 38.0714 11.2643 37.6877 11.0894 37.2654C10.9145 36.8432 10.8245 36.3906 10.8245 35.9336V32.6689Z" fill="#054141"/>
<path d="M25.6599 32.6689V35.9336C25.6599 36.8566 25.2932 37.7418 24.6406 38.3945C23.9879 39.0472 23.1026 39.4139 22.1796 39.4139H25.6952C26.1523 39.4139 26.6048 39.3238 27.0271 39.1489C27.4493 38.974 27.833 38.7177 28.1562 38.3945C28.4794 38.0713 28.7357 37.6877 28.9106 37.2654C29.0855 36.8432 29.1755 36.3906 29.1755 35.9336V32.6689H25.6599Z" fill="#054141"/>
<path d="M31.0352 20.2085H39.4141C39.4142 22.07 39.0476 23.9133 38.3352 25.6331C37.6229 27.353 36.5788 28.9157 35.2625 30.2319C33.9462 31.5482 32.3835 32.5923 30.6637 33.3047C28.9439 34.017 27.1006 34.3836 25.2391 34.3835H14.7609C11.0015 34.3835 7.39606 32.89 4.73774 30.2317C2.07943 27.5734 0.585979 23.9679 0.585938 20.2085H31.0352Z" fill="#054141"/>
<path d="M35.8984 20.2085C35.8984 23.968 34.405 27.5736 31.7466 30.232C29.0882 32.8904 25.4826 34.3839 21.7231 34.3839H25.2387C28.9982 34.3839 32.6038 32.8904 35.2622 30.232C37.9206 27.5736 39.4141 23.968 39.4141 20.2085H35.8984Z" fill="#054141"/>
<path d="M39.4141 19.6228H36.8676C36.771 19.1818 36.624 18.7533 36.4296 18.3459C36.1741 17.7657 35.9896 17.3466 36.1331 16.6748C36.2785 15.9943 36.6806 15.5614 37.0695 15.1428C37.5258 14.6517 38.043 14.095 37.948 13.2332C37.8567 12.399 37.2833 12.0213 36.7774 11.688C36.3749 11.4228 35.9948 11.1724 35.7266 10.6718C35.2466 9.77558 35.5563 8.81222 35.8559 7.88058C36.1597 6.93636 36.4737 5.95996 35.8259 5.16933C35.4362 4.69378 34.7475 4.41386 33.8868 4.38105C32.7107 4.33628 31.0602 4.7766 30.0232 5.86167C29.3447 6.57183 29.1503 7.32746 28.9788 7.9941C28.8014 8.68339 28.6613 9.22769 28.0452 9.72691C27.6258 10.0668 27.2806 10.145 26.9152 10.228C26.4627 10.3307 25.9498 10.4471 25.5154 11.0321C24.893 11.8708 25.1223 12.7514 25.3247 13.5284C25.4988 14.1971 25.6789 14.8885 25.4459 15.7039C25.427 15.7701 25.4059 15.8328 25.3834 15.8942C25.1276 15.8442 24.8677 15.819 24.607 15.8189C24.5619 15.8189 24.5172 15.8216 24.4723 15.8231C24.4638 15.8022 24.4542 15.7818 24.4434 15.7621C23.9722 14.9093 23.3425 14.5621 22.8365 14.283C22.381 14.0318 22.052 13.8503 21.814 13.36C21.5609 12.8383 21.608 12.3656 21.6577 11.8651C21.7165 11.2737 21.7897 10.5378 21.1644 9.9455C20.7335 9.538 20.292 9.5066 19.9371 9.48128C19.6543 9.46121 19.4101 9.44378 19.0776 9.25714C18.5941 8.98558 18.4401 8.64488 18.2268 8.17324C18.0095 7.69292 17.7632 7.14847 17.1367 6.68628C15.9958 5.84527 14.0625 5.71832 13.0268 6.35042C12.8468 6.31732 12.6648 6.29631 12.482 6.28753C12.1081 6.26175 11.755 6.23738 11.2882 5.96613C10.603 5.56792 10.3809 5.05167 10.0998 4.39816C9.82766 3.76566 9.5193 3.04871 8.73906 2.45128C7.5475 1.53871 5.84891 1.35753 4.69375 1.58277C3.84859 1.74761 3.21141 2.13019 2.89977 2.6598C2.38102 3.54066 2.84148 4.45722 3.2868 5.34363C3.72609 6.21816 4.18039 7.12246 3.84398 8.08167C3.65594 8.61714 3.31883 8.92316 2.96195 9.24714C2.51328 9.65456 2.00469 10.1162 2.04273 10.9543C2.08141 11.8206 2.67789 12.2907 3.20414 12.7056C3.65289 13.0593 4.1168 13.4251 4.36508 14.0757C4.61039 14.7173 4.49242 15.16 4.32938 15.7729C4.19922 16.2618 4.05172 16.816 4.09648 17.5216C4.15696 18.2592 4.3738 18.9754 4.73258 19.6227H0.585938C0.430537 19.6227 0.281502 19.6844 0.171617 19.7943C0.0617325 19.9042 0 20.0532 0 20.2086C0 26.7708 4.30469 32.3456 10.2383 34.26V35.9337C10.2395 37.0118 10.6683 38.0454 11.4307 38.8077C12.193 39.57 13.2266 39.9989 14.3047 40.0001H25.6953C26.7734 39.9989 27.807 39.57 28.5693 38.8077C29.3317 38.0454 29.7605 37.0118 29.7617 35.9337V34.2662C32.7351 33.306 35.3276 31.4282 37.1671 28.9026C39.0066 26.3769 39.9984 23.3332 40 20.2087C40 20.0533 39.9383 19.9043 39.8284 19.7944C39.7185 19.6845 39.5695 19.6228 39.4141 19.6228ZM26.4563 11.7306C26.6235 11.5054 26.7715 11.4623 27.1746 11.3707C27.5868 11.2772 28.1513 11.1491 28.7828 10.6374C29.6997 9.89464 29.9195 9.04011 30.1136 8.28613C30.2691 7.68199 30.4033 7.16019 30.8704 6.67128C31.5396 5.97105 32.761 5.51066 33.8422 5.55199C34.3477 5.57128 34.7504 5.70589 34.9194 5.91207C35.1462 6.18894 35.003 6.70488 34.7403 7.52183C34.4009 8.57706 33.9786 9.89035 34.6935 11.2252C35.1019 11.9875 35.6734 12.364 36.1327 12.6666C36.5912 12.9687 36.7543 13.0978 36.7831 13.3611C36.816 13.6605 36.6433 13.8799 36.2109 14.3452C35.7605 14.83 35.1999 15.4335 34.987 16.43C34.7644 17.4722 35.0792 18.1872 35.357 18.8182C35.4791 19.0785 35.582 19.3474 35.6648 19.6227H31.2236C31.2994 19.3827 31.3736 19.1424 31.4462 18.9017L33.3995 17.8039C33.4666 17.7662 33.5256 17.7156 33.5731 17.6551C33.6207 17.5946 33.6558 17.5253 33.6766 17.4512C33.6974 17.3772 33.7034 17.2997 33.6942 17.2233C33.685 17.1469 33.6609 17.073 33.6232 17.006C33.5855 16.9389 33.535 16.8799 33.4744 16.8324C33.4139 16.7848 33.3447 16.7497 33.2706 16.7289C33.1965 16.7081 33.119 16.7021 33.0426 16.7113C32.9662 16.7205 32.8924 16.7446 32.8253 16.7823L31.8973 17.3039C32.2846 15.8415 32.6113 14.3525 32.8679 12.8642C32.8822 12.7878 32.8812 12.7094 32.865 12.6334C32.8487 12.5575 32.8176 12.4855 32.7732 12.4217C32.7289 12.3579 32.6724 12.3036 32.6068 12.2619C32.5413 12.2201 32.4682 12.1918 32.3916 12.1786C32.3151 12.1654 32.2367 12.1676 32.161 12.1849C32.0853 12.2023 32.0138 12.2346 31.9506 12.2798C31.8875 12.3251 31.834 12.3824 31.7932 12.4485C31.7525 12.5147 31.7253 12.5882 31.7132 12.665C31.5379 13.6787 31.3316 14.6868 31.0944 15.6879L30.5185 14.2889C30.4892 14.2178 30.4462 14.1531 30.3919 14.0986C30.3376 14.044 30.2731 14.0007 30.2021 13.9711C30.1311 13.9415 30.0549 13.9262 29.978 13.926C29.901 13.9259 29.8248 13.9409 29.7536 13.9702C29.6825 13.9994 29.6178 14.0425 29.5633 14.0968C29.5087 14.151 29.4654 14.2155 29.4358 14.2866C29.4062 14.3576 29.3909 14.4338 29.3907 14.5107C29.3906 14.5877 29.4056 14.6639 29.4348 14.735L30.6072 17.5831C30.583 17.67 30.5596 17.7572 30.5351 17.8438C30.4877 18.0107 30.4393 18.1772 30.3898 18.3435C30.389 18.3466 30.388 18.3496 30.3873 18.3526C30.2617 18.7774 30.1303 19.2007 29.993 19.6227H28.6587C28.6138 18.9266 28.3907 18.2538 28.0107 17.6689C27.6307 17.084 27.1066 16.6067 26.4888 16.2829C26.5187 16.1996 26.5473 16.1146 26.5727 16.0259C26.8935 14.9028 26.6523 13.9769 26.4586 13.233C26.2679 12.5007 26.1812 12.1014 26.4563 11.7307V11.7306ZM24.607 16.9907C25.3283 16.9917 26.0232 17.2622 26.5554 17.7492C27.0875 18.2361 27.4184 18.9044 27.4832 19.6228H22.7992C22.7652 19.0748 22.62 18.5395 22.3725 18.0495C22.6428 17.7179 22.9836 17.4508 23.3701 17.2677C23.7567 17.0845 24.1792 16.9899 24.607 16.9907H24.607ZM16.4411 7.62941C16.8213 7.90988 16.9703 8.23925 17.1589 8.65621C17.3933 9.17417 17.6848 9.81894 18.5037 10.2789C18.9172 10.5099 19.3804 10.6373 19.8538 10.6503C20.1477 10.6711 20.2379 10.6823 20.3588 10.7966C20.5496 10.9774 20.5471 11.1894 20.4915 11.7493C20.4338 12.3296 20.362 13.0518 20.7595 13.8716C21.1602 14.6968 21.7501 15.0221 22.2705 15.3091C22.6386 15.5121 22.9656 15.6927 23.2408 16.0557C22.6478 16.2665 22.1123 16.6131 21.6773 17.0678C21.299 16.6721 20.8443 16.3573 20.3407 16.1426C19.837 15.9279 19.295 15.8177 18.7476 15.8189C18.7066 15.8189 18.6662 15.8207 18.6255 15.822C18.5321 15.4502 18.3952 15.0908 18.2175 14.7512C17.6315 13.6385 16.8658 13.2014 16.1902 12.8157C15.5882 12.4719 15.1127 12.2004 14.7764 11.4724C14.4207 10.7023 14.492 9.99144 14.5612 9.30394C14.6313 8.60628 14.7095 7.8273 14.2323 7.15292C14.8946 7.05316 15.823 7.17378 16.4411 7.62941ZM21.6232 19.6227H15.8712C15.9346 18.9036 16.265 18.2343 16.7973 17.7468C17.3297 17.2593 18.0254 16.9889 18.7472 16.9889C19.4691 16.9889 20.1648 17.2593 20.6971 17.7468C21.2295 18.2343 21.5599 18.9036 21.6232 19.6227ZM3.92969 11.7853C3.43125 11.3924 3.22695 11.2025 3.21352 10.9016C3.20148 10.6371 3.34281 10.4843 3.74977 10.1149C4.1568 9.74535 4.66336 9.28542 4.94984 8.46972C5.45086 7.04081 4.83164 5.80808 4.33406 4.81761C3.94883 4.05074 3.72805 3.56292 3.90977 3.25433C4.04492 3.02464 4.42188 2.8298 4.9182 2.73292C5.97937 2.52605 7.25766 2.79269 8.02664 3.38167C8.56391 3.79308 8.7768 4.28808 9.02336 4.86121C9.33094 5.57621 9.67953 6.38652 10.6995 6.97941C11.4023 7.38769 11.9797 7.42753 12.4013 7.4566C12.8137 7.48503 12.9664 7.50496 13.1662 7.70191C13.4952 8.02597 13.471 8.43394 13.3953 9.18683C13.3184 9.9516 13.2228 10.9034 13.7127 11.9637C14.2061 13.0322 14.9516 13.4578 15.6094 13.8333C16.2235 14.184 16.7539 14.4868 17.1808 15.2972C17.3024 15.5294 17.3987 15.7739 17.4683 16.0266C16.7011 16.2826 16.0277 16.7614 15.534 17.402C15.0403 18.0425 14.7487 18.8157 14.6964 19.6227H12.8388C12.4922 19.0658 12.1576 18.5019 11.8352 17.9311L12.5577 14.9283C12.594 14.7772 12.5689 14.6179 12.4878 14.4853C12.4066 14.3528 12.2762 14.2579 12.1251 14.2215C11.974 14.1852 11.8146 14.2103 11.6821 14.2914C11.5495 14.3725 11.4546 14.503 11.4183 14.6541L11.0016 16.3861C10.5879 15.5831 10.1976 14.7666 9.83078 13.9368L10.4837 11.6725C10.5267 11.5232 10.5087 11.3629 10.4336 11.2269C10.3584 11.0908 10.2323 10.9902 10.083 10.9472C9.93369 10.9041 9.77338 10.9221 9.63735 10.9973C9.50132 11.0724 9.40071 11.1985 9.35766 11.3478L9.10906 12.21C8.74906 11.2969 8.41898 10.3741 8.11883 9.44152C8.09574 9.36772 8.05826 9.29922 8.00857 9.23997C7.95888 9.18072 7.89795 9.13189 7.8293 9.0963C7.76065 9.06071 7.68563 9.03906 7.60858 9.0326C7.53152 9.02614 7.45394 9.035 7.38032 9.05866C7.30671 9.08233 7.2385 9.12033 7.17964 9.17048C7.12077 9.22063 7.07242 9.28193 7.03736 9.35086C7.00231 9.41978 6.98124 9.49496 6.97538 9.57207C6.96951 9.64917 6.97897 9.72668 7.0032 9.80011C7.48354 11.2921 8.03814 12.7592 8.66492 14.1959C8.66919 14.2067 8.67378 14.2173 8.67867 14.2278C8.6925 14.2593 8.70602 14.291 8.71984 14.3227L7.57102 13.8932C7.49887 13.8659 7.42204 13.8531 7.34494 13.8555C7.26784 13.858 7.19198 13.8757 7.12172 13.9075C7.05146 13.9394 6.98819 13.9848 6.93552 14.0412C6.88286 14.0975 6.84184 14.1637 6.81483 14.236C6.78781 14.3082 6.77533 14.3851 6.7781 14.4622C6.78087 14.5393 6.79883 14.6151 6.83096 14.6852C6.86309 14.7553 6.90875 14.8184 6.96532 14.8709C7.02189 14.9233 7.08826 14.9641 7.16062 14.9908L9.41695 15.8343C9.60174 16.2174 9.79143 16.5977 9.98602 16.9751C10.1161 17.2269 10.2488 17.4777 10.3841 17.7275L8.99414 17.2078C8.92199 17.1805 8.84516 17.1678 8.76806 17.1702C8.69096 17.1727 8.6151 17.1904 8.54485 17.2222C8.47459 17.2541 8.41131 17.2995 8.35865 17.3558C8.30598 17.4122 8.26497 17.4784 8.23795 17.5507C8.21094 17.6229 8.19845 17.6998 8.20122 17.7769C8.20399 17.854 8.22196 17.9298 8.25408 17.9999C8.28621 18.07 8.33187 18.1331 8.38844 18.1856C8.44502 18.238 8.51139 18.2788 8.58375 18.3055L11.2814 19.314C11.3425 19.4171 11.4042 19.5199 11.4659 19.6227H6.10109C5.60406 18.8879 5.30914 18.1242 5.26609 17.4474C5.23344 16.9327 5.34438 16.5157 5.46187 16.0743C5.63922 15.408 5.84023 14.6528 5.46 13.6575C5.09641 12.705 4.44953 12.195 3.92969 11.7853ZM28.5899 35.9337C28.5891 36.7011 28.2838 37.4369 27.7411 37.9795C27.1985 38.5222 26.4627 38.8274 25.6953 38.8282H14.3047C13.5373 38.8274 12.8015 38.5221 12.2589 37.9795C11.7163 37.4368 11.411 36.7011 11.4102 35.9337V34.5857C12.5087 34.8414 13.633 34.9701 14.7609 34.9696H25.2391C26.3668 34.9701 27.491 34.8424 28.5898 34.5889L28.5899 35.9337ZM34.8483 29.8178C33.2379 31.4347 31.2445 32.6178 29.0537 33.2568C29.0285 33.2623 29.0037 33.2695 28.9795 33.2782C27.7628 33.6239 26.504 33.7987 25.2391 33.7978H14.7609C7.46406 33.7978 1.49211 28.0171 1.18438 20.7946H38.8158C38.6786 24.1951 37.2614 27.418 34.8483 29.8178Z" fill="#64FFDA"/>
</g>
<defs>
<clipPath id="clip0_113_835">
<rect width="40" height="40" fill="white"/>
</clipPath>
</defs>
</svg>
