<svg width="500" height="500" viewBox="0 0 500 500" fill="none" xmlns="http://www.w3.org/2000/svg">
<circle cx="250" cy="250" r="250" fill="#64FFDA" fill-opacity="0.16"/>
<g clip-path="url(#clip0_9_567)">
<path d="M321.875 196.914C321.875 177.852 314.302 159.57 300.823 146.091C287.344 132.612 269.062 125.039 250 125.039C230.938 125.039 212.656 132.612 199.177 146.091C185.698 159.57 178.125 177.852 178.125 196.914C178.125 236.602 250 336.953 250 336.953C250 336.953 321.875 236.602 321.875 196.914ZM203.125 196.914C203.125 187.643 205.874 178.58 211.025 170.872C216.176 163.163 223.496 157.155 232.062 153.607C240.627 150.059 250.052 149.131 259.145 150.94C268.238 152.748 276.59 157.213 283.146 163.768C289.701 170.324 294.166 178.676 295.974 187.769C297.783 196.862 296.855 206.287 293.307 214.852C289.759 223.418 283.751 230.739 276.042 235.889C268.334 241.04 259.271 243.789 250 243.789C237.568 243.789 225.645 238.85 216.854 230.06C208.064 221.269 203.125 209.346 203.125 196.914Z" fill="#054141"/>
<path d="M286.172 292.969C280.781 301.758 275.547 309.883 270.938 316.836C290.469 319.492 304.141 325.742 304.141 333.086C304.141 342.773 279.922 350.664 250 350.664C220.078 350.664 195.859 342.852 195.859 333.086C195.859 325.703 209.609 319.453 229.102 316.836C224.492 309.883 219.258 301.719 213.867 292.93C166.602 298.281 132.461 314.141 132.461 332.93C132.461 356.172 185.078 375 250 375C314.922 375 367.539 356.172 367.539 332.93C367.539 314.141 333.398 298.281 286.172 292.969Z" fill="#054141"/>
</g>
<defs>
<clipPath id="clip0_9_567">
<rect width="250" height="250" fill="white" transform="translate(125 125)"/>
</clipPath>
</defs>
</svg>
